  0
SECTION
  2
HEADER
  9
$ACADVER
  1
AC1024
  9
$ACADMAINTVER
 70
6
  9
$DWGCODEPAGE
  3
ANSI_1252
  9
$LASTSAVEDBY
  1
ezdxf
  9
$INSBASE
 10
0.0
 20
0.0
 30
0.0
  9
$EXTMIN
 10
1e+20
 20
1e+20
 30
1e+20
  9
$EXTMAX
 10
-1e+20
 20
-1e+20
 30
-1e+20
  9
$LIMMIN
 10
0.0
 20
0.0
  9
$LIMMAX
 10
420.0
 20
297.0
  9
$ORTHOMODE
 70
0
  9
$REGENMODE
 70
1
  9
$FILLMODE
 70
1
  9
$QTEXTMODE
 70
0
  9
$MIRRTEXT
 70
1
  9
$LTSCALE
 40
1.0
  9
$ATTMODE
 70
1
  9
$TEXTSIZE
 40
2.5
  9
$TRACEWID
 40
1.0
  9
$TEXTSTYLE
  7
OpenSans
  9
$CLAYER
  8
0
  9
$CELTYPE
  6
ByLayer
  9
$CECOLOR
 62
256
  9
$CELTSCALE
 40
1.0
  9
$DISPSILH
 70
0
  9
$DIMSCALE
 40
1.0
  9
$DIMASZ
 40
0.175
  9
$DIMEXO
 40
0.125
  9
$DIMDLI
 40
3.75
  9
$DIMRND
 40
0.0
  9
$DIMDLE
 40
0.0
  9
$DIMEXE
 40
0.375
  9
$DIMTP
 40
0.0
  9
$DIMTM
 40
0.0
  9
$DIMTXT
 40
0.25
  9
$DIMCEN
 40
2.5
  9
$DIMTSZ
 40
0.0
  9
$DIMTOL
 70
0
  9
$DIMLIM
 70
0
  9
$DIMTIH
 70
0
  9
$DIMTOH
 70
0
  9
$DIMSE1
 70
0
  9
$DIMSE2
 70
0
  9
$DIMTAD
 70
1
  9
$DIMZIN
 70
12
  9
$DIMBLK
  1
ARCHTICK
  9
$DIMASO
 70
1
  9
$DIMSHO
 70
1
  9
$DIMPOST
  1

  9
$DIMAPOST
  1

  9
$DIMALT
 70
0
  9
$DIMALTD
 70
3
  9
$DIMALTF
 40
0.03937007874
  9
$DIMLFAC
 40
100.0
  9
$DIMTOFL
 70
1
  9
$DIMTVP
 40
0.0
  9
$DIMTIX
 70
0
  9
$DIMSOXD
 70
0
  9
$DIMSAH
 70
0
  9
$DIMBLK1
  1

  9
$DIMBLK2
  1

  9
$DIMSTYLE
  2
EZDXF
  9
$DIMCLRD
 70
0
  9
$DIMCLRE
 70
0
  9
$DIMCLRT
 70
0
  9
$DIMTFAC
 40
0.5
  9
$DIMGAP
 40
0.1
  9
$DIMJUST
 70
0
  9
$DIMSD1
 70
0
  9
$DIMSD2
 70
0
  9
$DIMTOLJ
 70
0
  9
$DIMTZIN
 70
8
  9
$DIMALTZ
 70
0
  9
$DIMALTTZ
 70
0
  9
$DIMUPT
 70
1
  9
$DIMDEC
 70
2
  9
$DIMTDEC
 70
2
  9
$DIMALTU
 70
2
  9
$DIMALTTD
 70
3
  9
$DIMTXSTY
  7
OpenSansCondensed-Light
  9
$DIMAUNIT
 70
0
  9
$DIMADEC
 70
2
  9
$DIMALTRND
 40
0.0
  9
$DIMAZIN
 70
3
  9
$DIMDSEP
 70
46
  9
$DIMATFIT
 70
3
  9
$DIMFRAC
 70
0
  9
$DIMLDRBLK
  1

  9
$DIMLUNIT
 70
2
  9
$DIMLWD
 70
-2
  9
$DIMLWE
 70
-2
  9
$DIMTMOVE
 70
2
  9
$DIMFXL
 40
1.0
  9
$DIMFXLON
 70
0
  9
$DIMJOGANG
 40
0.785398163397
  9
$DIMTFILL
 70
0
  9
$DIMTFILLCLR
 70
0
  9
$DIMARCSYM
 70
0
  9
$DIMLTYPE
  6

  9
$DIMLTEX1
  6

  9
$DIMLTEX2
  6

  9
$DIMTXTDIRECTION
 70
0
  9
$LUNITS
 70
2
  9
$LUPREC
 70
4
  9
$SKETCHINC
 40
1.0
  9
$FILLETRAD
 40
10.0
  9
$AUNITS
 70
0
  9
$AUPREC
 70
2
  9
$MENU
  1
.
  9
$ELEVATION
 40
0.0
  9
$PELEVATION
 40
0.0
  9
$THICKNESS
 40
0.0
  9
$LIMCHECK
 70
0
  9
$CHAMFERA
 40
0.0
  9
$CHAMFERB
 40
0.0
  9
$CHAMFERC
 40
0.0
  9
$CHAMFERD
 40
0.0
  9
$SKPOLY
 70
0
  9
$TDCREATE
 40
2461321.4761226852
  9
$TDUCREATE
 40
2458532.153996898
  9
$TDUPDATE
 40
2461321.4761226852
  9
$TDUUPDATE
 40
2458532.1544311
  9
$TDINDWG
 40
0.0
  9
$TDUSRTIMER
 40
0.0
  9
$USRTIMER
 70
1
  9
$ANGBASE
 50
0.0
  9
$ANGDIR
 70
0
  9
$PDMODE
 70
0
  9
$PDSIZE
 40
0.0
  9
$PLINEWID
 40
0.0
  9
$SPLFRAME
 70
0
  9
$SPLINETYPE
 70
6
  9
$SPLINESEGS
 70
8
  9
$HANDSEED
  5
180
  9
$SURFTAB1
 70
6
  9
$SURFTAB2
 70
6
  9
$SURFTYPE
 70
6
  9
$SURFU
 70
6
  9
$SURFV
 70
6
  9
$UCSBASE
  2

  9
$UCSNAME
  2

  9
$UCSORG
 10
0.0
 20
0.0
 30
0.0
  9
$UCSXDIR
 10
1.0
 20
0.0
 30
0.0
  9
$UCSYDIR
 10
0.0
 20
1.0
 30
0.0
  9
$UCSORTHOREF
  2

  9
$UCSORTHOVIEW
 70
0
  9
$UCSORGTOP
 10
0.0
 20
0.0
 30
0.0
  9
$UCSORGBOTTOM
 10
0.0
 20
0.0
 30
0.0
  9
$UCSORGLEFT
 10
0.0
 20
0.0
 30
0.0
  9
$UCSORGRIGHT
 10
0.0
 20
0.0
 30
0.0
  9
$UCSORGFRONT
 10
0.0
 20
0.0
 30
0.0
  9
$UCSORGBACK
 10
0.0
 20
0.0
 30
0.0
  9
$PUCSBASE
  2

  9
$PUCSNAME
  2

  9
$PUCSORG
 10
0.0
 20
0.0
 30
0.0
  9
$PUCSXDIR
 10
1.0
 20
0.0
 30
0.0
  9
$PUCSYDIR
 10
0.0
 20
1.0
 30
0.0
  9
$PUCSORTHOREF
  2

  9
$PUCSORTHOVIEW
 70
0
  9
$PUCSORGTOP
 10
0.0
 20
0.0
 30
0.0
  9
$PUCSORGBOTTOM
 10
0.0
 20
0.0
 30
0.0
  9
$PUCSORGLEFT
 10
0.0
 20
0.0
 30
0.0
  9
$PUCSORGRIGHT
 10
0.0
 20
0.0
 30
0.0
  9
$PUCSORGFRONT
 10
0.0
 20
0.0
 30
0.0
  9
$PUCSORGBACK
 10
0.0
 20
0.0
 30
0.0
  9
$USERI1
 70
0
  9
$USERI2
 70
0
  9
$USERI3
 70
0
  9
$USERI4
 70
0
  9
$USERI5
 70
0
  9
$USERR1
 40
0.0
  9
$USERR2
 40
0.0
  9
$USERR3
 40
0.0
  9
$USERR4
 40
0.0
  9
$USERR5
 40
0.0
  9
$WORLDVIEW
 70
1
  9
$SHADEDGE
 70
3
  9
$SHADEDIF
 70
70
  9
$TILEMODE
 70
1
  9
$MAXACTVP
 70
64
  9
$PINSBASE
 10
0.0
 20
0.0
 30
0.0
  9
$PLIMCHECK
 70
0
  9
$PEXTMIN
 10
1e+20
 20
1e+20
 30
1e+20
  9
$PEXTMAX
 10
-1e+20
 20
-1e+20
 30
-1e+20
  9
$PLIMMIN
 10
0.0
 20
0.0
  9
$PLIMMAX
 10
420.0
 20
297.0
  9
$UNITMODE
 70
0
  9
$VISRETAIN
 70
1
  9
$PLINEGEN
 70
0
  9
$PSLTSCALE
 70
1
  9
$TREEDEPTH
 70
3020
  9
$CMLSTYLE
  2
Standard
  9
$CMLJUST
 70
0
  9
$CMLSCALE
 40
20.0
  9
$PROXYGRAPHICS
 70
1
  9
$MEASUREMENT
 70
1
  9
$CELWEIGHT
370
-1
  9
$ENDCAPS
280
0
  9
$JOINSTYLE
280
0
  9
$LWDISPLAY
290
0
  9
$INSUNITS
 70
4
  9
$HYPERLINKBASE
  1

  9
$STYLESHEET
  1

  9
$XEDIT
290
1
  9
$CEPSNTYPE
380
0
  9
$PSTYLEMODE
290
1
  9
$FINGERPRINTGUID
  2
{0791319B-2EFC-4419-BF54-E3B59F20446A}
  9
$VERSIONGUID
  2
{0A6151B1-23B8-4D17-9E14-15815858BE26}
  9
$EXTNAMES
290
1
  9
$PSVPSCALE
 40
0.0
  9
$OLESTARTUP
290
0
  9
$SORTENTS
280
127
  9
$INDEXCTL
280
0
  9
$HIDETEXT
280
1
  9
$XCLIPFRAME
280
1
  9
$HALOGAP
280
0
  9
$OBSCOLOR
 70
257
  9
$OBSLTYPE
280
0
  9
$INTERSECTIONDISPLAY
280
0
  9
$INTERSECTIONCOLOR
 70
257
  9
$DIMASSOC
280
2
  9
$PROJECTNAME
  1

  9
$CAMERADISPLAY
290
0
  9
$LENSLENGTH
 40
50.0
  9
$CAMERAHEIGHT
 40
0.0
  9
$STEPSPERSEC
 40
24.0
  9
$STEPSIZE
 40
100.0
  9
$3DDWFPREC
 40
2.0
  9
$PSOLWIDTH
 40
0.005
  9
$PSOLHEIGHT
 40
0.08
  9
$LOFTANG1
 40
1.570796326795
  9
$LOFTANG2
 40
1.570796326795
  9
$LOFTMAG1
 40
0.0
  9
$LOFTMAG2
 40
0.0
  9
$LOFTPARAM
 70
7
  9
$LOFTNORMALS
280
1
  9
$LATITUDE
 40
37.795
  9
$LONGITUDE
 40
-122.394
  9
$NORTHDIRECTION
 40
0.0
  9
$TIMEZONE
 70
-8000
  9
$LIGHTGLYPHDISPLAY
280
1
  9
$TILEMODELIGHTSYNCH
280
1
  9
$CMATERIAL
347
20
  9
$SOLIDHIST
280
0
  9
$SHOWHIST
280
1
  9
$DWFFRAME
280
2
  9
$DGNFRAME
280
2
  9
$REALWORLDSCALE
290
1
  9
$INTERFERECOLOR
 62
256
  9
$CSHADOW
280
0
  9
$SHADOWPLANELOCATION
 40
0.0
  0
ENDSEC
  0
SECTION
  2
CLASSES
  0
CLASS
  1
ACDBDICTIONARYWDFLT
  2
AcDbDictionaryWithDefault
  3
ObjectDBX Classes
 90
0
 91
0
280
0
281
0
  0
CLASS
  1
SUN
  2
AcDbSun
  3
SCENEOE
 90
1153
 91
0
280
0
281
0
  0
CLASS
  1
VISUALSTYLE
  2
AcDbVisualStyle
  3
ObjectDBX Classes
 90
4095
 91
0
280
0
281
0
  0
CLASS
  1
MATERIAL
  2
AcDbMaterial
  3
ObjectDBX Classes
 90
1153
 91
0
280
0
281
0
  0
CLASS
  1
SCALE
  2
AcDbScale
  3
ObjectDBX Classes
 90
1153
 91
0
280
0
281
0
  0
CLASS
  1
TABLESTYLE
  2
AcDbTableStyle
  3
ObjectDBX Classes
 90
4095
 91
0
280
0
281
0
  0
CLASS
  1
MLEADERSTYLE
  2
AcDbMLeaderStyle
  3
ACDB_MLEADERSTYLE_CLASS
 90
4095
 91
0
280
0
281
0
  0
CLASS
  1
DICTIONARYVAR
  2
AcDbDictionaryVar
  3
ObjectDBX Classes
 90
0
 91
0
280
0
281
0
  0
CLASS
  1
CELLSTYLEMAP
  2
AcDbCellStyleMap
  3
ObjectDBX Classes
 90
1152
 91
0
280
0
281
0
  0
CLASS
  1
MENTALRAYRENDERSETTINGS
  2
AcDbMentalRayRenderSettings
  3
SCENEOE
 90
1024
 91
0
280
0
281
0
  0
CLASS
  1
ACDBDETAILVIEWSTYLE
  2
AcDbDetailViewStyle
  3
ObjectDBX Classes
 90
1025
 91
0
280
0
281
0
  0
CLASS
  1
ACDBSECTIONVIEWSTYLE
  2
AcDbSectionViewStyle
  3
ObjectDBX Classes
 90
1025
 91
0
280
0
281
0
  0
CLASS
  1
RASTERVARIABLES
  2
AcDbRasterVariables
  3
ISM
 90
0
 91
0
280
0
281
0
  0
CLASS
  1
ACDBPLACEHOLDER
  2
AcDbPlaceHolder
  3
ObjectDBX Classes
 90
0
 91
0
280
0
281
0
  0
CLASS
  1
LAYOUT
  2
AcDbLayout
  3
ObjectDBX Classes
 90
0
 91
0
280
0
281
0
  0
ENDSEC
  0
SECTION
  2
TABLES
  0
TABLE
  2
VPORT
  5
8
330
0
100
AcDbSymbolTable
 70
1
  0
VPORT
  5
23
330
8
100
AcDbSymbolTableRecord
100
AcDbViewportTableRecord
  2
*Active
 70
0
 10
0.0
 20
0.0
 11
1.0
 21
1.0
 12
0.0
 22
0.0
 13
0.0
 23
0.0
 14
0.5
 24
0.5
 15
0.5
 25
0.5
 16
0.0
 26
0.0
 36
1.0
 17
0.0
 27
0.0
 37
0.0
 40
1000.0
 41
1.34
 42
50.0
 43
0.0
 44
0.0
 50
0.0
 51
0.0
 71
0
 72
1000
 73
1
 74
3
 75
0
 76
0
 77
0
 78
0
281
0
 65
0
146
0.0
  0
ENDTAB
  0
TABLE
  2
LTYPE
  5
2
330
0
100
AcDbSymbolTable
 70
21
  0
LTYPE
  5
24
330
2
100
AcDbSymbolTableRecord
100
AcDbLinetypeTableRecord
  2
ByBlock
 70
0
  3

 72
65
 73
0
 40
0.0
  0
LTYPE
  5
25
330
2
100
AcDbSymbolTableRecord
100
AcDbLinetypeTableRecord
  2
ByLayer
 70
0
  3

 72
65
 73
0
 40
0.0
  0
LTYPE
  5
26
330
2
100
AcDbSymbolTableRecord
100
AcDbLinetypeTableRecord
  2
Continuous
 70
0
  3

 72
65
 73
0
 40
0.0
  0
LTYPE
  5
2F
330
2
100
AcDbSymbolTableRecord
100
AcDbLinetypeTableRecord
  2
CENTER
 70
0
  3
Center ____ _ ____ _ ____ _ ____ _ ____ _ ____
 72
65
 73
4
 40
5.08
 49
3.175
 74
0
 49
-0.635
 74
0
 49
0.635
 74
0
 49
-0.635
 74
0
  0
LTYPE
  5
30
330
2
100
AcDbSymbolTableRecord
100
AcDbLinetypeTableRecord
  2
CENTERX2
 70
0
  3
Center (2x) ________  __  ________  __  ________
 72
65
 73
4
 40
8.89
 49
6.35
 74
0
 49
-0.635
 74
0
 49
1.27
 74
0
 49
-0.635
 74
0
  0
LTYPE
  5
31
330
2
100
AcDbSymbolTableRecord
100
AcDbLinetypeTableRecord
  2
CENTER2
 70
0
  3
Center (.5x) ____ _ ____ _ ____ _ ____ _ ____
 72
65
 73
4
 40
2.54
 49
1.587
 74
0
 49
-0.318
 74
0
 49
0.318
 74
0
 49
-0.318
 74
0
  0
LTYPE
  5
32
330
2
100
AcDbSymbolTableRecord
100
AcDbLinetypeTableRecord
  2
DASHED
 70
0
  3
Dashed __ __ __ __ __ __ __ __ __ __ __ __ __ _
 72
65
 73
2
 40
1.524
 49
1.27
 74
0
 49
-0.254
 74
0
  0
LTYPE
  5
33
330
2
100
AcDbSymbolTableRecord
100
AcDbLinetypeTableRecord
  2
DASHEDX2
 70
0
  3
Dashed (2x) ____  ____  ____  ____  ____  ____
 72
65
 73
2
 40
3.048
 49
2.54
 74
0
 49
-0.508
 74
0
  0
LTYPE
  5
34
330
2
100
AcDbSymbolTableRecord
100
AcDbLinetypeTableRecord
  2
DASHED2
 70
0
  3
Dashed (.5x) _ _ _ _ _ _ _ _ _ _ _ _ _ _
 72
65
 73
2
 40
0.762
 49
0.635
 74
0
 49
-0.127
 74
0
  0
LTYPE
  5
35
330
2
100
AcDbSymbolTableRecord
100
AcDbLinetypeTableRecord
  2
PHANTOM
 70
0
  3
Phantom ______  __  __  ______  __  __  ______
 72
65
 73
6
 40
6.35
 49
3.175
 74
0
 49
-0.635
 74
0
 49
0.635
 74
0
 49
-0.635
 74
0
 49
0.635
 74
0
 49
-0.635
 74
0
  0
LTYPE
  5
36
330
2
100
AcDbSymbolTableRecord
100
AcDbLinetypeTableRecord
  2
PHANTOMX2
 70
0
  3
Phantom (2x)____________    ____    ____    ____________
 72
65
 73
6
 40
10.795
 49
6.35
 74
0
 49
-0.635
 74
0
 49
1.27
 74
0
 49
-0.635
 74
0
 49
1.27
 74
0
 49
-0.635
 74
0
  0
LTYPE
  5
37
330
2
100
AcDbSymbolTableRecord
100
AcDbLinetypeTableRecord
  2
PHANTOM2
 70
0
  3
Phantom (.5x) ___ _ _ ___ _ _ ___ _ _ ___ _ _ ___
 72
65
 73
6
 40
3.175
 49
1.587
 74
0
 49
-0.318
 74
0
 49
0.318
 74
0
 49
-0.318
 74
0
 49
0.318
 74
0
 49
-0.318
 74
0
  0
LTYPE
  5
38
330
2
100
AcDbSymbolTableRecord
100
AcDbLinetypeTableRecord
  2
DASHDOT
 70
0
  3
Dash dot __ . __ . __ . __ . __ . __ . __ . __
 72
65
 73
4
 40
3.556
 49
2.54
 74
0
 49
-0.508
 74
0
 49
0.0
 74
0
 49
-0.508
 74
0
  0
LTYPE
  5
39
330
2
100
AcDbSymbolTableRecord
100
AcDbLinetypeTableRecord
  2
DASHDOTX2
 70
0
  3
Dash dot (2x) ____  .  ____  .  ____  .  ____
 72
65
 73
4
 40
6.096
 49
5.08
 74
0
 49
-0.508
 74
0
 49
0.0
 74
0
 49
-0.508
 74
0
  0
LTYPE
  5
3A
330
2
100
AcDbSymbolTableRecord
100
AcDbLinetypeTableRecord
  2
DASHDOT2
 70
0
  3
Dash dot (.5x) _ . _ . _ . _ . _ . _ . _ . _
 72
65
 73
4
 40
1.778
 49
1.27
 74
0
 49
-0.254
 74
0
 49
0.0
 74
0
 49
-0.254
 74
0
  0
LTYPE
  5
3B
330
2
100
AcDbSymbolTableRecord
100
AcDbLinetypeTableRecord
  2
DOT
 70
0
  3
Dot .  .  .  .  .  .  .  .  .  .  .  .  .  .  .  .
 72
65
 73
2
 40
0.508
 49
0.0
 74
0
 49
-0.508
 74
0
  0
LTYPE
  5
3C
330
2
100
AcDbSymbolTableRecord
100
AcDbLinetypeTableRecord
  2
DOTX2
 70
0
  3
Dot (2x) .    .    .    .    .    .    .    . 
 72
65
 73
2
 40
1.016
 49
0.0
 74
0
 49
-1.016
 74
0
  0
LTYPE
  5
3D
330
2
100
AcDbSymbolTableRecord
100
AcDbLinetypeTableRecord
  2
DOT2
 70
0
  3
Dot (.5) . . . . . . . . . . . . . . . . . . . 
 72
65
 73
2
 40
0.254
 49
0.0
 74
0
 49
-0.254
 74
0
  0
LTYPE
  5
3E
330
2
100
AcDbSymbolTableRecord
100
AcDbLinetypeTableRecord
  2
DIVIDE
 70
0
  3
Divide __ . . __ . . __ . . __ . . __ . . __
 72
65
 73
6
 40
4.064
 49
2.54
 74
0
 49
-0.508
 74
0
 49
0.0
 74
0
 49
-0.508
 74
0
 49
0.0
 74
0
 49
-0.508
 74
0
  0
LTYPE
  5
3F
330
2
100
AcDbSymbolTableRecord
100
AcDbLinetypeTableRecord
  2
DIVIDEX2
 70
0
  3
Divide (2x) ____  . .  ____  . .  ____  . .  ____
 72
65
 73
6
 40
6.604
 49
5.08
 74
0
 49
-0.508
 74
0
 49
0.0
 74
0
 49
-0.508
 74
0
 49
0.0
 74
0
 49
-0.508
 74
0
  0
LTYPE
  5
40
330
2
100
AcDbSymbolTableRecord
100
AcDbLinetypeTableRecord
  2
DIVIDE2
 70
0
  3
Divide(.5x) _ . _ . _ . _ . _ . _ . _ . _
 72
65
 73
6
 40
2.032
 49
1.27
 74
0
 49
-0.254
 74
0
 49
0.0
 74
0
 49
-0.254
 74
0
 49
0.0
 74
0
 49
-0.254
 74
0
  0
ENDTAB
  0
TABLE
  2
LAYER
  5
1
330
0
100
AcDbSymbolTable
 70
10
  0
LAYER
  5
27
330
1
100
AcDbSymbolTableRecord
100
AcDbLayerTableRecord
  2
0
 70
0
 62
7
  6
Continuous
370
-3
390
13
347
21
  0
LAYER
  5
28
330
1
100
AcDbSymbolTableRecord
100
AcDbLayerTableRecord
  2
Defpoints
 70
0
 62
7
  6
Continuous
290
0
370
-3
390
13
347
21
  0
LAYER
  5
8A
330
1
100
AcDbSymbolTableRecord
100
AcDbLayerTableRecord
  2
PIPE
 70
0
 62
3
  6
Continuous
370
-3
390
13
347
21
  0
LAYER
  5
8B
330
1
100
AcDbSymbolTableRecord
100
AcDbLayerTableRecord
  2
BOX
 70
0
 62
1
  6
Continuous
370
-3
390
13
347
21
  0
LAYER
  5
8C
330
1
100
AcDbSymbolTableRecord
100
AcDbLayerTableRecord
  2
CAR
 70
0
 62
8
  6
Continuous
370
-3
390
13
347
21
  0
LAYER
  5
8D
330
1
100
AcDbSymbolTableRecord
100
AcDbLayerTableRecord
  2
DIM
 70
0
 62
5
  6
Continuous
370
-3
390
13
347
21
  0
LAYER
  5
8E
330
1
100
AcDbSymbolTableRecord
100
AcDbLayerTableRecord
  2
HANGER
 70
0
 62
6
  6
Continuous
370
-3
390
13
347
21
  0
LAYER
  5
8F
330
1
100
AcDbSymbolTableRecord
100
AcDbLayerTableRecord
  2
TEXT
 70
0
 62
7
  6
Continuous
370
-3
390
13
347
21
  0
LAYER
  5
90
330
1
100
AcDbSymbolTableRecord
100
AcDbLayerTableRecord
  2
RES
 70
0
 62
4
  6
Continuous
370
-3
390
13
347
21
  0
LAYER
  5
91
330
1
100
AcDbSymbolTableRecord
100
AcDbLayerTableRecord
  2
BEND
 70
0
 62
2
  6
Continuous
370
-3
390
13
347
21
  0
ENDTAB
  0
TABLE
  2
STYLE
  5
5
330
0
100
AcDbSymbolTable
 70
26
  0
STYLE
  5
29
330
5
100
AcDbSymbolTableRecord
100
AcDbTextStyleTableRecord
  2
Standard
 70
0
 40
0.0
 41
1.0
 50
0.0
 71
0
 42
2.5
  3
txt
  4

  0
STYLE
  5
41
330
5
100
AcDbSymbolTableRecord
100
AcDbTextStyleTableRecord
  2
OpenSans-Light
 70
0
 40
0.0
 41
1.0
 50
0.0
 71
0
 42
2.5
  3
OpenSans-Light.ttf
  4

  0
STYLE
  5
42
330
5
100
AcDbSymbolTableRecord
100
AcDbTextStyleTableRecord
  2
OpenSans-Light-Italic
 70
0
 40
0.0
 41
1.0
 50
0.0
 71
0
 42
2.5
  3
OpenSans-LightItalic.ttf
  4

  0
STYLE
  5
43
330
5
100
AcDbSymbolTableRecord
100
AcDbTextStyleTableRecord
  2
OpenSans
 70
0
 40
0.0
 41
1.0
 50
0.0
 71
0
 42
2.5
  3
OpenSans-Regular.ttf
  4

  0
STYLE
  5
44
330
5
100
AcDbSymbolTableRecord
100
AcDbTextStyleTableRecord
  2
OpenSans-Italic
 70
0
 40
0.0
 41
1.0
 50
0.0
 71
0
 42
2.5
  3
OpenSans-Italic.ttf
  4

  0
STYLE
  5
45
330
5
100
AcDbSymbolTableRecord
100
AcDbTextStyleTableRecord
  2
OpenSans-SemiBold
 70
0
 40
0.0
 41
1.0
 50
0.0
 71
0
 42
2.5
  3
OpenSans-SemiBold.ttf
  4

  0
STYLE
  5
46
330
5
100
AcDbSymbolTableRecord
100
AcDbTextStyleTableRecord
  2
OpenSans-SemiBoldItalic
 70
0
 40
0.0
 41
1.0
 50
0.0
 71
0
 42
2.5
  3
OpenSans-SemiBoldItalic.ttf
  4

  0
STYLE
  5
47
330
5
100
AcDbSymbolTableRecord
100
AcDbTextStyleTableRecord
  2
OpenSans-Bold
 70
0
 40
0.0
 41
1.0
 50
0.0
 71
0
 42
2.5
  3
OpenSans-Bold.ttf
  4

  0
STYLE
  5
48
330
5
100
AcDbSymbolTableRecord
100
AcDbTextStyleTableRecord
  2
OpenSans-BoldItalic
 70
0
 40
0.0
 41
1.0
 50
0.0
 71
0
 42
2.5
  3
OpenSans-BoldItalic.ttf
  4

  0
STYLE
  5
49
330
5
100
AcDbSymbolTableRecord
100
AcDbTextStyleTableRecord
  2
OpenSans-ExtraBold
 70
0
 40
0.0
 41
1.0
 50
0.0
 71
0
 42
2.5
  3
OpenSans-ExtraBold.ttf
  4

  0
STYLE
  5
4A
330
5
100
AcDbSymbolTableRecord
100
AcDbTextStyleTableRecord
  2
OpenSans-ExtraBoldItalic
 70
0
 40
0.0
 41
1.0
 50
0.0
 71
0
 42
2.5
  3
OpenSans-ExtraBoldItalic.ttf
  4

  0
STYLE
  5
4B
330
5
100
AcDbSymbolTableRecord
100
AcDbTextStyleTableRecord
  2
OpenSansCondensed-Bold
 70
0
 40
0.0
 41
1.0
 50
0.0
 71
0
 42
2.5
  3
OpenSansCondensed-Bold.ttf
  4

  0
STYLE
  5
4C
330
5
100
AcDbSymbolTableRecord
100
AcDbTextStyleTableRecord
  2
OpenSansCondensed-Light
 70
0
 40
0.0
 41
1.0
 50
0.0
 71
0
 42
2.5
  3
OpenSansCondensed-Light.ttf
  4

  0
STYLE
  5
4D
330
5
100
AcDbSymbolTableRecord
100
AcDbTextStyleTableRecord
  2
OpenSansCondensed-Italic
 70
0
 40
0.0
 41
1.0
 50
0.0
 71
0
 42
2.5
  3
OpenSansCondensed-LightItalic.ttf
  4

  0
STYLE
  5
4E
330
5
100
AcDbSymbolTableRecord
100
AcDbTextStyleTableRecord
  2
LiberationSans
 70
0
 40
0.0
 41
1.0
 50
0.0
 71
0
 42
2.5
  3
LiberationSans-Regular.ttf
  4

  0
STYLE
  5
4F
330
5
100
AcDbSymbolTableRecord
100
AcDbTextStyleTableRecord
  2
LiberationSans-Bold
 70
0
 40
0.0
 41
1.0
 50
0.0
 71
0
 42
2.5
  3
LiberationSans-Bold.ttf
  4

  0
STYLE
  5
50
330
5
100
AcDbSymbolTableRecord
100
AcDbTextStyleTableRecord
  2
LiberationSans-BoldItalic
 70
0
 40
0.0
 41
1.0
 50
0.0
 71
0
 42
2.5
  3
LiberationSans-BoldItalic.ttf
  4

  0
STYLE
  5
51
330
5
100
AcDbSymbolTableRecord
100
AcDbTextStyleTableRecord
  2
LiberationSans-Italic
 70
0
 40
0.0
 41
1.0
 50
0.0
 71
0
 42
2.5
  3
LiberationSans-Italic.ttf
  4

  0
STYLE
  5
52
330
5
100
AcDbSymbolTableRecord
100
AcDbTextStyleTableRecord
  2
LiberationSerif
 70
0
 40
0.0
 41
1.0
 50
0.0
 71
0
 42
2.5
  3
LiberationSerif-Regular.ttf
  4

  0
STYLE
  5
53
330
5
100
AcDbSymbolTableRecord
100
AcDbTextStyleTableRecord
  2
LiberationSerif-Bold
 70
0
 40
0.0
 41
1.0
 50
0.0
 71
0
 42
2.5
  3
LiberationSerif-Bold.ttf
  4

  0
STYLE
  5
54
330
5
100
AcDbSymbolTableRecord
100
AcDbTextStyleTableRecord
  2
LiberationSerif-BoldItalic
 70
0
 40
0.0
 41
1.0
 50
0.0
 71
0
 42
2.5
  3
LiberationSerif-BoldItalic.ttf
  4

  0
STYLE
  5
55
330
5
100
AcDbSymbolTableRecord
100
AcDbTextStyleTableRecord
  2
LiberationSerif-Italic
 70
0
 40
0.0
 41
1.0
 50
0.0
 71
0
 42
2.5
  3
LiberationSerif-Italic.ttf
  4

  0
STYLE
  5
56
330
5
100
AcDbSymbolTableRecord
100
AcDbTextStyleTableRecord
  2
LiberationMono
 70
0
 40
0.0
 41
1.0
 50
0.0
 71
0
 42
2.5
  3
LiberationMono-Regular.ttf
  4

  0
STYLE
  5
57
330
5
100
AcDbSymbolTableRecord
100
AcDbTextStyleTableRecord
  2
LiberationMono-Bold
 70
0
 40
0.0
 41
1.0
 50
0.0
 71
0
 42
2.5
  3
LiberationMono-Bold.ttf
  4

  0
STYLE
  5
58
330
5
100
AcDbSymbolTableRecord
100
AcDbTextStyleTableRecord
  2
LiberationMono-BoldItalic
 70
0
 40
0.0
 41
1.0
 50
0.0
 71
0
 42
2.5
  3
LiberationMono-BoldItalic.ttf
  4

  0
STYLE
  5
59
330
5
100
AcDbSymbolTableRecord
100
AcDbTextStyleTableRecord
  2
LiberationMono-Italic
 70
0
 40
0.0
 41
1.0
 50
0.0
 71
0
 42
2.5
  3
LiberationMono-Italic.ttf
  4

  0
ENDTAB
  0
TABLE
  2
VIEW
  5
7
330
0
100
AcDbSymbolTable
 70
0
  0
ENDTAB
  0
TABLE
  2
UCS
  5
6
330
0
100
AcDbSymbolTable
 70
0
  0
ENDTAB
  0
TABLE
  2
APPID
  5
3
330
0
100
AcDbSymbolTable
 70
3
  0
APPID
  5
2A
330
3
100
AcDbSymbolTableRecord
100
AcDbRegAppTableRecord
  2
ACAD
 70
0
  0
APPID
  5
17D
330
3
100
AcDbSymbolTableRecord
100
AcDbRegAppTableRecord
  2
HATCHBACKGROUNDCOLOR
 70
0
  0
APPID
  5
17E
330
3
100
AcDbSymbolTableRecord
100
AcDbRegAppTableRecord
  2
EZDXF
 70
0
  0
ENDTAB
  0
TABLE
  2
DIMSTYLE
  5
4
330
0
100
AcDbSymbolTable
 70
12
100
AcDbDimStyleTable
  0
DIMSTYLE
105
2B
330
4
100
AcDbSymbolTableRecord
100
AcDbDimStyleTableRecord
  2
Standard
 70
0
 40
1.0
 41
2.5
 42
0.625
 43
3.75
 44
1.25
 45
0.0
 46
0.0
 47
0.0
 48
0.0
 49
2.5
140
2.5
141
2.5
142
0.0
143
0.03937007874
144
1.0
145
0.0
146
1.0
147
0.625
148
0.0
 69
0
 70
0
 71
0
 72
0
 73
0
 74
0
 75
0
 76
0
 77
1
 78
8
 79
3
170
0
171
3
172
1
173
0
174
0
175
0
176
0
177
0
178
0
179
2
271
2
272
2
273
2
274
3
275
0
276
0
277
2
278
44
279
0
280
0
281
0
282
0
283
0
284
8
285
0
286
0
288
0
289
3
290
0
371
-2
372
-2
  0
DIMSTYLE
105
73
330
4
100
AcDbSymbolTableRecord
100
AcDbDimStyleTableRecord
  2
EZDXF
 70
0
 40
1.0
 41
0.175
 42
0.125
 43
3.75
 44
0.375
 45
0.0
 46
0.0
 47
0.0
 48
0.0
 49
2.5
140
0.25
141
2.5
142
0.0
143
0.03937007874
144
100.0
145
0.0
146
0.5
147
0.1
148
0.0
 69
0
 70
0
 71
0
 72
0
 73
0
 74
0
 75
0
 76
0
 77
1
 78
12
 79
3
170
0
171
3
172
1
173
0
174
0
175
0
176
0
177
0
178
0
179
2
271
2
272
2
273
2
274
3
275
0
276
0
277
2
278
46
279
2
280
0
281
0
282
0
283
0
284
8
285
0
286
0
288
1
289
3
290
0
340
4C
342
74
371
-2
372
-2
  0
DIMSTYLE
105
7C
330
4
100
AcDbSymbolTableRecord
100
AcDbDimStyleTableRecord
  2
EZ_M_100_H25_CM
 70
0
 40
1.0
 41
0.25
 42
0.125
 43
3.75
 44
0.375
 45
0.0
 46
0.0
 47
0.0
 48
0.0
 49
2.5
140
0.25
141
2.5
142
0.125
143
0.03937007874
144
100.0
145
0.0
146
0.5
147
0.1
148
0.0
 69
0
 70
0
 71
0
 72
0
 73
0
 74
0
 75
0
 76
0
 77
1
 78
12
 79
3
170
0
171
3
172
1
173
0
174
0
175
0
176
0
177
0
178
0
179
2
271
2
272
2
273
2
274
3
275
0
276
0
277
2
278
46
279
2
280
0
281
0
282
0
283
0
284
8
285
0
286
0
288
1
289
3
290
0
340
4C
371
-2
372
-2
  0
DIMSTYLE
105
7D
330
4
100
AcDbSymbolTableRecord
100
AcDbDimStyleTableRecord
  2
EZ_M_50_H25_CM
 70
0
 40
1.0
 41
0.125
 42
0.0625
 43
3.75
 44
0.1875
 45
0.0
 46
0.0
 47
0.0
 48
0.0
 49
2.5
140
0.125
141
2.5
142
0.0625
143
0.03937007874
144
100.0
145
0.0
146
0.5
147
0.05
148
0.0
 69
0
 70
0
 71
0
 72
0
 73
0
 74
0
 75
0
 76
0
 77
1
 78
12
 79
3
170
0
171
3
172
1
173
0
174
0
175
0
176
0
177
0
178
0
179
2
271
2
272
2
273
2
274
3
275
0
276
0
277
2
278
46
279
2
280
0
281
0
282
0
283
0
284
8
285
0
286
0
288
1
289
3
290
0
340
4C
371
-2
372
-2
  0
DIMSTYLE
105
7E
330
4
100
AcDbSymbolTableRecord
100
AcDbDimStyleTableRecord
  2
EZ_M_25_H25_CM
 70
0
 40
1.0
 41
0.0625
 42
0.03125
 43
3.75
 44
0.09375
 45
0.0
 46
0.0
 47
0.0
 48
0.0
 49
2.5
140
0.0625
141
2.5
142
0.03125
143
0.03937007874
144
100.0
145
0.0
146
0.5
147
0.025
148
0.0
 69
0
 70
0
 71
0
 72
0
 73
0
 74
0
 75
0
 76
0
 77
1
 78
12
 79
3
170
0
171
3
172
1
173
0
174
0
175
0
176
0
177
0
178
0
179
2
271
2
272
2
273
2
274
3
275
0
276
0
277
2
278
46
279
2
280
0
281
0
282
0
283
0
284
8
285
0
286
0
288
1
289
3
290
0
340
4C
371
-2
372
-2
  0
DIMSTYLE
105
7F
330
4
100
AcDbSymbolTableRecord
100
AcDbDimStyleTableRecord
  2
EZ_M_20_H25_CM
 70
0
 40
1.0
 41
0.05
 42
0.025
 43
3.75
 44
0.07500000000000001
 45
0.0
 46
0.0
 47
0.0
 48
0.0
 49
2.5
140
0.05
141
2.5
142
0.025
143
0.03937007874
144
100.0
145
0.0
146
0.5
147
0.020000000000000004
148
0.0
 69
0
 70
0
 71
0
 72
0
 73
0
 74
0
 75
0
 76
0
 77
1
 78
12
 79
3
170
0
171
3
172
1
173
0
174
0
175
0
176
0
177
0
178
0
179
2
271
2
272
2
273
2
274
3
275
0
276
0
277
2
278
46
279
2
280
0
281
0
282
0
283
0
284
8
285
0
286
0
288
1
289
3
290
0
340
4C
371
-2
372
-2
  0
DIMSTYLE
105
80
330
4
100
AcDbSymbolTableRecord
100
AcDbDimStyleTableRecord
  2
EZ_M_10_H25_CM
 70
0
 40
1.0
 41
0.025
 42
0.0125
 43
3.75
 44
0.037500000000000006
 45
0.0
 46
0.0
 47
0.0
 48
0.0
 49
2.5
140
0.025
141
2.5
142
0.0125
143
0.03937007874
144
100.0
145
0.0
146
0.5
147
0.010000000000000002
148
0.0
 69
0
 70
0
 71
0
 72
0
 73
0
 74
0
 75
0
 76
0
 77
1
 78
12
 79
3
170
0
171
3
172
1
173
0
174
0
175
0
176
0
177
0
178
0
179
2
271
2
272
2
273
2
274
3
275
0
276
0
277
2
278
46
279
2
280
0
281
0
282
0
283
0
284
8
285
0
286
0
288
1
289
3
290
0
340
4C
371
-2
372
-2
  0
DIMSTYLE
105
81
330
4
100
AcDbSymbolTableRecord
100
AcDbDimStyleTableRecord
  2
EZ_M_5_H25_CM
 70
0
 40
1.0
 41
0.0125
 42
0.00625
 43
3.75
 44
0.018750000000000003
 45
0.0
 46
0.0
 47
0.0
 48
0.0
 49
2.5
140
0.0125
141
2.5
142
0.00625
143
0.03937007874
144
100.0
145
0.0
146
0.5
147
0.005000000000000001
148
0.0
 69
0
 70
0
 71
0
 72
0
 73
0
 74
0
 75
0
 76
0
 77
1
 78
12
 79
3
170
0
171
3
172
1
173
0
174
0
175
0
176
0
177
0
178
0
179
2
271
2
272
2
273
2
274
3
275
0
276
0
277
2
278
46
279
2
280
0
281
0
282
0
283
0
284
8
285
0
286
0
288
1
289
3
290
0
340
4C
371
-2
372
-2
  0
DIMSTYLE
105
82
330
4
100
AcDbSymbolTableRecord
100
AcDbDimStyleTableRecord
  2
EZ_M_1_H25_CM
 70
0
 40
1.0
 41
0.0025
 42
0.00125
 43
3.75
 44
0.00375
 45
0.0
 46
0.0
 47
0.0
 48
0.0
 49
2.5
140
0.0025
141
2.5
142
0.00125
143
0.03937007874
144
100.0
145
0.0
146
0.5
147
0.001
148
0.0
 69
0
 70
0
 71
0
 72
0
 73
0
 74
0
 75
0
 76
0
 77
1
 78
12
 79
3
170
0
171
3
172
1
173
0
174
0
175
0
176
0
177
0
178
0
179
2
271
2
272
2
273
2
274
3
275
0
276
0
277
2
278
46
279
2
280
0
281
0
282
0
283
0
284
8
285
0
286
0
288
1
289
3
290
0
340
4C
371
-2
372
-2
  0
DIMSTYLE
105
83
330
4
100
AcDbSymbolTableRecord
100
AcDbDimStyleTableRecord
  2
EZ_RADIUS
 70
0
 40
1.0
 41
0.25
 42
0.125
 43
3.75
 44
0.375
 45
0.0
 46
0.0
 47
0.0
 48
0.0
 49
2.5
140
0.25
141
0.0
142
0.0
143
0.03937007874
144
100.0
145
0.0
146
0.5
147
0.1
148
0.0
 69
0
 70
0
 71
0
 72
0
 73
0
 74
0
 75
0
 76
0
 77
1
 78
12
 79
3
170
0
171
3
172
0
173
0
174
0
175
0
176
0
177
0
178
0
179
2
271
2
272
2
273
2
274
3
275
0
276
0
277
2
278
46
279
1
280
0
281
0
282
0
283
0
284
8
285
0
286
0
288
1
289
3
290
0
340
4C
342
84
371
-2
372
-2
  0
DIMSTYLE
105
88
330
4
100
AcDbSymbolTableRecord
100
AcDbDimStyleTableRecord
  2
EZ_RADIUS_INSIDE
 70
0
 40
1.0
 41
0.25
 42
0.125
 43
3.75
 44
0.375
 45
0.0
 46
0.0
 47
0.0
 48
0.0
 49
2.5
140
0.25
141
0.0
142
0.0
143
0.03937007874
144
100.0
145
0.0
146
0.5
147
0.1
148
0.0
 69
0
 70
0
 71
0
 72
0
 73
0
 74
0
 75
0
 76
0
 77
0
 78
12
 79
3
170
0
171
3
172
0
173
0
174
1
175
0
176
0
177
0
178
0
179
2
271
2
272
2
273
2
274
3
275
0
276
0
277
2
278
46
279
0
280
0
281
0
282
0
283
0
284
8
285
0
286
0
288
1
289
0
290
0
340
4C
342
84
371
-2
372
-2
  0
DIMSTYLE
105
89
330
4
100
AcDbSymbolTableRecord
100
AcDbDimStyleTableRecord
  2
EZ_CURVED
 70
0
 40
1.0
 41
0.25
 42
0.125
 43
3.75
 44
0.375
 45
0.0
 46
0.0
 47
0.0
 48
0.0
 49
2.5
140
0.25
141
2.5
142
0.0
143
0.03937007874
144
100.0
145
0.0
146
0.5
147
0.1
148
0.0
 69
0
 70
0
 71
0
 72
0
 73
0
 74
0
 75
0
 76
0
 77
1
 78
12
 79
2
 90
2
170
0
171
3
172
1
173
0
174
0
175
0
176
0
177
0
178
0
179
2
271
2
272
2
273
2
274
3
275
0
276
0
277
2
278
46
279
2
280
0
281
0
282
0
283
0
284
8
285
0
286
0
288
1
289
3
290
0
340
4C
371
-2
372
-2
  0
ENDTAB
  0
TABLE
  2
BLOCK_RECORD
  5
9
330
0
100
AcDbSymbolTable
 70
5
  0
BLOCK_RECORD
  5
17
330
9
100
AcDbSymbolTableRecord
100
AcDbBlockTableRecord
  2
*Model_Space
340
1A
 70
0
280
1
281
0
  0
BLOCK_RECORD
  5
1B
330
9
100
AcDbSymbolTableRecord
100
AcDbBlockTableRecord
  2
*Paper_Space
340
1E
 70
0
280
1
281
0
  0
BLOCK_RECORD
  5
74
330
9
100
AcDbSymbolTableRecord
100
AcDbBlockTableRecord
  2
_ARCHTICK
340
0
 70
0
280
1
281
0
  0
BLOCK_RECORD
  5
78
330
9
100
AcDbSymbolTableRecord
100
AcDbBlockTableRecord
  2
_CLOSEDFILLED
340
0
 70
0
280
1
281
0
  0
BLOCK_RECORD
  5
84
330
9
100
AcDbSymbolTableRecord
100
AcDbBlockTableRecord
  2
_CLOSEDBLANK
340
0
 70
0
280
1
281
0
  0
ENDTAB
  0
ENDSEC
  0
SECTION
  2
BLOCKS
  0
BLOCK
  5
18
330
17
100
AcDbEntity
  8
0
100
AcDbBlockBegin
  2
*Model_Space
 70
0
 10
0.0
 20
0.0
 30
0.0
  3
*Model_Space
  1

  0
ENDBLK
  5
19
330
17
100
AcDbEntity
  8
0
100
AcDbBlockEnd
  0
BLOCK
  5
1C
330
1B
100
AcDbEntity
  8
0
100
AcDbBlockBegin
  2
*Paper_Space
 70
0
 10
0.0
 20
0.0
 30
0.0
  3
*Paper_Space
  1

  0
ENDBLK
  5
1D
330
1B
100
AcDbEntity
  8
0
100
AcDbBlockEnd
  0
BLOCK
  5
75
330
74
100
AcDbEntity
  8
0
100
AcDbBlockBegin
  2
_ARCHTICK
 70
0
 10
0.0
 20
0.0
 30
0.0
  3
_ARCHTICK
  1

  0
LWPOLYLINE
  5
77
330
74
100
AcDbEntity
  8
0
  6
BYBLOCK
 62
0
100
AcDbPolyline
 90
2
 70
0
 43
0.15
 10
-0.5
 20
-0.5
 10
0.5
 20
0.5
  0
ENDBLK
  5
76
330
74
100
AcDbEntity
  8
0
100
AcDbBlockEnd
  0
BLOCK
  5
79
330
78
100
AcDbEntity
  8
0
100
AcDbBlockBegin
  2
_CLOSEDFILLED
 70
0
 10
0.0
 20
0.0
 30
0.0
  3
_CLOSEDFILLED
  1

  0
SOLID
  5
7B
330
78
100
AcDbEntity
  8
0
  6
BYBLOCK
 62
0
100
AcDbTrace
 10
-1.0
 20
0.16439898372402537
 30
0.0
 11
0.0
 21
0.0
 31
0.0
 12
-1.0
 22
-0.16439898372402537
 32
0.0
 13
-1.0
 23
-0.16439898372402537
 33
0.0
  0
ENDBLK
  5
7A
330
78
100
AcDbEntity
  8
0
100
AcDbBlockEnd
  0
BLOCK
  5
85
330
84
100
AcDbEntity
  8
0
100
AcDbBlockBegin
  2
_CLOSEDBLANK
 70
0
 10
0.0
 20
0.0
 30
0.0
  3
_CLOSEDBLANK
  1

  0
LWPOLYLINE
  5
87
330
84
100
AcDbEntity
  8
0
  6
BYBLOCK
 62
0
100
AcDbPolyline
 90
3
 70
1
 10
-1.0
 20
0.16439898372402537
 10
0.0
 20
0.0
 10
-1.0
 20
-0.16439898372402537
  0
ENDBLK
  5
86
330
84
100
AcDbEntity
  8
0
100
AcDbBlockEnd
  0
ENDSEC
  0
SECTION
  2
ENTITIES
  0
LWPOLYLINE
  5
92
330
17
100
AcDbEntity
  8
CAR
100
AcDbPolyline
 90
9
 70
1
 10
-885.0
 20
320.0
 10
-855.0
 20
780.0
 10
585.0
 20
880.0
 10
985.0
 20
930.0
 10
1505.0
 20
1470.0
 10
3320.0
 20
1470.0
 10
3550.0
 20
1120.0
 10
3630.0
 20
1000.0
 10
3630.0
 20
300.0
  0
CIRCLE
  5
93
330
17
100
AcDbEntity
  8
CAR
100
AcDbCircle
 10
0.0
 20
312.0
 30
0.0
 40
312.0
  0
CIRCLE
  5
94
330
17
100
AcDbEntity
  8
CAR
100
AcDbCircle
 10
0.0
 20
312.0
 30
0.0
 40
130.0
  0
CIRCLE
  5
95
330
17
100
AcDbEntity
  8
CAR
100
AcDbCircle
 10
2703.0
 20
312.0
 30
0.0
 40
312.0
  0
CIRCLE
  5
96
330
17
100
AcDbEntity
  8
CAR
100
AcDbCircle
 10
2703.0
 20
312.0
 30
0.0
 40
130.0
  0
LINE
  5
97
330
17
100
AcDbEntity
  8
CAR
100
AcDbLine
 10
-885.0
 20
520.0
 30
0.0
 11
3630.0
 21
520.0
 31
0.0
  0
LWPOLYLINE
  5
98
330
17
100
AcDbEntity
  8
CAR
100
AcDbPolyline
 90
4
 70
1
 10
2260.0
 20
405.0
 10
2680.0
 20
405.0
 10
2680.0
 20
530.0
 10
2260.0
 20
530.0
  0
LWPOLYLINE
  5
99
330
17
100
AcDbEntity
  8
CAR
100
AcDbPolyline
 90
4
 70
1
 10
2583.0
 20
300.0
 10
2823.0
 20
300.0
 10
2823.0
 20
430.0
 10
2583.0
 20
430.0
  0
LWPOLYLINE
  5
9A
330
17
100
AcDbEntity
  8
PIPE
100
AcDbPolyline
 90
82
 70
0
 10
-150.0
 20
390.0
 10
-106.01794819572943
 20
390.0
 10
-62.03589639145886
 20
390.0
 10
-18.05384458718828
 20
390.0
 10
25.928207217082274
 20
390.0
 10
69.91025902135286
 20
390.0
 10
70.46417501431155
 20
389.99994724958833
 10
71.01809099974112
 20
389.99984174876545
 10
71.57200697262213
 20
389.9996834975323
 10
72.12592292793519
 20
389.99947249589036
 10
72.67983886066087
 20
389.99920874384145
 10
73.23375476577974
 20
389.99889224138803
 10
73.78767063827239
 20
389.99852298853295
 10
74.3415864731194
 20
389.99810098527956
 10
74.89550226530136
 20
389.9976262316317
 10
75.44941800979885
 20
389.9970987275937
 10
76.00333370159245
 20
389.9965184731703
 10
76.55724933566275
 20
389.99588546836674
 10
77.11116490699033
 20
389.99519971318875
 10
77.66508041055577
 20
389.9944612076426
 10
78.21899584133968
 20
389.99366995173494
 10
78.77291119432262
 20
389.992825945473
 10
79.32682646448518
 20
389.99192918886433
 10
79.88074164680796
 20
389.9909796819171
 10
80.43465673627155
 20
389.98997742463996
 10
80.98857172785652
 20
389.9889224170419
 10
81.54248661654348
 20
389.9878146591326
 10
82.09640139731302
 20
389.986654150922
 10
82.65031606514572
 20
389.9854408924206
 10
83.20423061502217
 20
389.9841748836395
 10
124.26033310687603
 20
384.576830720487
 10
165.3164355987299
 20
379.16948655733455
 10
206.37253809058376
 20
373.76214239418204
 10
247.42864058243762
 20
368.3547982310295
 10
288.4847430742915
 20
362.947454067877
 10
329.5408455661453
 20
357.54010990472455
 10
370.59694805799927
 20
352.13276574157203
 10
411.6530505498531
 20
346.7254215784195
 10
452.70915304170694
 20
341.318077415267
 10
493.7652555335608
 20
335.91073325211454
 10
534.8213580254146
 20
330.503389088962
 10
535.370542072768
 20
330.43111133830934
 10
535.9197329951584
 20
330.3588858877639
 10
536.4689307876092
 20
330.2867127379803
 10
537.0181354451438
 20
330.2145918896124
 10
537.5673469627853
 20
330.1425233433138
 10
538.1165653355571
 20
330.07050709973765
 10
538.6657905584822
 20
329.99854315953644
 10
539.2150226265837
 20
329.9266315233623
 10
539.7642615348848
 20
329.8547721918669
 10
540.3135072784082
 20
329.7829651657014
 10
540.862759852177
 20
329.7112104455165
 10
541.4120192512139
 20
329.63950803196235
 10
541.9612854705418
 20
329.56785792568877
 10
542.5105585051834
 20
329.496260127345
 10
543.0598383501614
 20
329.4247146375799
 10
543.6091250004982
 20
329.3532214570417
 10
544.1584184512164
 20
329.28178058637826
 10
544.7077186973386
 20
329.210392026237
 10
545.2570257338871
 20
329.13905577726484
 10
545.8063395558843
 20
329.06777184010815
 10
546.3556601583524
 20
328.99654021541295
 10
546.9049875363137
 20
328.92536090382464
 10
547.4543216847903
 20
328.8542339059883
 10
548.0036625988045
 20
328.78315922254836
 10
589.2985756765307
 20
328.78315922254836
 10
630.5934887542569
 20
328.78315922254836
 10
671.8884018319832
 20
328.78315922254836
 10
713.1833149097093
 20
328.78315922254836
 10
754.4782279874356
 20
328.78315922254836
 10
795.7731410651618
 20
328.78315922254836
 10
837.0680541428881
 20
328.78315922254836
 10
878.3629672206143
 20
328.78315922254836
 10
919.6578802983406
 20
328.78315922254836
 10
960.9527933760668
 20
328.78315922254836
 10
1002.247706453793
 20
328.78315922254836
 10
1043.542619531519
 20
328.78315922254836
 10
1084.8375326092455
 20
328.78315922254836
 10
1126.1324456869716
 20
328.78315922254836
 10
1167.4273587646978
 20
328.78315922254836
 10
1208.722271842424
 20
328.78315922254836
 10
1250.0171849201504
 20
328.78315922254836
  0
LWPOLYLINE
  5
9B
330
17
100
AcDbEntity
  8
PIPE
100
AcDbPolyline
 90
82
 70
0
 10
-150.0
 20
358.25
 10
-106.01794819572943
 20
358.25
 10
-62.03589639145886
 20
358.25
 10
-18.05384458718828
 20
358.25
 10
25.928207217082274
 20
358.25
 10
69.91025902135286
 20
358.25
 10
70.46417501431155
 20
358.24994724958833
 10
71.01809099974112
 20
358.24984174876545
 10
71.57200697262213
 20
358.2496834975323
 10
72.12592292793519
 20
358.24947249589036
 10
72.67983886066087
 20
358.24920874384145
 10
73.23375476577974
 20
358.24889224138803
 10
73.78767063827239
 20
358.24852298853295
 10
74.3415864731194
 20
358.24810098527956
 10
74.89550226530136
 20
358.2476262316317
 10
75.44941800979885
 20
358.2470987275937
 10
76.00333370159245
 20
358.2465184731703
 10
76.55724933566275
 20
358.24588546836674
 10
77.11116490699033
 20
358.24519971318875
 10
77.66508041055577
 20
358.2444612076426
 10
78.21899584133968
 20
358.24366995173494
 10
78.77291119432262
 20
358.242825945473
 10
79.32682646448518
 20
358.24192918886433
 10
79.88074164680796
 20
358.2409796819171
 10
80.43465673627155
 20
358.23997742463996
 10
80.98857172785652
 20
358.2389224170419
 10
81.54248661654348
 20
358.2378146591326
 10
82.09640139731302
 20
358.236654150922
 10
82.65031606514572
 20
358.2354408924206
 10
83.20423061502217
 20
358.2341748836395
 10
124.26033310687603
 20
352.826830720487
 10
165.3164355987299
 20
347.41948655733455
 10
206.37253809058376
 20
342.01214239418204
 10
247.42864058243762
 20
336.6047982310295
 10
288.4847430742915
 20
331.197454067877
 10
329.5408455661453
 20
325.79010990472455
 10
370.59694805799927
 20
320.38276574157203
 10
411.6530505498531
 20
314.9754215784195
 10
452.70915304170694
 20
309.568077415267
 10
493.7652555335608
 20
304.16073325211454
 10
534.8213580254146
 20
298.753389088962
 10
535.370542072768
 20
298.68111133830934
 10
535.9197329951584
 20
298.6088858877639
 10
536.4689307876092
 20
298.5367127379803
 10
537.0181354451438
 20
298.4645918896124
 10
537.5673469627853
 20
298.3925233433138
 10
538.1165653355571
 20
298.32050709973765
 10
538.6657905584822
 20
298.24854315953644
 10
539.2150226265837
 20
298.1766315233623
 10
539.7642615348848
 20
298.1047721918669
 10
540.3135072784082
 20
298.0329651657014
 10
540.862759852177
 20
297.9612104455165
 10
541.4120192512139
 20
297.88950803196235
 10
541.9612854705418
 20
297.81785792568877
 10
542.5105585051834
 20
297.746260127345
 10
543.0598383501614
 20
297.6747146375799
 10
543.6091250004982
 20
297.6032214570417
 10
544.1584184512164
 20
297.53178058637826
 10
544.7077186973386
 20
297.460392026237
 10
545.2570257338871
 20
297.38905577726484
 10
545.8063395558843
 20
297.31777184010815
 10
546.3556601583524
 20
297.24654021541295
 10
546.9049875363137
 20
297.17536090382464
 10
547.4543216847903
 20
297.1042339059883
 10
548.0036625988045
 20
297.03315922254836
 10
589.2985756765307
 20
297.03315922254836
 10
630.5934887542569
 20
297.03315922254836
 10
671.8884018319832
 20
297.03315922254836
 10
713.1833149097093
 20
297.03315922254836
 10
754.4782279874356
 20
297.03315922254836
 10
795.7731410651618
 20
297.03315922254836
 10
837.0680541428881
 20
297.03315922254836
 10
878.3629672206143
 20
297.03315922254836
 10
919.6578802983406
 20
297.03315922254836
 10
960.9527933760668
 20
297.03315922254836
 10
1002.247706453793
 20
297.03315922254836
 10
1043.542619531519
 20
297.03315922254836
 10
1084.8375326092455
 20
297.03315922254836
 10
1126.1324456869716
 20
297.03315922254836
 10
1167.4273587646978
 20
297.03315922254836
 10
1208.722271842424
 20
297.03315922254836
 10
1250.0171849201504
 20
297.03315922254836
  0
LWPOLYLINE
  5
9C
330
17
100
AcDbEntity
  8
PIPE
100
AcDbPolyline
 90
82
 70
0
 10
-150.0
 20
421.75
 10
-106.01794819572943
 20
421.75
 10
-62.03589639145886
 20
421.75
 10
-18.05384458718828
 20
421.75
 10
25.928207217082274
 20
421.75
 10
69.91025902135286
 20
421.75
 10
70.46417501431155
 20
421.74994724958833
 10
71.01809099974112
 20
421.74984174876545
 10
71.57200697262213
 20
421.7496834975323
 10
72.12592292793519
 20
421.74947249589036
 10
72.67983886066087
 20
421.74920874384145
 10
73.23375476577974
 20
421.74889224138803
 10
73.78767063827239
 20
421.74852298853295
 10
74.3415864731194
 20
421.74810098527956
 10
74.89550226530136
 20
421.7476262316317
 10
75.44941800979885
 20
421.7470987275937
 10
76.00333370159245
 20
421.7465184731703
 10
76.55724933566275
 20
421.74588546836674
 10
77.11116490699033
 20
421.74519971318875
 10
77.66508041055577
 20
421.7444612076426
 10
78.21899584133968
 20
421.74366995173494
 10
78.77291119432262
 20
421.742825945473
 10
79.32682646448518
 20
421.74192918886433
 10
79.88074164680796
 20
421.7409796819171
 10
80.43465673627155
 20
421.73997742463996
 10
80.98857172785652
 20
421.7389224170419
 10
81.54248661654348
 20
421.7378146591326
 10
82.09640139731302
 20
421.736654150922
 10
82.65031606514572
 20
421.7354408924206
 10
83.20423061502217
 20
421.7341748836395
 10
124.26033310687603
 20
416.326830720487
 10
165.3164355987299
 20
410.91948655733455
 10
206.37253809058376
 20
405.51214239418204
 10
247.42864058243762
 20
400.1047982310295
 10
288.4847430742915
 20
394.697454067877
 10
329.5408455661453
 20
389.29010990472455
 10
370.59694805799927
 20
383.88276574157203
 10
411.6530505498531
 20
378.4754215784195
 10
452.70915304170694
 20
373.068077415267
 10
493.7652555335608
 20
367.66073325211454
 10
534.8213580254146
 20
362.253389088962
 10
535.370542072768
 20
362.18111133830934
 10
535.9197329951584
 20
362.1088858877639
 10
536.4689307876092
 20
362.0367127379803
 10
537.0181354451438
 20
361.9645918896124
 10
537.5673469627853
 20
361.8925233433138
 10
538.1165653355571
 20
361.82050709973765
 10
538.6657905584822
 20
361.74854315953644
 10
539.2150226265837
 20
361.6766315233623
 10
539.7642615348848
 20
361.6047721918669
 10
540.3135072784082
 20
361.5329651657014
 10
540.862759852177
 20
361.4612104455165
 10
541.4120192512139
 20
361.38950803196235
 10
541.9612854705418
 20
361.31785792568877
 10
542.5105585051834
 20
361.246260127345
 10
543.0598383501614
 20
361.1747146375799
 10
543.6091250004982
 20
361.1032214570417
 10
544.1584184512164
 20
361.03178058637826
 10
544.7077186973386
 20
360.960392026237
 10
545.2570257338871
 20
360.88905577726484
 10
545.8063395558843
 20
360.81777184010815
 10
546.3556601583524
 20
360.74654021541295
 10
546.9049875363137
 20
360.67536090382464
 10
547.4543216847903
 20
360.6042339059883
 10
548.0036625988045
 20
360.53315922254836
 10
589.2985756765307
 20
360.53315922254836
 10
630.5934887542569
 20
360.53315922254836
 10
671.8884018319832
 20
360.53315922254836
 10
713.1833149097093
 20
360.53315922254836
 10
754.4782279874356
 20
360.53315922254836
 10
795.7731410651618
 20
360.53315922254836
 10
837.0680541428881
 20
360.53315922254836
 10
878.3629672206143
 20
360.53315922254836
 10
919.6578802983406
 20
360.53315922254836
 10
960.9527933760668
 20
360.53315922254836
 10
1002.247706453793
 20
360.53315922254836
 10
1043.542619531519
 20
360.53315922254836
 10
1084.8375326092455
 20
360.53315922254836
 10
1126.1324456869716
 20
360.53315922254836
 10
1167.4273587646978
 20
360.53315922254836
 10
1208.722271842424
 20
360.53315922254836
 10
1250.0171849201504
 20
360.53315922254836
  0
LWPOLYLINE
  5
9D
330
17
100
AcDbEntity
  8
PIPE
100
AcDbPolyline
 90
17
 70
0
 10
1250.0
 20
330.0
 10
1290.625
 20
330.0
 10
1331.25
 20
330.0
 10
1371.875
 20
330.0
 10
1412.5
 20
330.0
 10
1453.125
 20
330.0
 10
1493.75
 20
330.0
 10
1534.375
 20
330.0
 10
1575.0
 20
330.0
 10
1615.625
 20
330.0
 10
1656.25
 20
330.0
 10
1696.875
 20
330.0
 10
1737.5
 20
330.0
 10
1778.125
 20
330.0
 10
1818.75
 20
330.0
 10
1859.375
 20
330.0
 10
1900.0
 20
330.0
  0
LWPOLYLINE
  5
9E
330
17
100
AcDbEntity
  8
PIPE
100
AcDbPolyline
 90
17
 70
0
 10
1250.0
 20
298.25
 10
1290.625
 20
298.25
 10
1331.25
 20
298.25
 10
1371.875
 20
298.25
 10
1412.5
 20
298.25
 10
1453.125
 20
298.25
 10
1493.75
 20
298.25
 10
1534.375
 20
298.25
 10
1575.0
 20
298.25
 10
1615.625
 20
298.25
 10
1656.25
 20
298.25
 10
1696.875
 20
298.25
 10
1737.5
 20
298.25
 10
1778.125
 20
298.25
 10
1818.75
 20
298.25
 10
1859.375
 20
298.25
 10
1900.0
 20
298.25
  0
LWPOLYLINE
  5
9F
330
17
100
AcDbEntity
  8
PIPE
100
AcDbPolyline
 90
17
 70
0
 10
1250.0
 20
361.75
 10
1290.625
 20
361.75
 10
1331.25
 20
361.75
 10
1371.875
 20
361.75
 10
1412.5
 20
361.75
 10
1453.125
 20
361.75
 10
1493.75
 20
361.75
 10
1534.375
 20
361.75
 10
1575.0
 20
361.75
 10
1615.625
 20
361.75
 10
1656.25
 20
361.75
 10
1696.875
 20
361.75
 10
1737.5
 20
361.75
 10
1778.125
 20
361.75
 10
1818.75
 20
361.75
 10
1859.375
 20
361.75
 10
1900.0
 20
361.75
  0
LWPOLYLINE
  5
A0
330
17
100
AcDbEntity
  8
PIPE
100
AcDbPolyline
 90
49
 70
0
 10
1900.0
 20
330.0
 10
1940.0
 20
330.0
 10
1980.0
 20
330.0
 10
2020.0
 20
330.0
 10
2060.0
 20
330.0
 10
2100.0
 20
330.0
 10
2101.4922564496046
 20
330.0
 10
2102.984512716657
 20
330.0
 10
2104.4767686794557
 20
330.0
 10
2105.9690242163
 20
330.0
 10
2107.461279205488
 20
330.0
 10
2108.953533525319
 20
330.0
 10
2110.4457870540914
 20
330.0
 10
2111.938039670104
 20
330.0
 10
2113.430291251656
 20
330.0
 10
2114.9225416770464
 20
330.0
 10
2116.414790824574
 20
330.0
 10
2117.9070385725386
 20
330.0
 10
2119.399284799239
 20
330.0
 10
2120.8915293829746
 20
330.0
 10
2122.3837722020453
 20
330.0
 10
2123.876013134751
 20
330.0
 10
2125.368252059391
 20
330.0
 10
2126.860488854266
 20
330.0
 10
2128.3527233976756
 20
330.0
 10
2129.844955567921
 20
330.0
 10
2131.337185243302
 20
330.0
 10
2132.82941230212
 20
330.0
 10
2134.3216366226757
 20
330.0
 10
2135.8138580832706
 20
330.0
 10
2173.931182585144
 20
330.0
 10
2212.0485070870177
 20
330.0
 10
2250.1658315888913
 20
330.0
 10
2288.283156090765
 20
330.0
 10
2326.4004805926384
 20
330.0
 10
2364.517805094512
 20
330.0
 10
2402.6351295963855
 20
330.0
 10
2440.752454098259
 20
330.0
 10
2478.8697786001326
 20
330.0
 10
2516.987103102006
 20
330.0
 10
2555.1044276038797
 20
330.0
 10
2593.2217521057532
 20
330.0
 10
2631.339076607627
 20
330.0
 10
2669.4564011095003
 20
330.0
 10
2707.573725611374
 20
330.0
 10
2745.6910501132475
 20
330.0
 10
2783.808374615121
 20
330.0
 10
2821.9256991169946
 20
330.0
 10
2860.043023618868
 20
330.0
  0
LWPOLYLINE
  5
A1
330
17
100
AcDbEntity
  8
PIPE
100
AcDbPolyline
 90
49
 70
0
 10
1900.0
 20
301.5
 10
1940.0
 20
301.5
 10
1980.0
 20
301.5
 10
2020.0
 20
301.5
 10
2060.0
 20
301.5
 10
2100.0
 20
301.5
 10
2101.4922564496046
 20
301.5
 10
2102.984512716657
 20
301.5
 10
2104.4767686794557
 20
301.5
 10
2105.9690242163
 20
301.5
 10
2107.461279205488
 20
301.5
 10
2108.953533525319
 20
301.5
 10
2110.4457870540914
 20
301.5
 10
2111.938039670104
 20
301.5
 10
2113.430291251656
 20
301.5
 10
2114.9225416770464
 20
301.5
 10
2116.414790824574
 20
301.5
 10
2117.9070385725386
 20
301.5
 10
2119.399284799239
 20
301.5
 10
2120.8915293829746
 20
301.5
 10
2122.3837722020453
 20
301.5
 10
2123.876013134751
 20
301.5
 10
2125.368252059391
 20
301.5
 10
2126.860488854266
 20
301.5
 10
2128.3527233976756
 20
301.5
 10
2129.844955567921
 20
301.5
 10
2131.337185243302
 20
301.5
 10
2132.82941230212
 20
301.5
 10
2134.3216366226757
 20
301.5
 10
2135.8138580832706
 20
301.5
 10
2173.931182585144
 20
301.5
 10
2212.0485070870177
 20
301.5
 10
2250.1658315888913
 20
301.5
 10
2288.283156090765
 20
301.5
 10
2326.4004805926384
 20
301.5
 10
2364.517805094512
 20
301.5
 10
2402.6351295963855
 20
301.5
 10
2440.752454098259
 20
301.5
 10
2478.8697786001326
 20
301.5
 10
2516.987103102006
 20
301.5
 10
2555.1044276038797
 20
301.5
 10
2593.2217521057532
 20
301.5
 10
2631.339076607627
 20
301.5
 10
2669.4564011095003
 20
301.5
 10
2707.573725611374
 20
301.5
 10
2745.6910501132475
 20
301.5
 10
2783.808374615121
 20
301.5
 10
2821.9256991169946
 20
301.5
 10
2860.043023618868
 20
301.5
  0
LWPOLYLINE
  5
A2
330
17
100
AcDbEntity
  8
PIPE
100
AcDbPolyline
 90
49
 70
0
 10
1900.0
 20
358.5
 10
1940.0
 20
358.5
 10
1980.0
 20
358.5
 10
2020.0
 20
358.5
 10
2060.0
 20
358.5
 10
2100.0
 20
358.5
 10
2101.4922564496046
 20
358.5
 10
2102.984512716657
 20
358.5
 10
2104.4767686794557
 20
358.5
 10
2105.9690242163
 20
358.5
 10
2107.461279205488
 20
358.5
 10
2108.953533525319
 20
358.5
 10
2110.4457870540914
 20
358.5
 10
2111.938039670104
 20
358.5
 10
2113.430291251656
 20
358.5
 10
2114.9225416770464
 20
358.5
 10
2116.414790824574
 20
358.5
 10
2117.9070385725386
 20
358.5
 10
2119.399284799239
 20
358.5
 10
2120.8915293829746
 20
358.5
 10
2122.3837722020453
 20
358.5
 10
2123.876013134751
 20
358.5
 10
2125.368252059391
 20
358.5
 10
2126.860488854266
 20
358.5
 10
2128.3527233976756
 20
358.5
 10
2129.844955567921
 20
358.5
 10
2131.337185243302
 20
358.5
 10
2132.82941230212
 20
358.5
 10
2134.3216366226757
 20
358.5
 10
2135.8138580832706
 20
358.5
 10
2173.931182585144
 20
358.5
 10
2212.0485070870177
 20
358.5
 10
2250.1658315888913
 20
358.5
 10
2288.283156090765
 20
358.5
 10
2326.4004805926384
 20
358.5
 10
2364.517805094512
 20
358.5
 10
2402.6351295963855
 20
358.5
 10
2440.752454098259
 20
358.5
 10
2478.8697786001326
 20
358.5
 10
2516.987103102006
 20
358.5
 10
2555.1044276038797
 20
358.5
 10
2593.2217521057532
 20
358.5
 10
2631.339076607627
 20
358.5
 10
2669.4564011095003
 20
358.5
 10
2707.573725611374
 20
358.5
 10
2745.6910501132475
 20
358.5
 10
2783.808374615121
 20
358.5
 10
2821.9256991169946
 20
358.5
 10
2860.043023618868
 20
358.5
  0
LWPOLYLINE
  5
A3
330
17
100
AcDbEntity
  8
PIPE
100
AcDbPolyline
 90
49
 70
0
 10
1900.0
 20
330.0
 10
1940.0
 20
330.0
 10
1980.0
 20
330.0
 10
2020.0
 20
330.0
 10
2060.0
 20
330.0
 10
2100.0
 20
330.0
 10
2101.4922564496046
 20
330.0
 10
2102.984512716657
 20
330.0
 10
2104.4767686794557
 20
330.0
 10
2105.9690242163
 20
330.0
 10
2107.461279205488
 20
330.0
 10
2108.953533525319
 20
330.0
 10
2110.4457870540914
 20
330.0
 10
2111.938039670104
 20
330.0
 10
2113.430291251656
 20
330.0
 10
2114.9225416770464
 20
330.0
 10
2116.414790824574
 20
330.0
 10
2117.9070385725386
 20
330.0
 10
2119.399284799239
 20
330.0
 10
2120.8915293829746
 20
330.0
 10
2122.3837722020453
 20
330.0
 10
2123.876013134751
 20
330.0
 10
2125.368252059391
 20
330.0
 10
2126.860488854266
 20
330.0
 10
2128.3527233976756
 20
330.0
 10
2129.844955567921
 20
330.0
 10
2131.337185243302
 20
330.0
 10
2132.82941230212
 20
330.0
 10
2134.3216366226757
 20
330.0
 10
2135.8138580832706
 20
330.0
 10
2173.931182585144
 20
330.0
 10
2212.0485070870177
 20
330.0
 10
2250.1658315888913
 20
330.0
 10
2288.283156090765
 20
330.0
 10
2326.4004805926384
 20
330.0
 10
2364.517805094512
 20
330.0
 10
2402.6351295963855
 20
330.0
 10
2440.752454098259
 20
330.0
 10
2478.8697786001326
 20
330.0
 10
2516.987103102006
 20
330.0
 10
2555.1044276038797
 20
330.0
 10
2593.2217521057532
 20
330.0
 10
2631.339076607627
 20
330.0
 10
2669.4564011095003
 20
330.0
 10
2707.573725611374
 20
330.0
 10
2745.6910501132475
 20
330.0
 10
2783.808374615121
 20
330.0
 10
2821.9256991169946
 20
330.0
 10
2860.043023618868
 20
330.0
  0
LWPOLYLINE
  5
A4
330
17
100
AcDbEntity
  8
PIPE
100
AcDbPolyline
 90
49
 70
0
 10
1900.0
 20
301.5
 10
1940.0
 20
301.5
 10
1980.0
 20
301.5
 10
2020.0
 20
301.5
 10
2060.0
 20
301.5
 10
2100.0
 20
301.5
 10
2101.4922564496046
 20
301.5
 10
2102.984512716657
 20
301.5
 10
2104.4767686794557
 20
301.5
 10
2105.9690242163
 20
301.5
 10
2107.461279205488
 20
301.5
 10
2108.953533525319
 20
301.5
 10
2110.4457870540914
 20
301.5
 10
2111.938039670104
 20
301.5
 10
2113.430291251656
 20
301.5
 10
2114.9225416770464
 20
301.5
 10
2116.414790824574
 20
301.5
 10
2117.9070385725386
 20
301.5
 10
2119.399284799239
 20
301.5
 10
2120.8915293829746
 20
301.5
 10
2122.3837722020453
 20
301.5
 10
2123.876013134751
 20
301.5
 10
2125.368252059391
 20
301.5
 10
2126.860488854266
 20
301.5
 10
2128.3527233976756
 20
301.5
 10
2129.844955567921
 20
301.5
 10
2131.337185243302
 20
301.5
 10
2132.82941230212
 20
301.5
 10
2134.3216366226757
 20
301.5
 10
2135.8138580832706
 20
301.5
 10
2173.931182585144
 20
301.5
 10
2212.0485070870177
 20
301.5
 10
2250.1658315888913
 20
301.5
 10
2288.283156090765
 20
301.5
 10
2326.4004805926384
 20
301.5
 10
2364.517805094512
 20
301.5
 10
2402.6351295963855
 20
301.5
 10
2440.752454098259
 20
301.5
 10
2478.8697786001326
 20
301.5
 10
2516.987103102006
 20
301.5
 10
2555.1044276038797
 20
301.5
 10
2593.2217521057532
 20
301.5
 10
2631.339076607627
 20
301.5
 10
2669.4564011095003
 20
301.5
 10
2707.573725611374
 20
301.5
 10
2745.6910501132475
 20
301.5
 10
2783.808374615121
 20
301.5
 10
2821.9256991169946
 20
301.5
 10
2860.043023618868
 20
301.5
  0
LWPOLYLINE
  5
A5
330
17
100
AcDbEntity
  8
PIPE
100
AcDbPolyline
 90
49
 70
0
 10
1900.0
 20
358.5
 10
1940.0
 20
358.5
 10
1980.0
 20
358.5
 10
2020.0
 20
358.5
 10
2060.0
 20
358.5
 10
2100.0
 20
358.5
 10
2101.4922564496046
 20
358.5
 10
2102.984512716657
 20
358.5
 10
2104.4767686794557
 20
358.5
 10
2105.9690242163
 20
358.5
 10
2107.461279205488
 20
358.5
 10
2108.953533525319
 20
358.5
 10
2110.4457870540914
 20
358.5
 10
2111.938039670104
 20
358.5
 10
2113.430291251656
 20
358.5
 10
2114.9225416770464
 20
358.5
 10
2116.414790824574
 20
358.5
 10
2117.9070385725386
 20
358.5
 10
2119.399284799239
 20
358.5
 10
2120.8915293829746
 20
358.5
 10
2122.3837722020453
 20
358.5
 10
2123.876013134751
 20
358.5
 10
2125.368252059391
 20
358.5
 10
2126.860488854266
 20
358.5
 10
2128.3527233976756
 20
358.5
 10
2129.844955567921
 20
358.5
 10
2131.337185243302
 20
358.5
 10
2132.82941230212
 20
358.5
 10
2134.3216366226757
 20
358.5
 10
2135.8138580832706
 20
358.5
 10
2173.931182585144
 20
358.5
 10
2212.0485070870177
 20
358.5
 10
2250.1658315888913
 20
358.5
 10
2288.283156090765
 20
358.5
 10
2326.4004805926384
 20
358.5
 10
2364.517805094512
 20
358.5
 10
2402.6351295963855
 20
358.5
 10
2440.752454098259
 20
358.5
 10
2478.8697786001326
 20
358.5
 10
2516.987103102006
 20
358.5
 10
2555.1044276038797
 20
358.5
 10
2593.2217521057532
 20
358.5
 10
2631.339076607627
 20
358.5
 10
2669.4564011095003
 20
358.5
 10
2707.573725611374
 20
358.5
 10
2745.6910501132475
 20
358.5
 10
2783.808374615121
 20
358.5
 10
2821.9256991169946
 20
358.5
 10
2860.043023618868
 20
358.5
  0
LWPOLYLINE
  5
A6
330
17
100
AcDbEntity
  8
BOX
100
AcDbPolyline
 90
4
 70
1
 10
2860.0
 20
255.0
 10
3240.0
 20
255.0
 10
3240.0
 20
395.0
 10
2860.0
 20
395.0
  0
LWPOLYLINE
  5
A7
330
17
100
AcDbEntity
  8
BOX
100
AcDbPolyline
 90
4
 70
1
 10
2860.0
 20
255.0
 10
3240.0
 20
255.0
 10
3240.0
 20
395.0
 10
2860.0
 20
395.0
  0
LWPOLYLINE
  5
A8
330
17
100
AcDbEntity
  8
PIPE
100
AcDbPolyline
 90
31
 70
0
 10
3240.0
 20
325.0
 10
3270.0
 20
325.0
 10
3300.0
 20
325.0
 10
3301.33517682333
 20
325.0
 10
3302.6703534833246
 20
325.0
 10
3304.005529871092
 20
325.0
 10
3305.3407058777425
 20
325.0
 10
3306.6758813943843
 20
325.0
 10
3308.0110563121275
 20
325.0
 10
3309.346230522082
 20
325.0
 10
3310.6814039153564
 20
325.0
 10
3312.016576383061
 20
325.0
 10
3313.351747816305
 20
325.0
 10
3314.686918106198
 20
325.0
 10
3316.02208714385
 20
325.0
 10
3317.3572548203715
 20
325.0
 10
3318.6924210268717
 20
325.0
 10
3320.0275856544613
 20
325.0
 10
3321.3627485942507
 20
325.0
 10
3322.6979097373496
 20
325.0
 10
3324.0330689748694
 20
325.0
 10
3325.36822619792
 20
325.0
 10
3326.7033812976133
 20
325.0
 10
3328.0385341650594
 20
325.0
 10
3329.3736846913703
 20
325.0
 10
3330.708832767657
 20
325.0
 10
3332.0439782850312
 20
325.0
 10
3372.787065668779
 20
325.0
 10
3413.5301530525267
 20
325.0
 10
3454.2732404362746
 20
325.0
 10
3495.016327820022
 20
325.0
  0
LWPOLYLINE
  5
A9
330
17
100
AcDbEntity
  8
PIPE
100
AcDbPolyline
 90
31
 70
0
 10
3240.0
 20
299.5
 10
3270.0
 20
299.5
 10
3300.0
 20
299.5
 10
3301.33517682333
 20
299.5
 10
3302.6703534833246
 20
299.5
 10
3304.005529871092
 20
299.5
 10
3305.3407058777425
 20
299.5
 10
3306.6758813943843
 20
299.5
 10
3308.0110563121275
 20
299.5
 10
3309.346230522082
 20
299.5
 10
3310.6814039153564
 20
299.5
 10
3312.016576383061
 20
299.5
 10
3313.351747816305
 20
299.5
 10
3314.686918106198
 20
299.5
 10
3316.02208714385
 20
299.5
 10
3317.3572548203715
 20
299.5
 10
3318.6924210268717
 20
299.5
 10
3320.0275856544613
 20
299.5
 10
3321.3627485942507
 20
299.5
 10
3322.6979097373496
 20
299.5
 10
3324.0330689748694
 20
299.5
 10
3325.36822619792
 20
299.5
 10
3326.7033812976133
 20
299.5
 10
3328.0385341650594
 20
299.5
 10
3329.3736846913703
 20
299.5
 10
3330.708832767657
 20
299.5
 10
3332.0439782850312
 20
299.5
 10
3372.787065668779
 20
299.5
 10
3413.5301530525267
 20
299.5
 10
3454.2732404362746
 20
299.5
 10
3495.016327820022
 20
299.5
  0
LWPOLYLINE
  5
AA
330
17
100
AcDbEntity
  8
PIPE
100
AcDbPolyline
 90
31
 70
0
 10
3240.0
 20
350.5
 10
3270.0
 20
350.5
 10
3300.0
 20
350.5
 10
3301.33517682333
 20
350.5
 10
3302.6703534833246
 20
350.5
 10
3304.005529871092
 20
350.5
 10
3305.3407058777425
 20
350.5
 10
3306.6758813943843
 20
350.5
 10
3308.0110563121275
 20
350.5
 10
3309.346230522082
 20
350.5
 10
3310.6814039153564
 20
350.5
 10
3312.016576383061
 20
350.5
 10
3313.351747816305
 20
350.5
 10
3314.686918106198
 20
350.5
 10
3316.02208714385
 20
350.5
 10
3317.3572548203715
 20
350.5
 10
3318.6924210268717
 20
350.5
 10
3320.0275856544613
 20
350.5
 10
3321.3627485942507
 20
350.5
 10
3322.6979097373496
 20
350.5
 10
3324.0330689748694
 20
350.5
 10
3325.36822619792
 20
350.5
 10
3326.7033812976133
 20
350.5
 10
3328.0385341650594
 20
350.5
 10
3329.3736846913703
 20
350.5
 10
3330.708832767657
 20
350.5
 10
3332.0439782850312
 20
350.5
 10
3372.787065668779
 20
350.5
 10
3413.5301530525267
 20
350.5
 10
3454.2732404362746
 20
350.5
 10
3495.016327820022
 20
350.5
  0
LWPOLYLINE
  5
AB
330
17
100
AcDbEntity
  8
PIPE
100
AcDbPolyline
 90
31
 70
0
 10
3240.0
 20
325.0
 10
3270.0
 20
325.0
 10
3300.0
 20
325.0
 10
3301.33517682333
 20
325.0
 10
3302.6703534833246
 20
325.0
 10
3304.005529871092
 20
325.0
 10
3305.3407058777425
 20
325.0
 10
3306.6758813943843
 20
325.0
 10
3308.0110563121275
 20
325.0
 10
3309.346230522082
 20
325.0
 10
3310.6814039153564
 20
325.0
 10
3312.016576383061
 20
325.0
 10
3313.351747816305
 20
325.0
 10
3314.686918106198
 20
325.0
 10
3316.02208714385
 20
325.0
 10
3317.3572548203715
 20
325.0
 10
3318.6924210268717
 20
325.0
 10
3320.0275856544613
 20
325.0
 10
3321.3627485942507
 20
325.0
 10
3322.6979097373496
 20
325.0
 10
3324.0330689748694
 20
325.0
 10
3325.36822619792
 20
325.0
 10
3326.7033812976133
 20
325.0
 10
3328.0385341650594
 20
325.0
 10
3329.3736846913703
 20
325.0
 10
3330.708832767657
 20
325.0
 10
3332.0439782850312
 20
325.0
 10
3372.787065668779
 20
325.0
 10
3413.5301530525267
 20
325.0
 10
3454.2732404362746
 20
325.0
 10
3495.016327820022
 20
325.0
  0
LWPOLYLINE
  5
AC
330
17
100
AcDbEntity
  8
PIPE
100
AcDbPolyline
 90
31
 70
0
 10
3240.0
 20
299.5
 10
3270.0
 20
299.5
 10
3300.0
 20
299.5
 10
3301.33517682333
 20
299.5
 10
3302.6703534833246
 20
299.5
 10
3304.005529871092
 20
299.5
 10
3305.3407058777425
 20
299.5
 10
3306.6758813943843
 20
299.5
 10
3308.0110563121275
 20
299.5
 10
3309.346230522082
 20
299.5
 10
3310.6814039153564
 20
299.5
 10
3312.016576383061
 20
299.5
 10
3313.351747816305
 20
299.5
 10
3314.686918106198
 20
299.5
 10
3316.02208714385
 20
299.5
 10
3317.3572548203715
 20
299.5
 10
3318.6924210268717
 20
299.5
 10
3320.0275856544613
 20
299.5
 10
3321.3627485942507
 20
299.5
 10
3322.6979097373496
 20
299.5
 10
3324.0330689748694
 20
299.5
 10
3325.36822619792
 20
299.5
 10
3326.7033812976133
 20
299.5
 10
3328.0385341650594
 20
299.5
 10
3329.3736846913703
 20
299.5
 10
3330.708832767657
 20
299.5
 10
3332.0439782850312
 20
299.5
 10
3372.787065668779
 20
299.5
 10
3413.5301530525267
 20
299.5
 10
3454.2732404362746
 20
299.5
 10
3495.016327820022
 20
299.5
  0
LWPOLYLINE
  5
AD
330
17
100
AcDbEntity
  8
PIPE
100
AcDbPolyline
 90
31
 70
0
 10
3240.0
 20
350.5
 10
3270.0
 20
350.5
 10
3300.0
 20
350.5
 10
3301.33517682333
 20
350.5
 10
3302.6703534833246
 20
350.5
 10
3304.005529871092
 20
350.5
 10
3305.3407058777425
 20
350.5
 10
3306.6758813943843
 20
350.5
 10
3308.0110563121275
 20
350.5
 10
3309.346230522082
 20
350.5
 10
3310.6814039153564
 20
350.5
 10
3312.016576383061
 20
350.5
 10
3313.351747816305
 20
350.5
 10
3314.686918106198
 20
350.5
 10
3316.02208714385
 20
350.5
 10
3317.3572548203715
 20
350.5
 10
3318.6924210268717
 20
350.5
 10
3320.0275856544613
 20
350.5
 10
3321.3627485942507
 20
350.5
 10
3322.6979097373496
 20
350.5
 10
3324.0330689748694
 20
350.5
 10
3325.36822619792
 20
350.5
 10
3326.7033812976133
 20
350.5
 10
3328.0385341650594
 20
350.5
 10
3329.3736846913703
 20
350.5
 10
3330.708832767657
 20
350.5
 10
3332.0439782850312
 20
350.5
 10
3372.787065668779
 20
350.5
 10
3413.5301530525267
 20
350.5
 10
3454.2732404362746
 20
350.5
 10
3495.016327820022
 20
350.5
  0
LWPOLYLINE
  5
AE
330
17
100
AcDbEntity
  8
PIPE
100
AcDbPolyline
 90
5
 70
0
 10
3495.016327820022
 20
325.0
 10
3538.8951635443937
 20
325.4144748148475
 10
3582.773999268765
 20
325.828949629695
 10
3626.6528349931364
 20
326.2434244445425
 10
3670.531670717508
 20
326.65789925939004
  0
LWPOLYLINE
  5
AF
330
17
100
AcDbEntity
  8
PIPE
100
AcDbPolyline
 90
5
 70
0
 10
3495.016327820022
 20
280.5
 10
3538.8951635443937
 20
280.9144748148475
 10
3582.773999268765
 20
281.328949629695
 10
3626.6528349931364
 20
281.7434244445425
 10
3670.531670717508
 20
282.15789925939004
  0
LWPOLYLINE
  5
B0
330
17
100
AcDbEntity
  8
PIPE
100
AcDbPolyline
 90
5
 70
0
 10
3495.016327820022
 20
369.5
 10
3538.8951635443937
 20
369.9144748148475
 10
3582.773999268765
 20
370.328949629695
 10
3626.6528349931364
 20
370.7434244445425
 10
3670.531670717508
 20
371.15789925939004
  0
LWPOLYLINE
  5
B1
330
17
100
AcDbEntity
  8
PIPE
100
AcDbPolyline
 90
5
 70
0
 10
3495.016327820022
 20
325.0
 10
3538.8951635443937
 20
325.4144748148475
 10
3582.773999268765
 20
325.828949629695
 10
3626.6528349931364
 20
326.2434244445425
 10
3670.531670717508
 20
326.65789925939004
  0
LWPOLYLINE
  5
B2
330
17
100
AcDbEntity
  8
PIPE
100
AcDbPolyline
 90
5
 70
0
 10
3495.016327820022
 20
280.5
 10
3538.8951635443937
 20
280.9144748148475
 10
3582.773999268765
 20
281.328949629695
 10
3626.6528349931364
 20
281.7434244445425
 10
3670.531670717508
 20
282.15789925939004
  0
LWPOLYLINE
  5
B3
330
17
100
AcDbEntity
  8
PIPE
100
AcDbPolyline
 90
5
 70
0
 10
3495.016327820022
 20
369.5
 10
3538.8951635443937
 20
369.9144748148475
 10
3582.773999268765
 20
370.328949629695
 10
3626.6528349931364
 20
370.7434244445425
 10
3670.531670717508
 20
371.15789925939004
  0
CIRCLE
  5
B4
330
17
100
AcDbEntity
  8
HANGER
100
AcDbCircle
 10
300.0
 20
385.0
 30
0.0
 40
12.0
  0
CIRCLE
  5
B5
330
17
100
AcDbEntity
  8
HANGER
100
AcDbCircle
 10
1160.0
 20
385.0
 30
0.0
 40
12.0
  0
CIRCLE
  5
B6
330
17
100
AcDbEntity
  8
HANGER
100
AcDbCircle
 10
1820.0
 20
385.0
 30
0.0
 40
12.0
  0
CIRCLE
  5
B7
330
17
100
AcDbEntity
  8
HANGER
100
AcDbCircle
 10
2920.0
 20
420.0
 30
0.0
 40
12.0
  0
CIRCLE
  5
B8
330
17
100
AcDbEntity
  8
HANGER
100
AcDbCircle
 10
2920.0
 20
420.0
 30
0.0
 40
12.0
  0
CIRCLE
  5
B9
330
17
100
AcDbEntity
  8
HANGER
100
AcDbCircle
 10
3200.0
 20
420.0
 30
0.0
 40
12.0
  0
CIRCLE
  5
BA
330
17
100
AcDbEntity
  8
HANGER
100
AcDbCircle
 10
3200.0
 20
420.0
 30
0.0
 40
12.0
  0
CIRCLE
  5
BB
330
17
100
AcDbEntity
  8
HANGER
100
AcDbCircle
 10
1250.0
 20
392.0
 30
0.0
 40
12.0
  0
LINE
  5
BC
330
17
100
AcDbEntity
  8
DIM
100
AcDbLine
 10
0.0
 20
-480.0
 30
0.0
 11
2703.0
 21
-480.0
 31
0.0
  0
LINE
  5
BD
330
17
100
AcDbEntity
  8
DIM
100
AcDbLine
 10
0.0
 20
-510.0
 30
0.0
 11
0.0
 21
-450.0
 31
0.0
  0
LINE
  5
BE
330
17
100
AcDbEntity
  8
DIM
100
AcDbLine
 10
2703.0
 20
-510.0
 30
0.0
 11
2703.0
 21
-450.0
 31
0.0
  0
TEXT
  5
BF
330
17
100
AcDbEntity
  8
DIM
100
AcDbText
 10
1351.5
 20
-425.0
 30
0.0
 40
48.0
  1
колесная база 2703
 72
1
 11
1351.5
 21
-425.0
 31
0.0
100
AcDbText
 73
2
  0
LINE
  5
C0
330
17
100
AcDbEntity
  8
DIM
100
AcDbLine
 10
0.0
 20
-620.0
 30
0.0
 11
3630.0
 21
-620.0
 31
0.0
  0
LINE
  5
C1
330
17
100
AcDbEntity
  8
DIM
100
AcDbLine
 10
0.0
 20
-650.0
 30
0.0
 11
0.0
 21
-590.0
 31
0.0
  0
LINE
  5
C2
330
17
100
AcDbEntity
  8
DIM
100
AcDbLine
 10
3630.0
 20
-650.0
 30
0.0
 11
3630.0
 21
-590.0
 31
0.0
  0
TEXT
  5
C3
330
17
100
AcDbEntity
  8
DIM
100
AcDbText
 10
1815.0
 20
-565.0
 30
0.0
 40
48.0
  1
X до заднего бампера 3630
 72
1
 11
1815.0
 21
-565.0
 31
0.0
100
AcDbText
 73
2
  0
LINE
  5
C4
330
17
100
AcDbEntity
  8
DIM
100
AcDbLine
 10
1900.0
 20
-760.0
 30
0.0
 11
2860.0
 21
-760.0
 31
0.0
  0
LINE
  5
C5
330
17
100
AcDbEntity
  8
DIM
100
AcDbLine
 10
1900.0
 20
-790.0
 30
0.0
 11
1900.0
 21
-730.0
 31
0.0
  0
LINE
  5
C6
330
17
100
AcDbEntity
  8
DIM
100
AcDbLine
 10
2860.0
 20
-790.0
 30
0.0
 11
2860.0
 21
-730.0
 31
0.0
  0
TEXT
  5
C7
330
17
100
AcDbEntity
  8
DIM
100
AcDbText
 10
2380.0
 20
-705.0
 30
0.0
 40
48.0
  1
Y → вход банок 960
 72
1
 11
2380.0
 21
-705.0
 31
0.0
100
AcDbText
 73
2
  0
LINE
  5
C8
330
17
100
AcDbEntity
  8
DIM
100
AcDbLine
 10
2860.0
 20
-900.0
 30
0.0
 11
3240.0
 21
-900.0
 31
0.0
  0
LINE
  5
C9
330
17
100
AcDbEntity
  8
DIM
100
AcDbLine
 10
2860.0
 20
-930.0
 30
0.0
 11
2860.0
 21
-870.0
 31
0.0
  0
LINE
  5
CA
330
17
100
AcDbEntity
  8
DIM
100
AcDbLine
 10
3240.0
 20
-930.0
 30
0.0
 11
3240.0
 21
-870.0
 31
0.0
  0
TEXT
  5
CB
330
17
100
AcDbEntity
  8
DIM
100
AcDbText
 10
3050.0
 20
-845.0
 30
0.0
 40
48.0
  1
банка 380
 72
1
 11
3050.0
 21
-845.0
 31
0.0
100
AcDbText
 73
2
  0
LINE
  5
CC
330
17
100
AcDbEntity
  8
DIM
100
AcDbLine
 10
3240.0
 20
-1040.0
 30
0.0
 11
3685.0
 21
-1040.0
 31
0.0
  0
LINE
  5
CD
330
17
100
AcDbEntity
  8
DIM
100
AcDbLine
 10
3240.0
 20
-1070.0
 30
0.0
 11
3240.0
 21
-1010.0
 31
0.0
  0
LINE
  5
CE
330
17
100
AcDbEntity
  8
DIM
100
AcDbLine
 10
3685.0
 20
-1070.0
 30
0.0
 11
3685.0
 21
-1010.0
 31
0.0
  0
TEXT
  5
CF
330
17
100
AcDbEntity
  8
DIM
100
AcDbText
 10
3462.5
 20
-985.0
 30
0.0
 40
48.0
  1
банка → срез насадки 445
 72
1
 11
3462.5
 21
-985.0
 31
0.0
100
AcDbText
 73
2
  0
LINE
  5
D0
330
17
100
AcDbEntity
  8
DIM
100
AcDbLine
 10
-1145.0
 20
255.0
 30
0.0
 11
600.0
 21
255.0
 31
0.0
  0
TEXT
  5
D1
330
17
100
AcDbEntity
  8
DIM
100
AcDbText
 10
-1135.0
 20
300.0
 30
0.0
 40
42.0
  1
низ банки 255
 11
-1135.0
 21
300.0
 31
0.0
100
AcDbText
  0
LINE
  5
D2
330
17
100
AcDbEntity
  8
DIM
100
AcDbLine
 10
-1145.0
 20
330.0
 30
0.0
 11
600.0
 21
330.0
 31
0.0
  0
TEXT
  5
D3
330
17
100
AcDbEntity
  8
DIM
100
AcDbText
 10
-1135.0
 20
375.0
 30
0.0
 40
42.0
  1
ось трубы 330
 11
-1135.0
 21
375.0
 31
0.0
100
AcDbText
  0
LINE
  5
D4
330
17
100
AcDbEntity
  8
DIM
100
AcDbLine
 10
-1145.0
 20
520.0
 30
0.0
 11
600.0
 21
520.0
 31
0.0
  0
TEXT
  5
D5
330
17
100
AcDbEntity
  8
DIM
100
AcDbText
 10
-1135.0
 20
565.0
 30
0.0
 40
42.0
  1
низ пола 520
 11
-1135.0
 21
565.0
 31
0.0
100
AcDbText
  0
LINE
  5
D6
330
17
100
AcDbEntity
  8
DIM
100
AcDbLine
 10
-1145.0
 20
405.0
 30
0.0
 11
600.0
 21
405.0
 31
0.0
  0
TEXT
  5
D7
330
17
100
AcDbEntity
  8
DIM
100
AcDbText
 10
-1135.0
 20
450.0
 30
0.0
 40
42.0
  1
низ бака 405
 11
-1135.0
 21
450.0
 31
0.0
100
AcDbText
  0
TEXT
  5
D8
330
17
100
AcDbEntity
  8
TEXT
100
AcDbText
 10
-885.0
 20
-1250.0
 30
0.0
 40
70.0
  1
ВИД СБОКУ — 1:1, мм (X от оси передних колёс)
 11
-885.0
 21
-1250.0
 31
0.0
100
AcDbText
  0
LWPOLYLINE
  5
D9
330
17
100
AcDbEntity
  8
CAR
100
AcDbPolyline
 90
4
 70
1
 10
-885.0
 20
-876.5
 10
3630.0
 20
-876.5
 10
3630.0
 20
876.5
 10
-885.0
 20
876.5
  0
LWPOLYLINE
  5
DA
330
17
100
AcDbEntity
  8
CAR
100
AcDbPolyline
 90
4
 70
1
 10
2260.0
 20
-330.0
 10
2680.0
 20
-330.0
 10
2680.0
 20
330.0
 10
2260.0
 20
330.0
  0
LINE
  5
DB
330
17
100
AcDbEntity
  8
CAR
100
AcDbLine
 10
2350.0
 20
585.0
 30
0.0
 11
3000.0
 21
585.0
 31
0.0
  0
LINE
  5
DC
330
17
100
AcDbEntity
  8
CAR
100
AcDbLine
 10
2350.0
 20
-585.0
 30
0.0
 11
3000.0
 21
-585.0
 31
0.0
  0
LWPOLYLINE
  5
DD
330
17
100
AcDbEntity
  8
CAR
100
AcDbPolyline
 90
4
 70
1
 10
-115.0
 20
-876.5
 10
115.0
 20
-876.5
 10
115.0
 20
-631.5
 10
-115.0
 20
-631.5
  0
LWPOLYLINE
  5
DE
330
17
100
AcDbEntity
  8
CAR
100
AcDbPolyline
 90
4
 70
1
 10
-115.0
 20
876.5
 10
115.0
 20
876.5
 10
115.0
 20
631.5
 10
-115.0
 20
631.5
  0
LWPOLYLINE
  5
DF
330
17
100
AcDbEntity
  8
CAR
100
AcDbPolyline
 90
4
 70
1
 10
2588.0
 20
-876.5
 10
2818.0
 20
-876.5
 10
2818.0
 20
-631.5
 10
2588.0
 20
-631.5
  0
LWPOLYLINE
  5
E0
330
17
100
AcDbEntity
  8
CAR
100
AcDbPolyline
 90
4
 70
1
 10
2588.0
 20
876.5
 10
2818.0
 20
876.5
 10
2818.0
 20
631.5
 10
2588.0
 20
631.5
  0
LWPOLYLINE
  5
E1
330
17
100
AcDbEntity
  8
PIPE
100
AcDbPolyline
 90
82
 70
0
 10
-150.0
 20
-40.0
 10
-106.01794819572943
 20
-38.74336994844941
 10
-62.03589639145886
 20
-37.486739896898825
 10
-18.05384458718828
 20
-36.23010984534824
 10
25.928207217082274
 20
-34.97347979379765
 10
69.91025902135286
 20
-33.716849742247064
 10
70.46417501431155
 20
-33.701023571019675
 10
71.01809099974112
 20
-33.685197400007404
 10
71.57200697262213
 20
-33.66937122935366
 10
72.12592292793519
 20
-33.65354505920185
 10
72.67983886066087
 20
-33.63771888969541
 10
73.23375476577974
 20
-33.621892720977726
 10
73.78767063827239
 20
-33.60606655319222
 10
74.3415864731194
 20
-33.59024038648231
 10
74.89550226530136
 20
-33.57441422099139
 10
75.44941800979885
 20
-33.558588056862895
 10
76.00333370159245
 20
-33.54276189424022
 10
76.55724933566275
 20
-33.52693573326678
 10
77.11116490699033
 20
-33.51110957408599
 10
77.66508041055577
 20
-33.49528341684127
 10
78.21899584133968
 20
-33.47945726167601
 10
78.77291119432262
 20
-33.463631108733644
 10
79.32682646448518
 20
-33.44780495815757
 10
79.88074164680796
 20
-33.4319788100912
 10
80.43465673627155
 20
-33.41615266467796
 10
80.98857172785652
 20
-33.40032652206125
 10
81.54248661654348
 20
-33.38450038238448
 10
82.09640139731302
 20
-33.36867424579106
 10
82.65031606514572
 20
-33.35284811242441
 10
83.20423061502217
 20
-33.33702198242794
 10
124.26033310687603
 20
-32.16399048266069
 10
165.3164355987299
 20
-30.990958982893435
 10
206.37253809058376
 20
-29.817927483126184
 10
247.42864058243762
 20
-28.64489598335893
 10
288.4847430742915
 20
-27.471864483591673
 10
329.5408455661453
 20
-26.298832983824422
 10
370.59694805799927
 20
-25.12580148405717
 10
411.6530505498531
 20
-23.952769984289915
 10
452.70915304170694
 20
-22.77973848452266
 10
493.7652555335608
 20
-21.60670698475541
 10
534.8213580254146
 20
-20.433675484988157
 10
535.370542072768
 20
-20.41798451220663
 10
535.9197329951584
 20
-20.402293342995474
 10
536.4689307876092
 20
-20.38660197749688
 10
537.0181354451438
 20
-20.370910415853036
 10
537.5673469627853
 20
-20.355218658206134
 10
538.1165653355571
 20
-20.339526704698372
 10
538.6657905584822
 20
-20.32383455547194
 10
539.2150226265837
 20
-20.30814221066904
 10
539.7642615348848
 20
-20.292449670431868
 10
540.3135072784082
 20
-20.276756934902625
 10
540.862759852177
 20
-20.261064004223517
 10
541.4120192512139
 20
-20.245370878536747
 10
541.9612854705418
 20
-20.22967755798452
 10
542.5105585051834
 20
-20.213984042709047
 10
543.0598383501614
 20
-20.198290332852537
 10
543.6091250004982
 20
-20.1825964285572
 10
544.1584184512164
 20
-20.16690232996525
 10
544.7077186973386
 20
-20.1512080372189
 10
545.2570257338871
 20
-20.13551355046037
 10
545.8063395558843
 20
-20.119818869831878
 10
546.3556601583524
 20
-20.104123995475646
 10
546.9049875363137
 20
-20.088428927533894
 10
547.4543216847903
 20
-20.072733666148846
 10
548.0036625988045
 20
-20.05703821146273
 10
589.2985756765307
 20
-18.877183552099122
 10
630.5934887542569
 20
-17.697328892735516
 10
671.8884018319832
 20
-16.51747423337191
 10
713.1833149097093
 20
-15.337619574008302
 10
754.4782279874356
 20
-14.157764914644694
 10
795.7731410651618
 20
-12.97791025528109
 10
837.0680541428881
 20
-11.798055595917484
 10
878.3629672206143
 20
-10.618200936553876
 10
919.6578802983406
 20
-9.438346277190268
 10
960.9527933760668
 20
-8.258491617826662
 10
1002.247706453793
 20
-7.078636958463058
 10
1043.542619531519
 20
-5.898782299099452
 10
1084.8375326092455
 20
-4.718927639735844
 10
1126.1324456869716
 20
-3.5390729803722394
 10
1167.4273587646978
 20
-2.3592183210086297
 10
1208.722271842424
 20
-1.1793636616450236
 10
1250.0171849201504
 20
0.0004909977185825198
  0
LWPOLYLINE
  5
E2
330
17
100
AcDbEntity
  8
PIPE
100
AcDbPolyline
 90
82
 70
0
 10
-150.0
 20
-71.75
 10
-106.01794819572943
 20
-70.49336994844941
 10
-62.03589639145886
 20
-69.23673989689883
 10
-18.05384458718828
 20
-67.98010984534824
 10
25.928207217082274
 20
-66.72347979379765
 10
69.91025902135286
 20
-65.46684974224706
 10
70.46417501431155
 20
-65.45102357101968
 10
71.01809099974112
 20
-65.43519740000741
 10
71.57200697262213
 20
-65.41937122935366
 10
72.12592292793519
 20
-65.40354505920186
 10
72.67983886066087
 20
-65.3877188896954
 10
73.23375476577974
 20
-65.37189272097773
 10
73.78767063827239
 20
-65.35606655319222
 10
74.3415864731194
 20
-65.34024038648231
 10
74.89550226530136
 20
-65.3244142209914
 10
75.44941800979885
 20
-65.3085880568629
 10
76.00333370159245
 20
-65.29276189424021
 10
76.55724933566275
 20
-65.27693573326678
 10
77.11116490699033
 20
-65.26110957408599
 10
77.66508041055577
 20
-65.24528341684126
 10
78.21899584133968
 20
-65.229457261676
 10
78.77291119432262
 20
-65.21363110873364
 10
79.32682646448518
 20
-65.19780495815758
 10
79.88074164680796
 20
-65.18197881009121
 10
80.43465673627155
 20
-65.16615266467795
 10
80.98857172785652
 20
-65.15032652206125
 10
81.54248661654348
 20
-65.13450038238449
 10
82.09640139731302
 20
-65.11867424579106
 10
82.65031606514572
 20
-65.10284811242441
 10
83.20423061502217
 20
-65.08702198242794
 10
124.26033310687603
 20
-63.91399048266069
 10
165.3164355987299
 20
-62.74095898289343
 10
206.37253809058376
 20
-61.567927483126184
 10
247.42864058243762
 20
-60.39489598335893
 10
288.4847430742915
 20
-59.22186448359167
 10
329.5408455661453
 20
-58.048832983824425
 10
370.59694805799927
 20
-56.87580148405717
 10
411.6530505498531
 20
-55.702769984289915
 10
452.70915304170694
 20
-54.52973848452266
 10
493.7652555335608
 20
-53.356706984755405
 10
534.8213580254146
 20
-52.18367548498816
 10
535.370542072768
 20
-52.16798451220663
 10
535.9197329951584
 20
-52.15229334299548
 10
536.4689307876092
 20
-52.13660197749688
 10
537.0181354451438
 20
-52.12091041585303
 10
537.5673469627853
 20
-52.105218658206134
 10
538.1165653355571
 20
-52.08952670469837
 10
538.6657905584822
 20
-52.07383455547194
 10
539.2150226265837
 20
-52.05814221066904
 10
539.7642615348848
 20
-52.042449670431864
 10
540.3135072784082
 20
-52.02675693490262
 10
540.862759852177
 20
-52.01106400422351
 10
541.4120192512139
 20
-51.99537087853675
 10
541.9612854705418
 20
-51.979677557984516
 10
542.5105585051834
 20
-51.96398404270904
 10
543.0598383501614
 20
-51.94829033285254
 10
543.6091250004982
 20
-51.932596428557204
 10
544.1584184512164
 20
-51.916902329965254
 10
544.7077186973386
 20
-51.9012080372189
 10
545.2570257338871
 20
-51.885513550460374
 10
545.8063395558843
 20
-51.869818869831875
 10
546.3556601583524
 20
-51.854123995475646
 10
546.9049875363137
 20
-51.8384289275339
 10
547.4543216847903
 20
-51.82273366614885
 10
548.0036625988045
 20
-51.807038211462725
 10
589.2985756765307
 20
-50.627183552099126
 10
630.5934887542569
 20
-49.44732889273551
 10
671.8884018319832
 20
-48.267474233371914
 10
713.1833149097093
 20
-47.0876195740083
 10
754.4782279874356
 20
-45.907764914644694
 10
795.7731410651618
 20
-44.72791025528109
 10
837.0680541428881
 20
-43.54805559591748
 10
878.3629672206143
 20
-42.368200936553876
 10
919.6578802983406
 20
-41.18834627719027
 10
960.9527933760668
 20
-40.008491617826664
 10
1002.247706453793
 20
-38.82863695846306
 10
1043.542619531519
 20
-37.64878229909945
 10
1084.8375326092455
 20
-36.468927639735846
 10
1126.1324456869716
 20
-35.28907298037224
 10
1167.4273587646978
 20
-34.109218321008626
 10
1208.722271842424
 20
-32.92936366164503
 10
1250.0171849201504
 20
-31.749509002281417
  0
LWPOLYLINE
  5
E3
330
17
100
AcDbEntity
  8
PIPE
100
AcDbPolyline
 90
82
 70
0
 10
-150.0
 20
-8.25
 10
-106.01794819572943
 20
-6.993369948449413
 10
-62.03589639145886
 20
-5.7367398968988255
 10
-18.05384458718828
 20
-4.480109845348238
 10
25.928207217082274
 20
-3.223479793797651
 10
69.91025902135286
 20
-1.9668497422470637
 10
70.46417501431155
 20
-1.9510235710196753
 10
71.01809099974112
 20
-1.9351974000074037
 10
71.57200697262213
 20
-1.9193712293536578
 10
72.12592292793519
 20
-1.9035450592018535
 10
72.67983886066087
 20
-1.8877188896954067
 10
73.23375476577974
 20
-1.8718927209777263
 10
73.78767063827239
 20
-1.8560665531922211
 10
74.3415864731194
 20
-1.8402403864823071
 10
74.89550226530136
 20
-1.8244142209913932
 10
75.44941800979885
 20
-1.8085880568628951
 10
76.00333370159245
 20
-1.792761894240222
 10
76.55724933566275
 20
-1.7769357332667823
 10
77.11116490699033
 20
-1.7611095740859923
 10
77.66508041055577
 20
-1.7452834168412679
 10
78.21899584133968
 20
-1.7294572616760107
 10
78.77291119432262
 20
-1.7136311087336438
 10
79.32682646448518
 20
-1.697804958157569
 10
79.88074164680796
 20
-1.681978810091202
 10
80.43465673627155
 20
-1.6661526646779592
 10
80.98857172785652
 20
-1.650326522061249
 10
81.54248661654348
 20
-1.6345003823844806
 10
82.09640139731302
 20
-1.6186742457910626
 10
82.65031606514572
 20
-1.602848112424411
 10
83.20423061502217
 20
-1.5870219824279417
 10
124.26033310687603
 20
-0.4139904826606866
 10
165.3164355987299
 20
0.7590410171065649
 10
206.37253809058376
 20
1.9320725168738164
 10
247.42864058243762
 20
3.1051040166410715
 10
288.4847430742915
 20
4.278135516408327
 10
329.5408455661453
 20
5.451167016175578
 10
370.59694805799927
 20
6.62419851594283
 10
411.6530505498531
 20
7.797230015710085
 10
452.70915304170694
 20
8.97026151547734
 10
493.7652555335608
 20
10.143293015244591
 10
534.8213580254146
 20
11.316324515011843
 10
535.370542072768
 20
11.33201548779337
 10
535.9197329951584
 20
11.347706657004526
 10
536.4689307876092
 20
11.36339802250312
 10
537.0181354451438
 20
11.379089584146964
 10
537.5673469627853
 20
11.394781341793866
 10
538.1165653355571
 20
11.410473295301628
 10
538.6657905584822
 20
11.42616544452806
 10
539.2150226265837
 20
11.44185778933096
 10
539.7642615348848
 20
11.457550329568132
 10
540.3135072784082
 20
11.473243065097375
 10
540.862759852177
 20
11.488935995776483
 10
541.4120192512139
 20
11.504629121463253
 10
541.9612854705418
 20
11.52032244201548
 10
542.5105585051834
 20
11.536015957290953
 10
543.0598383501614
 20
11.551709667147463
 10
543.6091250004982
 20
11.5674035714428
 10
544.1584184512164
 20
11.58309767003475
 10
544.7077186973386
 20
11.5987919627811
 10
545.2570257338871
 20
11.61448644953963
 10
545.8063395558843
 20
11.630181130168122
 10
546.3556601583524
 20
11.645876004524354
 10
546.9049875363137
 20
11.661571072466106
 10
547.4543216847903
 20
11.677266333851154
 10
548.0036625988045
 20
11.692961788537271
 10
589.2985756765307
 20
12.872816447900878
 10
630.5934887542569
 20
14.052671107264484
 10
671.8884018319832
 20
15.23252576662809
 10
713.1833149097093
 20
16.4123804259917
 10
754.4782279874356
 20
17.592235085355306
 10
795.7731410651618
 20
18.77208974471891
 10
837.0680541428881
 20
19.951944404082518
 10
878.3629672206143
 20
21.131799063446124
 10
919.6578802983406
 20
22.31165372280973
 10
960.9527933760668
 20
23.491508382173336
 10
1002.247706453793
 20
24.671363041536942
 10
1043.542619531519
 20
25.85121770090055
 10
1084.8375326092455
 20
27.031072360264154
 10
1126.1324456869716
 20
28.21092701962776
 10
1167.4273587646978
 20
29.39078167899137
 10
1208.722271842424
 20
30.570636338354976
 10
1250.0171849201504
 20
31.750490997718583
  0
CIRCLE
  5
E4
330
17
100
AcDbEntity
  8
BEND
100
AcDbCircle
 10
83.0
 20
-33.0
 30
0.0
 40
18.0
  0
TEXT
  5
E5
330
17
100
AcDbEntity
  8
BEND
100
AcDbText
 10
113.0
 20
7.0
 30
0.0
 40
38.0
  1
B1 7.5 R102
 11
113.0
 21
7.0
 31
0.0
100
AcDbText
  0
CIRCLE
  5
E6
330
17
100
AcDbEntity
  8
BEND
100
AcDbCircle
 10
548.0
 20
-20.0
 30
0.0
 40
18.0
  0
TEXT
  5
E7
330
17
100
AcDbEntity
  8
BEND
100
AcDbText
 10
578.0
 20
20.0
 30
0.0
 40
38.0
  1
B2 7.5 R102
 11
578.0
 21
20.0
 31
0.0
100
AcDbText
  0
LWPOLYLINE
  5
E8
330
17
100
AcDbEntity
  8
PIPE
100
AcDbPolyline
 90
17
 70
0
 10
1250.0
 20
0.0004909977185825198
 10
1290.625
 20
0.0004909977185825198
 10
1331.25
 20
0.0004909977185825198
 10
1371.875
 20
0.0004909977185825198
 10
1412.5
 20
0.0004909977185825198
 10
1453.125
 20
0.0004909977185825198
 10
1493.75
 20
0.0004909977185825198
 10
1534.375
 20
0.0004909977185825198
 10
1575.0
 20
0.0004909977185825198
 10
1615.625
 20
0.0004909977185825198
 10
1656.25
 20
0.0004909977185825198
 10
1696.875
 20
0.0004909977185825198
 10
1737.5
 20
0.0004909977185825198
 10
1778.125
 20
0.0004909977185825198
 10
1818.75
 20
0.0004909977185825198
 10
1859.375
 20
0.0004909977185825198
 10
1900.0
 20
0.0004909977185825198
  0
LWPOLYLINE
  5
E9
330
17
100
AcDbEntity
  8
PIPE
100
AcDbPolyline
 90
17
 70
0
 10
1250.0
 20
-31.749509002281417
 10
1290.625
 20
-31.749509002281417
 10
1331.25
 20
-31.749509002281417
 10
1371.875
 20
-31.749509002281417
 10
1412.5
 20
-31.749509002281417
 10
1453.125
 20
-31.749509002281417
 10
1493.75
 20
-31.749509002281417
 10
1534.375
 20
-31.749509002281417
 10
1575.0
 20
-31.749509002281417
 10
1615.625
 20
-31.749509002281417
 10
1656.25
 20
-31.749509002281417
 10
1696.875
 20
-31.749509002281417
 10
1737.5
 20
-31.749509002281417
 10
1778.125
 20
-31.749509002281417
 10
1818.75
 20
-31.749509002281417
 10
1859.375
 20
-31.749509002281417
 10
1900.0
 20
-31.749509002281417
  0
LWPOLYLINE
  5
EA
330
17
100
AcDbEntity
  8
PIPE
100
AcDbPolyline
 90
17
 70
0
 10
1250.0
 20
31.750490997718583
 10
1290.625
 20
31.750490997718583
 10
1331.25
 20
31.750490997718583
 10
1371.875
 20
31.750490997718583
 10
1412.5
 20
31.750490997718583
 10
1453.125
 20
31.750490997718583
 10
1493.75
 20
31.750490997718583
 10
1534.375
 20
31.750490997718583
 10
1575.0
 20
31.750490997718583
 10
1615.625
 20
31.750490997718583
 10
1656.25
 20
31.750490997718583
 10
1696.875
 20
31.750490997718583
 10
1737.5
 20
31.750490997718583
 10
1778.125
 20
31.750490997718583
 10
1818.75
 20
31.750490997718583
 10
1859.375
 20
31.750490997718583
 10
1900.0
 20
31.750490997718583
  0
LWPOLYLINE
  5
EB
330
17
100
AcDbEntity
  8
PIPE
100
AcDbPolyline
 90
49
 70
0
 10
1900.0
 20
0.0004909977185825198
 10
1940.0
 20
0.0004909977185825198
 10
1980.0
 20
0.0004909977185825198
 10
2020.0
 20
0.0004909977185825198
 10
2060.0
 20
0.0004909977185825198
 10
2100.0
 20
0.0004909977185825198
 10
2101.4922564496046
 20
0.0009171545826725566
 10
2102.984512716657
 20
0.0017694682760972926
 10
2104.4767686794557
 20
0.0030479387293460562
 10
2105.9690242163
 20
0.004752565838152846
 10
2107.461279205488
 20
0.006883349463496342
 10
2108.953533525319
 20
0.009440289431599915
 10
2110.4457870540914
 20
0.012423385533931637
 10
2111.938039670104
 20
0.015832637527204308
 10
2113.430291251656
 20
0.019668045133375466
 10
2114.9225416770464
 20
0.023929608039647415
 10
2116.414790824574
 20
0.02861732589846725
 10
2117.9070385725386
 20
0.033731198327526885
 10
2119.399284799239
 20
0.03927122490976308
 10
2120.8915293829746
 20
0.045237405193357484
 10
2122.3837722020453
 20
0.05162973869173666
 10
2123.876013134751
 20
0.058448224883572146
 10
2125.368252059391
 20
0.06569286321278046
 10
2126.860488854266
 20
0.07336365308852319
 10
2128.3527233976756
 20
0.08146059388520699
 10
2129.844955567921
 20
0.0899836849424837
 10
2131.337185243302
 20
0.09893292556525034
 10
2132.82941230212
 20
0.10830831502364918
 10
2134.3216366226757
 20
0.11810985255306784
 10
2135.8138580832706
 20
0.1283375373541393
 10
2173.931182585144
 20
15.917050307406448
 10
2212.0485070870177
 20
31.705763077458755
 10
2250.1658315888913
 20
47.49447584751107
 10
2288.283156090765
 20
63.283188617563376
 10
2326.4004805926384
 20
79.07190138761568
 10
2364.517805094512
 20
94.860614157668
 10
2402.6351295963855
 20
110.64932692772031
 10
2440.752454098259
 20
126.43803969777261
 10
2478.8697786001326
 20
142.2267524678249
 10
2516.987103102006
 20
158.0154652378772
 10
2555.1044276038797
 20
173.80417800792952
 10
2593.2217521057532
 20
189.59289077798184
 10
2631.339076607627
 20
205.38160354803415
 10
2669.4564011095003
 20
221.17031631808646
 10
2707.573725611374
 20
236.95902908813875
 10
2745.6910501132475
 20
252.74774185819106
 10
2783.808374615121
 20
268.5364546282434
 10
2821.9256991169946
 20
284.32516739829566
 10
2860.043023618868
 20
300.113880168348
  0
LWPOLYLINE
  5
EC
330
17
100
AcDbEntity
  8
PIPE
100
AcDbPolyline
 90
49
 70
0
 10
1900.0
 20
-28.499509002281417
 10
1940.0
 20
-28.499509002281417
 10
1980.0
 20
-28.499509002281417
 10
2020.0
 20
-28.499509002281417
 10
2060.0
 20
-28.499509002281417
 10
2100.0
 20
-28.499509002281417
 10
2101.4922564496046
 20
-28.499082845417327
 10
2102.984512716657
 20
-28.4982305317239
 10
2104.4767686794557
 20
-28.496952061270655
 10
2105.9690242163
 20
-28.495247434161847
 10
2107.461279205488
 20
-28.493116650536503
 10
2108.953533525319
 20
-28.4905597105684
 10
2110.4457870540914
 20
-28.487576614466068
 10
2111.938039670104
 20
-28.484167362472796
 10
2113.430291251656
 20
-28.480331954866624
 10
2114.9225416770464
 20
-28.476070391960352
 10
2116.414790824574
 20
-28.471382674101534
 10
2117.9070385725386
 20
-28.466268801672474
 10
2119.399284799239
 20
-28.46072877509024
 10
2120.8915293829746
 20
-28.454762594806642
 10
2122.3837722020453
 20
-28.448370261308263
 10
2123.876013134751
 20
-28.441551775116427
 10
2125.368252059391
 20
-28.43430713678722
 10
2126.860488854266
 20
-28.426636346911476
 10
2128.3527233976756
 20
-28.418539406114792
 10
2129.844955567921
 20
-28.410016315057515
 10
2131.337185243302
 20
-28.40106707443475
 10
2132.82941230212
 20
-28.39169168497635
 10
2134.3216366226757
 20
-28.38189014744693
 10
2135.8138580832706
 20
-28.371662462645862
 10
2173.931182585144
 20
-12.582949692593552
 10
2212.0485070870177
 20
3.205763077458755
 10
2250.1658315888913
 20
18.99447584751107
 10
2288.283156090765
 20
34.783188617563376
 10
2326.4004805926384
 20
50.57190138761568
 10
2364.517805094512
 20
66.360614157668
 10
2402.6351295963855
 20
82.14932692772031
 10
2440.752454098259
 20
97.93803969777261
 10
2478.8697786001326
 20
113.7267524678249
 10
2516.987103102006
 20
129.5154652378772
 10
2555.1044276038797
 20
145.30417800792952
 10
2593.2217521057532
 20
161.09289077798184
 10
2631.339076607627
 20
176.88160354803415
 10
2669.4564011095003
 20
192.67031631808646
 10
2707.573725611374
 20
208.45902908813875
 10
2745.6910501132475
 20
224.24774185819106
 10
2783.808374615121
 20
240.0364546282434
 10
2821.9256991169946
 20
255.82516739829566
 10
2860.043023618868
 20
271.613880168348
  0
LWPOLYLINE
  5
ED
330
17
100
AcDbEntity
  8
PIPE
100
AcDbPolyline
 90
49
 70
0
 10
1900.0
 20
28.500490997718583
 10
1940.0
 20
28.500490997718583
 10
1980.0
 20
28.500490997718583
 10
2020.0
 20
28.500490997718583
 10
2060.0
 20
28.500490997718583
 10
2100.0
 20
28.500490997718583
 10
2101.4922564496046
 20
28.500917154582673
 10
2102.984512716657
 20
28.5017694682761
 10
2104.4767686794557
 20
28.503047938729345
 10
2105.9690242163
 20
28.504752565838153
 10
2107.461279205488
 20
28.506883349463497
 10
2108.953533525319
 20
28.5094402894316
 10
2110.4457870540914
 20
28.512423385533932
 10
2111.938039670104
 20
28.515832637527204
 10
2113.430291251656
 20
28.519668045133376
 10
2114.9225416770464
 20
28.523929608039648
 10
2116.414790824574
 20
28.528617325898466
 10
2117.9070385725386
 20
28.533731198327526
 10
2119.399284799239
 20
28.53927122490976
 10
2120.8915293829746
 20
28.545237405193358
 10
2122.3837722020453
 20
28.551629738691737
 10
2123.876013134751
 20
28.558448224883573
 10
2125.368252059391
 20
28.56569286321278
 10
2126.860488854266
 20
28.573363653088524
 10
2128.3527233976756
 20
28.581460593885208
 10
2129.844955567921
 20
28.589983684942485
 10
2131.337185243302
 20
28.59893292556525
 10
2132.82941230212
 20
28.60830831502365
 10
2134.3216366226757
 20
28.61810985255307
 10
2135.8138580832706
 20
28.628337537354138
 10
2173.931182585144
 20
44.41705030740645
 10
2212.0485070870177
 20
60.205763077458755
 10
2250.1658315888913
 20
75.99447584751107
 10
2288.283156090765
 20
91.78318861756338
 10
2326.4004805926384
 20
107.57190138761568
 10
2364.517805094512
 20
123.360614157668
 10
2402.6351295963855
 20
139.14932692772032
 10
2440.752454098259
 20
154.9380396977726
 10
2478.8697786001326
 20
170.7267524678249
 10
2516.987103102006
 20
186.5154652378772
 10
2555.1044276038797
 20
202.30417800792952
 10
2593.2217521057532
 20
218.09289077798184
 10
2631.339076607627
 20
233.88160354803415
 10
2669.4564011095003
 20
249.67031631808646
 10
2707.573725611374
 20
265.4590290881388
 10
2745.6910501132475
 20
281.24774185819103
 10
2783.808374615121
 20
297.0364546282434
 10
2821.9256991169946
 20
312.82516739829566
 10
2860.043023618868
 20
328.613880168348
  0
CIRCLE
  5
EE
330
17
100
AcDbEntity
  8
BEND
100
AcDbCircle
 10
2136.0
 20
0.0
 30
0.0
 40
18.0
  0
TEXT
  5
EF
330
17
100
AcDbEntity
  8
BEND
100
AcDbText
 10
2166.0
 20
40.0
 30
0.0
 40
38.0
  1
B1 22.5 R91
 11
2166.0
 21
40.0
 31
0.0
100
AcDbText
  0
LWPOLYLINE
  5
F0
330
17
100
AcDbEntity
  8
PIPE
100
AcDbPolyline
 90
49
 70
0
 10
1900.0
 20
0.0004909977185825198
 10
1940.0
 20
0.0004909977185825198
 10
1980.0
 20
0.0004909977185825198
 10
2020.0
 20
0.0004909977185825198
 10
2060.0
 20
0.0004909977185825198
 10
2100.0
 20
0.0004909977185825198
 10
2101.4922564496046
 20
6.484085449248316e-05
 10
2102.984512716657
 20
-0.0007874728389322529
 10
2104.4767686794557
 20
-0.0020659432921810166
 10
2105.9690242163
 20
-0.0037705704009878068
 10
2107.461279205488
 20
-0.005901354026331303
 10
2108.953533525319
 20
-0.008458293994434875
 10
2110.4457870540914
 20
-0.011441390096766597
 10
2111.938039670104
 20
-0.014850642090039268
 10
2113.430291251656
 20
-0.018686049696210426
 10
2114.9225416770464
 20
-0.022947612602482376
 10
2116.414790824574
 20
-0.02763533046130221
 10
2117.9070385725386
 20
-0.032749202890361845
 10
2119.399284799239
 20
-0.03828922947259804
 10
2120.8915293829746
 20
-0.044255409756192444
 10
2122.3837722020453
 20
-0.05064774325457162
 10
2123.876013134751
 20
-0.057466229446407106
 10
2125.368252059391
 20
-0.06471086777561542
 10
2126.860488854266
 20
-0.07238165765135815
 10
2128.3527233976756
 20
-0.08047859844804195
 10
2129.844955567921
 20
-0.08900168950531866
 10
2131.337185243302
 20
-0.0979509301280853
 10
2132.82941230212
 20
-0.10732631958648414
 10
2134.3216366226757
 20
-0.1171278571159028
 10
2135.8138580832706
 20
-0.12735554191697426
 10
2173.931182585144
 20
-15.916068311969283
 10
2212.0485070870177
 20
-31.70478108202159
 10
2250.1658315888913
 20
-47.493493852073904
 10
2288.283156090765
 20
-63.28220662212621
 10
2326.4004805926384
 20
-79.07091939217851
 10
2364.517805094512
 20
-94.85963216223082
 10
2402.6351295963855
 20
-110.64834493228314
 10
2440.752454098259
 20
-126.43705770233544
 10
2478.8697786001326
 20
-142.22577047238775
 10
2516.987103102006
 20
-158.01448324244006
 10
2555.1044276038797
 20
-173.80319601249238
 10
2593.2217521057532
 20
-189.5919087825447
 10
2631.339076607627
 20
-205.380621552597
 10
2669.4564011095003
 20
-221.16933432264932
 10
2707.573725611374
 20
-236.9580470927016
 10
2745.6910501132475
 20
-252.74675986275392
 10
2783.808374615121
 20
-268.53547263280626
 10
2821.9256991169946
 20
-284.3241854028585
 10
2860.043023618868
 20
-300.11289817291083
  0
LWPOLYLINE
  5
F1
330
17
100
AcDbEntity
  8
PIPE
100
AcDbPolyline
 90
49
 70
0
 10
1900.0
 20
-28.499509002281417
 10
1940.0
 20
-28.499509002281417
 10
1980.0
 20
-28.499509002281417
 10
2020.0
 20
-28.499509002281417
 10
2060.0
 20
-28.499509002281417
 10
2100.0
 20
-28.499509002281417
 10
2101.4922564496046
 20
-28.499935159145508
 10
2102.984512716657
 20
-28.500787472838933
 10
2104.4767686794557
 20
-28.50206594329218
 10
2105.9690242163
 20
-28.503770570400988
 10
2107.461279205488
 20
-28.50590135402633
 10
2108.953533525319
 20
-28.508458293994433
 10
2110.4457870540914
 20
-28.511441390096767
 10
2111.938039670104
 20
-28.51485064209004
 10
2113.430291251656
 20
-28.51868604969621
 10
2114.9225416770464
 20
-28.522947612602483
 10
2116.414790824574
 20
-28.5276353304613
 10
2117.9070385725386
 20
-28.53274920289036
 10
2119.399284799239
 20
-28.538289229472596
 10
2120.8915293829746
 20
-28.544255409756193
 10
2122.3837722020453
 20
-28.550647743254572
 10
2123.876013134751
 20
-28.55746622944641
 10
2125.368252059391
 20
-28.564710867775617
 10
2126.860488854266
 20
-28.57238165765136
 10
2128.3527233976756
 20
-28.580478598448043
 10
2129.844955567921
 20
-28.58900168950532
 10
2131.337185243302
 20
-28.597950930128086
 10
2132.82941230212
 20
-28.607326319586484
 10
2134.3216366226757
 20
-28.617127857115904
 10
2135.8138580832706
 20
-28.627355541916973
 10
2173.931182585144
 20
-44.41606831196928
 10
2212.0485070870177
 20
-60.20478108202159
 10
2250.1658315888913
 20
-75.9934938520739
 10
2288.283156090765
 20
-91.78220662212621
 10
2326.4004805926384
 20
-107.57091939217851
 10
2364.517805094512
 20
-123.35963216223082
 10
2402.6351295963855
 20
-139.14834493228312
 10
2440.752454098259
 20
-154.93705770233544
 10
2478.8697786001326
 20
-170.72577047238775
 10
2516.987103102006
 20
-186.51448324244006
 10
2555.1044276038797
 20
-202.30319601249238
 10
2593.2217521057532
 20
-218.0919087825447
 10
2631.339076607627
 20
-233.880621552597
 10
2669.4564011095003
 20
-249.66933432264932
 10
2707.573725611374
 20
-265.4580470927016
 10
2745.6910501132475
 20
-281.24675986275395
 10
2783.808374615121
 20
-297.03547263280626
 10
2821.9256991169946
 20
-312.8241854028585
 10
2860.043023618868
 20
-328.61289817291083
  0
LWPOLYLINE
  5
F2
330
17
100
AcDbEntity
  8
PIPE
100
AcDbPolyline
 90
49
 70
0
 10
1900.0
 20
28.500490997718583
 10
1940.0
 20
28.500490997718583
 10
1980.0
 20
28.500490997718583
 10
2020.0
 20
28.500490997718583
 10
2060.0
 20
28.500490997718583
 10
2100.0
 20
28.500490997718583
 10
2101.4922564496046
 20
28.500064840854492
 10
2102.984512716657
 20
28.499212527161067
 10
2104.4767686794557
 20
28.49793405670782
 10
2105.9690242163
 20
28.496229429599012
 10
2107.461279205488
 20
28.49409864597367
 10
2108.953533525319
 20
28.491541706005567
 10
2110.4457870540914
 20
28.488558609903233
 10
2111.938039670104
 20
28.48514935790996
 10
2113.430291251656
 20
28.48131395030379
 10
2114.9225416770464
 20
28.477052387397517
 10
2116.414790824574
 20
28.4723646695387
 10
2117.9070385725386
 20
28.46725079710964
 10
2119.399284799239
 20
28.461710770527404
 10
2120.8915293829746
 20
28.455744590243807
 10
2122.3837722020453
 20
28.449352256745428
 10
2123.876013134751
 20
28.44253377055359
 10
2125.368252059391
 20
28.435289132224383
 10
2126.860488854266
 20
28.42761834234864
 10
2128.3527233976756
 20
28.419521401551957
 10
2129.844955567921
 20
28.41099831049468
 10
2131.337185243302
 20
28.402049069871914
 10
2132.82941230212
 20
28.392673680413516
 10
2134.3216366226757
 20
28.382872142884096
 10
2135.8138580832706
 20
28.372644458083027
 10
2173.931182585144
 20
12.583931688030717
 10
2212.0485070870177
 20
-3.20478108202159
 10
2250.1658315888913
 20
-18.993493852073904
 10
2288.283156090765
 20
-34.78220662212621
 10
2326.4004805926384
 20
-50.57091939217851
 10
2364.517805094512
 20
-66.35963216223082
 10
2402.6351295963855
 20
-82.14834493228314
 10
2440.752454098259
 20
-97.93705770233544
 10
2478.8697786001326
 20
-113.72577047238775
 10
2516.987103102006
 20
-129.51448324244006
 10
2555.1044276038797
 20
-145.30319601249238
 10
2593.2217521057532
 20
-161.0919087825447
 10
2631.339076607627
 20
-176.880621552597
 10
2669.4564011095003
 20
-192.66933432264932
 10
2707.573725611374
 20
-208.4580470927016
 10
2745.6910501132475
 20
-224.24675986275392
 10
2783.808374615121
 20
-240.03547263280626
 10
2821.9256991169946
 20
-255.82418540285852
 10
2860.043023618868
 20
-271.61289817291083
  0
CIRCLE
  5
F3
330
17
100
AcDbEntity
  8
BEND
100
AcDbCircle
 10
2136.0
 20
-0.0
 30
0.0
 40
18.0
  0
TEXT
  5
F4
330
17
100
AcDbEntity
  8
BEND
100
AcDbText
 10
2166.0
 20
40.0
 30
0.0
 40
38.0
  1
B1 22.5 R91
 11
2166.0
 21
40.0
 31
0.0
100
AcDbText
  0
LWPOLYLINE
  5
F5
330
17
100
AcDbEntity
  8
BOX
100
AcDbPolyline
 90
4
 70
1
 10
2860.0
 20
245.0
 10
3240.0
 20
245.0
 10
3240.0
 20
475.0
 10
2860.0
 20
475.0
  0
LWPOLYLINE
  5
F6
330
17
100
AcDbEntity
  8
BOX
100
AcDbPolyline
 90
4
 70
1
 10
2860.0
 20
-475.0
 10
3240.0
 20
-475.0
 10
3240.0
 20
-245.0
 10
2860.0
 20
-245.0
  0
LWPOLYLINE
  5
F7
330
17
100
AcDbEntity
  8
PIPE
100
AcDbPolyline
 90
31
 70
0
 10
3240.0
 20
441.5
 10
3270.0
 20
441.5
 10
3300.0
 20
441.5
 10
3301.33517682333
 20
441.5003812982468
 10
3302.6703534833246
 20
441.50114389470934
 10
3304.005529871092
 20
441.5022877893254
 10
3305.3407058777425
 20
441.5038129820017
 10
3306.6758813943843
 20
441.50571947261386
 10
3308.0110563121275
 20
441.50800726100636
 10
3309.346230522082
 20
441.5106763469926
 10
3310.6814039153564
 20
441.513726730355
 10
3312.016576383061
 20
441.51715841084473
 10
3313.351747816305
 20
441.5209713881819
 10
3314.686918106198
 20
441.5251656620556
 10
3316.02208714385
 20
441.5297412321237
 10
3317.3572548203715
 20
441.53469809801305
 10
3318.6924210268717
 20
441.54003625931944
 10
3320.0275856544613
 20
441.54575571560747
 10
3321.3627485942507
 20
441.5518564664107
 10
3322.6979097373496
 20
441.55833851123157
 10
3324.0330689748694
 20
441.56520184954144
 10
3325.36822619792
 20
441.57244648078057
 10
3326.7033812976133
 20
441.58007240435813
 10
3328.0385341650594
 20
441.5880796196522
 10
3329.3736846913703
 20
441.5964681260097
 10
3330.708832767657
 20
441.60523792274654
 10
3332.0439782850312
 20
441.6143890091475
 10
3372.787065668779
 20
458.4907283764479
 10
3413.5301530525267
 20
475.3670677437484
 10
3454.2732404362746
 20
492.2434071110489
 10
3495.016327820022
 20
509.1197464783493
  0
LWPOLYLINE
  5
F8
330
17
100
AcDbEntity
  8
PIPE
100
AcDbPolyline
 90
31
 70
0
 10
3240.0
 20
416.0
 10
3270.0
 20
416.0
 10
3300.0
 20
416.0
 10
3301.33517682333
 20
416.0003812982468
 10
3302.6703534833246
 20
416.00114389470934
 10
3304.005529871092
 20
416.0022877893254
 10
3305.3407058777425
 20
416.0038129820017
 10
3306.6758813943843
 20
416.00571947261386
 10
3308.0110563121275
 20
416.00800726100636
 10
3309.346230522082
 20
416.0106763469926
 10
3310.6814039153564
 20
416.013726730355
 10
3312.016576383061
 20
416.01715841084473
 10
3313.351747816305
 20
416.0209713881819
 10
3314.686918106198
 20
416.0251656620556
 10
3316.02208714385
 20
416.0297412321237
 10
3317.3572548203715
 20
416.03469809801305
 10
3318.6924210268717
 20
416.04003625931944
 10
3320.0275856544613
 20
416.04575571560747
 10
3321.3627485942507
 20
416.0518564664107
 10
3322.6979097373496
 20
416.05833851123157
 10
3324.0330689748694
 20
416.06520184954144
 10
3325.36822619792
 20
416.07244648078057
 10
3326.7033812976133
 20
416.08007240435813
 10
3328.0385341650594
 20
416.0880796196522
 10
3329.3736846913703
 20
416.0964681260097
 10
3330.708832767657
 20
416.10523792274654
 10
3332.0439782850312
 20
416.1143890091475
 10
3372.787065668779
 20
432.9907283764479
 10
3413.5301530525267
 20
449.8670677437484
 10
3454.2732404362746
 20
466.7434071110489
 10
3495.016327820022
 20
483.6197464783493
  0
LWPOLYLINE
  5
F9
330
17
100
AcDbEntity
  8
PIPE
100
AcDbPolyline
 90
31
 70
0
 10
3240.0
 20
467.0
 10
3270.0
 20
467.0
 10
3300.0
 20
467.0
 10
3301.33517682333
 20
467.0003812982468
 10
3302.6703534833246
 20
467.00114389470934
 10
3304.005529871092
 20
467.0022877893254
 10
3305.3407058777425
 20
467.0038129820017
 10
3306.6758813943843
 20
467.00571947261386
 10
3308.0110563121275
 20
467.00800726100636
 10
3309.346230522082
 20
467.0106763469926
 10
3310.6814039153564
 20
467.013726730355
 10
3312.016576383061
 20
467.01715841084473
 10
3313.351747816305
 20
467.0209713881819
 10
3314.686918106198
 20
467.0251656620556
 10
3316.02208714385
 20
467.0297412321237
 10
3317.3572548203715
 20
467.03469809801305
 10
3318.6924210268717
 20
467.04003625931944
 10
3320.0275856544613
 20
467.04575571560747
 10
3321.3627485942507
 20
467.0518564664107
 10
3322.6979097373496
 20
467.05833851123157
 10
3324.0330689748694
 20
467.06520184954144
 10
3325.36822619792
 20
467.07244648078057
 10
3326.7033812976133
 20
467.08007240435813
 10
3328.0385341650594
 20
467.0880796196522
 10
3329.3736846913703
 20
467.0964681260097
 10
3330.708832767657
 20
467.10523792274654
 10
3332.0439782850312
 20
467.1143890091475
 10
3372.787065668779
 20
483.9907283764479
 10
3413.5301530525267
 20
500.8670677437484
 10
3454.2732404362746
 20
517.7434071110489
 10
3495.016327820022
 20
534.6197464783493
  0
CIRCLE
  5
FA
330
17
100
AcDbEntity
  8
BEND
100
AcDbCircle
 10
3332.0
 20
442.0
 30
0.0
 40
18.0
  0
TEXT
  5
FB
330
17
100
AcDbEntity
  8
BEND
100
AcDbText
 10
3362.0
 20
482.0
 30
0.0
 40
38.0
  1
B1 22.5 R82
 11
3362.0
 21
482.0
 31
0.0
100
AcDbText
  0
LWPOLYLINE
  5
FC
330
17
100
AcDbEntity
  8
PIPE
100
AcDbPolyline
 90
31
 70
0
 10
3240.0
 20
-441.5
 10
3270.0
 20
-441.5
 10
3300.0
 20
-441.5
 10
3301.33517682333
 20
-441.5003812982468
 10
3302.6703534833246
 20
-441.50114389470934
 10
3304.005529871092
 20
-441.5022877893254
 10
3305.3407058777425
 20
-441.5038129820017
 10
3306.6758813943843
 20
-441.50571947261386
 10
3308.0110563121275
 20
-441.50800726100636
 10
3309.346230522082
 20
-441.5106763469926
 10
3310.6814039153564
 20
-441.513726730355
 10
3312.016576383061
 20
-441.51715841084473
 10
3313.351747816305
 20
-441.5209713881819
 10
3314.686918106198
 20
-441.5251656620556
 10
3316.02208714385
 20
-441.5297412321237
 10
3317.3572548203715
 20
-441.53469809801305
 10
3318.6924210268717
 20
-441.54003625931944
 10
3320.0275856544613
 20
-441.54575571560747
 10
3321.3627485942507
 20
-441.5518564664107
 10
3322.6979097373496
 20
-441.55833851123157
 10
3324.0330689748694
 20
-441.56520184954144
 10
3325.36822619792
 20
-441.57244648078057
 10
3326.7033812976133
 20
-441.58007240435813
 10
3328.0385341650594
 20
-441.5880796196522
 10
3329.3736846913703
 20
-441.5964681260097
 10
3330.708832767657
 20
-441.60523792274654
 10
3332.0439782850312
 20
-441.6143890091475
 10
3372.787065668779
 20
-458.4907283764479
 10
3413.5301530525267
 20
-475.3670677437484
 10
3454.2732404362746
 20
-492.2434071110489
 10
3495.016327820022
 20
-509.1197464783493
  0
LWPOLYLINE
  5
FD
330
17
100
AcDbEntity
  8
PIPE
100
AcDbPolyline
 90
31
 70
0
 10
3240.0
 20
-467.0
 10
3270.0
 20
-467.0
 10
3300.0
 20
-467.0
 10
3301.33517682333
 20
-467.0003812982468
 10
3302.6703534833246
 20
-467.00114389470934
 10
3304.005529871092
 20
-467.0022877893254
 10
3305.3407058777425
 20
-467.0038129820017
 10
3306.6758813943843
 20
-467.00571947261386
 10
3308.0110563121275
 20
-467.00800726100636
 10
3309.346230522082
 20
-467.0106763469926
 10
3310.6814039153564
 20
-467.013726730355
 10
3312.016576383061
 20
-467.01715841084473
 10
3313.351747816305
 20
-467.0209713881819
 10
3314.686918106198
 20
-467.0251656620556
 10
3316.02208714385
 20
-467.0297412321237
 10
3317.3572548203715
 20
-467.03469809801305
 10
3318.6924210268717
 20
-467.04003625931944
 10
3320.0275856544613
 20
-467.04575571560747
 10
3321.3627485942507
 20
-467.0518564664107
 10
3322.6979097373496
 20
-467.05833851123157
 10
3324.0330689748694
 20
-467.06520184954144
 10
3325.36822619792
 20
-467.07244648078057
 10
3326.7033812976133
 20
-467.08007240435813
 10
3328.0385341650594
 20
-467.0880796196522
 10
3329.3736846913703
 20
-467.0964681260097
 10
3330.708832767657
 20
-467.10523792274654
 10
3332.0439782850312
 20
-467.1143890091475
 10
3372.787065668779
 20
-483.9907283764479
 10
3413.5301530525267
 20
-500.8670677437484
 10
3454.2732404362746
 20
-517.7434071110489
 10
3495.016327820022
 20
-534.6197464783493
  0
LWPOLYLINE
  5
FE
330
17
100
AcDbEntity
  8
PIPE
100
AcDbPolyline
 90
31
 70
0
 10
3240.0
 20
-416.0
 10
3270.0
 20
-416.0
 10
3300.0
 20
-416.0
 10
3301.33517682333
 20
-416.0003812982468
 10
3302.6703534833246
 20
-416.00114389470934
 10
3304.005529871092
 20
-416.0022877893254
 10
3305.3407058777425
 20
-416.0038129820017
 10
3306.6758813943843
 20
-416.00571947261386
 10
3308.0110563121275
 20
-416.00800726100636
 10
3309.346230522082
 20
-416.0106763469926
 10
3310.6814039153564
 20
-416.013726730355
 10
3312.016576383061
 20
-416.01715841084473
 10
3313.351747816305
 20
-416.0209713881819
 10
3314.686918106198
 20
-416.0251656620556
 10
3316.02208714385
 20
-416.0297412321237
 10
3317.3572548203715
 20
-416.03469809801305
 10
3318.6924210268717
 20
-416.04003625931944
 10
3320.0275856544613
 20
-416.04575571560747
 10
3321.3627485942507
 20
-416.0518564664107
 10
3322.6979097373496
 20
-416.05833851123157
 10
3324.0330689748694
 20
-416.06520184954144
 10
3325.36822619792
 20
-416.07244648078057
 10
3326.7033812976133
 20
-416.08007240435813
 10
3328.0385341650594
 20
-416.0880796196522
 10
3329.3736846913703
 20
-416.0964681260097
 10
3330.708832767657
 20
-416.10523792274654
 10
3332.0439782850312
 20
-416.1143890091475
 10
3372.787065668779
 20
-432.9907283764479
 10
3413.5301530525267
 20
-449.8670677437484
 10
3454.2732404362746
 20
-466.7434071110489
 10
3495.016327820022
 20
-483.6197464783493
  0
CIRCLE
  5
FF
330
17
100
AcDbEntity
  8
BEND
100
AcDbCircle
 10
3332.0
 20
-442.0
 30
0.0
 40
18.0
  0
TEXT
  5
100
330
17
100
AcDbEntity
  8
BEND
100
AcDbText
 10
3362.0
 20
-402.0
 30
0.0
 40
38.0
  1
B1 22.5 R82
 11
3362.0
 21
-402.0
 31
0.0
100
AcDbText
  0
LWPOLYLINE
  5
101
330
17
100
AcDbEntity
  8
PIPE
100
AcDbPolyline
 90
5
 70
0
 10
3495.016327820022
 20
509.1197464783493
 10
3538.8951635443937
 20
527.2949553365252
 10
3582.773999268765
 20
545.4701641947009
 10
3626.6528349931364
 20
563.6453730528768
 10
3670.531670717508
 20
581.8205819110526
  0
LWPOLYLINE
  5
102
330
17
100
AcDbEntity
  8
PIPE
100
AcDbPolyline
 90
5
 70
0
 10
3495.016327820022
 20
464.6197464783493
 10
3538.8951635443937
 20
482.79495533652516
 10
3582.773999268765
 20
500.97016419470094
 10
3626.6528349931364
 20
519.1453730528768
 10
3670.531670717508
 20
537.3205819110526
  0
LWPOLYLINE
  5
103
330
17
100
AcDbEntity
  8
PIPE
100
AcDbPolyline
 90
5
 70
0
 10
3495.016327820022
 20
553.6197464783493
 10
3538.8951635443937
 20
571.7949553365252
 10
3582.773999268765
 20
589.9701641947009
 10
3626.6528349931364
 20
608.1453730528768
 10
3670.531670717508
 20
626.3205819110526
  0
LWPOLYLINE
  5
104
330
17
100
AcDbEntity
  8
PIPE
100
AcDbPolyline
 90
5
 70
0
 10
3495.016327820022
 20
-509.1197464783493
 10
3538.8951635443937
 20
-527.2949553365252
 10
3582.773999268765
 20
-545.4701641947009
 10
3626.6528349931364
 20
-563.6453730528768
 10
3670.531670717508
 20
-581.8205819110526
  0
LWPOLYLINE
  5
105
330
17
100
AcDbEntity
  8
PIPE
100
AcDbPolyline
 90
5
 70
0
 10
3495.016327820022
 20
-553.6197464783493
 10
3538.8951635443937
 20
-571.7949553365252
 10
3582.773999268765
 20
-589.9701641947009
 10
3626.6528349931364
 20
-608.1453730528768
 10
3670.531670717508
 20
-626.3205819110526
  0
LWPOLYLINE
  5
106
330
17
100
AcDbEntity
  8
PIPE
100
AcDbPolyline
 90
5
 70
0
 10
3495.016327820022
 20
-464.6197464783493
 10
3538.8951635443937
 20
-482.79495533652516
 10
3582.773999268765
 20
-500.97016419470094
 10
3626.6528349931364
 20
-519.1453730528768
 10
3670.531670717508
 20
-537.3205819110526
  0
CIRCLE
  5
107
330
17
100
AcDbEntity
  8
HANGER
100
AcDbCircle
 10
300.0
 20
-37.0
 30
0.0
 40
12.0
  0
CIRCLE
  5
108
330
17
100
AcDbEntity
  8
HANGER
100
AcDbCircle
 10
1160.0
 20
0.0
 30
0.0
 40
12.0
  0
CIRCLE
  5
109
330
17
100
AcDbEntity
  8
HANGER
100
AcDbCircle
 10
1820.0
 20
0.0
 30
0.0
 40
12.0
  0
CIRCLE
  5
10A
330
17
100
AcDbEntity
  8
HANGER
100
AcDbCircle
 10
2920.0
 20
360.0
 30
0.0
 40
12.0
  0
CIRCLE
  5
10B
330
17
100
AcDbEntity
  8
HANGER
100
AcDbCircle
 10
2920.0
 20
-360.0
 30
0.0
 40
12.0
  0
CIRCLE
  5
10C
330
17
100
AcDbEntity
  8
HANGER
100
AcDbCircle
 10
3200.0
 20
360.0
 30
0.0
 40
12.0
  0
CIRCLE
  5
10D
330
17
100
AcDbEntity
  8
HANGER
100
AcDbCircle
 10
3200.0
 20
-360.0
 30
0.0
 40
12.0
  0
CIRCLE
  5
10E
330
17
100
AcDbEntity
  8
HANGER
100
AcDbCircle
 10
1250.0
 20
0.0
 30
0.0
 40
12.0
  0
LINE
  5
10F
330
17
100
AcDbEntity
  8
DIM
100
AcDbLine
 10
0.0
 20
1180.0
 30
0.0
 11
2703.0
 21
1180.0
 31
0.0
  0
LINE
  5
110
330
17
100
AcDbEntity
  8
DIM
100
AcDbLine
 10
0.0
 20
1150.0
 30
0.0
 11
0.0
 21
1210.0
 31
0.0
  0
LINE
  5
111
330
17
100
AcDbEntity
  8
DIM
100
AcDbLine
 10
2703.0
 20
1150.0
 30
0.0
 11
2703.0
 21
1210.0
 31
0.0
  0
TEXT
  5
112
330
17
100
AcDbEntity
  8
DIM
100
AcDbText
 10
1351.5
 20
1235.0
 30
0.0
 40
48.0
  1
колесная база 2703
 72
1
 11
1351.5
 21
1235.0
 31
0.0
100
AcDbText
 73
2
  0
LINE
  5
113
330
17
100
AcDbEntity
  8
DIM
100
AcDbLine
 10
0.0
 20
1320.0
 30
0.0
 11
3630.0
 21
1320.0
 31
0.0
  0
LINE
  5
114
330
17
100
AcDbEntity
  8
DIM
100
AcDbLine
 10
0.0
 20
1290.0
 30
0.0
 11
0.0
 21
1350.0
 31
0.0
  0
LINE
  5
115
330
17
100
AcDbEntity
  8
DIM
100
AcDbLine
 10
3630.0
 20
1290.0
 30
0.0
 11
3630.0
 21
1350.0
 31
0.0
  0
TEXT
  5
116
330
17
100
AcDbEntity
  8
DIM
100
AcDbText
 10
1815.0
 20
1375.0
 30
0.0
 40
48.0
  1
X до заднего бампера 3630
 72
1
 11
1815.0
 21
1375.0
 31
0.0
100
AcDbText
 73
2
  0
LINE
  5
117
330
17
100
AcDbEntity
  8
DIM
100
AcDbLine
 10
1900.0
 20
1460.0
 30
0.0
 11
2860.0
 21
1460.0
 31
0.0
  0
LINE
  5
118
330
17
100
AcDbEntity
  8
DIM
100
AcDbLine
 10
1900.0
 20
1430.0
 30
0.0
 11
1900.0
 21
1490.0
 31
0.0
  0
LINE
  5
119
330
17
100
AcDbEntity
  8
DIM
100
AcDbLine
 10
2860.0
 20
1430.0
 30
0.0
 11
2860.0
 21
1490.0
 31
0.0
  0
TEXT
  5
11A
330
17
100
AcDbEntity
  8
DIM
100
AcDbText
 10
2380.0
 20
1515.0
 30
0.0
 40
48.0
  1
Y → вход банок 960
 72
1
 11
2380.0
 21
1515.0
 31
0.0
100
AcDbText
 73
2
  0
LINE
  5
11B
330
17
100
AcDbEntity
  8
DIM
100
AcDbLine
 10
2860.0
 20
1600.0
 30
0.0
 11
3240.0
 21
1600.0
 31
0.0
  0
LINE
  5
11C
330
17
100
AcDbEntity
  8
DIM
100
AcDbLine
 10
2860.0
 20
1570.0
 30
0.0
 11
2860.0
 21
1630.0
 31
0.0
  0
LINE
  5
11D
330
17
100
AcDbEntity
  8
DIM
100
AcDbLine
 10
3240.0
 20
1570.0
 30
0.0
 11
3240.0
 21
1630.0
 31
0.0
  0
TEXT
  5
11E
330
17
100
AcDbEntity
  8
DIM
100
AcDbText
 10
3050.0
 20
1655.0
 30
0.0
 40
48.0
  1
банка 380
 72
1
 11
3050.0
 21
1655.0
 31
0.0
100
AcDbText
 73
2
  0
LINE
  5
11F
330
17
100
AcDbEntity
  8
DIM
100
AcDbLine
 10
3240.0
 20
1740.0
 30
0.0
 11
3685.0
 21
1740.0
 31
0.0
  0
LINE
  5
120
330
17
100
AcDbEntity
  8
DIM
100
AcDbLine
 10
3240.0
 20
1710.0
 30
0.0
 11
3240.0
 21
1770.0
 31
0.0
  0
LINE
  5
121
330
17
100
AcDbEntity
  8
DIM
100
AcDbLine
 10
3685.0
 20
1710.0
 30
0.0
 11
3685.0
 21
1770.0
 31
0.0
  0
TEXT
  5
122
330
17
100
AcDbEntity
  8
DIM
100
AcDbText
 10
3462.5
 20
1795.0
 30
0.0
 40
48.0
  1
банка → срез насадки 445
 72
1
 11
3462.5
 21
1795.0
 31
0.0
100
AcDbText
 73
2
  0
TEXT
  5
123
330
17
100
AcDbEntity
  8
TEXT
100
AcDbText
 10
-885.0
 20
-1250.0
 30
0.0
 40
70.0
  1
ВИД СВЕРХУ — 1:1, мм (X от оси передних колёс)
 11
-885.0
 21
-1250.0
 31
0.0
100
AcDbText
  0
TEXT
  5
124
330
17
100
AcDbEntity
  8
TEXT
100
AcDbText
 10
0.0
 20
-1700.0
 30
0.0
 40
60.0
  1
РАСКРОЙ (развертка = длина по оси трубы; гибы отдельными позициями)
 11
0.0
 21
-1700.0
 31
0.0
100
AcDbText
  0
TEXT
  5
125
330
17
100
AcDbEntity
  8
TEXT
100
AcDbText
 10
0.0
 20
-1850.0
 30
0.0
 40
40.0
  1
деталь
 11
0.0
 21
-1850.0
 31
0.0
100
AcDbText
  0
TEXT
  5
126
330
17
100
AcDbEntity
  8
TEXT
100
AcDbText
 10
620.0
 20
-1850.0
 30
0.0
 40
40.0
  1
OD
 11
620.0
 21
-1850.0
 31
0.0
100
AcDbText
  0
TEXT
  5
127
330
17
100
AcDbEntity
  8
TEXT
100
AcDbText
 10
1240.0
 20
-1850.0
 30
0.0
 40
40.0
  1
стенка
 11
1240.0
 21
-1850.0
 31
0.0
100
AcDbText
  0
TEXT
  5
128
330
17
100
AcDbEntity
  8
TEXT
100
AcDbText
 10
1860.0
 20
-1850.0
 30
0.0
 40
40.0
  1
развертка
 11
1860.0
 21
-1850.0
 31
0.0
100
AcDbText
  0
TEXT
  5
129
330
17
100
AcDbEntity
  8
TEXT
100
AcDbText
 10
2480.0
 20
-1850.0
 30
0.0
 40
40.0
  1
прямые, мм
 11
2480.0
 21
-1850.0
 31
0.0
100
AcDbText
  0
TEXT
  5
12A
330
17
100
AcDbEntity
  8
TEXT
100
AcDbText
 10
3100.0
 20
-1850.0
 30
0.0
 40
40.0
  1
гибы
 11
3100.0
 21
-1850.0
 31
0.0
100
AcDbText
  0
TEXT
  5
12B
330
17
100
AcDbEntity
  8
TEXT
100
AcDbText
 10
3720.0
 20
-1850.0
 30
0.0
 40
40.0
  1
R гиба
 11
3720.0
 21
-1850.0
 31
0.0
100
AcDbText
  0
TEXT
  5
12C
330
17
100
AcDbEntity
  8
TEXT
100
AcDbText
 10
4340.0
 20
-1850.0
 30
0.0
 40
40.0
  1
масса
 11
4340.0
 21
-1850.0
 31
0.0
100
AcDbText
  0
TEXT
  5
12D
330
17
100
AcDbEntity
  8
TEXT
100
AcDbText
 10
0.0
 20
-1970.0
 30
0.0
 40
34.0
  1
01_front
 11
0.0
 21
-1970.0
 31
0.0
100
AcDbText
  0
TEXT
  5
12E
330
17
100
AcDbEntity
  8
TEXT
100
AcDbText
 10
620.0
 20
-1970.0
 30
0.0
 40
34.0
  1
63.5
 11
620.0
 21
-1970.0
 31
0.0
100
AcDbText
  0
TEXT
  5
12F
330
17
100
AcDbEntity
  8
TEXT
100
AcDbText
 10
1240.0
 20
-1970.0
 30
0.0
 40
34.0
  1
1.5
 11
1240.0
 21
-1970.0
 31
0.0
100
AcDbText
  0
TEXT
  5
130
330
17
100
AcDbEntity
  8
TEXT
100
AcDbText
 10
1860.0
 20
-1970.0
 30
0.0
 40
34.0
  1
1404.6
 11
1860.0
 21
-1970.0
 31
0.0
100
AcDbText
  0
TEXT
  5
131
330
17
100
AcDbEntity
  8
TEXT
100
AcDbText
 10
2480.0
 20
-1970.0
 30
0.0
 40
34.0
  1
220; 456; 702
 11
2480.0
 21
-1970.0
 31
0.0
100
AcDbText
  0
TEXT
  5
132
330
17
100
AcDbEntity
  8
TEXT
100
AcDbText
 10
3100.0
 20
-1970.0
 30
0.0
 40
34.0
  1
2x 7.5P; 7.5P
 11
3100.0
 21
-1970.0
 31
0.0
100
AcDbText
  0
TEXT
  5
133
330
17
100
AcDbEntity
  8
TEXT
100
AcDbText
 10
3720.0
 20
-1970.0
 30
0.0
 40
34.0
  1
101.6
 11
3720.0
 21
-1970.0
 31
0.0
100
AcDbText
  0
TEXT
  5
134
330
17
100
AcDbEntity
  8
TEXT
100
AcDbText
 10
4340.0
 20
-1970.0
 30
0.0
 40
34.0
  1
3.24
 11
4340.0
 21
-1970.0
 31
0.0
100
AcDbText
  0
TEXT
  5
135
330
17
100
AcDbEntity
  8
TEXT
100
AcDbText
 10
0.0
 20
-2070.0
 30
0.0
 40
34.0
  1
03_mid
 11
0.0
 21
-2070.0
 31
0.0
100
AcDbText
  0
TEXT
  5
136
330
17
100
AcDbEntity
  8
TEXT
100
AcDbText
 10
620.0
 20
-2070.0
 30
0.0
 40
34.0
  1
63.5
 11
620.0
 21
-2070.0
 31
0.0
100
AcDbText
  0
TEXT
  5
137
330
17
100
AcDbEntity
  8
TEXT
100
AcDbText
 10
1240.0
 20
-2070.0
 30
0.0
 40
34.0
  1
1.5
 11
1240.0
 21
-2070.0
 31
0.0
100
AcDbText
  0
TEXT
  5
138
330
17
100
AcDbEntity
  8
TEXT
100
AcDbText
 10
1860.0
 20
-2070.0
 30
0.0
 40
34.0
  1
650.0
 11
1860.0
 21
-2070.0
 31
0.0
100
AcDbText
  0
TEXT
  5
139
330
17
100
AcDbEntity
  8
TEXT
100
AcDbText
 10
2480.0
 20
-2070.0
 30
0.0
 40
34.0
  1
650
 11
2480.0
 21
-2070.0
 31
0.0
100
AcDbText
  0
TEXT
  5
13A
330
17
100
AcDbEntity
  8
TEXT
100
AcDbText
 10
3100.0
 20
-2070.0
 30
0.0
 40
34.0
  1
0x 
 11
3100.0
 21
-2070.0
 31
0.0
100
AcDbText
  0
TEXT
  5
13B
330
17
100
AcDbEntity
  8
TEXT
100
AcDbText
 10
3720.0
 20
-2070.0
 30
0.0
 40
34.0
  1

 11
3720.0
 21
-2070.0
 31
0.0
100
AcDbText
  0
TEXT
  5
13C
330
17
100
AcDbEntity
  8
TEXT
100
AcDbText
 10
4340.0
 20
-2070.0
 30
0.0
 40
34.0
  1
1.5
 11
4340.0
 21
-2070.0
 31
0.0
100
AcDbText
  0
TEXT
  5
13D
330
17
100
AcDbEntity
  8
TEXT
100
AcDbText
 10
0.0
 20
-2170.0
 30
0.0
 40
34.0
  1
04_leg_L
 11
0.0
 21
-2170.0
 31
0.0
100
AcDbText
  0
TEXT
  5
13E
330
17
100
AcDbEntity
  8
TEXT
100
AcDbText
 10
620.0
 20
-2170.0
 30
0.0
 40
34.0
  1
57.0
 11
620.0
 21
-2170.0
 31
0.0
100
AcDbText
  0
TEXT
  5
13F
330
17
100
AcDbEntity
  8
TEXT
100
AcDbText
 10
1240.0
 20
-2170.0
 30
0.0
 40
34.0
  1
1.5
 11
1240.0
 21
-2170.0
 31
0.0
100
AcDbText
  0
TEXT
  5
140
330
17
100
AcDbEntity
  8
TEXT
100
AcDbText
 10
1860.0
 20
-2170.0
 30
0.0
 40
34.0
  1
1019.7
 11
1860.0
 21
-2170.0
 31
0.0
100
AcDbText
  0
TEXT
  5
141
330
17
100
AcDbEntity
  8
TEXT
100
AcDbText
 10
2480.0
 20
-2170.0
 30
0.0
 40
34.0
  1
200; 784
 11
2480.0
 21
-2170.0
 31
0.0
100
AcDbText
  0
TEXT
  5
142
330
17
100
AcDbEntity
  8
TEXT
100
AcDbText
 10
3100.0
 20
-2170.0
 30
0.0
 40
34.0
  1
1x 22.5Y
 11
3100.0
 21
-2170.0
 31
0.0
100
AcDbText
  0
TEXT
  5
143
330
17
100
AcDbEntity
  8
TEXT
100
AcDbText
 10
3720.0
 20
-2170.0
 30
0.0
 40
34.0
  1
91.2
 11
3720.0
 21
-2170.0
 31
0.0
100
AcDbText
  0
TEXT
  5
144
330
17
100
AcDbEntity
  8
TEXT
100
AcDbText
 10
4340.0
 20
-2170.0
 30
0.0
 40
34.0
  1
2.11
 11
4340.0
 21
-2170.0
 31
0.0
100
AcDbText
  0
TEXT
  5
145
330
17
100
AcDbEntity
  8
TEXT
100
AcDbText
 10
0.0
 20
-2270.0
 30
0.0
 40
34.0
  1
04_leg_R
 11
0.0
 21
-2270.0
 31
0.0
100
AcDbText
  0
TEXT
  5
146
330
17
100
AcDbEntity
  8
TEXT
100
AcDbText
 10
620.0
 20
-2270.0
 30
0.0
 40
34.0
  1
57.0
 11
620.0
 21
-2270.0
 31
0.0
100
AcDbText
  0
TEXT
  5
147
330
17
100
AcDbEntity
  8
TEXT
100
AcDbText
 10
1240.0
 20
-2270.0
 30
0.0
 40
34.0
  1
1.5
 11
1240.0
 21
-2270.0
 31
0.0
100
AcDbText
  0
TEXT
  5
148
330
17
100
AcDbEntity
  8
TEXT
100
AcDbText
 10
1860.0
 20
-2270.0
 30
0.0
 40
34.0
  1
1019.7
 11
1860.0
 21
-2270.0
 31
0.0
100
AcDbText
  0
TEXT
  5
149
330
17
100
AcDbEntity
  8
TEXT
100
AcDbText
 10
2480.0
 20
-2270.0
 30
0.0
 40
34.0
  1
200; 784
 11
2480.0
 21
-2270.0
 31
0.0
100
AcDbText
  0
TEXT
  5
14A
330
17
100
AcDbEntity
  8
TEXT
100
AcDbText
 10
3100.0
 20
-2270.0
 30
0.0
 40
34.0
  1
1x 22.5Y
 11
3100.0
 21
-2270.0
 31
0.0
100
AcDbText
  0
TEXT
  5
14B
330
17
100
AcDbEntity
  8
TEXT
100
AcDbText
 10
3720.0
 20
-2270.0
 30
0.0
 40
34.0
  1
91.2
 11
3720.0
 21
-2270.0
 31
0.0
100
AcDbText
  0
TEXT
  5
14C
330
17
100
AcDbEntity
  8
TEXT
100
AcDbText
 10
4340.0
 20
-2270.0
 30
0.0
 40
34.0
  1
2.11
 11
4340.0
 21
-2270.0
 31
0.0
100
AcDbText
  0
TEXT
  5
14D
330
17
100
AcDbEntity
  8
TEXT
100
AcDbText
 10
0.0
 20
-2370.0
 30
0.0
 40
34.0
  1
05_box_L
 11
0.0
 21
-2370.0
 31
0.0
100
AcDbText
  0
TEXT
  5
14E
330
17
100
AcDbEntity
  8
TEXT
100
AcDbText
 10
620.0
 20
-2370.0
 30
0.0
 40
34.0
  1
380x230x140
 11
620.0
 21
-2370.0
 31
0.0
100
AcDbText
  0
TEXT
  5
14F
330
17
100
AcDbEntity
  8
TEXT
100
AcDbText
 10
1240.0
 20
-2370.0
 30
0.0
 40
34.0
  1
1.2
 11
1240.0
 21
-2370.0
 31
0.0
100
AcDbText
  0
TEXT
  5
150
330
17
100
AcDbEntity
  8
TEXT
100
AcDbText
 10
1860.0
 20
-2370.0
 30
0.0
 40
34.0
  1

 11
1860.0
 21
-2370.0
 31
0.0
100
AcDbText
  0
TEXT
  5
151
330
17
100
AcDbEntity
  8
TEXT
100
AcDbText
 10
2480.0
 20
-2370.0
 30
0.0
 40
34.0
  1

 11
2480.0
 21
-2370.0
 31
0.0
100
AcDbText
  0
TEXT
  5
152
330
17
100
AcDbEntity
  8
TEXT
100
AcDbText
 10
3100.0
 20
-2370.0
 30
0.0
 40
34.0
  1
x завальцовка 2 шва
 11
3100.0
 21
-2370.0
 31
0.0
100
AcDbText
  0
TEXT
  5
153
330
17
100
AcDbEntity
  8
TEXT
100
AcDbText
 10
3720.0
 20
-2370.0
 30
0.0
 40
34.0
  1

 11
3720.0
 21
-2370.0
 31
0.0
100
AcDbText
  0
TEXT
  5
154
330
17
100
AcDbEntity
  8
TEXT
100
AcDbText
 10
4340.0
 20
-2370.0
 30
0.0
 40
34.0
  1
4.03
 11
4340.0
 21
-2370.0
 31
0.0
100
AcDbText
  0
TEXT
  5
155
330
17
100
AcDbEntity
  8
TEXT
100
AcDbText
 10
0.0
 20
-2470.0
 30
0.0
 40
34.0
  1
05_box_R
 11
0.0
 21
-2470.0
 31
0.0
100
AcDbText
  0
TEXT
  5
156
330
17
100
AcDbEntity
  8
TEXT
100
AcDbText
 10
620.0
 20
-2470.0
 30
0.0
 40
34.0
  1
380x230x140
 11
620.0
 21
-2470.0
 31
0.0
100
AcDbText
  0
TEXT
  5
157
330
17
100
AcDbEntity
  8
TEXT
100
AcDbText
 10
1240.0
 20
-2470.0
 30
0.0
 40
34.0
  1
1.2
 11
1240.0
 21
-2470.0
 31
0.0
100
AcDbText
  0
TEXT
  5
158
330
17
100
AcDbEntity
  8
TEXT
100
AcDbText
 10
1860.0
 20
-2470.0
 30
0.0
 40
34.0
  1

 11
1860.0
 21
-2470.0
 31
0.0
100
AcDbText
  0
TEXT
  5
159
330
17
100
AcDbEntity
  8
TEXT
100
AcDbText
 10
2480.0
 20
-2470.0
 30
0.0
 40
34.0
  1

 11
2480.0
 21
-2470.0
 31
0.0
100
AcDbText
  0
TEXT
  5
15A
330
17
100
AcDbEntity
  8
TEXT
100
AcDbText
 10
3100.0
 20
-2470.0
 30
0.0
 40
34.0
  1
x завальцовка 2 шва
 11
3100.0
 21
-2470.0
 31
0.0
100
AcDbText
  0
TEXT
  5
15B
330
17
100
AcDbEntity
  8
TEXT
100
AcDbText
 10
3720.0
 20
-2470.0
 30
0.0
 40
34.0
  1

 11
3720.0
 21
-2470.0
 31
0.0
100
AcDbText
  0
TEXT
  5
15C
330
17
100
AcDbEntity
  8
TEXT
100
AcDbText
 10
4340.0
 20
-2470.0
 30
0.0
 40
34.0
  1
4.03
 11
4340.0
 21
-2470.0
 31
0.0
100
AcDbText
  0
TEXT
  5
15D
330
17
100
AcDbEntity
  8
TEXT
100
AcDbText
 10
0.0
 20
-2570.0
 30
0.0
 40
34.0
  1
06_tail_L
 11
0.0
 21
-2570.0
 31
0.0
100
AcDbText
  0
TEXT
  5
15E
330
17
100
AcDbEntity
  8
TEXT
100
AcDbText
 10
620.0
 20
-2570.0
 30
0.0
 40
34.0
  1
51.0
 11
620.0
 21
-2570.0
 31
0.0
100
AcDbText
  0
TEXT
  5
15F
330
17
100
AcDbEntity
  8
TEXT
100
AcDbText
 10
1240.0
 20
-2570.0
 30
0.0
 40
34.0
  1
1.5
 11
1240.0
 21
-2570.0
 31
0.0
100
AcDbText
  0
TEXT
  5
160
330
17
100
AcDbEntity
  8
TEXT
100
AcDbText
 10
1860.0
 20
-2570.0
 30
0.0
 40
34.0
  1
268.4
 11
1860.0
 21
-2570.0
 31
0.0
100
AcDbText
  0
TEXT
  5
161
330
17
100
AcDbEntity
  8
TEXT
100
AcDbText
 10
2480.0
 20
-2570.0
 30
0.0
 40
34.0
  1
60; 176
 11
2480.0
 21
-2570.0
 31
0.0
100
AcDbText
  0
TEXT
  5
162
330
17
100
AcDbEntity
  8
TEXT
100
AcDbText
 10
3100.0
 20
-2570.0
 30
0.0
 40
34.0
  1
1x 22.5Y
 11
3100.0
 21
-2570.0
 31
0.0
100
AcDbText
  0
TEXT
  5
163
330
17
100
AcDbEntity
  8
TEXT
100
AcDbText
 10
3720.0
 20
-2570.0
 30
0.0
 40
34.0
  1
81.6
 11
3720.0
 21
-2570.0
 31
0.0
100
AcDbText
  0
TEXT
  5
164
330
17
100
AcDbEntity
  8
TEXT
100
AcDbText
 10
4340.0
 20
-2570.0
 30
0.0
 40
34.0
  1
0.49
 11
4340.0
 21
-2570.0
 31
0.0
100
AcDbText
  0
TEXT
  5
165
330
17
100
AcDbEntity
  8
TEXT
100
AcDbText
 10
0.0
 20
-2670.0
 30
0.0
 40
34.0
  1
06_tail_R
 11
0.0
 21
-2670.0
 31
0.0
100
AcDbText
  0
TEXT
  5
166
330
17
100
AcDbEntity
  8
TEXT
100
AcDbText
 10
620.0
 20
-2670.0
 30
0.0
 40
34.0
  1
51.0
 11
620.0
 21
-2670.0
 31
0.0
100
AcDbText
  0
TEXT
  5
167
330
17
100
AcDbEntity
  8
TEXT
100
AcDbText
 10
1240.0
 20
-2670.0
 30
0.0
 40
34.0
  1
1.5
 11
1240.0
 21
-2670.0
 31
0.0
100
AcDbText
  0
TEXT
  5
168
330
17
100
AcDbEntity
  8
TEXT
100
AcDbText
 10
1860.0
 20
-2670.0
 30
0.0
 40
34.0
  1
268.4
 11
1860.0
 21
-2670.0
 31
0.0
100
AcDbText
  0
TEXT
  5
169
330
17
100
AcDbEntity
  8
TEXT
100
AcDbText
 10
2480.0
 20
-2670.0
 30
0.0
 40
34.0
  1
60; 176
 11
2480.0
 21
-2670.0
 31
0.0
100
AcDbText
  0
TEXT
  5
16A
330
17
100
AcDbEntity
  8
TEXT
100
AcDbText
 10
3100.0
 20
-2670.0
 30
0.0
 40
34.0
  1
1x 22.5Y
 11
3100.0
 21
-2670.0
 31
0.0
100
AcDbText
  0
TEXT
  5
16B
330
17
100
AcDbEntity
  8
TEXT
100
AcDbText
 10
3720.0
 20
-2670.0
 30
0.0
 40
34.0
  1
81.6
 11
3720.0
 21
-2670.0
 31
0.0
100
AcDbText
  0
TEXT
  5
16C
330
17
100
AcDbEntity
  8
TEXT
100
AcDbText
 10
4340.0
 20
-2670.0
 30
0.0
 40
34.0
  1
0.49
 11
4340.0
 21
-2670.0
 31
0.0
100
AcDbText
  0
TEXT
  5
16D
330
17
100
AcDbEntity
  8
TEXT
100
AcDbText
 10
0.0
 20
-2770.0
 30
0.0
 40
34.0
  1
07_tip_L
 11
0.0
 21
-2770.0
 31
0.0
100
AcDbText
  0
TEXT
  5
16E
330
17
100
AcDbEntity
  8
TEXT
100
AcDbText
 10
620.0
 20
-2770.0
 30
0.0
 40
34.0
  1
89.0
 11
620.0
 21
-2770.0
 31
0.0
100
AcDbText
  0
TEXT
  5
16F
330
17
100
AcDbEntity
  8
TEXT
100
AcDbText
 10
1240.0
 20
-2770.0
 30
0.0
 40
34.0
  1
1.0
 11
1240.0
 21
-2770.0
 31
0.0
100
AcDbText
  0
TEXT
  5
170
330
17
100
AcDbEntity
  8
TEXT
100
AcDbText
 10
1860.0
 20
-2770.0
 30
0.0
 40
34.0
  1
190.0
 11
1860.0
 21
-2770.0
 31
0.0
100
AcDbText
  0
TEXT
  5
171
330
17
100
AcDbEntity
  8
TEXT
100
AcDbText
 10
2480.0
 20
-2770.0
 30
0.0
 40
34.0
  1
190
 11
2480.0
 21
-2770.0
 31
0.0
100
AcDbText
  0
TEXT
  5
172
330
17
100
AcDbEntity
  8
TEXT
100
AcDbText
 10
3100.0
 20
-2770.0
 30
0.0
 40
34.0
  1
0x 
 11
3100.0
 21
-2770.0
 31
0.0
100
AcDbText
  0
TEXT
  5
173
330
17
100
AcDbEntity
  8
TEXT
100
AcDbText
 10
3720.0
 20
-2770.0
 30
0.0
 40
34.0
  1

 11
3720.0
 21
-2770.0
 31
0.0
100
AcDbText
  0
TEXT
  5
174
330
17
100
AcDbEntity
  8
TEXT
100
AcDbText
 10
4340.0
 20
-2770.0
 30
0.0
 40
34.0
  1
0.41
 11
4340.0
 21
-2770.0
 31
0.0
100
AcDbText
  0
TEXT
  5
175
330
17
100
AcDbEntity
  8
TEXT
100
AcDbText
 10
0.0
 20
-2870.0
 30
0.0
 40
34.0
  1
07_tip_R
 11
0.0
 21
-2870.0
 31
0.0
100
AcDbText
  0
TEXT
  5
176
330
17
100
AcDbEntity
  8
TEXT
100
AcDbText
 10
620.0
 20
-2870.0
 30
0.0
 40
34.0
  1
89.0
 11
620.0
 21
-2870.0
 31
0.0
100
AcDbText
  0
TEXT
  5
177
330
17
100
AcDbEntity
  8
TEXT
100
AcDbText
 10
1240.0
 20
-2870.0
 30
0.0
 40
34.0
  1
1.0
 11
1240.0
 21
-2870.0
 31
0.0
100
AcDbText
  0
TEXT
  5
178
330
17
100
AcDbEntity
  8
TEXT
100
AcDbText
 10
1860.0
 20
-2870.0
 30
0.0
 40
34.0
  1
190.0
 11
1860.0
 21
-2870.0
 31
0.0
100
AcDbText
  0
TEXT
  5
179
330
17
100
AcDbEntity
  8
TEXT
100
AcDbText
 10
2480.0
 20
-2870.0
 30
0.0
 40
34.0
  1
190
 11
2480.0
 21
-2870.0
 31
0.0
100
AcDbText
  0
TEXT
  5
17A
330
17
100
AcDbEntity
  8
TEXT
100
AcDbText
 10
3100.0
 20
-2870.0
 30
0.0
 40
34.0
  1
0x 
 11
3100.0
 21
-2870.0
 31
0.0
100
AcDbText
  0
TEXT
  5
17B
330
17
100
AcDbEntity
  8
TEXT
100
AcDbText
 10
3720.0
 20
-2870.0
 30
0.0
 40
34.0
  1

 11
3720.0
 21
-2870.0
 31
0.0
100
AcDbText
  0
TEXT
  5
17C
330
17
100
AcDbEntity
  8
TEXT
100
AcDbText
 10
4340.0
 20
-2870.0
 30
0.0
 40
34.0
  1
0.41
 11
4340.0
 21
-2870.0
 31
0.0
100
AcDbText
  0
ENDSEC
  0
SECTION
  2
OBJECTS
  0
DICTIONARY
  5
A
330
0
100
AcDbDictionary
281
1
  3
ACAD_COLOR
350
B
  3
ACAD_GROUP
350
C
  3
ACAD_LAYOUT
350
D
  3
ACAD_MATERIAL
350
E
  3
ACAD_MLEADERSTYLE
350
F
  3
ACAD_MLINESTYLE
350
10
  3
ACAD_PLOTSETTINGS
350
11
  3
ACAD_PLOTSTYLENAME
350
12
  3
ACAD_SCALELIST
350
14
  3
ACAD_TABLESTYLE
350
15
  3
ACAD_VISUALSTYLE
350
16
  3
EZDXF_META
350
2D
  0
DICTIONARY
  5
B
330
A
100
AcDbDictionary
281
1
  0
DICTIONARY
  5
C
330
A
100
AcDbDictionary
281
1
  0
DICTIONARY
  5
D
330
A
100
AcDbDictionary
281
1
  3
Model
350
1A
  3
Layout1
350
1E
  0
DICTIONARY
  5
E
330
A
100
AcDbDictionary
281
1
  3
ByBlock
350
1F
  3
ByLayer
350
20
  3
Global
350
21
  0
DICTIONARY
  5
F
330
A
100
AcDbDictionary
281
1
  3
Standard
350
2C
  0
DICTIONARY
  5
10
330
A
100
AcDbDictionary
281
1
  3
Standard
350
22
  0
DICTIONARY
  5
11
330
A
100
AcDbDictionary
281
1
  0
ACDBDICTIONARYWDFLT
  5
12
330
A
100
AcDbDictionary
281
1
  3
Normal
350
13
100
AcDbDictionaryWithDefault
340
13
  0
ACDBPLACEHOLDER
  5
13
330
12
  0
DICTIONARY
  5
14
330
A
100
AcDbDictionary
281
1
  0
DICTIONARY
  5
15
330
A
100
AcDbDictionary
281
1
  0
DICTIONARY
  5
16
330
A
100
AcDbDictionary
281
1
  3
2dWireframe
350
5A
  3
Basic
350
5B
  3
Brighten
350
5C
  3
ColorChange
350
5D
  3
Conceptual
350
5E
  3
Dim
350
5F
  3
EdgeColorOff
350
60
  3
Facepattern
350
61
  3
Flat
350
62
  3
FlatWithEdges
350
63
  3
Gouraud
350
64
  3
GouraudWithEdges
350
65
  3
Hidden
350
66
  3
JitterOff
350
67
  3
Linepattern
350
68
  3
Modeling
350
69
  3
OverhangOff
350
6A
  3
Realistic
350
6B
  3
Shaded
350
6C
  3
Shaded with edges
350
6D
  3
Shades of Gray
350
6E
  3
Sketchy
350
6F
  3
Thicken
350
70
  3
Wireframe
350
71
  3
X-Ray
350
72
  0
LAYOUT
  5
1A
330
D
100
AcDbPlotSettings
  1

  4
A3
  6

 40
7.5
 41
20.0
 42
7.5
 43
20.0
 44
420.0
 45
297.0
 46
0.0
 47
0.0
 48
0.0
 49
0.0
140
0.0
141
0.0
142
1.0
143
1.0
 70
1024
 72
1
 73
0
 74
5
  7

 75
16
 76
0
 77
2
 78
300
147
1.0
148
0.0
149
0.0
100
AcDbLayout
  1
Model
 70
1
 71
0
 10
0.0
 20
0.0
 11
420.0
 21
297.0
 12
0.0
 22
0.0
 32
0.0
 14
1e+20
 24
1e+20
 34
1e+20
 15
-1e+20
 25
-1e+20
 35
-1e+20
146
0.0
 13
0.0
 23
0.0
 33
0.0
 16
1.0
 26
0.0
 36
0.0
 17
0.0
 27
1.0
 37
0.0
 76
1
330
17
  0
LAYOUT
  5
1E
330
D
100
AcDbPlotSettings
  1

  4
A3
  6

 40
7.5
 41
20.0
 42
7.5
 43
20.0
 44
420.0
 45
297.0
 46
0.0
 47
0.0
 48
0.0
 49
0.0
140
0.0
141
0.0
142
1.0
143
1.0
 70
0
 72
1
 73
0
 74
5
  7

 75
16
 76
0
 77
2
 78
300
147
1.0
148
0.0
149
0.0
100
AcDbLayout
  1
Layout1
 70
1
 71
1
 10
0.0
 20
0.0
 11
420.0
 21
297.0
 12
0.0
 22
0.0
 32
0.0
 14
1e+20
 24
1e+20
 34
1e+20
 15
-1e+20
 25
-1e+20
 35
-1e+20
146
0.0
 13
0.0
 23
0.0
 33
0.0
 16
1.0
 26
0.0
 36
0.0
 17
0.0
 27
1.0
 37
0.0
 76
1
330
1B
  0
MATERIAL
  5
1F
102
{ACAD_REACTORS
330
E
102
}
330
E
100
AcDbMaterial
  1
ByBlock
  2

 70
0
 40
1.0
 71
1
 41
1.0
 91
-1023410177
 42
1.0
 72
1
  3

 73
1
 74
1
 75
1
 44
0.5
 73
0
 45
1.0
 46
1.0
 77
1
  4

 78
1
 79
1
170
1
 48
1.0
171
1
  6

172
1
173
1
174
1
140
1.0
141
1.0
175
1
  7

176
1
177
1
178
1
143
1.0
179
1
  8

270
1
271
1
272
1
145
1.0
146
1.0
273
1
  9

274
1
275
1
276
1
 42
1.0
 72
1
  3

 73
1
 74
1
 75
1
 94
63
  0
MATERIAL
  5
20
102
{ACAD_REACTORS
330
E
102
}
330
E
100
AcDbMaterial
  1
ByLayer
  2

 70
0
 40
1.0
 71
1
 41
1.0
 91
-1023410177
 42
1.0
 72
1
  3

 73
1
 74
1
 75
1
 44
0.5
 73
0
 45
1.0
 46
1.0
 77
1
  4

 78
1
 79
1
170
1
 48
1.0
171
1
  6

172
1
173
1
174
1
140
1.0
141
1.0
175
1
  7

176
1
177
1
178
1
143
1.0
179
1
  8

270
1
271
1
272
1
145
1.0
146
1.0
273
1
  9

274
1
275
1
276
1
 42
1.0
 72
1
  3

 73
1
 74
1
 75
1
 94
63
  0
MATERIAL
  5
21
102
{ACAD_REACTORS
330
E
102
}
330
E
100
AcDbMaterial
  1
Global
  2

 70
0
 40
1.0
 71
1
 41
1.0
 91
-1023410177
 42
1.0
 72
1
  3

 73
1
 74
1
 75
1
 44
0.5
 73
0
 45
1.0
 46
1.0
 77
1
  4

 78
1
 79
1
170
1
 48
1.0
171
1
  6

172
1
173
1
174
1
140
1.0
141
1.0
175
1
  7

176
1
177
1
178
1
143
1.0
179
1
  8

270
1
271
1
272
1
145
1.0
146
1.0
273
1
  9

274
1
275
1
276
1
 42
1.0
 72
1
  3

 73
1
 74
1
 75
1
 94
63
  0
MLINESTYLE
  5
22
102
{ACAD_REACTORS
330
10
102
}
330
10
100
AcDbMlineStyle
  2
Standard
 70
0
  3

 62
256
 51
90.0
 52
90.0
 71
2
 49
0.5
 62
256
  6
BYLAYER
 49
-0.5
 62
256
  6
BYLAYER
  0
MLEADERSTYLE
  5
2C
102
{ACAD_REACTORS
330
F
102
}
330
F
100
AcDbMLeaderStyle
179
2
170
2
171
1
172
0
 90
2
 40
0.0
 41
0.0
173
1
 91
-1056964608
 92
-2
290
1
 42
2.0
291
1
 43
8.0
  3
Standard
 44
4.0
300

342
29
174
1
175
1
176
0
178
1
 93
-1056964608
 45
4.0
292
0
297
0
 46
4.0
 94
-1056964608
 47
1.0
 49
1.0
140
1.0
294
1
141
0.0
177
0
142
1.0
295
0
296
0
143
3.75
271
0
272
9
273
9
  0
DICTIONARY
  5
2D
330
A
100
AcDbDictionary
280
1
281
1
  3
CREATED_BY_EZDXF
350
2E
  3
WRITTEN_BY_EZDXF
350
17F
  0
DICTIONARYVAR
  5
2E
330
2D
100
DictionaryVariables
280
0
  1
1.4.4 @ 2026-10-07T11:25:37.702073+00:00
  0
VISUALSTYLE
  5
5A
102
{ACAD_REACTORS
330
16
102
}
330
16
100
AcDbVisualStyle
  2
2dWireframe
 70
4
 90
0
 40
0.6
 62
7
290
0
291
0
  0
VISUALSTYLE
  5
5B
102
{ACAD_REACTORS
330
16
102
}
330
16
100
AcDbVisualStyle
  2
Basic
 70
7
 90
1
 40
0.6
 62
7
290
0
291
1
  0
VISUALSTYLE
  5
5C
102
{ACAD_REACTORS
330
16
102
}
330
16
100
AcDbVisualStyle
  2
Brighten
 70
12
 90
2
 40
0.6
 62
7
290
0
291
1
  0
VISUALSTYLE
  5
5D
102
{ACAD_REACTORS
330
16
102
}
330
16
100
AcDbVisualStyle
  2
ColorChange
 70
16
 90
2
 40
0.6
 62
8
290
0
291
1
  0
VISUALSTYLE
  5
5E
102
{ACAD_REACTORS
330
16
102
}
330
16
100
AcDbVisualStyle
  2
Conceptual
 70
9
 90
3
 40
0.6
 62
7
290
0
291
0
  0
VISUALSTYLE
  5
5F
102
{ACAD_REACTORS
330
16
102
}
330
16
100
AcDbVisualStyle
  2
Dim
 70
11
 90
2
 40
0.6
 62
7
290
0
291
1
  0
VISUALSTYLE
  5
60
102
{ACAD_REACTORS
330
16
102
}
330
16
100
AcDbVisualStyle
  2
EdgeColorOff
 70
22
 90
2
 40
0.6
 62
7
290
0
291
1
  0
VISUALSTYLE
  5
61
102
{ACAD_REACTORS
330
16
102
}
330
16
100
AcDbVisualStyle
  2
Facepattern
 70
15
 90
2
 40
0.6
 62
7
290
0
291
1
  0
VISUALSTYLE
  5
62
102
{ACAD_REACTORS
330
16
102
}
330
16
100
AcDbVisualStyle
  2
Flat
 70
0
 90
2
 40
0.6
 62
7
290
0
291
1
  0
VISUALSTYLE
  5
63
102
{ACAD_REACTORS
330
16
102
}
330
16
100
AcDbVisualStyle
  2
FlatWithEdges
 70
1
 90
2
 40
0.6
 62
7
290
0
291
1
  0
VISUALSTYLE
  5
64
102
{ACAD_REACTORS
330
16
102
}
330
16
100
AcDbVisualStyle
  2
Gouraud
 70
2
 90
2
 40
0.6
 62
7
290
0
291
1
  0
VISUALSTYLE
  5
65
102
{ACAD_REACTORS
330
16
102
}
330
16
100
AcDbVisualStyle
  2
GouraudWithEdges
 70
3
 90
2
 40
0.6
 62
7
290
0
291
1
  0
VISUALSTYLE
  5
66
102
{ACAD_REACTORS
330
16
102
}
330
16
100
AcDbVisualStyle
  2
Hidden
 70
6
 90
1
 40
0.6
 62
7
290
0
291
0
  0
VISUALSTYLE
  5
67
102
{ACAD_REACTORS
330
16
102
}
330
16
100
AcDbVisualStyle
  2
JitterOff
 70
20
 90
2
 40
0.6
 62
7
290
0
291
1
  0
VISUALSTYLE
  5
68
102
{ACAD_REACTORS
330
16
102
}
330
16
100
AcDbVisualStyle
  2
Linepattern
 70
14
 90
2
 40
0.6
 62
7
290
0
291
1
  0
VISUALSTYLE
  5
69
102
{ACAD_REACTORS
330
16
102
}
330
16
100
AcDbVisualStyle
  2
Modeling
 70
10
 90
2
 40
0.6
 62
7
290
0
291
0
  0
VISUALSTYLE
  5
6A
102
{ACAD_REACTORS
330
16
102
}
330
16
100
AcDbVisualStyle
  2
OverhangOff
 70
21
 90
2
 40
0.6
 62
7
290
0
291
1
  0
VISUALSTYLE
  5
6B
102
{ACAD_REACTORS
330
16
102
}
330
16
100
AcDbVisualStyle
  2
Realistic
 70
8
 90
2
 40
0.6
 62
7
290
0
291
0
  0
VISUALSTYLE
  5
6C
102
{ACAD_REACTORS
330
16
102
}
330
16
100
AcDbVisualStyle
  2
Shaded
 70
27
 90
2
 40
0.6
 62
7
290
0
291
0
  0
VISUALSTYLE
  5
6D
102
{ACAD_REACTORS
330
16
102
}
330
16
100
AcDbVisualStyle
  2
Shaded with edges
 70
26
 90
2
 40
0.6
 62
7
290
0
291
0
  0
VISUALSTYLE
  5
6E
102
{ACAD_REACTORS
330
16
102
}
330
16
100
AcDbVisualStyle
  2
Shades of Gray
 70
23
 90
2
 40
0.6
 62
7
290
0
291
0
  0
VISUALSTYLE
  5
6F
102
{ACAD_REACTORS
330
16
102
}
330
16
100
AcDbVisualStyle
  2
Sketchy
 70
24
 90
1
 40
0.6
 62
7
290
0
291
0
  0
VISUALSTYLE
  5
70
102
{ACAD_REACTORS
330
16
102
}
330
16
100
AcDbVisualStyle
  2
Thicken
 70
13
 90
2
 40
0.6
 62
7
290
0
291
1
  0
VISUALSTYLE
  5
71
102
{ACAD_REACTORS
330
16
102
}
330
16
100
AcDbVisualStyle
  2
Wireframe
 70
5
 90
0
 40
0.6
 62
7
290
0
291
0
  0
VISUALSTYLE
  5
72
102
{ACAD_REACTORS
330
16
102
}
330
16
100
AcDbVisualStyle
  2
X-Ray
 70
25
 90
2
 40
0.5
 62
7
290
0
291
0
  0
DICTIONARYVAR
  5
17F
330
2D
100
DictionaryVariables
280
0
  1
1.4.4 @ 2026-10-07T11:25:37.718573+00:00
  0
ENDSEC
  0
EOF
