  0
SECTION
  2
HEADER
  9
$ACADVER
  1
AC1024
  9
$ACADMAINTVER
 70
6
  9
$DWGCODEPAGE
  3
ANSI_1252
  9
$LASTSAVEDBY
  1
ezdxf
  9
$INSBASE
 10
0.0
 20
0.0
 30
0.0
  9
$EXTMIN
 10
1e+20
 20
1e+20
 30
1e+20
  9
$EXTMAX
 10
-1e+20
 20
-1e+20
 30
-1e+20
  9
$LIMMIN
 10
0.0
 20
0.0
  9
$LIMMAX
 10
420.0
 20
297.0
  9
$ORTHOMODE
 70
0
  9
$REGENMODE
 70
1
  9
$FILLMODE
 70
1
  9
$QTEXTMODE
 70
0
  9
$MIRRTEXT
 70
1
  9
$LTSCALE
 40
1.0
  9
$ATTMODE
 70
1
  9
$TEXTSIZE
 40
2.5
  9
$TRACEWID
 40
1.0
  9
$TEXTSTYLE
  7
OpenSans
  9
$CLAYER
  8
0
  9
$CELTYPE
  6
ByLayer
  9
$CECOLOR
 62
256
  9
$CELTSCALE
 40
1.0
  9
$DISPSILH
 70
0
  9
$DIMSCALE
 40
1.0
  9
$DIMASZ
 40
0.175
  9
$DIMEXO
 40
0.125
  9
$DIMDLI
 40
3.75
  9
$DIMRND
 40
0.0
  9
$DIMDLE
 40
0.0
  9
$DIMEXE
 40
0.375
  9
$DIMTP
 40
0.0
  9
$DIMTM
 40
0.0
  9
$DIMTXT
 40
0.25
  9
$DIMCEN
 40
2.5
  9
$DIMTSZ
 40
0.0
  9
$DIMTOL
 70
0
  9
$DIMLIM
 70
0
  9
$DIMTIH
 70
0
  9
$DIMTOH
 70
0
  9
$DIMSE1
 70
0
  9
$DIMSE2
 70
0
  9
$DIMTAD
 70
1
  9
$DIMZIN
 70
12
  9
$DIMBLK
  1
ARCHTICK
  9
$DIMASO
 70
1
  9
$DIMSHO
 70
1
  9
$DIMPOST
  1

  9
$DIMAPOST
  1

  9
$DIMALT
 70
0
  9
$DIMALTD
 70
3
  9
$DIMALTF
 40
0.03937007874
  9
$DIMLFAC
 40
100.0
  9
$DIMTOFL
 70
1
  9
$DIMTVP
 40
0.0
  9
$DIMTIX
 70
0
  9
$DIMSOXD
 70
0
  9
$DIMSAH
 70
0
  9
$DIMBLK1
  1

  9
$DIMBLK2
  1

  9
$DIMSTYLE
  2
EZDXF
  9
$DIMCLRD
 70
0
  9
$DIMCLRE
 70
0
  9
$DIMCLRT
 70
0
  9
$DIMTFAC
 40
0.5
  9
$DIMGAP
 40
0.1
  9
$DIMJUST
 70
0
  9
$DIMSD1
 70
0
  9
$DIMSD2
 70
0
  9
$DIMTOLJ
 70
0
  9
$DIMTZIN
 70
8
  9
$DIMALTZ
 70
0
  9
$DIMALTTZ
 70
0
  9
$DIMUPT
 70
1
  9
$DIMDEC
 70
2
  9
$DIMTDEC
 70
2
  9
$DIMALTU
 70
2
  9
$DIMALTTD
 70
3
  9
$DIMTXSTY
  7
OpenSansCondensed-Light
  9
$DIMAUNIT
 70
0
  9
$DIMADEC
 70
2
  9
$DIMALTRND
 40
0.0
  9
$DIMAZIN
 70
3
  9
$DIMDSEP
 70
46
  9
$DIMATFIT
 70
3
  9
$DIMFRAC
 70
0
  9
$DIMLDRBLK
  1

  9
$DIMLUNIT
 70
2
  9
$DIMLWD
 70
-2
  9
$DIMLWE
 70
-2
  9
$DIMTMOVE
 70
2
  9
$DIMFXL
 40
1.0
  9
$DIMFXLON
 70
0
  9
$DIMJOGANG
 40
0.785398163397
  9
$DIMTFILL
 70
0
  9
$DIMTFILLCLR
 70
0
  9
$DIMARCSYM
 70
0
  9
$DIMLTYPE
  6

  9
$DIMLTEX1
  6

  9
$DIMLTEX2
  6

  9
$DIMTXTDIRECTION
 70
0
  9
$LUNITS
 70
2
  9
$LUPREC
 70
4
  9
$SKETCHINC
 40
1.0
  9
$FILLETRAD
 40
10.0
  9
$AUNITS
 70
0
  9
$AUPREC
 70
2
  9
$MENU
  1
.
  9
$ELEVATION
 40
0.0
  9
$PELEVATION
 40
0.0
  9
$THICKNESS
 40
0.0
  9
$LIMCHECK
 70
0
  9
$CHAMFERA
 40
0.0
  9
$CHAMFERB
 40
0.0
  9
$CHAMFERC
 40
0.0
  9
$CHAMFERD
 40
0.0
  9
$SKPOLY
 70
0
  9
$TDCREATE
 40
2461321.476203704
  9
$TDUCREATE
 40
2458532.153996898
  9
$TDUPDATE
 40
2461321.476203704
  9
$TDUUPDATE
 40
2458532.1544311
  9
$TDINDWG
 40
0.0
  9
$TDUSRTIMER
 40
0.0
  9
$USRTIMER
 70
1
  9
$ANGBASE
 50
0.0
  9
$ANGDIR
 70
0
  9
$PDMODE
 70
0
  9
$PDSIZE
 40
0.0
  9
$PLINEWID
 40
0.0
  9
$SPLFRAME
 70
0
  9
$SPLINETYPE
 70
6
  9
$SPLINESEGS
 70
8
  9
$HANDSEED
  5
180
  9
$SURFTAB1
 70
6
  9
$SURFTAB2
 70
6
  9
$SURFTYPE
 70
6
  9
$SURFU
 70
6
  9
$SURFV
 70
6
  9
$UCSBASE
  2

  9
$UCSNAME
  2

  9
$UCSORG
 10
0.0
 20
0.0
 30
0.0
  9
$UCSXDIR
 10
1.0
 20
0.0
 30
0.0
  9
$UCSYDIR
 10
0.0
 20
1.0
 30
0.0
  9
$UCSORTHOREF
  2

  9
$UCSORTHOVIEW
 70
0
  9
$UCSORGTOP
 10
0.0
 20
0.0
 30
0.0
  9
$UCSORGBOTTOM
 10
0.0
 20
0.0
 30
0.0
  9
$UCSORGLEFT
 10
0.0
 20
0.0
 30
0.0
  9
$UCSORGRIGHT
 10
0.0
 20
0.0
 30
0.0
  9
$UCSORGFRONT
 10
0.0
 20
0.0
 30
0.0
  9
$UCSORGBACK
 10
0.0
 20
0.0
 30
0.0
  9
$PUCSBASE
  2

  9
$PUCSNAME
  2

  9
$PUCSORG
 10
0.0
 20
0.0
 30
0.0
  9
$PUCSXDIR
 10
1.0
 20
0.0
 30
0.0
  9
$PUCSYDIR
 10
0.0
 20
1.0
 30
0.0
  9
$PUCSORTHOREF
  2

  9
$PUCSORTHOVIEW
 70
0
  9
$PUCSORGTOP
 10
0.0
 20
0.0
 30
0.0
  9
$PUCSORGBOTTOM
 10
0.0
 20
0.0
 30
0.0
  9
$PUCSORGLEFT
 10
0.0
 20
0.0
 30
0.0
  9
$PUCSORGRIGHT
 10
0.0
 20
0.0
 30
0.0
  9
$PUCSORGFRONT
 10
0.0
 20
0.0
 30
0.0
  9
$PUCSORGBACK
 10
0.0
 20
0.0
 30
0.0
  9
$USERI1
 70
0
  9
$USERI2
 70
0
  9
$USERI3
 70
0
  9
$USERI4
 70
0
  9
$USERI5
 70
0
  9
$USERR1
 40
0.0
  9
$USERR2
 40
0.0
  9
$USERR3
 40
0.0
  9
$USERR4
 40
0.0
  9
$USERR5
 40
0.0
  9
$WORLDVIEW
 70
1
  9
$SHADEDGE
 70
3
  9
$SHADEDIF
 70
70
  9
$TILEMODE
 70
1
  9
$MAXACTVP
 70
64
  9
$PINSBASE
 10
0.0
 20
0.0
 30
0.0
  9
$PLIMCHECK
 70
0
  9
$PEXTMIN
 10
1e+20
 20
1e+20
 30
1e+20
  9
$PEXTMAX
 10
-1e+20
 20
-1e+20
 30
-1e+20
  9
$PLIMMIN
 10
0.0
 20
0.0
  9
$PLIMMAX
 10
420.0
 20
297.0
  9
$UNITMODE
 70
0
  9
$VISRETAIN
 70
1
  9
$PLINEGEN
 70
0
  9
$PSLTSCALE
 70
1
  9
$TREEDEPTH
 70
3020
  9
$CMLSTYLE
  2
Standard
  9
$CMLJUST
 70
0
  9
$CMLSCALE
 40
20.0
  9
$PROXYGRAPHICS
 70
1
  9
$MEASUREMENT
 70
1
  9
$CELWEIGHT
370
-1
  9
$ENDCAPS
280
0
  9
$JOINSTYLE
280
0
  9
$LWDISPLAY
290
0
  9
$INSUNITS
 70
4
  9
$HYPERLINKBASE
  1

  9
$STYLESHEET
  1

  9
$XEDIT
290
1
  9
$CEPSNTYPE
380
0
  9
$PSTYLEMODE
290
1
  9
$FINGERPRINTGUID
  2
{82175E2E-7DAC-47B1-97A2-5D60F66F53CF}
  9
$VERSIONGUID
  2
{9C76AE69-A258-417B-B3F0-6CE19CBAE3C1}
  9
$EXTNAMES
290
1
  9
$PSVPSCALE
 40
0.0
  9
$OLESTARTUP
290
0
  9
$SORTENTS
280
127
  9
$INDEXCTL
280
0
  9
$HIDETEXT
280
1
  9
$XCLIPFRAME
280
1
  9
$HALOGAP
280
0
  9
$OBSCOLOR
 70
257
  9
$OBSLTYPE
280
0
  9
$INTERSECTIONDISPLAY
280
0
  9
$INTERSECTIONCOLOR
 70
257
  9
$DIMASSOC
280
2
  9
$PROJECTNAME
  1

  9
$CAMERADISPLAY
290
0
  9
$LENSLENGTH
 40
50.0
  9
$CAMERAHEIGHT
 40
0.0
  9
$STEPSPERSEC
 40
24.0
  9
$STEPSIZE
 40
100.0
  9
$3DDWFPREC
 40
2.0
  9
$PSOLWIDTH
 40
0.005
  9
$PSOLHEIGHT
 40
0.08
  9
$LOFTANG1
 40
1.570796326795
  9
$LOFTANG2
 40
1.570796326795
  9
$LOFTMAG1
 40
0.0
  9
$LOFTMAG2
 40
0.0
  9
$LOFTPARAM
 70
7
  9
$LOFTNORMALS
280
1
  9
$LATITUDE
 40
37.795
  9
$LONGITUDE
 40
-122.394
  9
$NORTHDIRECTION
 40
0.0
  9
$TIMEZONE
 70
-8000
  9
$LIGHTGLYPHDISPLAY
280
1
  9
$TILEMODELIGHTSYNCH
280
1
  9
$CMATERIAL
347
20
  9
$SOLIDHIST
280
0
  9
$SHOWHIST
280
1
  9
$DWFFRAME
280
2
  9
$DGNFRAME
280
2
  9
$REALWORLDSCALE
290
1
  9
$INTERFERECOLOR
 62
256
  9
$CSHADOW
280
0
  9
$SHADOWPLANELOCATION
 40
0.0
  0
ENDSEC
  0
SECTION
  2
CLASSES
  0
CLASS
  1
ACDBDICTIONARYWDFLT
  2
AcDbDictionaryWithDefault
  3
ObjectDBX Classes
 90
0
 91
0
280
0
281
0
  0
CLASS
  1
SUN
  2
AcDbSun
  3
SCENEOE
 90
1153
 91
0
280
0
281
0
  0
CLASS
  1
VISUALSTYLE
  2
AcDbVisualStyle
  3
ObjectDBX Classes
 90
4095
 91
0
280
0
281
0
  0
CLASS
  1
MATERIAL
  2
AcDbMaterial
  3
ObjectDBX Classes
 90
1153
 91
0
280
0
281
0
  0
CLASS
  1
SCALE
  2
AcDbScale
  3
ObjectDBX Classes
 90
1153
 91
0
280
0
281
0
  0
CLASS
  1
TABLESTYLE
  2
AcDbTableStyle
  3
ObjectDBX Classes
 90
4095
 91
0
280
0
281
0
  0
CLASS
  1
MLEADERSTYLE
  2
AcDbMLeaderStyle
  3
ACDB_MLEADERSTYLE_CLASS
 90
4095
 91
0
280
0
281
0
  0
CLASS
  1
DICTIONARYVAR
  2
AcDbDictionaryVar
  3
ObjectDBX Classes
 90
0
 91
0
280
0
281
0
  0
CLASS
  1
CELLSTYLEMAP
  2
AcDbCellStyleMap
  3
ObjectDBX Classes
 90
1152
 91
0
280
0
281
0
  0
CLASS
  1
MENTALRAYRENDERSETTINGS
  2
AcDbMentalRayRenderSettings
  3
SCENEOE
 90
1024
 91
0
280
0
281
0
  0
CLASS
  1
ACDBDETAILVIEWSTYLE
  2
AcDbDetailViewStyle
  3
ObjectDBX Classes
 90
1025
 91
0
280
0
281
0
  0
CLASS
  1
ACDBSECTIONVIEWSTYLE
  2
AcDbSectionViewStyle
  3
ObjectDBX Classes
 90
1025
 91
0
280
0
281
0
  0
CLASS
  1
RASTERVARIABLES
  2
AcDbRasterVariables
  3
ISM
 90
0
 91
0
280
0
281
0
  0
CLASS
  1
LAYOUT
  2
AcDbLayout
  3
ObjectDBX Classes
 90
0
 91
0
280
0
281
0
  0
CLASS
  1
ACDBPLACEHOLDER
  2
AcDbPlaceHolder
  3
ObjectDBX Classes
 90
0
 91
0
280
0
281
0
  0
ENDSEC
  0
SECTION
  2
TABLES
  0
TABLE
  2
VPORT
  5
8
330
0
100
AcDbSymbolTable
 70
1
  0
VPORT
  5
23
330
8
100
AcDbSymbolTableRecord
100
AcDbViewportTableRecord
  2
*Active
 70
0
 10
0.0
 20
0.0
 11
1.0
 21
1.0
 12
0.0
 22
0.0
 13
0.0
 23
0.0
 14
0.5
 24
0.5
 15
0.5
 25
0.5
 16
0.0
 26
0.0
 36
1.0
 17
0.0
 27
0.0
 37
0.0
 40
1000.0
 41
1.34
 42
50.0
 43
0.0
 44
0.0
 50
0.0
 51
0.0
 71
0
 72
1000
 73
1
 74
3
 75
0
 76
0
 77
0
 78
0
281
0
 65
0
146
0.0
  0
ENDTAB
  0
TABLE
  2
LTYPE
  5
2
330
0
100
AcDbSymbolTable
 70
21
  0
LTYPE
  5
24
330
2
100
AcDbSymbolTableRecord
100
AcDbLinetypeTableRecord
  2
ByBlock
 70
0
  3

 72
65
 73
0
 40
0.0
  0
LTYPE
  5
25
330
2
100
AcDbSymbolTableRecord
100
AcDbLinetypeTableRecord
  2
ByLayer
 70
0
  3

 72
65
 73
0
 40
0.0
  0
LTYPE
  5
26
330
2
100
AcDbSymbolTableRecord
100
AcDbLinetypeTableRecord
  2
Continuous
 70
0
  3

 72
65
 73
0
 40
0.0
  0
LTYPE
  5
2F
330
2
100
AcDbSymbolTableRecord
100
AcDbLinetypeTableRecord
  2
CENTER
 70
0
  3
Center ____ _ ____ _ ____ _ ____ _ ____ _ ____
 72
65
 73
4
 40
5.08
 49
3.175
 74
0
 49
-0.635
 74
0
 49
0.635
 74
0
 49
-0.635
 74
0
  0
LTYPE
  5
30
330
2
100
AcDbSymbolTableRecord
100
AcDbLinetypeTableRecord
  2
CENTERX2
 70
0
  3
Center (2x) ________  __  ________  __  ________
 72
65
 73
4
 40
8.89
 49
6.35
 74
0
 49
-0.635
 74
0
 49
1.27
 74
0
 49
-0.635
 74
0
  0
LTYPE
  5
31
330
2
100
AcDbSymbolTableRecord
100
AcDbLinetypeTableRecord
  2
CENTER2
 70
0
  3
Center (.5x) ____ _ ____ _ ____ _ ____ _ ____
 72
65
 73
4
 40
2.54
 49
1.587
 74
0
 49
-0.318
 74
0
 49
0.318
 74
0
 49
-0.318
 74
0
  0
LTYPE
  5
32
330
2
100
AcDbSymbolTableRecord
100
AcDbLinetypeTableRecord
  2
DASHED
 70
0
  3
Dashed __ __ __ __ __ __ __ __ __ __ __ __ __ _
 72
65
 73
2
 40
1.524
 49
1.27
 74
0
 49
-0.254
 74
0
  0
LTYPE
  5
33
330
2
100
AcDbSymbolTableRecord
100
AcDbLinetypeTableRecord
  2
DASHEDX2
 70
0
  3
Dashed (2x) ____  ____  ____  ____  ____  ____
 72
65
 73
2
 40
3.048
 49
2.54
 74
0
 49
-0.508
 74
0
  0
LTYPE
  5
34
330
2
100
AcDbSymbolTableRecord
100
AcDbLinetypeTableRecord
  2
DASHED2
 70
0
  3
Dashed (.5x) _ _ _ _ _ _ _ _ _ _ _ _ _ _
 72
65
 73
2
 40
0.762
 49
0.635
 74
0
 49
-0.127
 74
0
  0
LTYPE
  5
35
330
2
100
AcDbSymbolTableRecord
100
AcDbLinetypeTableRecord
  2
PHANTOM
 70
0
  3
Phantom ______  __  __  ______  __  __  ______
 72
65
 73
6
 40
6.35
 49
3.175
 74
0
 49
-0.635
 74
0
 49
0.635
 74
0
 49
-0.635
 74
0
 49
0.635
 74
0
 49
-0.635
 74
0
  0
LTYPE
  5
36
330
2
100
AcDbSymbolTableRecord
100
AcDbLinetypeTableRecord
  2
PHANTOMX2
 70
0
  3
Phantom (2x)____________    ____    ____    ____________
 72
65
 73
6
 40
10.795
 49
6.35
 74
0
 49
-0.635
 74
0
 49
1.27
 74
0
 49
-0.635
 74
0
 49
1.27
 74
0
 49
-0.635
 74
0
  0
LTYPE
  5
37
330
2
100
AcDbSymbolTableRecord
100
AcDbLinetypeTableRecord
  2
PHANTOM2
 70
0
  3
Phantom (.5x) ___ _ _ ___ _ _ ___ _ _ ___ _ _ ___
 72
65
 73
6
 40
3.175
 49
1.587
 74
0
 49
-0.318
 74
0
 49
0.318
 74
0
 49
-0.318
 74
0
 49
0.318
 74
0
 49
-0.318
 74
0
  0
LTYPE
  5
38
330
2
100
AcDbSymbolTableRecord
100
AcDbLinetypeTableRecord
  2
DASHDOT
 70
0
  3
Dash dot __ . __ . __ . __ . __ . __ . __ . __
 72
65
 73
4
 40
3.556
 49
2.54
 74
0
 49
-0.508
 74
0
 49
0.0
 74
0
 49
-0.508
 74
0
  0
LTYPE
  5
39
330
2
100
AcDbSymbolTableRecord
100
AcDbLinetypeTableRecord
  2
DASHDOTX2
 70
0
  3
Dash dot (2x) ____  .  ____  .  ____  .  ____
 72
65
 73
4
 40
6.096
 49
5.08
 74
0
 49
-0.508
 74
0
 49
0.0
 74
0
 49
-0.508
 74
0
  0
LTYPE
  5
3A
330
2
100
AcDbSymbolTableRecord
100
AcDbLinetypeTableRecord
  2
DASHDOT2
 70
0
  3
Dash dot (.5x) _ . _ . _ . _ . _ . _ . _ . _
 72
65
 73
4
 40
1.778
 49
1.27
 74
0
 49
-0.254
 74
0
 49
0.0
 74
0
 49
-0.254
 74
0
  0
LTYPE
  5
3B
330
2
100
AcDbSymbolTableRecord
100
AcDbLinetypeTableRecord
  2
DOT
 70
0
  3
Dot .  .  .  .  .  .  .  .  .  .  .  .  .  .  .  .
 72
65
 73
2
 40
0.508
 49
0.0
 74
0
 49
-0.508
 74
0
  0
LTYPE
  5
3C
330
2
100
AcDbSymbolTableRecord
100
AcDbLinetypeTableRecord
  2
DOTX2
 70
0
  3
Dot (2x) .    .    .    .    .    .    .    . 
 72
65
 73
2
 40
1.016
 49
0.0
 74
0
 49
-1.016
 74
0
  0
LTYPE
  5
3D
330
2
100
AcDbSymbolTableRecord
100
AcDbLinetypeTableRecord
  2
DOT2
 70
0
  3
Dot (.5) . . . . . . . . . . . . . . . . . . . 
 72
65
 73
2
 40
0.254
 49
0.0
 74
0
 49
-0.254
 74
0
  0
LTYPE
  5
3E
330
2
100
AcDbSymbolTableRecord
100
AcDbLinetypeTableRecord
  2
DIVIDE
 70
0
  3
Divide __ . . __ . . __ . . __ . . __ . . __
 72
65
 73
6
 40
4.064
 49
2.54
 74
0
 49
-0.508
 74
0
 49
0.0
 74
0
 49
-0.508
 74
0
 49
0.0
 74
0
 49
-0.508
 74
0
  0
LTYPE
  5
3F
330
2
100
AcDbSymbolTableRecord
100
AcDbLinetypeTableRecord
  2
DIVIDEX2
 70
0
  3
Divide (2x) ____  . .  ____  . .  ____  . .  ____
 72
65
 73
6
 40
6.604
 49
5.08
 74
0
 49
-0.508
 74
0
 49
0.0
 74
0
 49
-0.508
 74
0
 49
0.0
 74
0
 49
-0.508
 74
0
  0
LTYPE
  5
40
330
2
100
AcDbSymbolTableRecord
100
AcDbLinetypeTableRecord
  2
DIVIDE2
 70
0
  3
Divide(.5x) _ . _ . _ . _ . _ . _ . _ . _
 72
65
 73
6
 40
2.032
 49
1.27
 74
0
 49
-0.254
 74
0
 49
0.0
 74
0
 49
-0.254
 74
0
 49
0.0
 74
0
 49
-0.254
 74
0
  0
ENDTAB
  0
TABLE
  2
LAYER
  5
1
330
0
100
AcDbSymbolTable
 70
10
  0
LAYER
  5
27
330
1
100
AcDbSymbolTableRecord
100
AcDbLayerTableRecord
  2
0
 70
0
 62
7
  6
Continuous
370
-3
390
13
347
21
  0
LAYER
  5
28
330
1
100
AcDbSymbolTableRecord
100
AcDbLayerTableRecord
  2
Defpoints
 70
0
 62
7
  6
Continuous
290
0
370
-3
390
13
347
21
  0
LAYER
  5
8A
330
1
100
AcDbSymbolTableRecord
100
AcDbLayerTableRecord
  2
PIPE
 70
0
 62
3
  6
Continuous
370
-3
390
13
347
21
  0
LAYER
  5
8B
330
1
100
AcDbSymbolTableRecord
100
AcDbLayerTableRecord
  2
BOX
 70
0
 62
1
  6
Continuous
370
-3
390
13
347
21
  0
LAYER
  5
8C
330
1
100
AcDbSymbolTableRecord
100
AcDbLayerTableRecord
  2
CAR
 70
0
 62
8
  6
Continuous
370
-3
390
13
347
21
  0
LAYER
  5
8D
330
1
100
AcDbSymbolTableRecord
100
AcDbLayerTableRecord
  2
DIM
 70
0
 62
5
  6
Continuous
370
-3
390
13
347
21
  0
LAYER
  5
8E
330
1
100
AcDbSymbolTableRecord
100
AcDbLayerTableRecord
  2
HANGER
 70
0
 62
6
  6
Continuous
370
-3
390
13
347
21
  0
LAYER
  5
8F
330
1
100
AcDbSymbolTableRecord
100
AcDbLayerTableRecord
  2
TEXT
 70
0
 62
7
  6
Continuous
370
-3
390
13
347
21
  0
LAYER
  5
90
330
1
100
AcDbSymbolTableRecord
100
AcDbLayerTableRecord
  2
RES
 70
0
 62
4
  6
Continuous
370
-3
390
13
347
21
  0
LAYER
  5
91
330
1
100
AcDbSymbolTableRecord
100
AcDbLayerTableRecord
  2
BEND
 70
0
 62
2
  6
Continuous
370
-3
390
13
347
21
  0
ENDTAB
  0
TABLE
  2
STYLE
  5
5
330
0
100
AcDbSymbolTable
 70
26
  0
STYLE
  5
29
330
5
100
AcDbSymbolTableRecord
100
AcDbTextStyleTableRecord
  2
Standard
 70
0
 40
0.0
 41
1.0
 50
0.0
 71
0
 42
2.5
  3
txt
  4

  0
STYLE
  5
41
330
5
100
AcDbSymbolTableRecord
100
AcDbTextStyleTableRecord
  2
OpenSans-Light
 70
0
 40
0.0
 41
1.0
 50
0.0
 71
0
 42
2.5
  3
OpenSans-Light.ttf
  4

  0
STYLE
  5
42
330
5
100
AcDbSymbolTableRecord
100
AcDbTextStyleTableRecord
  2
OpenSans-Light-Italic
 70
0
 40
0.0
 41
1.0
 50
0.0
 71
0
 42
2.5
  3
OpenSans-LightItalic.ttf
  4

  0
STYLE
  5
43
330
5
100
AcDbSymbolTableRecord
100
AcDbTextStyleTableRecord
  2
OpenSans
 70
0
 40
0.0
 41
1.0
 50
0.0
 71
0
 42
2.5
  3
OpenSans-Regular.ttf
  4

  0
STYLE
  5
44
330
5
100
AcDbSymbolTableRecord
100
AcDbTextStyleTableRecord
  2
OpenSans-Italic
 70
0
 40
0.0
 41
1.0
 50
0.0
 71
0
 42
2.5
  3
OpenSans-Italic.ttf
  4

  0
STYLE
  5
45
330
5
100
AcDbSymbolTableRecord
100
AcDbTextStyleTableRecord
  2
OpenSans-SemiBold
 70
0
 40
0.0
 41
1.0
 50
0.0
 71
0
 42
2.5
  3
OpenSans-SemiBold.ttf
  4

  0
STYLE
  5
46
330
5
100
AcDbSymbolTableRecord
100
AcDbTextStyleTableRecord
  2
OpenSans-SemiBoldItalic
 70
0
 40
0.0
 41
1.0
 50
0.0
 71
0
 42
2.5
  3
OpenSans-SemiBoldItalic.ttf
  4

  0
STYLE
  5
47
330
5
100
AcDbSymbolTableRecord
100
AcDbTextStyleTableRecord
  2
OpenSans-Bold
 70
0
 40
0.0
 41
1.0
 50
0.0
 71
0
 42
2.5
  3
OpenSans-Bold.ttf
  4

  0
STYLE
  5
48
330
5
100
AcDbSymbolTableRecord
100
AcDbTextStyleTableRecord
  2
OpenSans-BoldItalic
 70
0
 40
0.0
 41
1.0
 50
0.0
 71
0
 42
2.5
  3
OpenSans-BoldItalic.ttf
  4

  0
STYLE
  5
49
330
5
100
AcDbSymbolTableRecord
100
AcDbTextStyleTableRecord
  2
OpenSans-ExtraBold
 70
0
 40
0.0
 41
1.0
 50
0.0
 71
0
 42
2.5
  3
OpenSans-ExtraBold.ttf
  4

  0
STYLE
  5
4A
330
5
100
AcDbSymbolTableRecord
100
AcDbTextStyleTableRecord
  2
OpenSans-ExtraBoldItalic
 70
0
 40
0.0
 41
1.0
 50
0.0
 71
0
 42
2.5
  3
OpenSans-ExtraBoldItalic.ttf
  4

  0
STYLE
  5
4B
330
5
100
AcDbSymbolTableRecord
100
AcDbTextStyleTableRecord
  2
OpenSansCondensed-Bold
 70
0
 40
0.0
 41
1.0
 50
0.0
 71
0
 42
2.5
  3
OpenSansCondensed-Bold.ttf
  4

  0
STYLE
  5
4C
330
5
100
AcDbSymbolTableRecord
100
AcDbTextStyleTableRecord
  2
OpenSansCondensed-Light
 70
0
 40
0.0
 41
1.0
 50
0.0
 71
0
 42
2.5
  3
OpenSansCondensed-Light.ttf
  4

  0
STYLE
  5
4D
330
5
100
AcDbSymbolTableRecord
100
AcDbTextStyleTableRecord
  2
OpenSansCondensed-Italic
 70
0
 40
0.0
 41
1.0
 50
0.0
 71
0
 42
2.5
  3
OpenSansCondensed-LightItalic.ttf
  4

  0
STYLE
  5
4E
330
5
100
AcDbSymbolTableRecord
100
AcDbTextStyleTableRecord
  2
LiberationSans
 70
0
 40
0.0
 41
1.0
 50
0.0
 71
0
 42
2.5
  3
LiberationSans-Regular.ttf
  4

  0
STYLE
  5
4F
330
5
100
AcDbSymbolTableRecord
100
AcDbTextStyleTableRecord
  2
LiberationSans-Bold
 70
0
 40
0.0
 41
1.0
 50
0.0
 71
0
 42
2.5
  3
LiberationSans-Bold.ttf
  4

  0
STYLE
  5
50
330
5
100
AcDbSymbolTableRecord
100
AcDbTextStyleTableRecord
  2
LiberationSans-BoldItalic
 70
0
 40
0.0
 41
1.0
 50
0.0
 71
0
 42
2.5
  3
LiberationSans-BoldItalic.ttf
  4

  0
STYLE
  5
51
330
5
100
AcDbSymbolTableRecord
100
AcDbTextStyleTableRecord
  2
LiberationSans-Italic
 70
0
 40
0.0
 41
1.0
 50
0.0
 71
0
 42
2.5
  3
LiberationSans-Italic.ttf
  4

  0
STYLE
  5
52
330
5
100
AcDbSymbolTableRecord
100
AcDbTextStyleTableRecord
  2
LiberationSerif
 70
0
 40
0.0
 41
1.0
 50
0.0
 71
0
 42
2.5
  3
LiberationSerif-Regular.ttf
  4

  0
STYLE
  5
53
330
5
100
AcDbSymbolTableRecord
100
AcDbTextStyleTableRecord
  2
LiberationSerif-Bold
 70
0
 40
0.0
 41
1.0
 50
0.0
 71
0
 42
2.5
  3
LiberationSerif-Bold.ttf
  4

  0
STYLE
  5
54
330
5
100
AcDbSymbolTableRecord
100
AcDbTextStyleTableRecord
  2
LiberationSerif-BoldItalic
 70
0
 40
0.0
 41
1.0
 50
0.0
 71
0
 42
2.5
  3
LiberationSerif-BoldItalic.ttf
  4

  0
STYLE
  5
55
330
5
100
AcDbSymbolTableRecord
100
AcDbTextStyleTableRecord
  2
LiberationSerif-Italic
 70
0
 40
0.0
 41
1.0
 50
0.0
 71
0
 42
2.5
  3
LiberationSerif-Italic.ttf
  4

  0
STYLE
  5
56
330
5
100
AcDbSymbolTableRecord
100
AcDbTextStyleTableRecord
  2
LiberationMono
 70
0
 40
0.0
 41
1.0
 50
0.0
 71
0
 42
2.5
  3
LiberationMono-Regular.ttf
  4

  0
STYLE
  5
57
330
5
100
AcDbSymbolTableRecord
100
AcDbTextStyleTableRecord
  2
LiberationMono-Bold
 70
0
 40
0.0
 41
1.0
 50
0.0
 71
0
 42
2.5
  3
LiberationMono-Bold.ttf
  4

  0
STYLE
  5
58
330
5
100
AcDbSymbolTableRecord
100
AcDbTextStyleTableRecord
  2
LiberationMono-BoldItalic
 70
0
 40
0.0
 41
1.0
 50
0.0
 71
0
 42
2.5
  3
LiberationMono-BoldItalic.ttf
  4

  0
STYLE
  5
59
330
5
100
AcDbSymbolTableRecord
100
AcDbTextStyleTableRecord
  2
LiberationMono-Italic
 70
0
 40
0.0
 41
1.0
 50
0.0
 71
0
 42
2.5
  3
LiberationMono-Italic.ttf
  4

  0
ENDTAB
  0
TABLE
  2
VIEW
  5
7
330
0
100
AcDbSymbolTable
 70
0
  0
ENDTAB
  0
TABLE
  2
UCS
  5
6
330
0
100
AcDbSymbolTable
 70
0
  0
ENDTAB
  0
TABLE
  2
APPID
  5
3
330
0
100
AcDbSymbolTable
 70
3
  0
APPID
  5
2A
330
3
100
AcDbSymbolTableRecord
100
AcDbRegAppTableRecord
  2
ACAD
 70
0
  0
APPID
  5
17D
330
3
100
AcDbSymbolTableRecord
100
AcDbRegAppTableRecord
  2
HATCHBACKGROUNDCOLOR
 70
0
  0
APPID
  5
17E
330
3
100
AcDbSymbolTableRecord
100
AcDbRegAppTableRecord
  2
EZDXF
 70
0
  0
ENDTAB
  0
TABLE
  2
DIMSTYLE
  5
4
330
0
100
AcDbSymbolTable
 70
12
100
AcDbDimStyleTable
  0
DIMSTYLE
105
2B
330
4
100
AcDbSymbolTableRecord
100
AcDbDimStyleTableRecord
  2
Standard
 70
0
 40
1.0
 41
2.5
 42
0.625
 43
3.75
 44
1.25
 45
0.0
 46
0.0
 47
0.0
 48
0.0
 49
2.5
140
2.5
141
2.5
142
0.0
143
0.03937007874
144
1.0
145
0.0
146
1.0
147
0.625
148
0.0
 69
0
 70
0
 71
0
 72
0
 73
0
 74
0
 75
0
 76
0
 77
1
 78
8
 79
3
170
0
171
3
172
1
173
0
174
0
175
0
176
0
177
0
178
0
179
2
271
2
272
2
273
2
274
3
275
0
276
0
277
2
278
44
279
0
280
0
281
0
282
0
283
0
284
8
285
0
286
0
288
0
289
3
290
0
371
-2
372
-2
  0
DIMSTYLE
105
73
330
4
100
AcDbSymbolTableRecord
100
AcDbDimStyleTableRecord
  2
EZDXF
 70
0
 40
1.0
 41
0.175
 42
0.125
 43
3.75
 44
0.375
 45
0.0
 46
0.0
 47
0.0
 48
0.0
 49
2.5
140
0.25
141
2.5
142
0.0
143
0.03937007874
144
100.0
145
0.0
146
0.5
147
0.1
148
0.0
 69
0
 70
0
 71
0
 72
0
 73
0
 74
0
 75
0
 76
0
 77
1
 78
12
 79
3
170
0
171
3
172
1
173
0
174
0
175
0
176
0
177
0
178
0
179
2
271
2
272
2
273
2
274
3
275
0
276
0
277
2
278
46
279
2
280
0
281
0
282
0
283
0
284
8
285
0
286
0
288
1
289
3
290
0
340
4C
342
74
371
-2
372
-2
  0
DIMSTYLE
105
7C
330
4
100
AcDbSymbolTableRecord
100
AcDbDimStyleTableRecord
  2
EZ_M_100_H25_CM
 70
0
 40
1.0
 41
0.25
 42
0.125
 43
3.75
 44
0.375
 45
0.0
 46
0.0
 47
0.0
 48
0.0
 49
2.5
140
0.25
141
2.5
142
0.125
143
0.03937007874
144
100.0
145
0.0
146
0.5
147
0.1
148
0.0
 69
0
 70
0
 71
0
 72
0
 73
0
 74
0
 75
0
 76
0
 77
1
 78
12
 79
3
170
0
171
3
172
1
173
0
174
0
175
0
176
0
177
0
178
0
179
2
271
2
272
2
273
2
274
3
275
0
276
0
277
2
278
46
279
2
280
0
281
0
282
0
283
0
284
8
285
0
286
0
288
1
289
3
290
0
340
4C
371
-2
372
-2
  0
DIMSTYLE
105
7D
330
4
100
AcDbSymbolTableRecord
100
AcDbDimStyleTableRecord
  2
EZ_M_50_H25_CM
 70
0
 40
1.0
 41
0.125
 42
0.0625
 43
3.75
 44
0.1875
 45
0.0
 46
0.0
 47
0.0
 48
0.0
 49
2.5
140
0.125
141
2.5
142
0.0625
143
0.03937007874
144
100.0
145
0.0
146
0.5
147
0.05
148
0.0
 69
0
 70
0
 71
0
 72
0
 73
0
 74
0
 75
0
 76
0
 77
1
 78
12
 79
3
170
0
171
3
172
1
173
0
174
0
175
0
176
0
177
0
178
0
179
2
271
2
272
2
273
2
274
3
275
0
276
0
277
2
278
46
279
2
280
0
281
0
282
0
283
0
284
8
285
0
286
0
288
1
289
3
290
0
340
4C
371
-2
372
-2
  0
DIMSTYLE
105
7E
330
4
100
AcDbSymbolTableRecord
100
AcDbDimStyleTableRecord
  2
EZ_M_25_H25_CM
 70
0
 40
1.0
 41
0.0625
 42
0.03125
 43
3.75
 44
0.09375
 45
0.0
 46
0.0
 47
0.0
 48
0.0
 49
2.5
140
0.0625
141
2.5
142
0.03125
143
0.03937007874
144
100.0
145
0.0
146
0.5
147
0.025
148
0.0
 69
0
 70
0
 71
0
 72
0
 73
0
 74
0
 75
0
 76
0
 77
1
 78
12
 79
3
170
0
171
3
172
1
173
0
174
0
175
0
176
0
177
0
178
0
179
2
271
2
272
2
273
2
274
3
275
0
276
0
277
2
278
46
279
2
280
0
281
0
282
0
283
0
284
8
285
0
286
0
288
1
289
3
290
0
340
4C
371
-2
372
-2
  0
DIMSTYLE
105
7F
330
4
100
AcDbSymbolTableRecord
100
AcDbDimStyleTableRecord
  2
EZ_M_20_H25_CM
 70
0
 40
1.0
 41
0.05
 42
0.025
 43
3.75
 44
0.07500000000000001
 45
0.0
 46
0.0
 47
0.0
 48
0.0
 49
2.5
140
0.05
141
2.5
142
0.025
143
0.03937007874
144
100.0
145
0.0
146
0.5
147
0.020000000000000004
148
0.0
 69
0
 70
0
 71
0
 72
0
 73
0
 74
0
 75
0
 76
0
 77
1
 78
12
 79
3
170
0
171
3
172
1
173
0
174
0
175
0
176
0
177
0
178
0
179
2
271
2
272
2
273
2
274
3
275
0
276
0
277
2
278
46
279
2
280
0
281
0
282
0
283
0
284
8
285
0
286
0
288
1
289
3
290
0
340
4C
371
-2
372
-2
  0
DIMSTYLE
105
80
330
4
100
AcDbSymbolTableRecord
100
AcDbDimStyleTableRecord
  2
EZ_M_10_H25_CM
 70
0
 40
1.0
 41
0.025
 42
0.0125
 43
3.75
 44
0.037500000000000006
 45
0.0
 46
0.0
 47
0.0
 48
0.0
 49
2.5
140
0.025
141
2.5
142
0.0125
143
0.03937007874
144
100.0
145
0.0
146
0.5
147
0.010000000000000002
148
0.0
 69
0
 70
0
 71
0
 72
0
 73
0
 74
0
 75
0
 76
0
 77
1
 78
12
 79
3
170
0
171
3
172
1
173
0
174
0
175
0
176
0
177
0
178
0
179
2
271
2
272
2
273
2
274
3
275
0
276
0
277
2
278
46
279
2
280
0
281
0
282
0
283
0
284
8
285
0
286
0
288
1
289
3
290
0
340
4C
371
-2
372
-2
  0
DIMSTYLE
105
81
330
4
100
AcDbSymbolTableRecord
100
AcDbDimStyleTableRecord
  2
EZ_M_5_H25_CM
 70
0
 40
1.0
 41
0.0125
 42
0.00625
 43
3.75
 44
0.018750000000000003
 45
0.0
 46
0.0
 47
0.0
 48
0.0
 49
2.5
140
0.0125
141
2.5
142
0.00625
143
0.03937007874
144
100.0
145
0.0
146
0.5
147
0.005000000000000001
148
0.0
 69
0
 70
0
 71
0
 72
0
 73
0
 74
0
 75
0
 76
0
 77
1
 78
12
 79
3
170
0
171
3
172
1
173
0
174
0
175
0
176
0
177
0
178
0
179
2
271
2
272
2
273
2
274
3
275
0
276
0
277
2
278
46
279
2
280
0
281
0
282
0
283
0
284
8
285
0
286
0
288
1
289
3
290
0
340
4C
371
-2
372
-2
  0
DIMSTYLE
105
82
330
4
100
AcDbSymbolTableRecord
100
AcDbDimStyleTableRecord
  2
EZ_M_1_H25_CM
 70
0
 40
1.0
 41
0.0025
 42
0.00125
 43
3.75
 44
0.00375
 45
0.0
 46
0.0
 47
0.0
 48
0.0
 49
2.5
140
0.0025
141
2.5
142
0.00125
143
0.03937007874
144
100.0
145
0.0
146
0.5
147
0.001
148
0.0
 69
0
 70
0
 71
0
 72
0
 73
0
 74
0
 75
0
 76
0
 77
1
 78
12
 79
3
170
0
171
3
172
1
173
0
174
0
175
0
176
0
177
0
178
0
179
2
271
2
272
2
273
2
274
3
275
0
276
0
277
2
278
46
279
2
280
0
281
0
282
0
283
0
284
8
285
0
286
0
288
1
289
3
290
0
340
4C
371
-2
372
-2
  0
DIMSTYLE
105
83
330
4
100
AcDbSymbolTableRecord
100
AcDbDimStyleTableRecord
  2
EZ_RADIUS
 70
0
 40
1.0
 41
0.25
 42
0.125
 43
3.75
 44
0.375
 45
0.0
 46
0.0
 47
0.0
 48
0.0
 49
2.5
140
0.25
141
0.0
142
0.0
143
0.03937007874
144
100.0
145
0.0
146
0.5
147
0.1
148
0.0
 69
0
 70
0
 71
0
 72
0
 73
0
 74
0
 75
0
 76
0
 77
1
 78
12
 79
3
170
0
171
3
172
0
173
0
174
0
175
0
176
0
177
0
178
0
179
2
271
2
272
2
273
2
274
3
275
0
276
0
277
2
278
46
279
1
280
0
281
0
282
0
283
0
284
8
285
0
286
0
288
1
289
3
290
0
340
4C
342
84
371
-2
372
-2
  0
DIMSTYLE
105
88
330
4
100
AcDbSymbolTableRecord
100
AcDbDimStyleTableRecord
  2
EZ_RADIUS_INSIDE
 70
0
 40
1.0
 41
0.25
 42
0.125
 43
3.75
 44
0.375
 45
0.0
 46
0.0
 47
0.0
 48
0.0
 49
2.5
140
0.25
141
0.0
142
0.0
143
0.03937007874
144
100.0
145
0.0
146
0.5
147
0.1
148
0.0
 69
0
 70
0
 71
0
 72
0
 73
0
 74
0
 75
0
 76
0
 77
0
 78
12
 79
3
170
0
171
3
172
0
173
0
174
1
175
0
176
0
177
0
178
0
179
2
271
2
272
2
273
2
274
3
275
0
276
0
277
2
278
46
279
0
280
0
281
0
282
0
283
0
284
8
285
0
286
0
288
1
289
0
290
0
340
4C
342
84
371
-2
372
-2
  0
DIMSTYLE
105
89
330
4
100
AcDbSymbolTableRecord
100
AcDbDimStyleTableRecord
  2
EZ_CURVED
 70
0
 40
1.0
 41
0.25
 42
0.125
 43
3.75
 44
0.375
 45
0.0
 46
0.0
 47
0.0
 48
0.0
 49
2.5
140
0.25
141
2.5
142
0.0
143
0.03937007874
144
100.0
145
0.0
146
0.5
147
0.1
148
0.0
 69
0
 70
0
 71
0
 72
0
 73
0
 74
0
 75
0
 76
0
 77
1
 78
12
 79
2
 90
2
170
0
171
3
172
1
173
0
174
0
175
0
176
0
177
0
178
0
179
2
271
2
272
2
273
2
274
3
275
0
276
0
277
2
278
46
279
2
280
0
281
0
282
0
283
0
284
8
285
0
286
0
288
1
289
3
290
0
340
4C
371
-2
372
-2
  0
ENDTAB
  0
TABLE
  2
BLOCK_RECORD
  5
9
330
0
100
AcDbSymbolTable
 70
5
  0
BLOCK_RECORD
  5
17
330
9
100
AcDbSymbolTableRecord
100
AcDbBlockTableRecord
  2
*Model_Space
340
1A
 70
0
280
1
281
0
  0
BLOCK_RECORD
  5
1B
330
9
100
AcDbSymbolTableRecord
100
AcDbBlockTableRecord
  2
*Paper_Space
340
1E
 70
0
280
1
281
0
  0
BLOCK_RECORD
  5
74
330
9
100
AcDbSymbolTableRecord
100
AcDbBlockTableRecord
  2
_ARCHTICK
340
0
 70
0
280
1
281
0
  0
BLOCK_RECORD
  5
78
330
9
100
AcDbSymbolTableRecord
100
AcDbBlockTableRecord
  2
_CLOSEDFILLED
340
0
 70
0
280
1
281
0
  0
BLOCK_RECORD
  5
84
330
9
100
AcDbSymbolTableRecord
100
AcDbBlockTableRecord
  2
_CLOSEDBLANK
340
0
 70
0
280
1
281
0
  0
ENDTAB
  0
ENDSEC
  0
SECTION
  2
BLOCKS
  0
BLOCK
  5
18
330
17
100
AcDbEntity
  8
0
100
AcDbBlockBegin
  2
*Model_Space
 70
0
 10
0.0
 20
0.0
 30
0.0
  3
*Model_Space
  1

  0
ENDBLK
  5
19
330
17
100
AcDbEntity
  8
0
100
AcDbBlockEnd
  0
BLOCK
  5
1C
330
1B
100
AcDbEntity
  8
0
100
AcDbBlockBegin
  2
*Paper_Space
 70
0
 10
0.0
 20
0.0
 30
0.0
  3
*Paper_Space
  1

  0
ENDBLK
  5
1D
330
1B
100
AcDbEntity
  8
0
100
AcDbBlockEnd
  0
BLOCK
  5
75
330
74
100
AcDbEntity
  8
0
100
AcDbBlockBegin
  2
_ARCHTICK
 70
0
 10
0.0
 20
0.0
 30
0.0
  3
_ARCHTICK
  1

  0
LWPOLYLINE
  5
77
330
74
100
AcDbEntity
  8
0
  6
BYBLOCK
 62
0
100
AcDbPolyline
 90
2
 70
0
 43
0.15
 10
-0.5
 20
-0.5
 10
0.5
 20
0.5
  0
ENDBLK
  5
76
330
74
100
AcDbEntity
  8
0
100
AcDbBlockEnd
  0
BLOCK
  5
79
330
78
100
AcDbEntity
  8
0
100
AcDbBlockBegin
  2
_CLOSEDFILLED
 70
0
 10
0.0
 20
0.0
 30
0.0
  3
_CLOSEDFILLED
  1

  0
SOLID
  5
7B
330
78
100
AcDbEntity
  8
0
  6
BYBLOCK
 62
0
100
AcDbTrace
 10
-1.0
 20
0.16439898372402537
 30
0.0
 11
0.0
 21
0.0
 31
0.0
 12
-1.0
 22
-0.16439898372402537
 32
0.0
 13
-1.0
 23
-0.16439898372402537
 33
0.0
  0
ENDBLK
  5
7A
330
78
100
AcDbEntity
  8
0
100
AcDbBlockEnd
  0
BLOCK
  5
85
330
84
100
AcDbEntity
  8
0
100
AcDbBlockBegin
  2
_CLOSEDBLANK
 70
0
 10
0.0
 20
0.0
 30
0.0
  3
_CLOSEDBLANK
  1

  0
LWPOLYLINE
  5
87
330
84
100
AcDbEntity
  8
0
  6
BYBLOCK
 62
0
100
AcDbPolyline
 90
3
 70
1
 10
-1.0
 20
0.16439898372402537
 10
0.0
 20
0.0
 10
-1.0
 20
-0.16439898372402537
  0
ENDBLK
  5
86
330
84
100
AcDbEntity
  8
0
100
AcDbBlockEnd
  0
ENDSEC
  0
SECTION
  2
ENTITIES
  0
LWPOLYLINE
  5
92
330
17
100
AcDbEntity
  8
CAR
100
AcDbPolyline
 90
9
 70
1
 10
-885.0
 20
320.0
 10
-855.0
 20
780.0
 10
585.0
 20
880.0
 10
985.0
 20
930.0
 10
1505.0
 20
1470.0
 10
3320.0
 20
1470.0
 10
3550.0
 20
1120.0
 10
3630.0
 20
1000.0
 10
3630.0
 20
300.0
  0
CIRCLE
  5
93
330
17
100
AcDbEntity
  8
CAR
100
AcDbCircle
 10
0.0
 20
312.0
 30
0.0
 40
312.0
  0
CIRCLE
  5
94
330
17
100
AcDbEntity
  8
CAR
100
AcDbCircle
 10
0.0
 20
312.0
 30
0.0
 40
130.0
  0
CIRCLE
  5
95
330
17
100
AcDbEntity
  8
CAR
100
AcDbCircle
 10
2703.0
 20
312.0
 30
0.0
 40
312.0
  0
CIRCLE
  5
96
330
17
100
AcDbEntity
  8
CAR
100
AcDbCircle
 10
2703.0
 20
312.0
 30
0.0
 40
130.0
  0
LINE
  5
97
330
17
100
AcDbEntity
  8
CAR
100
AcDbLine
 10
-885.0
 20
520.0
 30
0.0
 11
3630.0
 21
520.0
 31
0.0
  0
LWPOLYLINE
  5
98
330
17
100
AcDbEntity
  8
CAR
100
AcDbPolyline
 90
4
 70
1
 10
2260.0
 20
405.0
 10
2680.0
 20
405.0
 10
2680.0
 20
530.0
 10
2260.0
 20
530.0
  0
LWPOLYLINE
  5
99
330
17
100
AcDbEntity
  8
CAR
100
AcDbPolyline
 90
4
 70
1
 10
2583.0
 20
300.0
 10
2823.0
 20
300.0
 10
2823.0
 20
430.0
 10
2583.0
 20
430.0
  0
LWPOLYLINE
  5
9A
330
17
100
AcDbEntity
  8
PIPE
100
AcDbPolyline
 90
82
 70
0
 10
-150.0
 20
390.0
 10
-106.01794819572943
 20
390.0
 10
-62.03589639145886
 20
390.0
 10
-18.05384458718828
 20
390.0
 10
25.928207217082274
 20
390.0
 10
69.91025902135286
 20
390.0
 10
70.3603157656318
 20
389.9999571402905
 10
70.81037250379332
 20
389.9998714208719
 10
71.26042923175915
 20
389.99974284174493
 10
71.710485945451
 20
389.9995714029108
 10
72.16054264079061
 20
389.9993571043711
 10
72.6105993136997
 20
389.99909994612767
 10
73.06065596009998
 20
389.99879992818296
 10
73.51071257591317
 20
389.9984570505396
 10
73.96076915706102
 20
389.99807131320074
 10
74.41082569946524
 20
389.9976427161698
 10
74.86088219904754
 20
389.9971712594508
 10
75.31093865172966
 20
389.9966569430479
 10
75.76099505343332
 20
389.9960997669658
 10
76.21105140008025
 20
389.9954997312096
 10
76.66110768759216
 20
389.9948568357846
 10
77.1111639118908
 20
389.99417108069673
 10
77.56122006889788
 20
389.99344246595217
 10
78.01127615453514
 20
389.99267099155753
 10
78.4613321647243
 20
389.9918566575198
 10
78.91138809538708
 20
389.9909994638464
 10
79.36144394244523
 20
389.99009941054504
 10
79.81149970182048
 20
389.9891564976239
 10
80.26155536943455
 20
389.98817072509155
 10
80.71161094120917
 20
389.9871420929569
 10
121.76771343306304
 20
384.5797979298044
 10
162.82381592491691
 20
379.1724537666519
 10
203.87991841677075
 20
373.7651096034994
 10
244.93602090862464
 20
368.3577654403469
 10
285.9921234004785
 20
362.9504212771944
 10
327.0482258923323
 20
357.5430771140419
 10
368.10432838418626
 20
352.1357329508894
 10
409.1604308760401
 20
346.7283887877369
 10
450.216533367894
 20
341.3210446245844
 10
491.2726358597478
 20
335.9137004614319
 10
532.3287383516016
 20
330.5063562982794
 10
532.7749503900762
 20
330.44763062587407
 10
533.2211680145184
 20
330.38894744730595
 10
533.6673912208847
 20
330.33030676310676
 10
534.1136200051316
 20
330.27170857380787
 10
534.5598543632153
 20
330.2131528799403
 10
535.0060942910924
 20
330.15463968203466
 10
535.452339784719
 20
330.0961689806212
 10
535.8985908400515
 20
330.0377407762297
 10
536.3448474530461
 20
329.9793550693897
 10
536.7911096196589
 20
329.92101186063024
 10
537.237377335846
 20
329.86271115048
 10
537.6836505975635
 20
329.80445293946724
 10
538.1299294007674
 20
329.74623722812
 10
538.5762137414137
 20
329.6880640169657
 10
539.0225036154582
 20
329.62993330653154
 10
539.4687990188568
 20
329.57184509734424
 10
539.9150999475654
 20
329.5137993899302
 10
540.3614063975397
 20
329.4557961848155
 10
540.8077183647354
 20
329.3978354825256
 10
541.2540358451081
 20
329.3399172835858
 10
541.7003588346134
 20
329.28204158852094
 10
542.146687329207
 20
329.2242083978555
 10
542.5930213248442
 20
329.16641771211346
 10
543.0393608174807
 20
329.1086695318185
 10
584.6223916142455
 20
329.1086695318185
 10
626.2054224110104
 20
329.1086695318185
 10
667.7884532077754
 20
329.1086695318185
 10
709.3714840045402
 20
329.1086695318185
 10
750.9545148013051
 20
329.1086695318185
 10
792.5375455980701
 20
329.1086695318185
 10
834.1205763948351
 20
329.1086695318185
 10
875.7036071915999
 20
329.1086695318185
 10
917.2866379883649
 20
329.1086695318185
 10
958.8696687851296
 20
329.1086695318185
 10
1000.4526995818946
 20
329.1086695318185
 10
1042.0357303786595
 20
329.1086695318185
 10
1083.6187611754244
 20
329.1086695318185
 10
1125.2017919721893
 20
329.1086695318185
 10
1166.7848227689542
 20
329.1086695318185
 10
1208.367853565719
 20
329.1086695318185
 10
1249.950884362484
 20
329.1086695318185
  0
LWPOLYLINE
  5
9B
330
17
100
AcDbEntity
  8
PIPE
100
AcDbPolyline
 90
82
 70
0
 10
-150.0
 20
358.25
 10
-106.01794819572943
 20
358.25
 10
-62.03589639145886
 20
358.25
 10
-18.05384458718828
 20
358.25
 10
25.928207217082274
 20
358.25
 10
69.91025902135286
 20
358.25
 10
70.3603157656318
 20
358.2499571402905
 10
70.81037250379332
 20
358.2498714208719
 10
71.26042923175915
 20
358.24974284174493
 10
71.710485945451
 20
358.2495714029108
 10
72.16054264079061
 20
358.2493571043711
 10
72.6105993136997
 20
358.24909994612767
 10
73.06065596009998
 20
358.24879992818296
 10
73.51071257591317
 20
358.2484570505396
 10
73.96076915706102
 20
358.24807131320074
 10
74.41082569946524
 20
358.2476427161698
 10
74.86088219904754
 20
358.2471712594508
 10
75.31093865172966
 20
358.2466569430479
 10
75.76099505343332
 20
358.2460997669658
 10
76.21105140008025
 20
358.2454997312096
 10
76.66110768759216
 20
358.2448568357846
 10
77.1111639118908
 20
358.24417108069673
 10
77.56122006889788
 20
358.24344246595217
 10
78.01127615453514
 20
358.24267099155753
 10
78.4613321647243
 20
358.2418566575198
 10
78.91138809538708
 20
358.2409994638464
 10
79.36144394244523
 20
358.24009941054504
 10
79.81149970182048
 20
358.2391564976239
 10
80.26155536943455
 20
358.23817072509155
 10
80.71161094120917
 20
358.2371420929569
 10
121.76771343306304
 20
352.8297979298044
 10
162.82381592491691
 20
347.4224537666519
 10
203.87991841677075
 20
342.0151096034994
 10
244.93602090862464
 20
336.6077654403469
 10
285.9921234004785
 20
331.2004212771944
 10
327.0482258923323
 20
325.7930771140419
 10
368.10432838418626
 20
320.3857329508894
 10
409.1604308760401
 20
314.9783887877369
 10
450.216533367894
 20
309.5710446245844
 10
491.2726358597478
 20
304.1637004614319
 10
532.3287383516016
 20
298.7563562982794
 10
532.7749503900762
 20
298.69763062587407
 10
533.2211680145184
 20
298.63894744730595
 10
533.6673912208847
 20
298.58030676310676
 10
534.1136200051316
 20
298.52170857380787
 10
534.5598543632153
 20
298.4631528799403
 10
535.0060942910924
 20
298.40463968203466
 10
535.452339784719
 20
298.3461689806212
 10
535.8985908400515
 20
298.2877407762297
 10
536.3448474530461
 20
298.2293550693897
 10
536.7911096196589
 20
298.17101186063024
 10
537.237377335846
 20
298.11271115048
 10
537.6836505975635
 20
298.05445293946724
 10
538.1299294007674
 20
297.99623722812
 10
538.5762137414137
 20
297.9380640169657
 10
539.0225036154582
 20
297.87993330653154
 10
539.4687990188568
 20
297.82184509734424
 10
539.9150999475654
 20
297.7637993899302
 10
540.3614063975397
 20
297.7057961848155
 10
540.8077183647354
 20
297.6478354825256
 10
541.2540358451081
 20
297.5899172835858
 10
541.7003588346134
 20
297.53204158852094
 10
542.146687329207
 20
297.4742083978555
 10
542.5930213248442
 20
297.41641771211346
 10
543.0393608174807
 20
297.3586695318185
 10
584.6223916142455
 20
297.3586695318185
 10
626.2054224110104
 20
297.3586695318185
 10
667.7884532077754
 20
297.3586695318185
 10
709.3714840045402
 20
297.3586695318185
 10
750.9545148013051
 20
297.3586695318185
 10
792.5375455980701
 20
297.3586695318185
 10
834.1205763948351
 20
297.3586695318185
 10
875.7036071915999
 20
297.3586695318185
 10
917.2866379883649
 20
297.3586695318185
 10
958.8696687851296
 20
297.3586695318185
 10
1000.4526995818946
 20
297.3586695318185
 10
1042.0357303786595
 20
297.3586695318185
 10
1083.6187611754244
 20
297.3586695318185
 10
1125.2017919721893
 20
297.3586695318185
 10
1166.7848227689542
 20
297.3586695318185
 10
1208.367853565719
 20
297.3586695318185
 10
1249.950884362484
 20
297.3586695318185
  0
LWPOLYLINE
  5
9C
330
17
100
AcDbEntity
  8
PIPE
100
AcDbPolyline
 90
82
 70
0
 10
-150.0
 20
421.75
 10
-106.01794819572943
 20
421.75
 10
-62.03589639145886
 20
421.75
 10
-18.05384458718828
 20
421.75
 10
25.928207217082274
 20
421.75
 10
69.91025902135286
 20
421.75
 10
70.3603157656318
 20
421.7499571402905
 10
70.81037250379332
 20
421.7498714208719
 10
71.26042923175915
 20
421.74974284174493
 10
71.710485945451
 20
421.7495714029108
 10
72.16054264079061
 20
421.7493571043711
 10
72.6105993136997
 20
421.74909994612767
 10
73.06065596009998
 20
421.74879992818296
 10
73.51071257591317
 20
421.7484570505396
 10
73.96076915706102
 20
421.74807131320074
 10
74.41082569946524
 20
421.7476427161698
 10
74.86088219904754
 20
421.7471712594508
 10
75.31093865172966
 20
421.7466569430479
 10
75.76099505343332
 20
421.7460997669658
 10
76.21105140008025
 20
421.7454997312096
 10
76.66110768759216
 20
421.7448568357846
 10
77.1111639118908
 20
421.74417108069673
 10
77.56122006889788
 20
421.74344246595217
 10
78.01127615453514
 20
421.74267099155753
 10
78.4613321647243
 20
421.7418566575198
 10
78.91138809538708
 20
421.7409994638464
 10
79.36144394244523
 20
421.74009941054504
 10
79.81149970182048
 20
421.7391564976239
 10
80.26155536943455
 20
421.73817072509155
 10
80.71161094120917
 20
421.7371420929569
 10
121.76771343306304
 20
416.3297979298044
 10
162.82381592491691
 20
410.9224537666519
 10
203.87991841677075
 20
405.5151096034994
 10
244.93602090862464
 20
400.1077654403469
 10
285.9921234004785
 20
394.7004212771944
 10
327.0482258923323
 20
389.2930771140419
 10
368.10432838418626
 20
383.8857329508894
 10
409.1604308760401
 20
378.4783887877369
 10
450.216533367894
 20
373.0710446245844
 10
491.2726358597478
 20
367.6637004614319
 10
532.3287383516016
 20
362.2563562982794
 10
532.7749503900762
 20
362.19763062587407
 10
533.2211680145184
 20
362.13894744730595
 10
533.6673912208847
 20
362.08030676310676
 10
534.1136200051316
 20
362.02170857380787
 10
534.5598543632153
 20
361.9631528799403
 10
535.0060942910924
 20
361.90463968203466
 10
535.452339784719
 20
361.8461689806212
 10
535.8985908400515
 20
361.7877407762297
 10
536.3448474530461
 20
361.7293550693897
 10
536.7911096196589
 20
361.67101186063024
 10
537.237377335846
 20
361.61271115048
 10
537.6836505975635
 20
361.55445293946724
 10
538.1299294007674
 20
361.49623722812
 10
538.5762137414137
 20
361.4380640169657
 10
539.0225036154582
 20
361.37993330653154
 10
539.4687990188568
 20
361.32184509734424
 10
539.9150999475654
 20
361.2637993899302
 10
540.3614063975397
 20
361.2057961848155
 10
540.8077183647354
 20
361.1478354825256
 10
541.2540358451081
 20
361.0899172835858
 10
541.7003588346134
 20
361.03204158852094
 10
542.146687329207
 20
360.9742083978555
 10
542.5930213248442
 20
360.91641771211346
 10
543.0393608174807
 20
360.8586695318185
 10
584.6223916142455
 20
360.8586695318185
 10
626.2054224110104
 20
360.8586695318185
 10
667.7884532077754
 20
360.8586695318185
 10
709.3714840045402
 20
360.8586695318185
 10
750.9545148013051
 20
360.8586695318185
 10
792.5375455980701
 20
360.8586695318185
 10
834.1205763948351
 20
360.8586695318185
 10
875.7036071915999
 20
360.8586695318185
 10
917.2866379883649
 20
360.8586695318185
 10
958.8696687851296
 20
360.8586695318185
 10
1000.4526995818946
 20
360.8586695318185
 10
1042.0357303786595
 20
360.8586695318185
 10
1083.6187611754244
 20
360.8586695318185
 10
1125.2017919721893
 20
360.8586695318185
 10
1166.7848227689542
 20
360.8586695318185
 10
1208.367853565719
 20
360.8586695318185
 10
1249.950884362484
 20
360.8586695318185
  0
LWPOLYLINE
  5
9D
330
17
100
AcDbEntity
  8
PIPE
100
AcDbPolyline
 90
17
 70
0
 10
1250.0
 20
330.0
 10
1290.625
 20
330.0
 10
1331.25
 20
330.0
 10
1371.875
 20
330.0
 10
1412.5
 20
330.0
 10
1453.125
 20
330.0
 10
1493.75
 20
330.0
 10
1534.375
 20
330.0
 10
1575.0
 20
330.0
 10
1615.625
 20
330.0
 10
1656.25
 20
330.0
 10
1696.875
 20
330.0
 10
1737.5
 20
330.0
 10
1778.125
 20
330.0
 10
1818.75
 20
330.0
 10
1859.375
 20
330.0
 10
1900.0
 20
330.0
  0
LWPOLYLINE
  5
9E
330
17
100
AcDbEntity
  8
PIPE
100
AcDbPolyline
 90
17
 70
0
 10
1250.0
 20
298.25
 10
1290.625
 20
298.25
 10
1331.25
 20
298.25
 10
1371.875
 20
298.25
 10
1412.5
 20
298.25
 10
1453.125
 20
298.25
 10
1493.75
 20
298.25
 10
1534.375
 20
298.25
 10
1575.0
 20
298.25
 10
1615.625
 20
298.25
 10
1656.25
 20
298.25
 10
1696.875
 20
298.25
 10
1737.5
 20
298.25
 10
1778.125
 20
298.25
 10
1818.75
 20
298.25
 10
1859.375
 20
298.25
 10
1900.0
 20
298.25
  0
LWPOLYLINE
  5
9F
330
17
100
AcDbEntity
  8
PIPE
100
AcDbPolyline
 90
17
 70
0
 10
1250.0
 20
361.75
 10
1290.625
 20
361.75
 10
1331.25
 20
361.75
 10
1371.875
 20
361.75
 10
1412.5
 20
361.75
 10
1453.125
 20
361.75
 10
1493.75
 20
361.75
 10
1534.375
 20
361.75
 10
1575.0
 20
361.75
 10
1615.625
 20
361.75
 10
1656.25
 20
361.75
 10
1696.875
 20
361.75
 10
1737.5
 20
361.75
 10
1778.125
 20
361.75
 10
1818.75
 20
361.75
 10
1859.375
 20
361.75
 10
1900.0
 20
361.75
  0
LWPOLYLINE
  5
A0
330
17
100
AcDbEntity
  8
PIPE
100
AcDbPolyline
 90
49
 70
0
 10
1900.0
 20
330.0
 10
1940.0
 20
330.0
 10
1980.0
 20
330.0
 10
2020.0
 20
330.0
 10
2060.0
 20
330.0
 10
2100.0
 20
330.0
 10
2101.2124583653035
 20
330.0
 10
2102.4249165822835
 20
330.0
 10
2103.6373745520577
 20
330.0
 10
2104.849832175744
 20
330.0
 10
2106.062289354459
 20
330.0
 10
2107.2747459893217
 20
330.0
 10
2108.4872019814493
 20
330.0
 10
2109.6996572319595
 20
330.0
 10
2110.9121116419706
 20
330.0
 10
2112.1245651126
 20
330.0
 10
2113.3370175449663
 20
330.0
 10
2114.5494688401873
 20
330.0
 10
2115.7619188993813
 20
330.0
 10
2116.9743676236667
 20
330.0
 10
2118.1868149141615
 20
330.0
 10
2119.399260671985
 20
330.0
 10
2120.611704798255
 20
330.0
 10
2121.8241471940905
 20
330.0
 10
2123.036587760611
 20
330.0
 10
2124.2490263989353
 20
330.0
 10
2125.4614630101823
 20
330.0
 10
2126.673897495472
 20
330.0
 10
2127.8863297559233
 20
330.0
 10
2129.0987596926566
 20
330.0
 10
2167.5661859121133
 20
330.0
 10
2206.03361213157
 20
330.0
 10
2244.501038351027
 20
330.0
 10
2282.968464570484
 20
330.0
 10
2321.4358907899405
 20
330.0
 10
2359.903317009397
 20
330.0
 10
2398.370743228854
 20
330.0
 10
2436.838169448311
 20
330.0
 10
2475.3055956677676
 20
330.0
 10
2513.7730218872243
 20
330.0
 10
2552.2404481066815
 20
330.0
 10
2590.707874326138
 20
330.0
 10
2629.175300545595
 20
330.0
 10
2667.6427267650515
 20
330.0
 10
2706.110152984508
 20
330.0
 10
2744.577579203965
 20
330.0
 10
2783.045005423422
 20
330.0
 10
2821.5124316428787
 20
330.0
 10
2859.9798578623354
 20
330.0
  0
LWPOLYLINE
  5
A1
330
17
100
AcDbEntity
  8
PIPE
100
AcDbPolyline
 90
49
 70
0
 10
1900.0
 20
301.5
 10
1940.0
 20
301.5
 10
1980.0
 20
301.5
 10
2020.0
 20
301.5
 10
2060.0
 20
301.5
 10
2100.0
 20
301.5
 10
2101.2124583653035
 20
301.5
 10
2102.4249165822835
 20
301.5
 10
2103.6373745520577
 20
301.5
 10
2104.849832175744
 20
301.5
 10
2106.062289354459
 20
301.5
 10
2107.2747459893217
 20
301.5
 10
2108.4872019814493
 20
301.5
 10
2109.6996572319595
 20
301.5
 10
2110.9121116419706
 20
301.5
 10
2112.1245651126
 20
301.5
 10
2113.3370175449663
 20
301.5
 10
2114.5494688401873
 20
301.5
 10
2115.7619188993813
 20
301.5
 10
2116.9743676236667
 20
301.5
 10
2118.1868149141615
 20
301.5
 10
2119.399260671985
 20
301.5
 10
2120.611704798255
 20
301.5
 10
2121.8241471940905
 20
301.5
 10
2123.036587760611
 20
301.5
 10
2124.2490263989353
 20
301.5
 10
2125.4614630101823
 20
301.5
 10
2126.673897495472
 20
301.5
 10
2127.8863297559233
 20
301.5
 10
2129.0987596926566
 20
301.5
 10
2167.5661859121133
 20
301.5
 10
2206.03361213157
 20
301.5
 10
2244.501038351027
 20
301.5
 10
2282.968464570484
 20
301.5
 10
2321.4358907899405
 20
301.5
 10
2359.903317009397
 20
301.5
 10
2398.370743228854
 20
301.5
 10
2436.838169448311
 20
301.5
 10
2475.3055956677676
 20
301.5
 10
2513.7730218872243
 20
301.5
 10
2552.2404481066815
 20
301.5
 10
2590.707874326138
 20
301.5
 10
2629.175300545595
 20
301.5
 10
2667.6427267650515
 20
301.5
 10
2706.110152984508
 20
301.5
 10
2744.577579203965
 20
301.5
 10
2783.045005423422
 20
301.5
 10
2821.5124316428787
 20
301.5
 10
2859.9798578623354
 20
301.5
  0
LWPOLYLINE
  5
A2
330
17
100
AcDbEntity
  8
PIPE
100
AcDbPolyline
 90
49
 70
0
 10
1900.0
 20
358.5
 10
1940.0
 20
358.5
 10
1980.0
 20
358.5
 10
2020.0
 20
358.5
 10
2060.0
 20
358.5
 10
2100.0
 20
358.5
 10
2101.2124583653035
 20
358.5
 10
2102.4249165822835
 20
358.5
 10
2103.6373745520577
 20
358.5
 10
2104.849832175744
 20
358.5
 10
2106.062289354459
 20
358.5
 10
2107.2747459893217
 20
358.5
 10
2108.4872019814493
 20
358.5
 10
2109.6996572319595
 20
358.5
 10
2110.9121116419706
 20
358.5
 10
2112.1245651126
 20
358.5
 10
2113.3370175449663
 20
358.5
 10
2114.5494688401873
 20
358.5
 10
2115.7619188993813
 20
358.5
 10
2116.9743676236667
 20
358.5
 10
2118.1868149141615
 20
358.5
 10
2119.399260671985
 20
358.5
 10
2120.611704798255
 20
358.5
 10
2121.8241471940905
 20
358.5
 10
2123.036587760611
 20
358.5
 10
2124.2490263989353
 20
358.5
 10
2125.4614630101823
 20
358.5
 10
2126.673897495472
 20
358.5
 10
2127.8863297559233
 20
358.5
 10
2129.0987596926566
 20
358.5
 10
2167.5661859121133
 20
358.5
 10
2206.03361213157
 20
358.5
 10
2244.501038351027
 20
358.5
 10
2282.968464570484
 20
358.5
 10
2321.4358907899405
 20
358.5
 10
2359.903317009397
 20
358.5
 10
2398.370743228854
 20
358.5
 10
2436.838169448311
 20
358.5
 10
2475.3055956677676
 20
358.5
 10
2513.7730218872243
 20
358.5
 10
2552.2404481066815
 20
358.5
 10
2590.707874326138
 20
358.5
 10
2629.175300545595
 20
358.5
 10
2667.6427267650515
 20
358.5
 10
2706.110152984508
 20
358.5
 10
2744.577579203965
 20
358.5
 10
2783.045005423422
 20
358.5
 10
2821.5124316428787
 20
358.5
 10
2859.9798578623354
 20
358.5
  0
LWPOLYLINE
  5
A3
330
17
100
AcDbEntity
  8
PIPE
100
AcDbPolyline
 90
49
 70
0
 10
1900.0
 20
330.0
 10
1940.0
 20
330.0
 10
1980.0
 20
330.0
 10
2020.0
 20
330.0
 10
2060.0
 20
330.0
 10
2100.0
 20
330.0
 10
2101.2124583653035
 20
330.0
 10
2102.4249165822835
 20
330.0
 10
2103.6373745520577
 20
330.0
 10
2104.849832175744
 20
330.0
 10
2106.062289354459
 20
330.0
 10
2107.2747459893217
 20
330.0
 10
2108.4872019814493
 20
330.0
 10
2109.6996572319595
 20
330.0
 10
2110.9121116419706
 20
330.0
 10
2112.1245651126
 20
330.0
 10
2113.3370175449663
 20
330.0
 10
2114.5494688401873
 20
330.0
 10
2115.7619188993813
 20
330.0
 10
2116.9743676236667
 20
330.0
 10
2118.1868149141615
 20
330.0
 10
2119.399260671985
 20
330.0
 10
2120.611704798255
 20
330.0
 10
2121.8241471940905
 20
330.0
 10
2123.036587760611
 20
330.0
 10
2124.2490263989353
 20
330.0
 10
2125.4614630101823
 20
330.0
 10
2126.673897495472
 20
330.0
 10
2127.8863297559233
 20
330.0
 10
2129.0987596926566
 20
330.0
 10
2167.5661859121133
 20
330.0
 10
2206.03361213157
 20
330.0
 10
2244.501038351027
 20
330.0
 10
2282.968464570484
 20
330.0
 10
2321.4358907899405
 20
330.0
 10
2359.903317009397
 20
330.0
 10
2398.370743228854
 20
330.0
 10
2436.838169448311
 20
330.0
 10
2475.3055956677676
 20
330.0
 10
2513.7730218872243
 20
330.0
 10
2552.2404481066815
 20
330.0
 10
2590.707874326138
 20
330.0
 10
2629.175300545595
 20
330.0
 10
2667.6427267650515
 20
330.0
 10
2706.110152984508
 20
330.0
 10
2744.577579203965
 20
330.0
 10
2783.045005423422
 20
330.0
 10
2821.5124316428787
 20
330.0
 10
2859.9798578623354
 20
330.0
  0
LWPOLYLINE
  5
A4
330
17
100
AcDbEntity
  8
PIPE
100
AcDbPolyline
 90
49
 70
0
 10
1900.0
 20
301.5
 10
1940.0
 20
301.5
 10
1980.0
 20
301.5
 10
2020.0
 20
301.5
 10
2060.0
 20
301.5
 10
2100.0
 20
301.5
 10
2101.2124583653035
 20
301.5
 10
2102.4249165822835
 20
301.5
 10
2103.6373745520577
 20
301.5
 10
2104.849832175744
 20
301.5
 10
2106.062289354459
 20
301.5
 10
2107.2747459893217
 20
301.5
 10
2108.4872019814493
 20
301.5
 10
2109.6996572319595
 20
301.5
 10
2110.9121116419706
 20
301.5
 10
2112.1245651126
 20
301.5
 10
2113.3370175449663
 20
301.5
 10
2114.5494688401873
 20
301.5
 10
2115.7619188993813
 20
301.5
 10
2116.9743676236667
 20
301.5
 10
2118.1868149141615
 20
301.5
 10
2119.399260671985
 20
301.5
 10
2120.611704798255
 20
301.5
 10
2121.8241471940905
 20
301.5
 10
2123.036587760611
 20
301.5
 10
2124.2490263989353
 20
301.5
 10
2125.4614630101823
 20
301.5
 10
2126.673897495472
 20
301.5
 10
2127.8863297559233
 20
301.5
 10
2129.0987596926566
 20
301.5
 10
2167.5661859121133
 20
301.5
 10
2206.03361213157
 20
301.5
 10
2244.501038351027
 20
301.5
 10
2282.968464570484
 20
301.5
 10
2321.4358907899405
 20
301.5
 10
2359.903317009397
 20
301.5
 10
2398.370743228854
 20
301.5
 10
2436.838169448311
 20
301.5
 10
2475.3055956677676
 20
301.5
 10
2513.7730218872243
 20
301.5
 10
2552.2404481066815
 20
301.5
 10
2590.707874326138
 20
301.5
 10
2629.175300545595
 20
301.5
 10
2667.6427267650515
 20
301.5
 10
2706.110152984508
 20
301.5
 10
2744.577579203965
 20
301.5
 10
2783.045005423422
 20
301.5
 10
2821.5124316428787
 20
301.5
 10
2859.9798578623354
 20
301.5
  0
LWPOLYLINE
  5
A5
330
17
100
AcDbEntity
  8
PIPE
100
AcDbPolyline
 90
49
 70
0
 10
1900.0
 20
358.5
 10
1940.0
 20
358.5
 10
1980.0
 20
358.5
 10
2020.0
 20
358.5
 10
2060.0
 20
358.5
 10
2100.0
 20
358.5
 10
2101.2124583653035
 20
358.5
 10
2102.4249165822835
 20
358.5
 10
2103.6373745520577
 20
358.5
 10
2104.849832175744
 20
358.5
 10
2106.062289354459
 20
358.5
 10
2107.2747459893217
 20
358.5
 10
2108.4872019814493
 20
358.5
 10
2109.6996572319595
 20
358.5
 10
2110.9121116419706
 20
358.5
 10
2112.1245651126
 20
358.5
 10
2113.3370175449663
 20
358.5
 10
2114.5494688401873
 20
358.5
 10
2115.7619188993813
 20
358.5
 10
2116.9743676236667
 20
358.5
 10
2118.1868149141615
 20
358.5
 10
2119.399260671985
 20
358.5
 10
2120.611704798255
 20
358.5
 10
2121.8241471940905
 20
358.5
 10
2123.036587760611
 20
358.5
 10
2124.2490263989353
 20
358.5
 10
2125.4614630101823
 20
358.5
 10
2126.673897495472
 20
358.5
 10
2127.8863297559233
 20
358.5
 10
2129.0987596926566
 20
358.5
 10
2167.5661859121133
 20
358.5
 10
2206.03361213157
 20
358.5
 10
2244.501038351027
 20
358.5
 10
2282.968464570484
 20
358.5
 10
2321.4358907899405
 20
358.5
 10
2359.903317009397
 20
358.5
 10
2398.370743228854
 20
358.5
 10
2436.838169448311
 20
358.5
 10
2475.3055956677676
 20
358.5
 10
2513.7730218872243
 20
358.5
 10
2552.2404481066815
 20
358.5
 10
2590.707874326138
 20
358.5
 10
2629.175300545595
 20
358.5
 10
2667.6427267650515
 20
358.5
 10
2706.110152984508
 20
358.5
 10
2744.577579203965
 20
358.5
 10
2783.045005423422
 20
358.5
 10
2821.5124316428787
 20
358.5
 10
2859.9798578623354
 20
358.5
  0
LWPOLYLINE
  5
A6
330
17
100
AcDbEntity
  8
BOX
100
AcDbPolyline
 90
4
 70
1
 10
2860.0
 20
255.0
 10
3240.0
 20
255.0
 10
3240.0
 20
395.0
 10
2860.0
 20
395.0
  0
LWPOLYLINE
  5
A7
330
17
100
AcDbEntity
  8
BOX
100
AcDbPolyline
 90
4
 70
1
 10
2860.0
 20
255.0
 10
3240.0
 20
255.0
 10
3240.0
 20
395.0
 10
2860.0
 20
395.0
  0
LWPOLYLINE
  5
A8
330
17
100
AcDbEntity
  8
PIPE
100
AcDbPolyline
 90
29
 70
0
 10
3240.0
 20
325.0
 10
3270.0
 20
325.0
 10
3300.0
 20
325.0
 10
3301.084831168956
 20
325.0
 10
3302.1696622052013
 20
325.0
 10
3303.2544930202625
 20
325.0
 10
3304.339323525666
 20
325.0
 10
3305.4241536329373
 20
325.0
 10
3306.5089832536037
 20
325.0
 10
3307.5938122991915
 20
325.0
 10
3308.678640681227
 20
325.0
 10
3309.763468311237
 20
325.0
 10
3310.8482951007477
 20
325.0
 10
3311.933120961286
 20
325.0
 10
3313.0179458043785
 20
325.0
 10
3314.1027695415523
 20
325.0
 10
3315.187592084334
 20
325.0
 10
3316.2724133442507
 20
325.0
 10
3317.3572332328295
 20
325.0
 10
3318.4420516615974
 20
325.0
 10
3319.526868542082
 20
325.0
 10
3320.611683785811
 20
325.0
 10
3321.6964973043114
 20
325.0
 10
3322.7813090091113
 20
325.0
 10
3323.866118811739
 20
325.0
 10
3324.950926623722
 20
325.0
 10
3326.0357323565886
 20
325.0
 10
3375.509481322568
 20
325.0
 10
3424.9832302885475
 20
325.0
  0
LWPOLYLINE
  5
A9
330
17
100
AcDbEntity
  8
PIPE
100
AcDbPolyline
 90
29
 70
0
 10
3240.0
 20
299.5
 10
3270.0
 20
299.5
 10
3300.0
 20
299.5
 10
3301.084831168956
 20
299.5
 10
3302.1696622052013
 20
299.5
 10
3303.2544930202625
 20
299.5
 10
3304.339323525666
 20
299.5
 10
3305.4241536329373
 20
299.5
 10
3306.5089832536037
 20
299.5
 10
3307.5938122991915
 20
299.5
 10
3308.678640681227
 20
299.5
 10
3309.763468311237
 20
299.5
 10
3310.8482951007477
 20
299.5
 10
3311.933120961286
 20
299.5
 10
3313.0179458043785
 20
299.5
 10
3314.1027695415523
 20
299.5
 10
3315.187592084334
 20
299.5
 10
3316.2724133442507
 20
299.5
 10
3317.3572332328295
 20
299.5
 10
3318.4420516615974
 20
299.5
 10
3319.526868542082
 20
299.5
 10
3320.611683785811
 20
299.5
 10
3321.6964973043114
 20
299.5
 10
3322.7813090091113
 20
299.5
 10
3323.866118811739
 20
299.5
 10
3324.950926623722
 20
299.5
 10
3326.0357323565886
 20
299.5
 10
3375.509481322568
 20
299.5
 10
3424.9832302885475
 20
299.5
  0
LWPOLYLINE
  5
AA
330
17
100
AcDbEntity
  8
PIPE
100
AcDbPolyline
 90
29
 70
0
 10
3240.0
 20
350.5
 10
3270.0
 20
350.5
 10
3300.0
 20
350.5
 10
3301.084831168956
 20
350.5
 10
3302.1696622052013
 20
350.5
 10
3303.2544930202625
 20
350.5
 10
3304.339323525666
 20
350.5
 10
3305.4241536329373
 20
350.5
 10
3306.5089832536037
 20
350.5
 10
3307.5938122991915
 20
350.5
 10
3308.678640681227
 20
350.5
 10
3309.763468311237
 20
350.5
 10
3310.8482951007477
 20
350.5
 10
3311.933120961286
 20
350.5
 10
3313.0179458043785
 20
350.5
 10
3314.1027695415523
 20
350.5
 10
3315.187592084334
 20
350.5
 10
3316.2724133442507
 20
350.5
 10
3317.3572332328295
 20
350.5
 10
3318.4420516615974
 20
350.5
 10
3319.526868542082
 20
350.5
 10
3320.611683785811
 20
350.5
 10
3321.6964973043114
 20
350.5
 10
3322.7813090091113
 20
350.5
 10
3323.866118811739
 20
350.5
 10
3324.950926623722
 20
350.5
 10
3326.0357323565886
 20
350.5
 10
3375.509481322568
 20
350.5
 10
3424.9832302885475
 20
350.5
  0
LWPOLYLINE
  5
AB
330
17
100
AcDbEntity
  8
PIPE
100
AcDbPolyline
 90
29
 70
0
 10
3240.0
 20
325.0
 10
3270.0
 20
325.0
 10
3300.0
 20
325.0
 10
3301.084831168956
 20
325.0
 10
3302.1696622052013
 20
325.0
 10
3303.2544930202625
 20
325.0
 10
3304.339323525666
 20
325.0
 10
3305.4241536329373
 20
325.0
 10
3306.5089832536037
 20
325.0
 10
3307.5938122991915
 20
325.0
 10
3308.678640681227
 20
325.0
 10
3309.763468311237
 20
325.0
 10
3310.8482951007477
 20
325.0
 10
3311.933120961286
 20
325.0
 10
3313.0179458043785
 20
325.0
 10
3314.1027695415523
 20
325.0
 10
3315.187592084334
 20
325.0
 10
3316.2724133442507
 20
325.0
 10
3317.3572332328295
 20
325.0
 10
3318.4420516615974
 20
325.0
 10
3319.526868542082
 20
325.0
 10
3320.611683785811
 20
325.0
 10
3321.6964973043114
 20
325.0
 10
3322.7813090091113
 20
325.0
 10
3323.866118811739
 20
325.0
 10
3324.950926623722
 20
325.0
 10
3326.0357323565886
 20
325.0
 10
3375.509481322568
 20
325.0
 10
3424.9832302885475
 20
325.0
  0
LWPOLYLINE
  5
AC
330
17
100
AcDbEntity
  8
PIPE
100
AcDbPolyline
 90
29
 70
0
 10
3240.0
 20
299.5
 10
3270.0
 20
299.5
 10
3300.0
 20
299.5
 10
3301.084831168956
 20
299.5
 10
3302.1696622052013
 20
299.5
 10
3303.2544930202625
 20
299.5
 10
3304.339323525666
 20
299.5
 10
3305.4241536329373
 20
299.5
 10
3306.5089832536037
 20
299.5
 10
3307.5938122991915
 20
299.5
 10
3308.678640681227
 20
299.5
 10
3309.763468311237
 20
299.5
 10
3310.8482951007477
 20
299.5
 10
3311.933120961286
 20
299.5
 10
3313.0179458043785
 20
299.5
 10
3314.1027695415523
 20
299.5
 10
3315.187592084334
 20
299.5
 10
3316.2724133442507
 20
299.5
 10
3317.3572332328295
 20
299.5
 10
3318.4420516615974
 20
299.5
 10
3319.526868542082
 20
299.5
 10
3320.611683785811
 20
299.5
 10
3321.6964973043114
 20
299.5
 10
3322.7813090091113
 20
299.5
 10
3323.866118811739
 20
299.5
 10
3324.950926623722
 20
299.5
 10
3326.0357323565886
 20
299.5
 10
3375.509481322568
 20
299.5
 10
3424.9832302885475
 20
299.5
  0
LWPOLYLINE
  5
AD
330
17
100
AcDbEntity
  8
PIPE
100
AcDbPolyline
 90
29
 70
0
 10
3240.0
 20
350.5
 10
3270.0
 20
350.5
 10
3300.0
 20
350.5
 10
3301.084831168956
 20
350.5
 10
3302.1696622052013
 20
350.5
 10
3303.2544930202625
 20
350.5
 10
3304.339323525666
 20
350.5
 10
3305.4241536329373
 20
350.5
 10
3306.5089832536037
 20
350.5
 10
3307.5938122991915
 20
350.5
 10
3308.678640681227
 20
350.5
 10
3309.763468311237
 20
350.5
 10
3310.8482951007477
 20
350.5
 10
3311.933120961286
 20
350.5
 10
3313.0179458043785
 20
350.5
 10
3314.1027695415523
 20
350.5
 10
3315.187592084334
 20
350.5
 10
3316.2724133442507
 20
350.5
 10
3317.3572332328295
 20
350.5
 10
3318.4420516615974
 20
350.5
 10
3319.526868542082
 20
350.5
 10
3320.611683785811
 20
350.5
 10
3321.6964973043114
 20
350.5
 10
3322.7813090091113
 20
350.5
 10
3323.866118811739
 20
350.5
 10
3324.950926623722
 20
350.5
 10
3326.0357323565886
 20
350.5
 10
3375.509481322568
 20
350.5
 10
3424.9832302885475
 20
350.5
  0
LWPOLYLINE
  5
AE
330
17
100
AcDbEntity
  8
PIPE
100
AcDbPolyline
 90
5
 70
0
 10
3424.9832302885475
 20
325.0
 10
3468.8697102548153
 20
325.41454702154334
 10
3512.7561902210828
 20
325.8290940430867
 10
3556.6426701873506
 20
326.24364106463
 10
3600.529150153618
 20
326.6581880861733
  0
LWPOLYLINE
  5
AF
330
17
100
AcDbEntity
  8
PIPE
100
AcDbPolyline
 90
5
 70
0
 10
3424.9832302885475
 20
280.5
 10
3468.8697102548153
 20
280.91454702154334
 10
3512.7561902210828
 20
281.3290940430867
 10
3556.6426701873506
 20
281.74364106463
 10
3600.529150153618
 20
282.1581880861733
  0
LWPOLYLINE
  5
B0
330
17
100
AcDbEntity
  8
PIPE
100
AcDbPolyline
 90
5
 70
0
 10
3424.9832302885475
 20
369.5
 10
3468.8697102548153
 20
369.91454702154334
 10
3512.7561902210828
 20
370.3290940430867
 10
3556.6426701873506
 20
370.74364106463
 10
3600.529150153618
 20
371.1581880861733
  0
LWPOLYLINE
  5
B1
330
17
100
AcDbEntity
  8
PIPE
100
AcDbPolyline
 90
5
 70
0
 10
3424.9832302885475
 20
325.0
 10
3468.8697102548153
 20
325.41454702154334
 10
3512.7561902210828
 20
325.8290940430867
 10
3556.6426701873506
 20
326.24364106463
 10
3600.529150153618
 20
326.6581880861733
  0
LWPOLYLINE
  5
B2
330
17
100
AcDbEntity
  8
PIPE
100
AcDbPolyline
 90
5
 70
0
 10
3424.9832302885475
 20
280.5
 10
3468.8697102548153
 20
280.91454702154334
 10
3512.7561902210828
 20
281.3290940430867
 10
3556.6426701873506
 20
281.74364106463
 10
3600.529150153618
 20
282.1581880861733
  0
LWPOLYLINE
  5
B3
330
17
100
AcDbEntity
  8
PIPE
100
AcDbPolyline
 90
5
 70
0
 10
3424.9832302885475
 20
369.5
 10
3468.8697102548153
 20
369.91454702154334
 10
3512.7561902210828
 20
370.3290940430867
 10
3556.6426701873506
 20
370.74364106463
 10
3600.529150153618
 20
371.1581880861733
  0
CIRCLE
  5
B4
330
17
100
AcDbEntity
  8
HANGER
100
AcDbCircle
 10
300.0
 20
385.0
 30
0.0
 40
12.0
  0
CIRCLE
  5
B5
330
17
100
AcDbEntity
  8
HANGER
100
AcDbCircle
 10
1160.0
 20
385.0
 30
0.0
 40
12.0
  0
CIRCLE
  5
B6
330
17
100
AcDbEntity
  8
HANGER
100
AcDbCircle
 10
1820.0
 20
385.0
 30
0.0
 40
12.0
  0
CIRCLE
  5
B7
330
17
100
AcDbEntity
  8
HANGER
100
AcDbCircle
 10
2920.0
 20
420.0
 30
0.0
 40
12.0
  0
CIRCLE
  5
B8
330
17
100
AcDbEntity
  8
HANGER
100
AcDbCircle
 10
2920.0
 20
420.0
 30
0.0
 40
12.0
  0
CIRCLE
  5
B9
330
17
100
AcDbEntity
  8
HANGER
100
AcDbCircle
 10
3200.0
 20
420.0
 30
0.0
 40
12.0
  0
CIRCLE
  5
BA
330
17
100
AcDbEntity
  8
HANGER
100
AcDbCircle
 10
3200.0
 20
420.0
 30
0.0
 40
12.0
  0
CIRCLE
  5
BB
330
17
100
AcDbEntity
  8
HANGER
100
AcDbCircle
 10
1250.0
 20
392.0
 30
0.0
 40
12.0
  0
LINE
  5
BC
330
17
100
AcDbEntity
  8
DIM
100
AcDbLine
 10
0.0
 20
-480.0
 30
0.0
 11
2703.0
 21
-480.0
 31
0.0
  0
LINE
  5
BD
330
17
100
AcDbEntity
  8
DIM
100
AcDbLine
 10
0.0
 20
-510.0
 30
0.0
 11
0.0
 21
-450.0
 31
0.0
  0
LINE
  5
BE
330
17
100
AcDbEntity
  8
DIM
100
AcDbLine
 10
2703.0
 20
-510.0
 30
0.0
 11
2703.0
 21
-450.0
 31
0.0
  0
TEXT
  5
BF
330
17
100
AcDbEntity
  8
DIM
100
AcDbText
 10
1351.5
 20
-425.0
 30
0.0
 40
48.0
  1
колесная база 2703
 72
1
 11
1351.5
 21
-425.0
 31
0.0
100
AcDbText
 73
2
  0
LINE
  5
C0
330
17
100
AcDbEntity
  8
DIM
100
AcDbLine
 10
0.0
 20
-620.0
 30
0.0
 11
3630.0
 21
-620.0
 31
0.0
  0
LINE
  5
C1
330
17
100
AcDbEntity
  8
DIM
100
AcDbLine
 10
0.0
 20
-650.0
 30
0.0
 11
0.0
 21
-590.0
 31
0.0
  0
LINE
  5
C2
330
17
100
AcDbEntity
  8
DIM
100
AcDbLine
 10
3630.0
 20
-650.0
 30
0.0
 11
3630.0
 21
-590.0
 31
0.0
  0
TEXT
  5
C3
330
17
100
AcDbEntity
  8
DIM
100
AcDbText
 10
1815.0
 20
-565.0
 30
0.0
 40
48.0
  1
X до заднего бампера 3630
 72
1
 11
1815.0
 21
-565.0
 31
0.0
100
AcDbText
 73
2
  0
LINE
  5
C4
330
17
100
AcDbEntity
  8
DIM
100
AcDbLine
 10
1900.0
 20
-760.0
 30
0.0
 11
2860.0
 21
-760.0
 31
0.0
  0
LINE
  5
C5
330
17
100
AcDbEntity
  8
DIM
100
AcDbLine
 10
1900.0
 20
-790.0
 30
0.0
 11
1900.0
 21
-730.0
 31
0.0
  0
LINE
  5
C6
330
17
100
AcDbEntity
  8
DIM
100
AcDbLine
 10
2860.0
 20
-790.0
 30
0.0
 11
2860.0
 21
-730.0
 31
0.0
  0
TEXT
  5
C7
330
17
100
AcDbEntity
  8
DIM
100
AcDbText
 10
2380.0
 20
-705.0
 30
0.0
 40
48.0
  1
Y → вход банок 960
 72
1
 11
2380.0
 21
-705.0
 31
0.0
100
AcDbText
 73
2
  0
LINE
  5
C8
330
17
100
AcDbEntity
  8
DIM
100
AcDbLine
 10
2860.0
 20
-900.0
 30
0.0
 11
3240.0
 21
-900.0
 31
0.0
  0
LINE
  5
C9
330
17
100
AcDbEntity
  8
DIM
100
AcDbLine
 10
2860.0
 20
-930.0
 30
0.0
 11
2860.0
 21
-870.0
 31
0.0
  0
LINE
  5
CA
330
17
100
AcDbEntity
  8
DIM
100
AcDbLine
 10
3240.0
 20
-930.0
 30
0.0
 11
3240.0
 21
-870.0
 31
0.0
  0
TEXT
  5
CB
330
17
100
AcDbEntity
  8
DIM
100
AcDbText
 10
3050.0
 20
-845.0
 30
0.0
 40
48.0
  1
банка 380
 72
1
 11
3050.0
 21
-845.0
 31
0.0
100
AcDbText
 73
2
  0
LINE
  5
CC
330
17
100
AcDbEntity
  8
DIM
100
AcDbLine
 10
3240.0
 20
-1040.0
 30
0.0
 11
3615.0
 21
-1040.0
 31
0.0
  0
LINE
  5
CD
330
17
100
AcDbEntity
  8
DIM
100
AcDbLine
 10
3240.0
 20
-1070.0
 30
0.0
 11
3240.0
 21
-1010.0
 31
0.0
  0
LINE
  5
CE
330
17
100
AcDbEntity
  8
DIM
100
AcDbLine
 10
3615.0
 20
-1070.0
 30
0.0
 11
3615.0
 21
-1010.0
 31
0.0
  0
TEXT
  5
CF
330
17
100
AcDbEntity
  8
DIM
100
AcDbText
 10
3427.5
 20
-985.0
 30
0.0
 40
48.0
  1
банка → срез насадки 375
 72
1
 11
3427.5
 21
-985.0
 31
0.0
100
AcDbText
 73
2
  0
LINE
  5
D0
330
17
100
AcDbEntity
  8
DIM
100
AcDbLine
 10
-1145.0
 20
255.0
 30
0.0
 11
600.0
 21
255.0
 31
0.0
  0
TEXT
  5
D1
330
17
100
AcDbEntity
  8
DIM
100
AcDbText
 10
-1135.0
 20
300.0
 30
0.0
 40
42.0
  1
низ банки 255
 11
-1135.0
 21
300.0
 31
0.0
100
AcDbText
  0
LINE
  5
D2
330
17
100
AcDbEntity
  8
DIM
100
AcDbLine
 10
-1145.0
 20
330.0
 30
0.0
 11
600.0
 21
330.0
 31
0.0
  0
TEXT
  5
D3
330
17
100
AcDbEntity
  8
DIM
100
AcDbText
 10
-1135.0
 20
375.0
 30
0.0
 40
42.0
  1
ось трубы 330
 11
-1135.0
 21
375.0
 31
0.0
100
AcDbText
  0
LINE
  5
D4
330
17
100
AcDbEntity
  8
DIM
100
AcDbLine
 10
-1145.0
 20
520.0
 30
0.0
 11
600.0
 21
520.0
 31
0.0
  0
TEXT
  5
D5
330
17
100
AcDbEntity
  8
DIM
100
AcDbText
 10
-1135.0
 20
565.0
 30
0.0
 40
42.0
  1
низ пола 520
 11
-1135.0
 21
565.0
 31
0.0
100
AcDbText
  0
LINE
  5
D6
330
17
100
AcDbEntity
  8
DIM
100
AcDbLine
 10
-1145.0
 20
405.0
 30
0.0
 11
600.0
 21
405.0
 31
0.0
  0
TEXT
  5
D7
330
17
100
AcDbEntity
  8
DIM
100
AcDbText
 10
-1135.0
 20
450.0
 30
0.0
 40
42.0
  1
низ бака 405
 11
-1135.0
 21
450.0
 31
0.0
100
AcDbText
  0
TEXT
  5
D8
330
17
100
AcDbEntity
  8
TEXT
100
AcDbText
 10
-885.0
 20
-1250.0
 30
0.0
 40
70.0
  1
ВИД СБОКУ — 1:1, мм (X от оси передних колёс)
 11
-885.0
 21
-1250.0
 31
0.0
100
AcDbText
  0
LWPOLYLINE
  5
D9
330
17
100
AcDbEntity
  8
CAR
100
AcDbPolyline
 90
4
 70
1
 10
-885.0
 20
-876.5
 10
3630.0
 20
-876.5
 10
3630.0
 20
876.5
 10
-885.0
 20
876.5
  0
LWPOLYLINE
  5
DA
330
17
100
AcDbEntity
  8
CAR
100
AcDbPolyline
 90
4
 70
1
 10
2260.0
 20
-330.0
 10
2680.0
 20
-330.0
 10
2680.0
 20
330.0
 10
2260.0
 20
330.0
  0
LINE
  5
DB
330
17
100
AcDbEntity
  8
CAR
100
AcDbLine
 10
2350.0
 20
585.0
 30
0.0
 11
3000.0
 21
585.0
 31
0.0
  0
LINE
  5
DC
330
17
100
AcDbEntity
  8
CAR
100
AcDbLine
 10
2350.0
 20
-585.0
 30
0.0
 11
3000.0
 21
-585.0
 31
0.0
  0
LWPOLYLINE
  5
DD
330
17
100
AcDbEntity
  8
CAR
100
AcDbPolyline
 90
4
 70
1
 10
-115.0
 20
-876.5
 10
115.0
 20
-876.5
 10
115.0
 20
-631.5
 10
-115.0
 20
-631.5
  0
LWPOLYLINE
  5
DE
330
17
100
AcDbEntity
  8
CAR
100
AcDbPolyline
 90
4
 70
1
 10
-115.0
 20
876.5
 10
115.0
 20
876.5
 10
115.0
 20
631.5
 10
-115.0
 20
631.5
  0
LWPOLYLINE
  5
DF
330
17
100
AcDbEntity
  8
CAR
100
AcDbPolyline
 90
4
 70
1
 10
2588.0
 20
-876.5
 10
2818.0
 20
-876.5
 10
2818.0
 20
-631.5
 10
2588.0
 20
-631.5
  0
LWPOLYLINE
  5
E0
330
17
100
AcDbEntity
  8
CAR
100
AcDbPolyline
 90
4
 70
1
 10
2588.0
 20
876.5
 10
2818.0
 20
876.5
 10
2818.0
 20
631.5
 10
2588.0
 20
631.5
  0
LWPOLYLINE
  5
E1
330
17
100
AcDbEntity
  8
PIPE
100
AcDbPolyline
 90
82
 70
0
 10
-150.0
 20
-40.0
 10
-106.01794819572943
 20
-38.74336994844941
 10
-62.03589639145886
 20
-37.486739896898825
 10
-18.05384458718828
 20
-36.23010984534824
 10
25.928207217082274
 20
-34.97347979379765
 10
69.91025902135286
 20
-33.716849742247064
 10
70.3603157656318
 20
-33.70399097812481
 10
70.81037250379332
 20
-33.69113221417734
 10
71.26042923175915
 20
-33.67827345052117
 10
71.710485945451
 20
-33.66541468727283
 10
72.16054264079061
 20
-33.65255592454884
 10
72.6105993136997
 20
-33.63969716246572
 10
73.06065596009998
 20
-33.62683840114
 10
73.51071257591317
 20
-33.61397964068819
 10
73.96076915706102
 20
-33.60112088122683
 10
74.41082569946524
 20
-33.58826212287242
 10
74.86088219904754
 20
-33.5754033657415
 10
75.31093865172966
 20
-33.562544609950585
 10
75.76099505343332
 20
-33.5496858556162
 10
76.21105140008025
 20
-33.53682710285486
 10
76.66110768759216
 20
-33.52396835178309
 10
77.1111639118908
 20
-33.511109602517415
 10
77.56122006889788
 20
-33.498250855174355
 10
78.01127615453514
 20
-33.48539210987043
 10
78.4613321647243
 20
-33.47253336672217
 10
78.91138809538708
 20
-33.45967462584609
 10
79.36144394244523
 20
-33.44681588735872
 10
79.81149970182048
 20
-33.43395715137657
 10
80.26155536943455
 20
-33.421098418016165
 10
80.71161094120917
 20
-33.40823968739403
 10
121.76771343306304
 20
-32.235208187626775
 10
162.82381592491691
 20
-31.062176687859523
 10
203.87991841677075
 20
-29.88914518809227
 10
244.93602090862464
 20
-28.716113688325017
 10
285.9921234004785
 20
-27.54308218855776
 10
327.0482258923323
 20
-26.37005068879051
 10
368.10432838418626
 20
-25.19701918902326
 10
409.1604308760401
 20
-24.023987689256003
 10
450.216533367894
 20
-22.85095618948875
 10
491.2726358597478
 20
-21.677924689721497
 10
532.3287383516016
 20
-20.504893189954245
 10
532.7749503900762
 20
-20.492144274569256
 10
533.2211680145184
 20
-20.47939519958519
 10
533.6673912208847
 20
-20.466645965117582
 10
534.1136200051316
 20
-20.45389657128196
 10
534.5598543632153
 20
-20.441147018193853
 10
535.0060942910924
 20
-20.428397305968794
 10
535.452339784719
 20
-20.41564743472232
 10
535.8985908400515
 20
-20.402897404569963
 10
536.3448474530461
 20
-20.390147215627263
 10
536.7911096196589
 20
-20.377396868009754
 10
537.237377335846
 20
-20.36464636183298
 10
537.6836505975635
 20
-20.351895697212477
 10
538.1299294007674
 20
-20.339144874263795
 10
538.5762137414137
 20
-20.326393893102473
 10
539.0225036154582
 20
-20.313642753844057
 10
539.4687990188568
 20
-20.300891456604095
 10
539.9150999475654
 20
-20.288140001498135
 10
540.3614063975397
 20
-20.275388388641726
 10
540.8077183647354
 20
-20.26263661815042
 10
541.2540358451081
 20
-20.249884690139773
 10
541.7003588346134
 20
-20.237132604725332
 10
542.146687329207
 20
-20.224380362022657
 10
542.5930213248442
 20
-20.211627962147308
 10
543.0393608174807
 20
-20.19887540521484
 10
584.6223916142455
 20
-19.010788811021555
 10
626.2054224110104
 20
-17.822702216828272
 10
667.7884532077754
 20
-16.63461562263499
 10
709.3714840045402
 20
-15.446529028441706
 10
750.9545148013051
 20
-14.258442434248424
 10
792.5375455980701
 20
-13.07035584005514
 10
834.1205763948351
 20
-11.882269245861856
 10
875.7036071915999
 20
-10.694182651668575
 10
917.2866379883649
 20
-9.506096057475292
 10
958.8696687851296
 20
-8.31800946328201
 10
1000.4526995818946
 20
-7.129922869088725
 10
1042.0357303786595
 20
-5.94183627489544
 10
1083.6187611754244
 20
-4.753749680702159
 10
1125.2017919721893
 20
-3.5656630865088736
 10
1166.7848227689542
 20
-2.377576492315594
 10
1208.367853565719
 20
-1.1894898981223108
 10
1249.950884362484
 20
-0.001403303929027544
  0
LWPOLYLINE
  5
E2
330
17
100
AcDbEntity
  8
PIPE
100
AcDbPolyline
 90
82
 70
0
 10
-150.0
 20
-71.75
 10
-106.01794819572943
 20
-70.49336994844941
 10
-62.03589639145886
 20
-69.23673989689883
 10
-18.05384458718828
 20
-67.98010984534824
 10
25.928207217082274
 20
-66.72347979379765
 10
69.91025902135286
 20
-65.46684974224706
 10
70.3603157656318
 20
-65.4539909781248
 10
70.81037250379332
 20
-65.44113221417734
 10
71.26042923175915
 20
-65.42827345052117
 10
71.710485945451
 20
-65.41541468727283
 10
72.16054264079061
 20
-65.40255592454884
 10
72.6105993136997
 20
-65.38969716246572
 10
73.06065596009998
 20
-65.37683840113999
 10
73.51071257591317
 20
-65.3639796406882
 10
73.96076915706102
 20
-65.35112088122682
 10
74.41082569946524
 20
-65.33826212287242
 10
74.86088219904754
 20
-65.3254033657415
 10
75.31093865172966
 20
-65.31254460995058
 10
75.76099505343332
 20
-65.29968585561619
 10
76.21105140008025
 20
-65.28682710285486
 10
76.66110768759216
 20
-65.27396835178308
 10
77.1111639118908
 20
-65.26110960251742
 10
77.56122006889788
 20
-65.24825085517435
 10
78.01127615453514
 20
-65.23539210987043
 10
78.4613321647243
 20
-65.22253336672216
 10
78.91138809538708
 20
-65.20967462584609
 10
79.36144394244523
 20
-65.19681588735872
 10
79.81149970182048
 20
-65.18395715137657
 10
80.26155536943455
 20
-65.17109841801616
 10
80.71161094120917
 20
-65.15823968739403
 10
121.76771343306304
 20
-63.985208187626775
 10
162.82381592491691
 20
-62.81217668785952
 10
203.87991841677075
 20
-61.63914518809227
 10
244.93602090862464
 20
-60.46611368832502
 10
285.9921234004785
 20
-59.29308218855776
 10
327.0482258923323
 20
-58.12005068879051
 10
368.10432838418626
 20
-56.94701918902326
 10
409.1604308760401
 20
-55.773987689256
 10
450.216533367894
 20
-54.60095618948875
 10
491.2726358597478
 20
-53.42792468972149
 10
532.3287383516016
 20
-52.254893189954245
 10
532.7749503900762
 20
-52.242144274569256
 10
533.2211680145184
 20
-52.22939519958519
 10
533.6673912208847
 20
-52.21664596511758
 10
534.1136200051316
 20
-52.20389657128196
 10
534.5598543632153
 20
-52.19114701819385
 10
535.0060942910924
 20
-52.178397305968794
 10
535.452339784719
 20
-52.16564743472232
 10
535.8985908400515
 20
-52.15289740456996
 10
536.3448474530461
 20
-52.140147215627266
 10
536.7911096196589
 20
-52.127396868009754
 10
537.237377335846
 20
-52.11464636183298
 10
537.6836505975635
 20
-52.10189569721248
 10
538.1299294007674
 20
-52.089144874263795
 10
538.5762137414137
 20
-52.07639389310248
 10
539.0225036154582
 20
-52.06364275384406
 10
539.4687990188568
 20
-52.05089145660409
 10
539.9150999475654
 20
-52.038140001498135
 10
540.3614063975397
 20
-52.02538838864173
 10
540.8077183647354
 20
-52.012636618150424
 10
541.2540358451081
 20
-51.99988469013977
 10
541.7003588346134
 20
-51.98713260472533
 10
542.146687329207
 20
-51.97438036202266
 10
542.5930213248442
 20
-51.961627962147304
 10
543.0393608174807
 20
-51.948875405214835
 10
584.6223916142455
 20
-50.760788811021555
 10
626.2054224110104
 20
-49.572702216828276
 10
667.7884532077754
 20
-48.38461562263499
 10
709.3714840045402
 20
-47.1965290284417
 10
750.9545148013051
 20
-46.00844243424842
 10
792.5375455980701
 20
-44.82035584005514
 10
834.1205763948351
 20
-43.632269245861856
 10
875.7036071915999
 20
-42.44418265166858
 10
917.2866379883649
 20
-41.25609605747529
 10
958.8696687851296
 20
-40.06800946328201
 10
1000.4526995818946
 20
-38.87992286908872
 10
1042.0357303786595
 20
-37.69183627489544
 10
1083.6187611754244
 20
-36.50374968070216
 10
1125.2017919721893
 20
-35.31566308650888
 10
1166.7848227689542
 20
-34.1275764923156
 10
1208.367853565719
 20
-32.93948989812231
 10
1249.950884362484
 20
-31.751403303929028
  0
LWPOLYLINE
  5
E3
330
17
100
AcDbEntity
  8
PIPE
100
AcDbPolyline
 90
82
 70
0
 10
-150.0
 20
-8.25
 10
-106.01794819572943
 20
-6.993369948449413
 10
-62.03589639145886
 20
-5.7367398968988255
 10
-18.05384458718828
 20
-4.480109845348238
 10
25.928207217082274
 20
-3.223479793797651
 10
69.91025902135286
 20
-1.9668497422470637
 10
70.3603157656318
 20
-1.953990978124807
 10
70.81037250379332
 20
-1.9411322141773368
 10
71.26042923175915
 20
-1.9282734505211678
 10
71.710485945451
 20
-1.915414687272829
 10
72.16054264079061
 20
-1.9025559245488424
 10
72.6105993136997
 20
-1.8896971624657226
 10
73.06065596009998
 20
-1.8768384011399988
 10
73.51071257591317
 20
-1.8639796406881928
 10
73.96076915706102
 20
-1.8511208812268265
 10
74.41082569946524
 20
-1.8382621228724219
 10
74.86088219904754
 20
-1.8254033657415007
 10
75.31093865172966
 20
-1.812544609950585
 10
75.76099505343332
 20
-1.7996858556161968
 10
76.21105140008025
 20
-1.7868271028548577
 10
76.66110768759216
 20
-1.7739683517830898
 10
77.1111639118908
 20
-1.7611096025174149
 10
77.56122006889788
 20
-1.748250855174355
 10
78.01127615453514
 20
-1.735392109870432
 10
78.4613321647243
 20
-1.7225333667221676
 10
78.91138809538708
 20
-1.709674625846091
 10
79.36144394244523
 20
-1.6968158873587171
 10
79.81149970182048
 20
-1.6839571513765677
 10
80.26155536943455
 20
-1.6710984180161645
 10
80.71161094120917
 20
-1.6582396873940297
 10
121.76771343306304
 20
-0.48520818762677465
 10
162.82381592491691
 20
0.6878233121404769
 10
203.87991841677075
 20
1.8608548119077284
 10
244.93602090862464
 20
3.0338863116749835
 10
285.9921234004785
 20
4.2069178114422385
 10
327.0482258923323
 20
5.37994931120949
 10
368.10432838418626
 20
6.552980810976742
 10
409.1604308760401
 20
7.726012310743997
 10
450.216533367894
 20
8.899043810511252
 10
491.2726358597478
 20
10.072075310278503
 10
532.3287383516016
 20
11.245106810045755
 10
532.7749503900762
 20
11.257855725430744
 10
533.2211680145184
 20
11.270604800414809
 10
533.6673912208847
 20
11.283354034882418
 10
534.1136200051316
 20
11.296103428718041
 10
534.5598543632153
 20
11.308852981806147
 10
535.0060942910924
 20
11.321602694031206
 10
535.452339784719
 20
11.33435256527768
 10
535.8985908400515
 20
11.347102595430037
 10
536.3448474530461
 20
11.359852784372737
 10
536.7911096196589
 20
11.372603131990246
 10
537.237377335846
 20
11.385353638167022
 10
537.6836505975635
 20
11.398104302787523
 10
538.1299294007674
 20
11.410855125736205
 10
538.5762137414137
 20
11.423606106897527
 10
539.0225036154582
 20
11.436357246155943
 10
539.4687990188568
 20
11.449108543395905
 10
539.9150999475654
 20
11.461859998501865
 10
540.3614063975397
 20
11.474611611358274
 10
540.8077183647354
 20
11.48736338184958
 10
541.2540358451081
 20
11.500115309860227
 10
541.7003588346134
 20
11.512867395274668
 10
542.146687329207
 20
11.525619637977343
 10
542.5930213248442
 20
11.538372037852692
 10
543.0393608174807
 20
11.551124594785161
 10
584.6223916142455
 20
12.739211188978445
 10
626.2054224110104
 20
13.927297783171728
 10
667.7884532077754
 20
15.115384377365011
 10
709.3714840045402
 20
16.303470971558294
 10
750.9545148013051
 20
17.491557565751577
 10
792.5375455980701
 20
18.67964415994486
 10
834.1205763948351
 20
19.867730754138144
 10
875.7036071915999
 20
21.055817348331423
 10
917.2866379883649
 20
22.24390394252471
 10
958.8696687851296
 20
23.43199053671799
 10
1000.4526995818946
 20
24.620077130911277
 10
1042.0357303786595
 20
25.80816372510456
 10
1083.6187611754244
 20
26.996250319297843
 10
1125.2017919721893
 20
28.184336913491126
 10
1166.7848227689542
 20
29.372423507684406
 10
1208.367853565719
 20
30.56051010187769
 10
1249.950884362484
 20
31.748596696070972
  0
CIRCLE
  5
E4
330
17
100
AcDbEntity
  8
BEND
100
AcDbCircle
 10
81.0
 20
-33.0
 30
0.0
 40
18.0
  0
TEXT
  5
E5
330
17
100
AcDbEntity
  8
BEND
100
AcDbText
 10
111.0
 20
7.0
 30
0.0
 40
38.0
  1
B1 7.5 R82
 11
111.0
 21
7.0
 31
0.0
100
AcDbText
  0
CIRCLE
  5
E6
330
17
100
AcDbEntity
  8
BEND
100
AcDbCircle
 10
543.0
 20
-20.0
 30
0.0
 40
18.0
  0
TEXT
  5
E7
330
17
100
AcDbEntity
  8
BEND
100
AcDbText
 10
573.0
 20
20.0
 30
0.0
 40
38.0
  1
B2 7.5 R82
 11
573.0
 21
20.0
 31
0.0
100
AcDbText
  0
LWPOLYLINE
  5
E8
330
17
100
AcDbEntity
  8
PIPE
100
AcDbPolyline
 90
17
 70
0
 10
1250.0
 20
-0.001403303929027544
 10
1290.625
 20
-0.001403303929027544
 10
1331.25
 20
-0.001403303929027544
 10
1371.875
 20
-0.001403303929027544
 10
1412.5
 20
-0.001403303929027544
 10
1453.125
 20
-0.001403303929027544
 10
1493.75
 20
-0.001403303929027544
 10
1534.375
 20
-0.001403303929027544
 10
1575.0
 20
-0.001403303929027544
 10
1615.625
 20
-0.001403303929027544
 10
1656.25
 20
-0.001403303929027544
 10
1696.875
 20
-0.001403303929027544
 10
1737.5
 20
-0.001403303929027544
 10
1778.125
 20
-0.001403303929027544
 10
1818.75
 20
-0.001403303929027544
 10
1859.375
 20
-0.001403303929027544
 10
1900.0
 20
-0.001403303929027544
  0
LWPOLYLINE
  5
E9
330
17
100
AcDbEntity
  8
PIPE
100
AcDbPolyline
 90
17
 70
0
 10
1250.0
 20
-31.751403303929028
 10
1290.625
 20
-31.751403303929028
 10
1331.25
 20
-31.751403303929028
 10
1371.875
 20
-31.751403303929028
 10
1412.5
 20
-31.751403303929028
 10
1453.125
 20
-31.751403303929028
 10
1493.75
 20
-31.751403303929028
 10
1534.375
 20
-31.751403303929028
 10
1575.0
 20
-31.751403303929028
 10
1615.625
 20
-31.751403303929028
 10
1656.25
 20
-31.751403303929028
 10
1696.875
 20
-31.751403303929028
 10
1737.5
 20
-31.751403303929028
 10
1778.125
 20
-31.751403303929028
 10
1818.75
 20
-31.751403303929028
 10
1859.375
 20
-31.751403303929028
 10
1900.0
 20
-31.751403303929028
  0
LWPOLYLINE
  5
EA
330
17
100
AcDbEntity
  8
PIPE
100
AcDbPolyline
 90
17
 70
0
 10
1250.0
 20
31.748596696070972
 10
1290.625
 20
31.748596696070972
 10
1331.25
 20
31.748596696070972
 10
1371.875
 20
31.748596696070972
 10
1412.5
 20
31.748596696070972
 10
1453.125
 20
31.748596696070972
 10
1493.75
 20
31.748596696070972
 10
1534.375
 20
31.748596696070972
 10
1575.0
 20
31.748596696070972
 10
1615.625
 20
31.748596696070972
 10
1656.25
 20
31.748596696070972
 10
1696.875
 20
31.748596696070972
 10
1737.5
 20
31.748596696070972
 10
1778.125
 20
31.748596696070972
 10
1818.75
 20
31.748596696070972
 10
1859.375
 20
31.748596696070972
 10
1900.0
 20
31.748596696070972
  0
LWPOLYLINE
  5
EB
330
17
100
AcDbEntity
  8
PIPE
100
AcDbPolyline
 90
49
 70
0
 10
1900.0
 20
-0.001403303929027544
 10
1940.0
 20
-0.001403303929027544
 10
1980.0
 20
-0.001403303929027544
 10
2020.0
 20
-0.001403303929027544
 10
2060.0
 20
-0.001403303929027544
 10
2100.0
 20
-0.001403303929027544
 10
2101.2124583653035
 20
-0.0010570514769543892
 10
2102.4249165822835
 20
-0.0003645466010467912
 10
2103.6373745520577
 20
0.0006742106422178294
 10
2104.849832175744
 20
0.0020592201681233465
 10
2106.062289354459
 20
0.0037904818637149373
 10
2107.2747459893217
 20
0.00586799558779909
 10
2108.4872019814493
 20
0.008291761170943615
 10
2109.6996572319595
 20
0.01106177841547766
 10
2110.9121116419706
 20
0.014178047095491727
 10
2112.1245651126
 20
0.017640566956837685
 10
2113.3370175449663
 20
0.021449337717128803
 10
2114.5494688401873
 20
0.025604359065739758
 10
2115.7619188993813
 20
0.030105630663806667
 10
2116.9743676236667
 20
0.03495315214422712
 10
2118.1868149141615
 20
0.0401469231116602
 10
2119.399260671985
 20
0.04568694314252653
 10
2120.611704798255
 20
0.05157321178500829
 10
2121.8241471940905
 20
0.05780572855904925
 10
2123.036587760611
 20
0.06438449295635484
 10
2124.2490263989353
 20
0.07130950444039218
 10
2125.4614630101823
 20
0.07858076244639008
 10
2126.673897495472
 20
0.08619826638133915
 10
2127.8863297559233
 20
0.09416201562399182
 10
2129.0987596926566
 20
0.10247200952486236
 10
2167.5661859121133
 20
16.036201659210256
 10
2206.03361213157
 20
31.969931308895653
 10
2244.501038351027
 20
47.90366095858105
 10
2282.968464570484
 20
63.83739060826644
 10
2321.4358907899405
 20
79.77112025795184
 10
2359.903317009397
 20
95.70484990763724
 10
2398.370743228854
 20
111.63857955732263
 10
2436.838169448311
 20
127.57230920700802
 10
2475.3055956677676
 20
143.50603885669344
 10
2513.7730218872243
 20
159.4397685063788
 10
2552.2404481066815
 20
175.37349815606424
 10
2590.707874326138
 20
191.30722780574962
 10
2629.175300545595
 20
207.24095745543502
 10
2667.6427267650515
 20
223.1746871051204
 10
2706.110152984508
 20
239.1084167548058
 10
2744.577579203965
 20
255.04214640449118
 10
2783.045005423422
 20
270.97587605417664
 10
2821.5124316428787
 20
286.90960570386204
 10
2859.9798578623354
 20
302.84333535354745
  0
LWPOLYLINE
  5
EC
330
17
100
AcDbEntity
  8
PIPE
100
AcDbPolyline
 90
49
 70
0
 10
1900.0
 20
-28.501403303929028
 10
1940.0
 20
-28.501403303929028
 10
1980.0
 20
-28.501403303929028
 10
2020.0
 20
-28.501403303929028
 10
2060.0
 20
-28.501403303929028
 10
2100.0
 20
-28.501403303929028
 10
2101.2124583653035
 20
-28.501057051476955
 10
2102.4249165822835
 20
-28.50036454660105
 10
2103.6373745520577
 20
-28.499325789357783
 10
2104.849832175744
 20
-28.497940779831875
 10
2106.062289354459
 20
-28.496209518136286
 10
2107.2747459893217
 20
-28.4941320044122
 10
2108.4872019814493
 20
-28.491708238829055
 10
2109.6996572319595
 20
-28.488938221584522
 10
2110.9121116419706
 20
-28.48582195290451
 10
2112.1245651126
 20
-28.48235943304316
 10
2113.3370175449663
 20
-28.47855066228287
 10
2114.5494688401873
 20
-28.47439564093426
 10
2115.7619188993813
 20
-28.469894369336192
 10
2116.9743676236667
 20
-28.465046847855774
 10
2118.1868149141615
 20
-28.45985307688834
 10
2119.399260671985
 20
-28.454313056857472
 10
2120.611704798255
 20
-28.44842678821499
 10
2121.8241471940905
 20
-28.44219427144095
 10
2123.036587760611
 20
-28.435615507043646
 10
2124.2490263989353
 20
-28.428690495559607
 10
2125.4614630101823
 20
-28.42141923755361
 10
2126.673897495472
 20
-28.413801733618662
 10
2127.8863297559233
 20
-28.405837984376006
 10
2129.0987596926566
 20
-28.397527990475137
 10
2167.5661859121133
 20
-12.463798340789744
 10
2206.03361213157
 20
3.469931308895653
 10
2244.501038351027
 20
19.40366095858105
 10
2282.968464570484
 20
35.33739060826644
 10
2321.4358907899405
 20
51.271120257951836
 10
2359.903317009397
 20
67.20484990763724
 10
2398.370743228854
 20
83.13857955732263
 10
2436.838169448311
 20
99.07230920700802
 10
2475.3055956677676
 20
115.00603885669344
 10
2513.7730218872243
 20
130.9397685063788
 10
2552.2404481066815
 20
146.87349815606424
 10
2590.707874326138
 20
162.80722780574962
 10
2629.175300545595
 20
178.74095745543502
 10
2667.6427267650515
 20
194.6746871051204
 10
2706.110152984508
 20
210.6084167548058
 10
2744.577579203965
 20
226.54214640449118
 10
2783.045005423422
 20
242.47587605417664
 10
2821.5124316428787
 20
258.40960570386204
 10
2859.9798578623354
 20
274.34333535354745
  0
LWPOLYLINE
  5
ED
330
17
100
AcDbEntity
  8
PIPE
100
AcDbPolyline
 90
49
 70
0
 10
1900.0
 20
28.498596696070972
 10
1940.0
 20
28.498596696070972
 10
1980.0
 20
28.498596696070972
 10
2020.0
 20
28.498596696070972
 10
2060.0
 20
28.498596696070972
 10
2100.0
 20
28.498596696070972
 10
2101.2124583653035
 20
28.498942948523045
 10
2102.4249165822835
 20
28.49963545339895
 10
2103.6373745520577
 20
28.500674210642217
 10
2104.849832175744
 20
28.502059220168125
 10
2106.062289354459
 20
28.503790481863714
 10
2107.2747459893217
 20
28.5058679955878
 10
2108.4872019814493
 20
28.508291761170945
 10
2109.6996572319595
 20
28.511061778415478
 10
2110.9121116419706
 20
28.51417804709549
 10
2112.1245651126
 20
28.51764056695684
 10
2113.3370175449663
 20
28.52144933771713
 10
2114.5494688401873
 20
28.52560435906574
 10
2115.7619188993813
 20
28.530105630663808
 10
2116.9743676236667
 20
28.534953152144226
 10
2118.1868149141615
 20
28.54014692311166
 10
2119.399260671985
 20
28.545686943142528
 10
2120.611704798255
 20
28.55157321178501
 10
2121.8241471940905
 20
28.55780572855905
 10
2123.036587760611
 20
28.564384492956354
 10
2124.2490263989353
 20
28.571309504440393
 10
2125.4614630101823
 20
28.57858076244639
 10
2126.673897495472
 20
28.586198266381338
 10
2127.8863297559233
 20
28.594162015623994
 10
2129.0987596926566
 20
28.602472009524863
 10
2167.5661859121133
 20
44.536201659210256
 10
2206.03361213157
 20
60.46993130889565
 10
2244.501038351027
 20
76.40366095858104
 10
2282.968464570484
 20
92.33739060826645
 10
2321.4358907899405
 20
108.27112025795184
 10
2359.903317009397
 20
124.20484990763724
 10
2398.370743228854
 20
140.13857955732263
 10
2436.838169448311
 20
156.072309207008
 10
2475.3055956677676
 20
172.00603885669344
 10
2513.7730218872243
 20
187.9397685063788
 10
2552.2404481066815
 20
203.87349815606424
 10
2590.707874326138
 20
219.80722780574962
 10
2629.175300545595
 20
235.74095745543502
 10
2667.6427267650515
 20
251.6746871051204
 10
2706.110152984508
 20
267.60841675480583
 10
2744.577579203965
 20
283.5421464044912
 10
2783.045005423422
 20
299.47587605417664
 10
2821.5124316428787
 20
315.40960570386204
 10
2859.9798578623354
 20
331.34333535354745
  0
CIRCLE
  5
EE
330
17
100
AcDbEntity
  8
BEND
100
AcDbCircle
 10
2129.0
 20
0.0
 30
0.0
 40
18.0
  0
TEXT
  5
EF
330
17
100
AcDbEntity
  8
BEND
100
AcDbText
 10
2159.0
 20
40.0
 30
0.0
 40
38.0
  1
B1 22.5 R74
 11
2159.0
 21
40.0
 31
0.0
100
AcDbText
  0
LWPOLYLINE
  5
F0
330
17
100
AcDbEntity
  8
PIPE
100
AcDbPolyline
 90
49
 70
0
 10
1900.0
 20
-0.001403303929027544
 10
1940.0
 20
-0.001403303929027544
 10
1980.0
 20
-0.001403303929027544
 10
2020.0
 20
-0.001403303929027544
 10
2060.0
 20
-0.001403303929027544
 10
2100.0
 20
-0.001403303929027544
 10
2101.2124583653035
 20
-0.0017495563811006987
 10
2102.4249165822835
 20
-0.0024420612570082967
 10
2103.6373745520577
 20
-0.0034808185002729174
 10
2104.849832175744
 20
-0.004865828026178434
 10
2106.062289354459
 20
-0.006597089721770025
 10
2107.2747459893217
 20
-0.008674603445854178
 10
2108.4872019814493
 20
-0.011098369028998703
 10
2109.6996572319595
 20
-0.013868386273532748
 10
2110.9121116419706
 20
-0.016984654953546816
 10
2112.1245651126
 20
-0.020447174814892777
 10
2113.3370175449663
 20
-0.024255945575183895
 10
2114.5494688401873
 20
-0.02841096692379485
 10
2115.7619188993813
 20
-0.03291223852186176
 10
2116.9743676236667
 20
-0.03775976000228221
 10
2118.1868149141615
 20
-0.0429535309697153
 10
2119.399260671985
 20
-0.04849355100058163
 10
2120.611704798255
 20
-0.05437981964306338
 10
2121.8241471940905
 20
-0.06061233641710435
 10
2123.036587760611
 20
-0.06719110081440995
 10
2124.2490263989353
 20
-0.07411611229844728
 10
2125.4614630101823
 20
-0.08138737030444518
 10
2126.673897495472
 20
-0.08900487423939424
 10
2127.8863297559233
 20
-0.0969686234820469
 10
2129.0987596926566
 20
-0.10527861738291745
 10
2167.5661859121133
 20
-16.03900826706831
 10
2206.03361213157
 20
-31.972737916753708
 10
2244.501038351027
 20
-47.906467566439105
 10
2282.968464570484
 20
-63.840197216124494
 10
2321.4358907899405
 20
-79.7739268658099
 10
2359.903317009397
 20
-95.7076565154953
 10
2398.370743228854
 20
-111.64138616518069
 10
2436.838169448311
 20
-127.57511581486608
 10
2475.3055956677676
 20
-143.50884546455148
 10
2513.7730218872243
 20
-159.44257511423686
 10
2552.2404481066815
 20
-175.3763047639223
 10
2590.707874326138
 20
-191.31003441360767
 10
2629.175300545595
 20
-207.24376406329307
 10
2667.6427267650515
 20
-223.17749371297845
 10
2706.110152984508
 20
-239.11122336266385
 10
2744.577579203965
 20
-255.04495301234923
 10
2783.045005423422
 20
-270.97868266203466
 10
2821.5124316428787
 20
-286.91241231172006
 10
2859.9798578623354
 20
-302.84614196140546
  0
LWPOLYLINE
  5
F1
330
17
100
AcDbEntity
  8
PIPE
100
AcDbPolyline
 90
49
 70
0
 10
1900.0
 20
-28.501403303929028
 10
1940.0
 20
-28.501403303929028
 10
1980.0
 20
-28.501403303929028
 10
2020.0
 20
-28.501403303929028
 10
2060.0
 20
-28.501403303929028
 10
2100.0
 20
-28.501403303929028
 10
2101.2124583653035
 20
-28.5017495563811
 10
2102.4249165822835
 20
-28.502442061257007
 10
2103.6373745520577
 20
-28.50348081850027
 10
2104.849832175744
 20
-28.50486582802618
 10
2106.062289354459
 20
-28.50659708972177
 10
2107.2747459893217
 20
-28.508674603445854
 10
2108.4872019814493
 20
-28.511098369029
 10
2109.6996572319595
 20
-28.513868386273533
 10
2110.9121116419706
 20
-28.516984654953546
 10
2112.1245651126
 20
-28.520447174814894
 10
2113.3370175449663
 20
-28.524255945575185
 10
2114.5494688401873
 20
-28.528410966923794
 10
2115.7619188993813
 20
-28.532912238521863
 10
2116.9743676236667
 20
-28.53775976000228
 10
2118.1868149141615
 20
-28.542953530969715
 10
2119.399260671985
 20
-28.548493551000583
 10
2120.611704798255
 20
-28.554379819643064
 10
2121.8241471940905
 20
-28.560612336417105
 10
2123.036587760611
 20
-28.56719110081441
 10
2124.2490263989353
 20
-28.574116112298448
 10
2125.4614630101823
 20
-28.581387370304444
 10
2126.673897495472
 20
-28.589004874239393
 10
2127.8863297559233
 20
-28.59696862348205
 10
2129.0987596926566
 20
-28.60527861738292
 10
2167.5661859121133
 20
-44.53900826706831
 10
2206.03361213157
 20
-60.47273791675371
 10
2244.501038351027
 20
-76.4064675664391
 10
2282.968464570484
 20
-92.3401972161245
 10
2321.4358907899405
 20
-108.2739268658099
 10
2359.903317009397
 20
-124.2076565154953
 10
2398.370743228854
 20
-140.14138616518068
 10
2436.838169448311
 20
-156.07511581486608
 10
2475.3055956677676
 20
-172.00884546455148
 10
2513.7730218872243
 20
-187.94257511423686
 10
2552.2404481066815
 20
-203.8763047639223
 10
2590.707874326138
 20
-219.81003441360767
 10
2629.175300545595
 20
-235.74376406329307
 10
2667.6427267650515
 20
-251.67749371297845
 10
2706.110152984508
 20
-267.61122336266385
 10
2744.577579203965
 20
-283.5449530123492
 10
2783.045005423422
 20
-299.47868266203466
 10
2821.5124316428787
 20
-315.41241231172006
 10
2859.9798578623354
 20
-331.34614196140546
  0
LWPOLYLINE
  5
F2
330
17
100
AcDbEntity
  8
PIPE
100
AcDbPolyline
 90
49
 70
0
 10
1900.0
 20
28.498596696070972
 10
1940.0
 20
28.498596696070972
 10
1980.0
 20
28.498596696070972
 10
2020.0
 20
28.498596696070972
 10
2060.0
 20
28.498596696070972
 10
2100.0
 20
28.498596696070972
 10
2101.2124583653035
 20
28.4982504436189
 10
2102.4249165822835
 20
28.497557938742993
 10
2103.6373745520577
 20
28.49651918149973
 10
2104.849832175744
 20
28.49513417197382
 10
2106.062289354459
 20
28.49340291027823
 10
2107.2747459893217
 20
28.491325396554146
 10
2108.4872019814493
 20
28.488901630971
 10
2109.6996572319595
 20
28.486131613726467
 10
2110.9121116419706
 20
28.483015345046454
 10
2112.1245651126
 20
28.479552825185106
 10
2113.3370175449663
 20
28.475744054424815
 10
2114.5494688401873
 20
28.471589033076206
 10
2115.7619188993813
 20
28.467087761478137
 10
2116.9743676236667
 20
28.46224023999772
 10
2118.1868149141615
 20
28.457046469030285
 10
2119.399260671985
 20
28.451506448999417
 10
2120.611704798255
 20
28.445620180356936
 10
2121.8241471940905
 20
28.439387663582895
 10
2123.036587760611
 20
28.43280889918559
 10
2124.2490263989353
 20
28.425883887701552
 10
2125.4614630101823
 20
28.418612629695556
 10
2126.673897495472
 20
28.410995125760607
 10
2127.8863297559233
 20
28.40303137651795
 10
2129.0987596926566
 20
28.39472138261708
 10
2167.5661859121133
 20
12.460991732931689
 10
2206.03361213157
 20
-3.472737916753708
 10
2244.501038351027
 20
-19.406467566439105
 10
2282.968464570484
 20
-35.340197216124494
 10
2321.4358907899405
 20
-51.2739268658099
 10
2359.903317009397
 20
-67.2076565154953
 10
2398.370743228854
 20
-83.14138616518069
 10
2436.838169448311
 20
-99.07511581486608
 10
2475.3055956677676
 20
-115.00884546455148
 10
2513.7730218872243
 20
-130.94257511423686
 10
2552.2404481066815
 20
-146.8763047639223
 10
2590.707874326138
 20
-162.81003441360767
 10
2629.175300545595
 20
-178.74376406329307
 10
2667.6427267650515
 20
-194.67749371297845
 10
2706.110152984508
 20
-210.61122336266385
 10
2744.577579203965
 20
-226.54495301234923
 10
2783.045005423422
 20
-242.47868266203466
 10
2821.5124316428787
 20
-258.41241231172006
 10
2859.9798578623354
 20
-274.34614196140546
  0
CIRCLE
  5
F3
330
17
100
AcDbEntity
  8
BEND
100
AcDbCircle
 10
2129.0
 20
-0.0
 30
0.0
 40
18.0
  0
TEXT
  5
F4
330
17
100
AcDbEntity
  8
BEND
100
AcDbText
 10
2159.0
 20
40.0
 30
0.0
 40
38.0
  1
B1 22.5 R74
 11
2159.0
 21
40.0
 31
0.0
100
AcDbText
  0
LWPOLYLINE
  5
F5
330
17
100
AcDbEntity
  8
BOX
100
AcDbPolyline
 90
4
 70
1
 10
2860.0
 20
248.0
 10
3240.0
 20
248.0
 10
3240.0
 20
478.0
 10
2860.0
 20
478.0
  0
LWPOLYLINE
  5
F6
330
17
100
AcDbEntity
  8
BOX
100
AcDbPolyline
 90
4
 70
1
 10
2860.0
 20
-478.0
 10
3240.0
 20
-478.0
 10
3240.0
 20
-248.0
 10
2860.0
 20
-248.0
  0
LWPOLYLINE
  5
F7
330
17
100
AcDbEntity
  8
PIPE
100
AcDbPolyline
 90
29
 70
0
 10
3240.0
 20
444.5
 10
3270.0
 20
444.5
 10
3300.0
 20
444.5
 10
3301.084831168956
 20
444.5003098048255
 10
3302.1696622052013
 20
444.5009294144513
 10
3303.2544930202625
 20
444.50185882882687
 10
3304.339323525666
 20
444.50309804787634
 10
3305.4241536329373
 20
444.5046470714987
 10
3306.5089832536037
 20
444.5065058995676
 10
3307.5938122991915
 20
444.5086745319315
 10
3308.678640681227
 20
444.51115296841346
 10
3309.763468311237
 20
444.5139412088114
 10
3310.8482951007477
 20
444.51703925289786
 10
3311.933120961286
 20
444.5204471004202
 10
3313.0179458043785
 20
444.52416475110056
 10
3314.1027695415523
 20
444.5281922046357
 10
3315.187592084334
 20
444.5325294606971
 10
3316.2724133442507
 20
444.5371765189311
 10
3317.3572332328295
 20
444.54213337895874
 10
3318.4420516615974
 20
444.5474000403757
 10
3319.526868542082
 20
444.5529765027525
 10
3320.611683785811
 20
444.5588627656343
 10
3321.6964973043114
 20
444.56505882854105
 10
3322.7813090091113
 20
444.5715646909675
 10
3323.866118811739
 20
444.57838035238296
 10
3324.950926623722
 20
444.58550581223164
 10
3326.0357323565886
 20
444.5929410699324
 10
3375.509481322568
 20
465.085638873083
 10
3424.9832302885475
 20
485.5783366762335
  0
LWPOLYLINE
  5
F8
330
17
100
AcDbEntity
  8
PIPE
100
AcDbPolyline
 90
29
 70
0
 10
3240.0
 20
419.0
 10
3270.0
 20
419.0
 10
3300.0
 20
419.0
 10
3301.084831168956
 20
419.0003098048255
 10
3302.1696622052013
 20
419.0009294144513
 10
3303.2544930202625
 20
419.00185882882687
 10
3304.339323525666
 20
419.00309804787634
 10
3305.4241536329373
 20
419.0046470714987
 10
3306.5089832536037
 20
419.0065058995676
 10
3307.5938122991915
 20
419.0086745319315
 10
3308.678640681227
 20
419.01115296841346
 10
3309.763468311237
 20
419.0139412088114
 10
3310.8482951007477
 20
419.01703925289786
 10
3311.933120961286
 20
419.0204471004202
 10
3313.0179458043785
 20
419.02416475110056
 10
3314.1027695415523
 20
419.0281922046357
 10
3315.187592084334
 20
419.0325294606971
 10
3316.2724133442507
 20
419.0371765189311
 10
3317.3572332328295
 20
419.04213337895874
 10
3318.4420516615974
 20
419.0474000403757
 10
3319.526868542082
 20
419.0529765027525
 10
3320.611683785811
 20
419.0588627656343
 10
3321.6964973043114
 20
419.06505882854105
 10
3322.7813090091113
 20
419.0715646909675
 10
3323.866118811739
 20
419.07838035238296
 10
3324.950926623722
 20
419.08550581223164
 10
3326.0357323565886
 20
419.0929410699324
 10
3375.509481322568
 20
439.585638873083
 10
3424.9832302885475
 20
460.0783366762335
  0
LWPOLYLINE
  5
F9
330
17
100
AcDbEntity
  8
PIPE
100
AcDbPolyline
 90
29
 70
0
 10
3240.0
 20
470.0
 10
3270.0
 20
470.0
 10
3300.0
 20
470.0
 10
3301.084831168956
 20
470.0003098048255
 10
3302.1696622052013
 20
470.0009294144513
 10
3303.2544930202625
 20
470.00185882882687
 10
3304.339323525666
 20
470.00309804787634
 10
3305.4241536329373
 20
470.0046470714987
 10
3306.5089832536037
 20
470.0065058995676
 10
3307.5938122991915
 20
470.0086745319315
 10
3308.678640681227
 20
470.01115296841346
 10
3309.763468311237
 20
470.0139412088114
 10
3310.8482951007477
 20
470.01703925289786
 10
3311.933120961286
 20
470.0204471004202
 10
3313.0179458043785
 20
470.02416475110056
 10
3314.1027695415523
 20
470.0281922046357
 10
3315.187592084334
 20
470.0325294606971
 10
3316.2724133442507
 20
470.0371765189311
 10
3317.3572332328295
 20
470.04213337895874
 10
3318.4420516615974
 20
470.0474000403757
 10
3319.526868542082
 20
470.0529765027525
 10
3320.611683785811
 20
470.0588627656343
 10
3321.6964973043114
 20
470.06505882854105
 10
3322.7813090091113
 20
470.0715646909675
 10
3323.866118811739
 20
470.07838035238296
 10
3324.950926623722
 20
470.08550581223164
 10
3326.0357323565886
 20
470.0929410699324
 10
3375.509481322568
 20
490.585638873083
 10
3424.9832302885475
 20
511.0783366762335
  0
CIRCLE
  5
FA
330
17
100
AcDbEntity
  8
BEND
100
AcDbCircle
 10
3326.0
 20
445.0
 30
0.0
 40
18.0
  0
TEXT
  5
FB
330
17
100
AcDbEntity
  8
BEND
100
AcDbText
 10
3356.0
 20
485.0
 30
0.0
 40
38.0
  1
B1 22.5 R66
 11
3356.0
 21
485.0
 31
0.0
100
AcDbText
  0
LWPOLYLINE
  5
FC
330
17
100
AcDbEntity
  8
PIPE
100
AcDbPolyline
 90
29
 70
0
 10
3240.0
 20
-444.5
 10
3270.0
 20
-444.5
 10
3300.0
 20
-444.5
 10
3301.084831168956
 20
-444.5003098048255
 10
3302.1696622052013
 20
-444.5009294144513
 10
3303.2544930202625
 20
-444.50185882882687
 10
3304.339323525666
 20
-444.50309804787634
 10
3305.4241536329373
 20
-444.5046470714987
 10
3306.5089832536037
 20
-444.5065058995676
 10
3307.5938122991915
 20
-444.5086745319315
 10
3308.678640681227
 20
-444.51115296841346
 10
3309.763468311237
 20
-444.5139412088114
 10
3310.8482951007477
 20
-444.51703925289786
 10
3311.933120961286
 20
-444.5204471004202
 10
3313.0179458043785
 20
-444.52416475110056
 10
3314.1027695415523
 20
-444.5281922046357
 10
3315.187592084334
 20
-444.5325294606971
 10
3316.2724133442507
 20
-444.5371765189311
 10
3317.3572332328295
 20
-444.54213337895874
 10
3318.4420516615974
 20
-444.5474000403757
 10
3319.526868542082
 20
-444.5529765027525
 10
3320.611683785811
 20
-444.5588627656343
 10
3321.6964973043114
 20
-444.56505882854105
 10
3322.7813090091113
 20
-444.5715646909675
 10
3323.866118811739
 20
-444.57838035238296
 10
3324.950926623722
 20
-444.58550581223164
 10
3326.0357323565886
 20
-444.5929410699324
 10
3375.509481322568
 20
-465.085638873083
 10
3424.9832302885475
 20
-485.5783366762335
  0
LWPOLYLINE
  5
FD
330
17
100
AcDbEntity
  8
PIPE
100
AcDbPolyline
 90
29
 70
0
 10
3240.0
 20
-470.0
 10
3270.0
 20
-470.0
 10
3300.0
 20
-470.0
 10
3301.084831168956
 20
-470.0003098048255
 10
3302.1696622052013
 20
-470.0009294144513
 10
3303.2544930202625
 20
-470.00185882882687
 10
3304.339323525666
 20
-470.00309804787634
 10
3305.4241536329373
 20
-470.0046470714987
 10
3306.5089832536037
 20
-470.0065058995676
 10
3307.5938122991915
 20
-470.0086745319315
 10
3308.678640681227
 20
-470.01115296841346
 10
3309.763468311237
 20
-470.0139412088114
 10
3310.8482951007477
 20
-470.01703925289786
 10
3311.933120961286
 20
-470.0204471004202
 10
3313.0179458043785
 20
-470.02416475110056
 10
3314.1027695415523
 20
-470.0281922046357
 10
3315.187592084334
 20
-470.0325294606971
 10
3316.2724133442507
 20
-470.0371765189311
 10
3317.3572332328295
 20
-470.04213337895874
 10
3318.4420516615974
 20
-470.0474000403757
 10
3319.526868542082
 20
-470.0529765027525
 10
3320.611683785811
 20
-470.0588627656343
 10
3321.6964973043114
 20
-470.06505882854105
 10
3322.7813090091113
 20
-470.0715646909675
 10
3323.866118811739
 20
-470.07838035238296
 10
3324.950926623722
 20
-470.08550581223164
 10
3326.0357323565886
 20
-470.0929410699324
 10
3375.509481322568
 20
-490.585638873083
 10
3424.9832302885475
 20
-511.0783366762335
  0
LWPOLYLINE
  5
FE
330
17
100
AcDbEntity
  8
PIPE
100
AcDbPolyline
 90
29
 70
0
 10
3240.0
 20
-419.0
 10
3270.0
 20
-419.0
 10
3300.0
 20
-419.0
 10
3301.084831168956
 20
-419.0003098048255
 10
3302.1696622052013
 20
-419.0009294144513
 10
3303.2544930202625
 20
-419.00185882882687
 10
3304.339323525666
 20
-419.00309804787634
 10
3305.4241536329373
 20
-419.0046470714987
 10
3306.5089832536037
 20
-419.0065058995676
 10
3307.5938122991915
 20
-419.0086745319315
 10
3308.678640681227
 20
-419.01115296841346
 10
3309.763468311237
 20
-419.0139412088114
 10
3310.8482951007477
 20
-419.01703925289786
 10
3311.933120961286
 20
-419.0204471004202
 10
3313.0179458043785
 20
-419.02416475110056
 10
3314.1027695415523
 20
-419.0281922046357
 10
3315.187592084334
 20
-419.0325294606971
 10
3316.2724133442507
 20
-419.0371765189311
 10
3317.3572332328295
 20
-419.04213337895874
 10
3318.4420516615974
 20
-419.0474000403757
 10
3319.526868542082
 20
-419.0529765027525
 10
3320.611683785811
 20
-419.0588627656343
 10
3321.6964973043114
 20
-419.06505882854105
 10
3322.7813090091113
 20
-419.0715646909675
 10
3323.866118811739
 20
-419.07838035238296
 10
3324.950926623722
 20
-419.08550581223164
 10
3326.0357323565886
 20
-419.0929410699324
 10
3375.509481322568
 20
-439.585638873083
 10
3424.9832302885475
 20
-460.0783366762335
  0
CIRCLE
  5
FF
330
17
100
AcDbEntity
  8
BEND
100
AcDbCircle
 10
3326.0
 20
-445.0
 30
0.0
 40
18.0
  0
TEXT
  5
100
330
17
100
AcDbEntity
  8
BEND
100
AcDbText
 10
3356.0
 20
-405.0
 30
0.0
 40
38.0
  1
B1 22.5 R66
 11
3356.0
 21
-405.0
 31
0.0
100
AcDbText
  0
LWPOLYLINE
  5
101
330
17
100
AcDbEntity
  8
PIPE
100
AcDbPolyline
 90
5
 70
0
 10
3424.9832302885475
 20
485.5783366762335
 10
3468.8697102548153
 20
503.75671188307655
 10
3512.7561902210828
 20
521.9350870899196
 10
3556.6426701873506
 20
540.1134622967627
 10
3600.529150153618
 20
558.2918375036057
  0
LWPOLYLINE
  5
102
330
17
100
AcDbEntity
  8
PIPE
100
AcDbPolyline
 90
5
 70
0
 10
3424.9832302885475
 20
441.0783366762335
 10
3468.8697102548153
 20
459.25671188307655
 10
3512.7561902210828
 20
477.43508708991965
 10
3556.6426701873506
 20
495.6134622967627
 10
3600.529150153618
 20
513.7918375036057
  0
LWPOLYLINE
  5
103
330
17
100
AcDbEntity
  8
PIPE
100
AcDbPolyline
 90
5
 70
0
 10
3424.9832302885475
 20
530.0783366762334
 10
3468.8697102548153
 20
548.2567118830766
 10
3512.7561902210828
 20
566.4350870899196
 10
3556.6426701873506
 20
584.6134622967627
 10
3600.529150153618
 20
602.7918375036057
  0
LWPOLYLINE
  5
104
330
17
100
AcDbEntity
  8
PIPE
100
AcDbPolyline
 90
5
 70
0
 10
3424.9832302885475
 20
-485.5783366762335
 10
3468.8697102548153
 20
-503.75671188307655
 10
3512.7561902210828
 20
-521.9350870899196
 10
3556.6426701873506
 20
-540.1134622967627
 10
3600.529150153618
 20
-558.2918375036057
  0
LWPOLYLINE
  5
105
330
17
100
AcDbEntity
  8
PIPE
100
AcDbPolyline
 90
5
 70
0
 10
3424.9832302885475
 20
-530.0783366762334
 10
3468.8697102548153
 20
-548.2567118830766
 10
3512.7561902210828
 20
-566.4350870899196
 10
3556.6426701873506
 20
-584.6134622967627
 10
3600.529150153618
 20
-602.7918375036057
  0
LWPOLYLINE
  5
106
330
17
100
AcDbEntity
  8
PIPE
100
AcDbPolyline
 90
5
 70
0
 10
3424.9832302885475
 20
-441.0783366762335
 10
3468.8697102548153
 20
-459.25671188307655
 10
3512.7561902210828
 20
-477.43508708991965
 10
3556.6426701873506
 20
-495.6134622967627
 10
3600.529150153618
 20
-513.7918375036057
  0
CIRCLE
  5
107
330
17
100
AcDbEntity
  8
HANGER
100
AcDbCircle
 10
300.0
 20
-37.0
 30
0.0
 40
12.0
  0
CIRCLE
  5
108
330
17
100
AcDbEntity
  8
HANGER
100
AcDbCircle
 10
1160.0
 20
0.0
 30
0.0
 40
12.0
  0
CIRCLE
  5
109
330
17
100
AcDbEntity
  8
HANGER
100
AcDbCircle
 10
1820.0
 20
0.0
 30
0.0
 40
12.0
  0
CIRCLE
  5
10A
330
17
100
AcDbEntity
  8
HANGER
100
AcDbCircle
 10
2920.0
 20
363.0
 30
0.0
 40
12.0
  0
CIRCLE
  5
10B
330
17
100
AcDbEntity
  8
HANGER
100
AcDbCircle
 10
2920.0
 20
-363.0
 30
0.0
 40
12.0
  0
CIRCLE
  5
10C
330
17
100
AcDbEntity
  8
HANGER
100
AcDbCircle
 10
3200.0
 20
363.0
 30
0.0
 40
12.0
  0
CIRCLE
  5
10D
330
17
100
AcDbEntity
  8
HANGER
100
AcDbCircle
 10
3200.0
 20
-363.0
 30
0.0
 40
12.0
  0
CIRCLE
  5
10E
330
17
100
AcDbEntity
  8
HANGER
100
AcDbCircle
 10
1250.0
 20
0.0
 30
0.0
 40
12.0
  0
LINE
  5
10F
330
17
100
AcDbEntity
  8
DIM
100
AcDbLine
 10
0.0
 20
1180.0
 30
0.0
 11
2703.0
 21
1180.0
 31
0.0
  0
LINE
  5
110
330
17
100
AcDbEntity
  8
DIM
100
AcDbLine
 10
0.0
 20
1150.0
 30
0.0
 11
0.0
 21
1210.0
 31
0.0
  0
LINE
  5
111
330
17
100
AcDbEntity
  8
DIM
100
AcDbLine
 10
2703.0
 20
1150.0
 30
0.0
 11
2703.0
 21
1210.0
 31
0.0
  0
TEXT
  5
112
330
17
100
AcDbEntity
  8
DIM
100
AcDbText
 10
1351.5
 20
1235.0
 30
0.0
 40
48.0
  1
колесная база 2703
 72
1
 11
1351.5
 21
1235.0
 31
0.0
100
AcDbText
 73
2
  0
LINE
  5
113
330
17
100
AcDbEntity
  8
DIM
100
AcDbLine
 10
0.0
 20
1320.0
 30
0.0
 11
3630.0
 21
1320.0
 31
0.0
  0
LINE
  5
114
330
17
100
AcDbEntity
  8
DIM
100
AcDbLine
 10
0.0
 20
1290.0
 30
0.0
 11
0.0
 21
1350.0
 31
0.0
  0
LINE
  5
115
330
17
100
AcDbEntity
  8
DIM
100
AcDbLine
 10
3630.0
 20
1290.0
 30
0.0
 11
3630.0
 21
1350.0
 31
0.0
  0
TEXT
  5
116
330
17
100
AcDbEntity
  8
DIM
100
AcDbText
 10
1815.0
 20
1375.0
 30
0.0
 40
48.0
  1
X до заднего бампера 3630
 72
1
 11
1815.0
 21
1375.0
 31
0.0
100
AcDbText
 73
2
  0
LINE
  5
117
330
17
100
AcDbEntity
  8
DIM
100
AcDbLine
 10
1900.0
 20
1460.0
 30
0.0
 11
2860.0
 21
1460.0
 31
0.0
  0
LINE
  5
118
330
17
100
AcDbEntity
  8
DIM
100
AcDbLine
 10
1900.0
 20
1430.0
 30
0.0
 11
1900.0
 21
1490.0
 31
0.0
  0
LINE
  5
119
330
17
100
AcDbEntity
  8
DIM
100
AcDbLine
 10
2860.0
 20
1430.0
 30
0.0
 11
2860.0
 21
1490.0
 31
0.0
  0
TEXT
  5
11A
330
17
100
AcDbEntity
  8
DIM
100
AcDbText
 10
2380.0
 20
1515.0
 30
0.0
 40
48.0
  1
Y → вход банок 960
 72
1
 11
2380.0
 21
1515.0
 31
0.0
100
AcDbText
 73
2
  0
LINE
  5
11B
330
17
100
AcDbEntity
  8
DIM
100
AcDbLine
 10
2860.0
 20
1600.0
 30
0.0
 11
3240.0
 21
1600.0
 31
0.0
  0
LINE
  5
11C
330
17
100
AcDbEntity
  8
DIM
100
AcDbLine
 10
2860.0
 20
1570.0
 30
0.0
 11
2860.0
 21
1630.0
 31
0.0
  0
LINE
  5
11D
330
17
100
AcDbEntity
  8
DIM
100
AcDbLine
 10
3240.0
 20
1570.0
 30
0.0
 11
3240.0
 21
1630.0
 31
0.0
  0
TEXT
  5
11E
330
17
100
AcDbEntity
  8
DIM
100
AcDbText
 10
3050.0
 20
1655.0
 30
0.0
 40
48.0
  1
банка 380
 72
1
 11
3050.0
 21
1655.0
 31
0.0
100
AcDbText
 73
2
  0
LINE
  5
11F
330
17
100
AcDbEntity
  8
DIM
100
AcDbLine
 10
3240.0
 20
1740.0
 30
0.0
 11
3615.0
 21
1740.0
 31
0.0
  0
LINE
  5
120
330
17
100
AcDbEntity
  8
DIM
100
AcDbLine
 10
3240.0
 20
1710.0
 30
0.0
 11
3240.0
 21
1770.0
 31
0.0
  0
LINE
  5
121
330
17
100
AcDbEntity
  8
DIM
100
AcDbLine
 10
3615.0
 20
1710.0
 30
0.0
 11
3615.0
 21
1770.0
 31
0.0
  0
TEXT
  5
122
330
17
100
AcDbEntity
  8
DIM
100
AcDbText
 10
3427.5
 20
1795.0
 30
0.0
 40
48.0
  1
банка → срез насадки 375
 72
1
 11
3427.5
 21
1795.0
 31
0.0
100
AcDbText
 73
2
  0
TEXT
  5
123
330
17
100
AcDbEntity
  8
TEXT
100
AcDbText
 10
-885.0
 20
-1250.0
 30
0.0
 40
70.0
  1
ВИД СВЕРХУ — 1:1, мм (X от оси передних колёс)
 11
-885.0
 21
-1250.0
 31
0.0
100
AcDbText
  0
TEXT
  5
124
330
17
100
AcDbEntity
  8
TEXT
100
AcDbText
 10
0.0
 20
-1700.0
 30
0.0
 40
60.0
  1
РАСКРОЙ (развертка = длина по оси трубы; гибы отдельными позициями)
 11
0.0
 21
-1700.0
 31
0.0
100
AcDbText
  0
TEXT
  5
125
330
17
100
AcDbEntity
  8
TEXT
100
AcDbText
 10
0.0
 20
-1850.0
 30
0.0
 40
40.0
  1
деталь
 11
0.0
 21
-1850.0
 31
0.0
100
AcDbText
  0
TEXT
  5
126
330
17
100
AcDbEntity
  8
TEXT
100
AcDbText
 10
620.0
 20
-1850.0
 30
0.0
 40
40.0
  1
OD
 11
620.0
 21
-1850.0
 31
0.0
100
AcDbText
  0
TEXT
  5
127
330
17
100
AcDbEntity
  8
TEXT
100
AcDbText
 10
1240.0
 20
-1850.0
 30
0.0
 40
40.0
  1
стенка
 11
1240.0
 21
-1850.0
 31
0.0
100
AcDbText
  0
TEXT
  5
128
330
17
100
AcDbEntity
  8
TEXT
100
AcDbText
 10
1860.0
 20
-1850.0
 30
0.0
 40
40.0
  1
развертка
 11
1860.0
 21
-1850.0
 31
0.0
100
AcDbText
  0
TEXT
  5
129
330
17
100
AcDbEntity
  8
TEXT
100
AcDbText
 10
2480.0
 20
-1850.0
 30
0.0
 40
40.0
  1
прямые, мм
 11
2480.0
 21
-1850.0
 31
0.0
100
AcDbText
  0
TEXT
  5
12A
330
17
100
AcDbEntity
  8
TEXT
100
AcDbText
 10
3100.0
 20
-1850.0
 30
0.0
 40
40.0
  1
гибы
 11
3100.0
 21
-1850.0
 31
0.0
100
AcDbText
  0
TEXT
  5
12B
330
17
100
AcDbEntity
  8
TEXT
100
AcDbText
 10
3720.0
 20
-1850.0
 30
0.0
 40
40.0
  1
R гиба
 11
3720.0
 21
-1850.0
 31
0.0
100
AcDbText
  0
TEXT
  5
12C
330
17
100
AcDbEntity
  8
TEXT
100
AcDbText
 10
4340.0
 20
-1850.0
 30
0.0
 40
40.0
  1
масса
 11
4340.0
 21
-1850.0
 31
0.0
100
AcDbText
  0
TEXT
  5
12D
330
17
100
AcDbEntity
  8
TEXT
100
AcDbText
 10
0.0
 20
-1970.0
 30
0.0
 40
34.0
  1
01_front
 11
0.0
 21
-1970.0
 31
0.0
100
AcDbText
  0
TEXT
  5
12E
330
17
100
AcDbEntity
  8
TEXT
100
AcDbText
 10
620.0
 20
-1970.0
 30
0.0
 40
34.0
  1
63.5
 11
620.0
 21
-1970.0
 31
0.0
100
AcDbText
  0
TEXT
  5
12F
330
17
100
AcDbEntity
  8
TEXT
100
AcDbText
 10
1240.0
 20
-1970.0
 30
0.0
 40
34.0
  1
1.5
 11
1240.0
 21
-1970.0
 31
0.0
100
AcDbText
  0
TEXT
  5
130
330
17
100
AcDbEntity
  8
TEXT
100
AcDbText
 10
1860.0
 20
-1970.0
 30
0.0
 40
34.0
  1
1404.5
 11
1860.0
 21
-1970.0
 31
0.0
100
AcDbText
  0
TEXT
  5
131
330
17
100
AcDbEntity
  8
TEXT
100
AcDbText
 10
2480.0
 20
-1970.0
 30
0.0
 40
34.0
  1
220; 456; 707
 11
2480.0
 21
-1970.0
 31
0.0
100
AcDbText
  0
TEXT
  5
132
330
17
100
AcDbEntity
  8
TEXT
100
AcDbText
 10
3100.0
 20
-1970.0
 30
0.0
 40
34.0
  1
2x 7.5P; 7.5P
 11
3100.0
 21
-1970.0
 31
0.0
100
AcDbText
  0
TEXT
  5
133
330
17
100
AcDbEntity
  8
TEXT
100
AcDbText
 10
3720.0
 20
-1970.0
 30
0.0
 40
34.0
  1
82.5
 11
3720.0
 21
-1970.0
 31
0.0
100
AcDbText
  0
TEXT
  5
134
330
17
100
AcDbEntity
  8
TEXT
100
AcDbText
 10
4340.0
 20
-1970.0
 30
0.0
 40
34.0
  1
3.24
 11
4340.0
 21
-1970.0
 31
0.0
100
AcDbText
  0
TEXT
  5
135
330
17
100
AcDbEntity
  8
TEXT
100
AcDbText
 10
0.0
 20
-2070.0
 30
0.0
 40
34.0
  1
03_mid
 11
0.0
 21
-2070.0
 31
0.0
100
AcDbText
  0
TEXT
  5
136
330
17
100
AcDbEntity
  8
TEXT
100
AcDbText
 10
620.0
 20
-2070.0
 30
0.0
 40
34.0
  1
63.5
 11
620.0
 21
-2070.0
 31
0.0
100
AcDbText
  0
TEXT
  5
137
330
17
100
AcDbEntity
  8
TEXT
100
AcDbText
 10
1240.0
 20
-2070.0
 30
0.0
 40
34.0
  1
1.5
 11
1240.0
 21
-2070.0
 31
0.0
100
AcDbText
  0
TEXT
  5
138
330
17
100
AcDbEntity
  8
TEXT
100
AcDbText
 10
1860.0
 20
-2070.0
 30
0.0
 40
34.0
  1
650.0
 11
1860.0
 21
-2070.0
 31
0.0
100
AcDbText
  0
TEXT
  5
139
330
17
100
AcDbEntity
  8
TEXT
100
AcDbText
 10
2480.0
 20
-2070.0
 30
0.0
 40
34.0
  1
650
 11
2480.0
 21
-2070.0
 31
0.0
100
AcDbText
  0
TEXT
  5
13A
330
17
100
AcDbEntity
  8
TEXT
100
AcDbText
 10
3100.0
 20
-2070.0
 30
0.0
 40
34.0
  1
0x 
 11
3100.0
 21
-2070.0
 31
0.0
100
AcDbText
  0
TEXT
  5
13B
330
17
100
AcDbEntity
  8
TEXT
100
AcDbText
 10
3720.0
 20
-2070.0
 30
0.0
 40
34.0
  1

 11
3720.0
 21
-2070.0
 31
0.0
100
AcDbText
  0
TEXT
  5
13C
330
17
100
AcDbEntity
  8
TEXT
100
AcDbText
 10
4340.0
 20
-2070.0
 30
0.0
 40
34.0
  1
1.5
 11
4340.0
 21
-2070.0
 31
0.0
100
AcDbText
  0
TEXT
  5
13D
330
17
100
AcDbEntity
  8
TEXT
100
AcDbText
 10
0.0
 20
-2170.0
 30
0.0
 40
34.0
  1
04_leg_L
 11
0.0
 21
-2170.0
 31
0.0
100
AcDbText
  0
TEXT
  5
13E
330
17
100
AcDbEntity
  8
TEXT
100
AcDbText
 10
620.0
 20
-2170.0
 30
0.0
 40
34.0
  1
57.0
 11
620.0
 21
-2170.0
 31
0.0
100
AcDbText
  0
TEXT
  5
13F
330
17
100
AcDbEntity
  8
TEXT
100
AcDbText
 10
1240.0
 20
-2170.0
 30
0.0
 40
34.0
  1
1.5
 11
1240.0
 21
-2170.0
 31
0.0
100
AcDbText
  0
TEXT
  5
140
330
17
100
AcDbEntity
  8
TEXT
100
AcDbText
 10
1860.0
 20
-2170.0
 30
0.0
 40
34.0
  1
1020.2
 11
1860.0
 21
-2170.0
 31
0.0
100
AcDbText
  0
TEXT
  5
141
330
17
100
AcDbEntity
  8
TEXT
100
AcDbText
 10
2480.0
 20
-2170.0
 30
0.0
 40
34.0
  1
200; 791
 11
2480.0
 21
-2170.0
 31
0.0
100
AcDbText
  0
TEXT
  5
142
330
17
100
AcDbEntity
  8
TEXT
100
AcDbText
 10
3100.0
 20
-2170.0
 30
0.0
 40
34.0
  1
1x 22.5Y
 11
3100.0
 21
-2170.0
 31
0.0
100
AcDbText
  0
TEXT
  5
143
330
17
100
AcDbEntity
  8
TEXT
100
AcDbText
 10
3720.0
 20
-2170.0
 30
0.0
 40
34.0
  1
74.1
 11
3720.0
 21
-2170.0
 31
0.0
100
AcDbText
  0
TEXT
  5
144
330
17
100
AcDbEntity
  8
TEXT
100
AcDbText
 10
4340.0
 20
-2170.0
 30
0.0
 40
34.0
  1
2.11
 11
4340.0
 21
-2170.0
 31
0.0
100
AcDbText
  0
TEXT
  5
145
330
17
100
AcDbEntity
  8
TEXT
100
AcDbText
 10
0.0
 20
-2270.0
 30
0.0
 40
34.0
  1
04_leg_R
 11
0.0
 21
-2270.0
 31
0.0
100
AcDbText
  0
TEXT
  5
146
330
17
100
AcDbEntity
  8
TEXT
100
AcDbText
 10
620.0
 20
-2270.0
 30
0.0
 40
34.0
  1
57.0
 11
620.0
 21
-2270.0
 31
0.0
100
AcDbText
  0
TEXT
  5
147
330
17
100
AcDbEntity
  8
TEXT
100
AcDbText
 10
1240.0
 20
-2270.0
 30
0.0
 40
34.0
  1
1.5
 11
1240.0
 21
-2270.0
 31
0.0
100
AcDbText
  0
TEXT
  5
148
330
17
100
AcDbEntity
  8
TEXT
100
AcDbText
 10
1860.0
 20
-2270.0
 30
0.0
 40
34.0
  1
1020.2
 11
1860.0
 21
-2270.0
 31
0.0
100
AcDbText
  0
TEXT
  5
149
330
17
100
AcDbEntity
  8
TEXT
100
AcDbText
 10
2480.0
 20
-2270.0
 30
0.0
 40
34.0
  1
200; 791
 11
2480.0
 21
-2270.0
 31
0.0
100
AcDbText
  0
TEXT
  5
14A
330
17
100
AcDbEntity
  8
TEXT
100
AcDbText
 10
3100.0
 20
-2270.0
 30
0.0
 40
34.0
  1
1x 22.5Y
 11
3100.0
 21
-2270.0
 31
0.0
100
AcDbText
  0
TEXT
  5
14B
330
17
100
AcDbEntity
  8
TEXT
100
AcDbText
 10
3720.0
 20
-2270.0
 30
0.0
 40
34.0
  1
74.1
 11
3720.0
 21
-2270.0
 31
0.0
100
AcDbText
  0
TEXT
  5
14C
330
17
100
AcDbEntity
  8
TEXT
100
AcDbText
 10
4340.0
 20
-2270.0
 30
0.0
 40
34.0
  1
2.11
 11
4340.0
 21
-2270.0
 31
0.0
100
AcDbText
  0
TEXT
  5
14D
330
17
100
AcDbEntity
  8
TEXT
100
AcDbText
 10
0.0
 20
-2370.0
 30
0.0
 40
34.0
  1
05_box_L
 11
0.0
 21
-2370.0
 31
0.0
100
AcDbText
  0
TEXT
  5
14E
330
17
100
AcDbEntity
  8
TEXT
100
AcDbText
 10
620.0
 20
-2370.0
 30
0.0
 40
34.0
  1
380x230x140
 11
620.0
 21
-2370.0
 31
0.0
100
AcDbText
  0
TEXT
  5
14F
330
17
100
AcDbEntity
  8
TEXT
100
AcDbText
 10
1240.0
 20
-2370.0
 30
0.0
 40
34.0
  1
1.2
 11
1240.0
 21
-2370.0
 31
0.0
100
AcDbText
  0
TEXT
  5
150
330
17
100
AcDbEntity
  8
TEXT
100
AcDbText
 10
1860.0
 20
-2370.0
 30
0.0
 40
34.0
  1

 11
1860.0
 21
-2370.0
 31
0.0
100
AcDbText
  0
TEXT
  5
151
330
17
100
AcDbEntity
  8
TEXT
100
AcDbText
 10
2480.0
 20
-2370.0
 30
0.0
 40
34.0
  1

 11
2480.0
 21
-2370.0
 31
0.0
100
AcDbText
  0
TEXT
  5
152
330
17
100
AcDbEntity
  8
TEXT
100
AcDbText
 10
3100.0
 20
-2370.0
 30
0.0
 40
34.0
  1
x завальцовка 2 шва
 11
3100.0
 21
-2370.0
 31
0.0
100
AcDbText
  0
TEXT
  5
153
330
17
100
AcDbEntity
  8
TEXT
100
AcDbText
 10
3720.0
 20
-2370.0
 30
0.0
 40
34.0
  1

 11
3720.0
 21
-2370.0
 31
0.0
100
AcDbText
  0
TEXT
  5
154
330
17
100
AcDbEntity
  8
TEXT
100
AcDbText
 10
4340.0
 20
-2370.0
 30
0.0
 40
34.0
  1
4.03
 11
4340.0
 21
-2370.0
 31
0.0
100
AcDbText
  0
TEXT
  5
155
330
17
100
AcDbEntity
  8
TEXT
100
AcDbText
 10
0.0
 20
-2470.0
 30
0.0
 40
34.0
  1
05_box_R
 11
0.0
 21
-2470.0
 31
0.0
100
AcDbText
  0
TEXT
  5
156
330
17
100
AcDbEntity
  8
TEXT
100
AcDbText
 10
620.0
 20
-2470.0
 30
0.0
 40
34.0
  1
380x230x140
 11
620.0
 21
-2470.0
 31
0.0
100
AcDbText
  0
TEXT
  5
157
330
17
100
AcDbEntity
  8
TEXT
100
AcDbText
 10
1240.0
 20
-2470.0
 30
0.0
 40
34.0
  1
1.2
 11
1240.0
 21
-2470.0
 31
0.0
100
AcDbText
  0
TEXT
  5
158
330
17
100
AcDbEntity
  8
TEXT
100
AcDbText
 10
1860.0
 20
-2470.0
 30
0.0
 40
34.0
  1

 11
1860.0
 21
-2470.0
 31
0.0
100
AcDbText
  0
TEXT
  5
159
330
17
100
AcDbEntity
  8
TEXT
100
AcDbText
 10
2480.0
 20
-2470.0
 30
0.0
 40
34.0
  1

 11
2480.0
 21
-2470.0
 31
0.0
100
AcDbText
  0
TEXT
  5
15A
330
17
100
AcDbEntity
  8
TEXT
100
AcDbText
 10
3100.0
 20
-2470.0
 30
0.0
 40
34.0
  1
x завальцовка 2 шва
 11
3100.0
 21
-2470.0
 31
0.0
100
AcDbText
  0
TEXT
  5
15B
330
17
100
AcDbEntity
  8
TEXT
100
AcDbText
 10
3720.0
 20
-2470.0
 30
0.0
 40
34.0
  1

 11
3720.0
 21
-2470.0
 31
0.0
100
AcDbText
  0
TEXT
  5
15C
330
17
100
AcDbEntity
  8
TEXT
100
AcDbText
 10
4340.0
 20
-2470.0
 30
0.0
 40
34.0
  1
4.03
 11
4340.0
 21
-2470.0
 31
0.0
100
AcDbText
  0
TEXT
  5
15D
330
17
100
AcDbEntity
  8
TEXT
100
AcDbText
 10
0.0
 20
-2570.0
 30
0.0
 40
34.0
  1
06_tail_L
 11
0.0
 21
-2570.0
 31
0.0
100
AcDbText
  0
TEXT
  5
15E
330
17
100
AcDbEntity
  8
TEXT
100
AcDbText
 10
620.0
 20
-2570.0
 30
0.0
 40
34.0
  1
51.0
 11
620.0
 21
-2570.0
 31
0.0
100
AcDbText
  0
TEXT
  5
15F
330
17
100
AcDbEntity
  8
TEXT
100
AcDbText
 10
1240.0
 20
-2570.0
 30
0.0
 40
34.0
  1
1.5
 11
1240.0
 21
-2570.0
 31
0.0
100
AcDbText
  0
TEXT
  5
160
330
17
100
AcDbEntity
  8
TEXT
100
AcDbText
 10
1860.0
 20
-2570.0
 30
0.0
 40
34.0
  1
193.1
 11
1860.0
 21
-2570.0
 31
0.0
100
AcDbText
  0
TEXT
  5
161
330
17
100
AcDbEntity
  8
TEXT
100
AcDbText
 10
2480.0
 20
-2570.0
 30
0.0
 40
34.0
  1
60; 107
 11
2480.0
 21
-2570.0
 31
0.0
100
AcDbText
  0
TEXT
  5
162
330
17
100
AcDbEntity
  8
TEXT
100
AcDbText
 10
3100.0
 20
-2570.0
 30
0.0
 40
34.0
  1
1x 22.5Y
 11
3100.0
 21
-2570.0
 31
0.0
100
AcDbText
  0
TEXT
  5
163
330
17
100
AcDbEntity
  8
TEXT
100
AcDbText
 10
3720.0
 20
-2570.0
 30
0.0
 40
34.0
  1
66.3
 11
3720.0
 21
-2570.0
 31
0.0
100
AcDbText
  0
TEXT
  5
164
330
17
100
AcDbEntity
  8
TEXT
100
AcDbText
 10
4340.0
 20
-2570.0
 30
0.0
 40
34.0
  1
0.36
 11
4340.0
 21
-2570.0
 31
0.0
100
AcDbText
  0
TEXT
  5
165
330
17
100
AcDbEntity
  8
TEXT
100
AcDbText
 10
0.0
 20
-2670.0
 30
0.0
 40
34.0
  1
06_tail_R
 11
0.0
 21
-2670.0
 31
0.0
100
AcDbText
  0
TEXT
  5
166
330
17
100
AcDbEntity
  8
TEXT
100
AcDbText
 10
620.0
 20
-2670.0
 30
0.0
 40
34.0
  1
51.0
 11
620.0
 21
-2670.0
 31
0.0
100
AcDbText
  0
TEXT
  5
167
330
17
100
AcDbEntity
  8
TEXT
100
AcDbText
 10
1240.0
 20
-2670.0
 30
0.0
 40
34.0
  1
1.5
 11
1240.0
 21
-2670.0
 31
0.0
100
AcDbText
  0
TEXT
  5
168
330
17
100
AcDbEntity
  8
TEXT
100
AcDbText
 10
1860.0
 20
-2670.0
 30
0.0
 40
34.0
  1
193.1
 11
1860.0
 21
-2670.0
 31
0.0
100
AcDbText
  0
TEXT
  5
169
330
17
100
AcDbEntity
  8
TEXT
100
AcDbText
 10
2480.0
 20
-2670.0
 30
0.0
 40
34.0
  1
60; 107
 11
2480.0
 21
-2670.0
 31
0.0
100
AcDbText
  0
TEXT
  5
16A
330
17
100
AcDbEntity
  8
TEXT
100
AcDbText
 10
3100.0
 20
-2670.0
 30
0.0
 40
34.0
  1
1x 22.5Y
 11
3100.0
 21
-2670.0
 31
0.0
100
AcDbText
  0
TEXT
  5
16B
330
17
100
AcDbEntity
  8
TEXT
100
AcDbText
 10
3720.0
 20
-2670.0
 30
0.0
 40
34.0
  1
66.3
 11
3720.0
 21
-2670.0
 31
0.0
100
AcDbText
  0
TEXT
  5
16C
330
17
100
AcDbEntity
  8
TEXT
100
AcDbText
 10
4340.0
 20
-2670.0
 30
0.0
 40
34.0
  1
0.36
 11
4340.0
 21
-2670.0
 31
0.0
100
AcDbText
  0
TEXT
  5
16D
330
17
100
AcDbEntity
  8
TEXT
100
AcDbText
 10
0.0
 20
-2770.0
 30
0.0
 40
34.0
  1
07_tip_L
 11
0.0
 21
-2770.0
 31
0.0
100
AcDbText
  0
TEXT
  5
16E
330
17
100
AcDbEntity
  8
TEXT
100
AcDbText
 10
620.0
 20
-2770.0
 30
0.0
 40
34.0
  1
89.0
 11
620.0
 21
-2770.0
 31
0.0
100
AcDbText
  0
TEXT
  5
16F
330
17
100
AcDbEntity
  8
TEXT
100
AcDbText
 10
1240.0
 20
-2770.0
 30
0.0
 40
34.0
  1
1.0
 11
1240.0
 21
-2770.0
 31
0.0
100
AcDbText
  0
TEXT
  5
170
330
17
100
AcDbEntity
  8
TEXT
100
AcDbText
 10
1860.0
 20
-2770.0
 30
0.0
 40
34.0
  1
190.0
 11
1860.0
 21
-2770.0
 31
0.0
100
AcDbText
  0
TEXT
  5
171
330
17
100
AcDbEntity
  8
TEXT
100
AcDbText
 10
2480.0
 20
-2770.0
 30
0.0
 40
34.0
  1
190
 11
2480.0
 21
-2770.0
 31
0.0
100
AcDbText
  0
TEXT
  5
172
330
17
100
AcDbEntity
  8
TEXT
100
AcDbText
 10
3100.0
 20
-2770.0
 30
0.0
 40
34.0
  1
0x 
 11
3100.0
 21
-2770.0
 31
0.0
100
AcDbText
  0
TEXT
  5
173
330
17
100
AcDbEntity
  8
TEXT
100
AcDbText
 10
3720.0
 20
-2770.0
 30
0.0
 40
34.0
  1

 11
3720.0
 21
-2770.0
 31
0.0
100
AcDbText
  0
TEXT
  5
174
330
17
100
AcDbEntity
  8
TEXT
100
AcDbText
 10
4340.0
 20
-2770.0
 30
0.0
 40
34.0
  1
0.42
 11
4340.0
 21
-2770.0
 31
0.0
100
AcDbText
  0
TEXT
  5
175
330
17
100
AcDbEntity
  8
TEXT
100
AcDbText
 10
0.0
 20
-2870.0
 30
0.0
 40
34.0
  1
07_tip_R
 11
0.0
 21
-2870.0
 31
0.0
100
AcDbText
  0
TEXT
  5
176
330
17
100
AcDbEntity
  8
TEXT
100
AcDbText
 10
620.0
 20
-2870.0
 30
0.0
 40
34.0
  1
89.0
 11
620.0
 21
-2870.0
 31
0.0
100
AcDbText
  0
TEXT
  5
177
330
17
100
AcDbEntity
  8
TEXT
100
AcDbText
 10
1240.0
 20
-2870.0
 30
0.0
 40
34.0
  1
1.0
 11
1240.0
 21
-2870.0
 31
0.0
100
AcDbText
  0
TEXT
  5
178
330
17
100
AcDbEntity
  8
TEXT
100
AcDbText
 10
1860.0
 20
-2870.0
 30
0.0
 40
34.0
  1
190.0
 11
1860.0
 21
-2870.0
 31
0.0
100
AcDbText
  0
TEXT
  5
179
330
17
100
AcDbEntity
  8
TEXT
100
AcDbText
 10
2480.0
 20
-2870.0
 30
0.0
 40
34.0
  1
190
 11
2480.0
 21
-2870.0
 31
0.0
100
AcDbText
  0
TEXT
  5
17A
330
17
100
AcDbEntity
  8
TEXT
100
AcDbText
 10
3100.0
 20
-2870.0
 30
0.0
 40
34.0
  1
0x 
 11
3100.0
 21
-2870.0
 31
0.0
100
AcDbText
  0
TEXT
  5
17B
330
17
100
AcDbEntity
  8
TEXT
100
AcDbText
 10
3720.0
 20
-2870.0
 30
0.0
 40
34.0
  1

 11
3720.0
 21
-2870.0
 31
0.0
100
AcDbText
  0
TEXT
  5
17C
330
17
100
AcDbEntity
  8
TEXT
100
AcDbText
 10
4340.0
 20
-2870.0
 30
0.0
 40
34.0
  1
0.42
 11
4340.0
 21
-2870.0
 31
0.0
100
AcDbText
  0
ENDSEC
  0
SECTION
  2
OBJECTS
  0
DICTIONARY
  5
A
330
0
100
AcDbDictionary
281
1
  3
ACAD_COLOR
350
B
  3
ACAD_GROUP
350
C
  3
ACAD_LAYOUT
350
D
  3
ACAD_MATERIAL
350
E
  3
ACAD_MLEADERSTYLE
350
F
  3
ACAD_MLINESTYLE
350
10
  3
ACAD_PLOTSETTINGS
350
11
  3
ACAD_PLOTSTYLENAME
350
12
  3
ACAD_SCALELIST
350
14
  3
ACAD_TABLESTYLE
350
15
  3
ACAD_VISUALSTYLE
350
16
  3
EZDXF_META
350
2D
  0
DICTIONARY
  5
B
330
A
100
AcDbDictionary
281
1
  0
DICTIONARY
  5
C
330
A
100
AcDbDictionary
281
1
  0
DICTIONARY
  5
D
330
A
100
AcDbDictionary
281
1
  3
Model
350
1A
  3
Layout1
350
1E
  0
DICTIONARY
  5
E
330
A
100
AcDbDictionary
281
1
  3
ByBlock
350
1F
  3
ByLayer
350
20
  3
Global
350
21
  0
DICTIONARY
  5
F
330
A
100
AcDbDictionary
281
1
  3
Standard
350
2C
  0
DICTIONARY
  5
10
330
A
100
AcDbDictionary
281
1
  3
Standard
350
22
  0
DICTIONARY
  5
11
330
A
100
AcDbDictionary
281
1
  0
ACDBDICTIONARYWDFLT
  5
12
330
A
100
AcDbDictionary
281
1
  3
Normal
350
13
100
AcDbDictionaryWithDefault
340
13
  0
ACDBPLACEHOLDER
  5
13
330
12
  0
DICTIONARY
  5
14
330
A
100
AcDbDictionary
281
1
  0
DICTIONARY
  5
15
330
A
100
AcDbDictionary
281
1
  0
DICTIONARY
  5
16
330
A
100
AcDbDictionary
281
1
  3
2dWireframe
350
5A
  3
Basic
350
5B
  3
Brighten
350
5C
  3
ColorChange
350
5D
  3
Conceptual
350
5E
  3
Dim
350
5F
  3
EdgeColorOff
350
60
  3
Facepattern
350
61
  3
Flat
350
62
  3
FlatWithEdges
350
63
  3
Gouraud
350
64
  3
GouraudWithEdges
350
65
  3
Hidden
350
66
  3
JitterOff
350
67
  3
Linepattern
350
68
  3
Modeling
350
69
  3
OverhangOff
350
6A
  3
Realistic
350
6B
  3
Shaded
350
6C
  3
Shaded with edges
350
6D
  3
Shades of Gray
350
6E
  3
Sketchy
350
6F
  3
Thicken
350
70
  3
Wireframe
350
71
  3
X-Ray
350
72
  0
LAYOUT
  5
1A
330
D
100
AcDbPlotSettings
  1

  4
A3
  6

 40
7.5
 41
20.0
 42
7.5
 43
20.0
 44
420.0
 45
297.0
 46
0.0
 47
0.0
 48
0.0
 49
0.0
140
0.0
141
0.0
142
1.0
143
1.0
 70
1024
 72
1
 73
0
 74
5
  7

 75
16
 76
0
 77
2
 78
300
147
1.0
148
0.0
149
0.0
100
AcDbLayout
  1
Model
 70
1
 71
0
 10
0.0
 20
0.0
 11
420.0
 21
297.0
 12
0.0
 22
0.0
 32
0.0
 14
1e+20
 24
1e+20
 34
1e+20
 15
-1e+20
 25
-1e+20
 35
-1e+20
146
0.0
 13
0.0
 23
0.0
 33
0.0
 16
1.0
 26
0.0
 36
0.0
 17
0.0
 27
1.0
 37
0.0
 76
1
330
17
  0
LAYOUT
  5
1E
330
D
100
AcDbPlotSettings
  1

  4
A3
  6

 40
7.5
 41
20.0
 42
7.5
 43
20.0
 44
420.0
 45
297.0
 46
0.0
 47
0.0
 48
0.0
 49
0.0
140
0.0
141
0.0
142
1.0
143
1.0
 70
0
 72
1
 73
0
 74
5
  7

 75
16
 76
0
 77
2
 78
300
147
1.0
148
0.0
149
0.0
100
AcDbLayout
  1
Layout1
 70
1
 71
1
 10
0.0
 20
0.0
 11
420.0
 21
297.0
 12
0.0
 22
0.0
 32
0.0
 14
1e+20
 24
1e+20
 34
1e+20
 15
-1e+20
 25
-1e+20
 35
-1e+20
146
0.0
 13
0.0
 23
0.0
 33
0.0
 16
1.0
 26
0.0
 36
0.0
 17
0.0
 27
1.0
 37
0.0
 76
1
330
1B
  0
MATERIAL
  5
1F
102
{ACAD_REACTORS
330
E
102
}
330
E
100
AcDbMaterial
  1
ByBlock
  2

 70
0
 40
1.0
 71
1
 41
1.0
 91
-1023410177
 42
1.0
 72
1
  3

 73
1
 74
1
 75
1
 44
0.5
 73
0
 45
1.0
 46
1.0
 77
1
  4

 78
1
 79
1
170
1
 48
1.0
171
1
  6

172
1
173
1
174
1
140
1.0
141
1.0
175
1
  7

176
1
177
1
178
1
143
1.0
179
1
  8

270
1
271
1
272
1
145
1.0
146
1.0
273
1
  9

274
1
275
1
276
1
 42
1.0
 72
1
  3

 73
1
 74
1
 75
1
 94
63
  0
MATERIAL
  5
20
102
{ACAD_REACTORS
330
E
102
}
330
E
100
AcDbMaterial
  1
ByLayer
  2

 70
0
 40
1.0
 71
1
 41
1.0
 91
-1023410177
 42
1.0
 72
1
  3

 73
1
 74
1
 75
1
 44
0.5
 73
0
 45
1.0
 46
1.0
 77
1
  4

 78
1
 79
1
170
1
 48
1.0
171
1
  6

172
1
173
1
174
1
140
1.0
141
1.0
175
1
  7

176
1
177
1
178
1
143
1.0
179
1
  8

270
1
271
1
272
1
145
1.0
146
1.0
273
1
  9

274
1
275
1
276
1
 42
1.0
 72
1
  3

 73
1
 74
1
 75
1
 94
63
  0
MATERIAL
  5
21
102
{ACAD_REACTORS
330
E
102
}
330
E
100
AcDbMaterial
  1
Global
  2

 70
0
 40
1.0
 71
1
 41
1.0
 91
-1023410177
 42
1.0
 72
1
  3

 73
1
 74
1
 75
1
 44
0.5
 73
0
 45
1.0
 46
1.0
 77
1
  4

 78
1
 79
1
170
1
 48
1.0
171
1
  6

172
1
173
1
174
1
140
1.0
141
1.0
175
1
  7

176
1
177
1
178
1
143
1.0
179
1
  8

270
1
271
1
272
1
145
1.0
146
1.0
273
1
  9

274
1
275
1
276
1
 42
1.0
 72
1
  3

 73
1
 74
1
 75
1
 94
63
  0
MLINESTYLE
  5
22
102
{ACAD_REACTORS
330
10
102
}
330
10
100
AcDbMlineStyle
  2
Standard
 70
0
  3

 62
256
 51
90.0
 52
90.0
 71
2
 49
0.5
 62
256
  6
BYLAYER
 49
-0.5
 62
256
  6
BYLAYER
  0
MLEADERSTYLE
  5
2C
102
{ACAD_REACTORS
330
F
102
}
330
F
100
AcDbMLeaderStyle
179
2
170
2
171
1
172
0
 90
2
 40
0.0
 41
0.0
173
1
 91
-1056964608
 92
-2
290
1
 42
2.0
291
1
 43
8.0
  3
Standard
 44
4.0
300

342
29
174
1
175
1
176
0
178
1
 93
-1056964608
 45
4.0
292
0
297
0
 46
4.0
 94
-1056964608
 47
1.0
 49
1.0
140
1.0
294
1
141
0.0
177
0
142
1.0
295
0
296
0
143
3.75
271
0
272
9
273
9
  0
DICTIONARY
  5
2D
330
A
100
AcDbDictionary
280
1
281
1
  3
CREATED_BY_EZDXF
350
2E
  3
WRITTEN_BY_EZDXF
350
17F
  0
DICTIONARYVAR
  5
2E
330
2D
100
DictionaryVariables
280
0
  1
1.4.4 @ 2026-10-07T11:25:44.250643+00:00
  0
VISUALSTYLE
  5
5A
102
{ACAD_REACTORS
330
16
102
}
330
16
100
AcDbVisualStyle
  2
2dWireframe
 70
4
 90
0
 40
0.6
 62
7
290
0
291
0
  0
VISUALSTYLE
  5
5B
102
{ACAD_REACTORS
330
16
102
}
330
16
100
AcDbVisualStyle
  2
Basic
 70
7
 90
1
 40
0.6
 62
7
290
0
291
1
  0
VISUALSTYLE
  5
5C
102
{ACAD_REACTORS
330
16
102
}
330
16
100
AcDbVisualStyle
  2
Brighten
 70
12
 90
2
 40
0.6
 62
7
290
0
291
1
  0
VISUALSTYLE
  5
5D
102
{ACAD_REACTORS
330
16
102
}
330
16
100
AcDbVisualStyle
  2
ColorChange
 70
16
 90
2
 40
0.6
 62
8
290
0
291
1
  0
VISUALSTYLE
  5
5E
102
{ACAD_REACTORS
330
16
102
}
330
16
100
AcDbVisualStyle
  2
Conceptual
 70
9
 90
3
 40
0.6
 62
7
290
0
291
0
  0
VISUALSTYLE
  5
5F
102
{ACAD_REACTORS
330
16
102
}
330
16
100
AcDbVisualStyle
  2
Dim
 70
11
 90
2
 40
0.6
 62
7
290
0
291
1
  0
VISUALSTYLE
  5
60
102
{ACAD_REACTORS
330
16
102
}
330
16
100
AcDbVisualStyle
  2
EdgeColorOff
 70
22
 90
2
 40
0.6
 62
7
290
0
291
1
  0
VISUALSTYLE
  5
61
102
{ACAD_REACTORS
330
16
102
}
330
16
100
AcDbVisualStyle
  2
Facepattern
 70
15
 90
2
 40
0.6
 62
7
290
0
291
1
  0
VISUALSTYLE
  5
62
102
{ACAD_REACTORS
330
16
102
}
330
16
100
AcDbVisualStyle
  2
Flat
 70
0
 90
2
 40
0.6
 62
7
290
0
291
1
  0
VISUALSTYLE
  5
63
102
{ACAD_REACTORS
330
16
102
}
330
16
100
AcDbVisualStyle
  2
FlatWithEdges
 70
1
 90
2
 40
0.6
 62
7
290
0
291
1
  0
VISUALSTYLE
  5
64
102
{ACAD_REACTORS
330
16
102
}
330
16
100
AcDbVisualStyle
  2
Gouraud
 70
2
 90
2
 40
0.6
 62
7
290
0
291
1
  0
VISUALSTYLE
  5
65
102
{ACAD_REACTORS
330
16
102
}
330
16
100
AcDbVisualStyle
  2
GouraudWithEdges
 70
3
 90
2
 40
0.6
 62
7
290
0
291
1
  0
VISUALSTYLE
  5
66
102
{ACAD_REACTORS
330
16
102
}
330
16
100
AcDbVisualStyle
  2
Hidden
 70
6
 90
1
 40
0.6
 62
7
290
0
291
0
  0
VISUALSTYLE
  5
67
102
{ACAD_REACTORS
330
16
102
}
330
16
100
AcDbVisualStyle
  2
JitterOff
 70
20
 90
2
 40
0.6
 62
7
290
0
291
1
  0
VISUALSTYLE
  5
68
102
{ACAD_REACTORS
330
16
102
}
330
16
100
AcDbVisualStyle
  2
Linepattern
 70
14
 90
2
 40
0.6
 62
7
290
0
291
1
  0
VISUALSTYLE
  5
69
102
{ACAD_REACTORS
330
16
102
}
330
16
100
AcDbVisualStyle
  2
Modeling
 70
10
 90
2
 40
0.6
 62
7
290
0
291
0
  0
VISUALSTYLE
  5
6A
102
{ACAD_REACTORS
330
16
102
}
330
16
100
AcDbVisualStyle
  2
OverhangOff
 70
21
 90
2
 40
0.6
 62
7
290
0
291
1
  0
VISUALSTYLE
  5
6B
102
{ACAD_REACTORS
330
16
102
}
330
16
100
AcDbVisualStyle
  2
Realistic
 70
8
 90
2
 40
0.6
 62
7
290
0
291
0
  0
VISUALSTYLE
  5
6C
102
{ACAD_REACTORS
330
16
102
}
330
16
100
AcDbVisualStyle
  2
Shaded
 70
27
 90
2
 40
0.6
 62
7
290
0
291
0
  0
VISUALSTYLE
  5
6D
102
{ACAD_REACTORS
330
16
102
}
330
16
100
AcDbVisualStyle
  2
Shaded with edges
 70
26
 90
2
 40
0.6
 62
7
290
0
291
0
  0
VISUALSTYLE
  5
6E
102
{ACAD_REACTORS
330
16
102
}
330
16
100
AcDbVisualStyle
  2
Shades of Gray
 70
23
 90
2
 40
0.6
 62
7
290
0
291
0
  0
VISUALSTYLE
  5
6F
102
{ACAD_REACTORS
330
16
102
}
330
16
100
AcDbVisualStyle
  2
Sketchy
 70
24
 90
1
 40
0.6
 62
7
290
0
291
0
  0
VISUALSTYLE
  5
70
102
{ACAD_REACTORS
330
16
102
}
330
16
100
AcDbVisualStyle
  2
Thicken
 70
13
 90
2
 40
0.6
 62
7
290
0
291
1
  0
VISUALSTYLE
  5
71
102
{ACAD_REACTORS
330
16
102
}
330
16
100
AcDbVisualStyle
  2
Wireframe
 70
5
 90
0
 40
0.6
 62
7
290
0
291
0
  0
VISUALSTYLE
  5
72
102
{ACAD_REACTORS
330
16
102
}
330
16
100
AcDbVisualStyle
  2
X-Ray
 70
25
 90
2
 40
0.5
 62
7
290
0
291
0
  0
DICTIONARYVAR
  5
17F
330
2D
100
DictionaryVariables
280
0
  1
1.4.4 @ 2026-10-07T11:25:44.266712+00:00
  0
ENDSEC
  0
EOF
