  0
SECTION
  2
HEADER
  9
$ACADVER
  1
AC1024
  9
$ACADMAINTVER
 70
6
  9
$DWGCODEPAGE
  3
ANSI_1252
  9
$LASTSAVEDBY
  1
ezdxf
  9
$INSBASE
 10
0.0
 20
0.0
 30
0.0
  9
$EXTMIN
 10
1e+20
 20
1e+20
 30
1e+20
  9
$EXTMAX
 10
-1e+20
 20
-1e+20
 30
-1e+20
  9
$LIMMIN
 10
0.0
 20
0.0
  9
$LIMMAX
 10
420.0
 20
297.0
  9
$ORTHOMODE
 70
0
  9
$REGENMODE
 70
1
  9
$FILLMODE
 70
1
  9
$QTEXTMODE
 70
0
  9
$MIRRTEXT
 70
1
  9
$LTSCALE
 40
1.0
  9
$ATTMODE
 70
1
  9
$TEXTSIZE
 40
2.5
  9
$TRACEWID
 40
1.0
  9
$TEXTSTYLE
  7
OpenSans
  9
$CLAYER
  8
0
  9
$CELTYPE
  6
ByLayer
  9
$CECOLOR
 62
256
  9
$CELTSCALE
 40
1.0
  9
$DISPSILH
 70
0
  9
$DIMSCALE
 40
1.0
  9
$DIMASZ
 40
0.175
  9
$DIMEXO
 40
0.125
  9
$DIMDLI
 40
3.75
  9
$DIMRND
 40
0.0
  9
$DIMDLE
 40
0.0
  9
$DIMEXE
 40
0.375
  9
$DIMTP
 40
0.0
  9
$DIMTM
 40
0.0
  9
$DIMTXT
 40
0.25
  9
$DIMCEN
 40
2.5
  9
$DIMTSZ
 40
0.0
  9
$DIMTOL
 70
0
  9
$DIMLIM
 70
0
  9
$DIMTIH
 70
0
  9
$DIMTOH
 70
0
  9
$DIMSE1
 70
0
  9
$DIMSE2
 70
0
  9
$DIMTAD
 70
1
  9
$DIMZIN
 70
12
  9
$DIMBLK
  1
ARCHTICK
  9
$DIMASO
 70
1
  9
$DIMSHO
 70
1
  9
$DIMPOST
  1

  9
$DIMAPOST
  1

  9
$DIMALT
 70
0
  9
$DIMALTD
 70
3
  9
$DIMALTF
 40
0.03937007874
  9
$DIMLFAC
 40
100.0
  9
$DIMTOFL
 70
1
  9
$DIMTVP
 40
0.0
  9
$DIMTIX
 70
0
  9
$DIMSOXD
 70
0
  9
$DIMSAH
 70
0
  9
$DIMBLK1
  1

  9
$DIMBLK2
  1

  9
$DIMSTYLE
  2
EZDXF
  9
$DIMCLRD
 70
0
  9
$DIMCLRE
 70
0
  9
$DIMCLRT
 70
0
  9
$DIMTFAC
 40
0.5
  9
$DIMGAP
 40
0.1
  9
$DIMJUST
 70
0
  9
$DIMSD1
 70
0
  9
$DIMSD2
 70
0
  9
$DIMTOLJ
 70
0
  9
$DIMTZIN
 70
8
  9
$DIMALTZ
 70
0
  9
$DIMALTTZ
 70
0
  9
$DIMUPT
 70
1
  9
$DIMDEC
 70
2
  9
$DIMTDEC
 70
2
  9
$DIMALTU
 70
2
  9
$DIMALTTD
 70
3
  9
$DIMTXSTY
  7
OpenSansCondensed-Light
  9
$DIMAUNIT
 70
0
  9
$DIMADEC
 70
2
  9
$DIMALTRND
 40
0.0
  9
$DIMAZIN
 70
3
  9
$DIMDSEP
 70
46
  9
$DIMATFIT
 70
3
  9
$DIMFRAC
 70
0
  9
$DIMLDRBLK
  1

  9
$DIMLUNIT
 70
2
  9
$DIMLWD
 70
-2
  9
$DIMLWE
 70
-2
  9
$DIMTMOVE
 70
2
  9
$DIMFXL
 40
1.0
  9
$DIMFXLON
 70
0
  9
$DIMJOGANG
 40
0.785398163397
  9
$DIMTFILL
 70
0
  9
$DIMTFILLCLR
 70
0
  9
$DIMARCSYM
 70
0
  9
$DIMLTYPE
  6

  9
$DIMLTEX1
  6

  9
$DIMLTEX2
  6

  9
$DIMTXTDIRECTION
 70
0
  9
$LUNITS
 70
2
  9
$LUPREC
 70
4
  9
$SKETCHINC
 40
1.0
  9
$FILLETRAD
 40
10.0
  9
$AUNITS
 70
0
  9
$AUPREC
 70
2
  9
$MENU
  1
.
  9
$ELEVATION
 40
0.0
  9
$PELEVATION
 40
0.0
  9
$THICKNESS
 40
0.0
  9
$LIMCHECK
 70
0
  9
$CHAMFERA
 40
0.0
  9
$CHAMFERB
 40
0.0
  9
$CHAMFERC
 40
0.0
  9
$CHAMFERD
 40
0.0
  9
$SKPOLY
 70
0
  9
$TDCREATE
 40
2461321.4761458333
  9
$TDUCREATE
 40
2458532.153996898
  9
$TDUPDATE
 40
2461321.4761458333
  9
$TDUUPDATE
 40
2458532.1544311
  9
$TDINDWG
 40
0.0
  9
$TDUSRTIMER
 40
0.0
  9
$USRTIMER
 70
1
  9
$ANGBASE
 50
0.0
  9
$ANGDIR
 70
0
  9
$PDMODE
 70
0
  9
$PDSIZE
 40
0.0
  9
$PLINEWID
 40
0.0
  9
$SPLFRAME
 70
0
  9
$SPLINETYPE
 70
6
  9
$SPLINESEGS
 70
8
  9
$HANDSEED
  5
18E
  9
$SURFTAB1
 70
6
  9
$SURFTAB2
 70
6
  9
$SURFTYPE
 70
6
  9
$SURFU
 70
6
  9
$SURFV
 70
6
  9
$UCSBASE
  2

  9
$UCSNAME
  2

  9
$UCSORG
 10
0.0
 20
0.0
 30
0.0
  9
$UCSXDIR
 10
1.0
 20
0.0
 30
0.0
  9
$UCSYDIR
 10
0.0
 20
1.0
 30
0.0
  9
$UCSORTHOREF
  2

  9
$UCSORTHOVIEW
 70
0
  9
$UCSORGTOP
 10
0.0
 20
0.0
 30
0.0
  9
$UCSORGBOTTOM
 10
0.0
 20
0.0
 30
0.0
  9
$UCSORGLEFT
 10
0.0
 20
0.0
 30
0.0
  9
$UCSORGRIGHT
 10
0.0
 20
0.0
 30
0.0
  9
$UCSORGFRONT
 10
0.0
 20
0.0
 30
0.0
  9
$UCSORGBACK
 10
0.0
 20
0.0
 30
0.0
  9
$PUCSBASE
  2

  9
$PUCSNAME
  2

  9
$PUCSORG
 10
0.0
 20
0.0
 30
0.0
  9
$PUCSXDIR
 10
1.0
 20
0.0
 30
0.0
  9
$PUCSYDIR
 10
0.0
 20
1.0
 30
0.0
  9
$PUCSORTHOREF
  2

  9
$PUCSORTHOVIEW
 70
0
  9
$PUCSORGTOP
 10
0.0
 20
0.0
 30
0.0
  9
$PUCSORGBOTTOM
 10
0.0
 20
0.0
 30
0.0
  9
$PUCSORGLEFT
 10
0.0
 20
0.0
 30
0.0
  9
$PUCSORGRIGHT
 10
0.0
 20
0.0
 30
0.0
  9
$PUCSORGFRONT
 10
0.0
 20
0.0
 30
0.0
  9
$PUCSORGBACK
 10
0.0
 20
0.0
 30
0.0
  9
$USERI1
 70
0
  9
$USERI2
 70
0
  9
$USERI3
 70
0
  9
$USERI4
 70
0
  9
$USERI5
 70
0
  9
$USERR1
 40
0.0
  9
$USERR2
 40
0.0
  9
$USERR3
 40
0.0
  9
$USERR4
 40
0.0
  9
$USERR5
 40
0.0
  9
$WORLDVIEW
 70
1
  9
$SHADEDGE
 70
3
  9
$SHADEDIF
 70
70
  9
$TILEMODE
 70
1
  9
$MAXACTVP
 70
64
  9
$PINSBASE
 10
0.0
 20
0.0
 30
0.0
  9
$PLIMCHECK
 70
0
  9
$PEXTMIN
 10
1e+20
 20
1e+20
 30
1e+20
  9
$PEXTMAX
 10
-1e+20
 20
-1e+20
 30
-1e+20
  9
$PLIMMIN
 10
0.0
 20
0.0
  9
$PLIMMAX
 10
420.0
 20
297.0
  9
$UNITMODE
 70
0
  9
$VISRETAIN
 70
1
  9
$PLINEGEN
 70
0
  9
$PSLTSCALE
 70
1
  9
$TREEDEPTH
 70
3020
  9
$CMLSTYLE
  2
Standard
  9
$CMLJUST
 70
0
  9
$CMLSCALE
 40
20.0
  9
$PROXYGRAPHICS
 70
1
  9
$MEASUREMENT
 70
1
  9
$CELWEIGHT
370
-1
  9
$ENDCAPS
280
0
  9
$JOINSTYLE
280
0
  9
$LWDISPLAY
290
0
  9
$INSUNITS
 70
4
  9
$HYPERLINKBASE
  1

  9
$STYLESHEET
  1

  9
$XEDIT
290
1
  9
$CEPSNTYPE
380
0
  9
$PSTYLEMODE
290
1
  9
$FINGERPRINTGUID
  2
{53317178-8743-4C19-B50C-C7EDF9038218}
  9
$VERSIONGUID
  2
{B762B1D4-B01B-44AA-B268-EBFC35513B31}
  9
$EXTNAMES
290
1
  9
$PSVPSCALE
 40
0.0
  9
$OLESTARTUP
290
0
  9
$SORTENTS
280
127
  9
$INDEXCTL
280
0
  9
$HIDETEXT
280
1
  9
$XCLIPFRAME
280
1
  9
$HALOGAP
280
0
  9
$OBSCOLOR
 70
257
  9
$OBSLTYPE
280
0
  9
$INTERSECTIONDISPLAY
280
0
  9
$INTERSECTIONCOLOR
 70
257
  9
$DIMASSOC
280
2
  9
$PROJECTNAME
  1

  9
$CAMERADISPLAY
290
0
  9
$LENSLENGTH
 40
50.0
  9
$CAMERAHEIGHT
 40
0.0
  9
$STEPSPERSEC
 40
24.0
  9
$STEPSIZE
 40
100.0
  9
$3DDWFPREC
 40
2.0
  9
$PSOLWIDTH
 40
0.005
  9
$PSOLHEIGHT
 40
0.08
  9
$LOFTANG1
 40
1.570796326795
  9
$LOFTANG2
 40
1.570796326795
  9
$LOFTMAG1
 40
0.0
  9
$LOFTMAG2
 40
0.0
  9
$LOFTPARAM
 70
7
  9
$LOFTNORMALS
280
1
  9
$LATITUDE
 40
37.795
  9
$LONGITUDE
 40
-122.394
  9
$NORTHDIRECTION
 40
0.0
  9
$TIMEZONE
 70
-8000
  9
$LIGHTGLYPHDISPLAY
280
1
  9
$TILEMODELIGHTSYNCH
280
1
  9
$CMATERIAL
347
20
  9
$SOLIDHIST
280
0
  9
$SHOWHIST
280
1
  9
$DWFFRAME
280
2
  9
$DGNFRAME
280
2
  9
$REALWORLDSCALE
290
1
  9
$INTERFERECOLOR
 62
256
  9
$CSHADOW
280
0
  9
$SHADOWPLANELOCATION
 40
0.0
  0
ENDSEC
  0
SECTION
  2
CLASSES
  0
CLASS
  1
ACDBDICTIONARYWDFLT
  2
AcDbDictionaryWithDefault
  3
ObjectDBX Classes
 90
0
 91
0
280
0
281
0
  0
CLASS
  1
SUN
  2
AcDbSun
  3
SCENEOE
 90
1153
 91
0
280
0
281
0
  0
CLASS
  1
VISUALSTYLE
  2
AcDbVisualStyle
  3
ObjectDBX Classes
 90
4095
 91
0
280
0
281
0
  0
CLASS
  1
MATERIAL
  2
AcDbMaterial
  3
ObjectDBX Classes
 90
1153
 91
0
280
0
281
0
  0
CLASS
  1
SCALE
  2
AcDbScale
  3
ObjectDBX Classes
 90
1153
 91
0
280
0
281
0
  0
CLASS
  1
TABLESTYLE
  2
AcDbTableStyle
  3
ObjectDBX Classes
 90
4095
 91
0
280
0
281
0
  0
CLASS
  1
MLEADERSTYLE
  2
AcDbMLeaderStyle
  3
ACDB_MLEADERSTYLE_CLASS
 90
4095
 91
0
280
0
281
0
  0
CLASS
  1
DICTIONARYVAR
  2
AcDbDictionaryVar
  3
ObjectDBX Classes
 90
0
 91
0
280
0
281
0
  0
CLASS
  1
CELLSTYLEMAP
  2
AcDbCellStyleMap
  3
ObjectDBX Classes
 90
1152
 91
0
280
0
281
0
  0
CLASS
  1
MENTALRAYRENDERSETTINGS
  2
AcDbMentalRayRenderSettings
  3
SCENEOE
 90
1024
 91
0
280
0
281
0
  0
CLASS
  1
ACDBDETAILVIEWSTYLE
  2
AcDbDetailViewStyle
  3
ObjectDBX Classes
 90
1025
 91
0
280
0
281
0
  0
CLASS
  1
ACDBSECTIONVIEWSTYLE
  2
AcDbSectionViewStyle
  3
ObjectDBX Classes
 90
1025
 91
0
280
0
281
0
  0
CLASS
  1
RASTERVARIABLES
  2
AcDbRasterVariables
  3
ISM
 90
0
 91
0
280
0
281
0
  0
CLASS
  1
ACDBPLACEHOLDER
  2
AcDbPlaceHolder
  3
ObjectDBX Classes
 90
0
 91
0
280
0
281
0
  0
CLASS
  1
LAYOUT
  2
AcDbLayout
  3
ObjectDBX Classes
 90
0
 91
0
280
0
281
0
  0
ENDSEC
  0
SECTION
  2
TABLES
  0
TABLE
  2
VPORT
  5
8
330
0
100
AcDbSymbolTable
 70
1
  0
VPORT
  5
23
330
8
100
AcDbSymbolTableRecord
100
AcDbViewportTableRecord
  2
*Active
 70
0
 10
0.0
 20
0.0
 11
1.0
 21
1.0
 12
0.0
 22
0.0
 13
0.0
 23
0.0
 14
0.5
 24
0.5
 15
0.5
 25
0.5
 16
0.0
 26
0.0
 36
1.0
 17
0.0
 27
0.0
 37
0.0
 40
1000.0
 41
1.34
 42
50.0
 43
0.0
 44
0.0
 50
0.0
 51
0.0
 71
0
 72
1000
 73
1
 74
3
 75
0
 76
0
 77
0
 78
0
281
0
 65
0
146
0.0
  0
ENDTAB
  0
TABLE
  2
LTYPE
  5
2
330
0
100
AcDbSymbolTable
 70
21
  0
LTYPE
  5
24
330
2
100
AcDbSymbolTableRecord
100
AcDbLinetypeTableRecord
  2
ByBlock
 70
0
  3

 72
65
 73
0
 40
0.0
  0
LTYPE
  5
25
330
2
100
AcDbSymbolTableRecord
100
AcDbLinetypeTableRecord
  2
ByLayer
 70
0
  3

 72
65
 73
0
 40
0.0
  0
LTYPE
  5
26
330
2
100
AcDbSymbolTableRecord
100
AcDbLinetypeTableRecord
  2
Continuous
 70
0
  3

 72
65
 73
0
 40
0.0
  0
LTYPE
  5
2F
330
2
100
AcDbSymbolTableRecord
100
AcDbLinetypeTableRecord
  2
CENTER
 70
0
  3
Center ____ _ ____ _ ____ _ ____ _ ____ _ ____
 72
65
 73
4
 40
5.08
 49
3.175
 74
0
 49
-0.635
 74
0
 49
0.635
 74
0
 49
-0.635
 74
0
  0
LTYPE
  5
30
330
2
100
AcDbSymbolTableRecord
100
AcDbLinetypeTableRecord
  2
CENTERX2
 70
0
  3
Center (2x) ________  __  ________  __  ________
 72
65
 73
4
 40
8.89
 49
6.35
 74
0
 49
-0.635
 74
0
 49
1.27
 74
0
 49
-0.635
 74
0
  0
LTYPE
  5
31
330
2
100
AcDbSymbolTableRecord
100
AcDbLinetypeTableRecord
  2
CENTER2
 70
0
  3
Center (.5x) ____ _ ____ _ ____ _ ____ _ ____
 72
65
 73
4
 40
2.54
 49
1.587
 74
0
 49
-0.318
 74
0
 49
0.318
 74
0
 49
-0.318
 74
0
  0
LTYPE
  5
32
330
2
100
AcDbSymbolTableRecord
100
AcDbLinetypeTableRecord
  2
DASHED
 70
0
  3
Dashed __ __ __ __ __ __ __ __ __ __ __ __ __ _
 72
65
 73
2
 40
1.524
 49
1.27
 74
0
 49
-0.254
 74
0
  0
LTYPE
  5
33
330
2
100
AcDbSymbolTableRecord
100
AcDbLinetypeTableRecord
  2
DASHEDX2
 70
0
  3
Dashed (2x) ____  ____  ____  ____  ____  ____
 72
65
 73
2
 40
3.048
 49
2.54
 74
0
 49
-0.508
 74
0
  0
LTYPE
  5
34
330
2
100
AcDbSymbolTableRecord
100
AcDbLinetypeTableRecord
  2
DASHED2
 70
0
  3
Dashed (.5x) _ _ _ _ _ _ _ _ _ _ _ _ _ _
 72
65
 73
2
 40
0.762
 49
0.635
 74
0
 49
-0.127
 74
0
  0
LTYPE
  5
35
330
2
100
AcDbSymbolTableRecord
100
AcDbLinetypeTableRecord
  2
PHANTOM
 70
0
  3
Phantom ______  __  __  ______  __  __  ______
 72
65
 73
6
 40
6.35
 49
3.175
 74
0
 49
-0.635
 74
0
 49
0.635
 74
0
 49
-0.635
 74
0
 49
0.635
 74
0
 49
-0.635
 74
0
  0
LTYPE
  5
36
330
2
100
AcDbSymbolTableRecord
100
AcDbLinetypeTableRecord
  2
PHANTOMX2
 70
0
  3
Phantom (2x)____________    ____    ____    ____________
 72
65
 73
6
 40
10.795
 49
6.35
 74
0
 49
-0.635
 74
0
 49
1.27
 74
0
 49
-0.635
 74
0
 49
1.27
 74
0
 49
-0.635
 74
0
  0
LTYPE
  5
37
330
2
100
AcDbSymbolTableRecord
100
AcDbLinetypeTableRecord
  2
PHANTOM2
 70
0
  3
Phantom (.5x) ___ _ _ ___ _ _ ___ _ _ ___ _ _ ___
 72
65
 73
6
 40
3.175
 49
1.587
 74
0
 49
-0.318
 74
0
 49
0.318
 74
0
 49
-0.318
 74
0
 49
0.318
 74
0
 49
-0.318
 74
0
  0
LTYPE
  5
38
330
2
100
AcDbSymbolTableRecord
100
AcDbLinetypeTableRecord
  2
DASHDOT
 70
0
  3
Dash dot __ . __ . __ . __ . __ . __ . __ . __
 72
65
 73
4
 40
3.556
 49
2.54
 74
0
 49
-0.508
 74
0
 49
0.0
 74
0
 49
-0.508
 74
0
  0
LTYPE
  5
39
330
2
100
AcDbSymbolTableRecord
100
AcDbLinetypeTableRecord
  2
DASHDOTX2
 70
0
  3
Dash dot (2x) ____  .  ____  .  ____  .  ____
 72
65
 73
4
 40
6.096
 49
5.08
 74
0
 49
-0.508
 74
0
 49
0.0
 74
0
 49
-0.508
 74
0
  0
LTYPE
  5
3A
330
2
100
AcDbSymbolTableRecord
100
AcDbLinetypeTableRecord
  2
DASHDOT2
 70
0
  3
Dash dot (.5x) _ . _ . _ . _ . _ . _ . _ . _
 72
65
 73
4
 40
1.778
 49
1.27
 74
0
 49
-0.254
 74
0
 49
0.0
 74
0
 49
-0.254
 74
0
  0
LTYPE
  5
3B
330
2
100
AcDbSymbolTableRecord
100
AcDbLinetypeTableRecord
  2
DOT
 70
0
  3
Dot .  .  .  .  .  .  .  .  .  .  .  .  .  .  .  .
 72
65
 73
2
 40
0.508
 49
0.0
 74
0
 49
-0.508
 74
0
  0
LTYPE
  5
3C
330
2
100
AcDbSymbolTableRecord
100
AcDbLinetypeTableRecord
  2
DOTX2
 70
0
  3
Dot (2x) .    .    .    .    .    .    .    . 
 72
65
 73
2
 40
1.016
 49
0.0
 74
0
 49
-1.016
 74
0
  0
LTYPE
  5
3D
330
2
100
AcDbSymbolTableRecord
100
AcDbLinetypeTableRecord
  2
DOT2
 70
0
  3
Dot (.5) . . . . . . . . . . . . . . . . . . . 
 72
65
 73
2
 40
0.254
 49
0.0
 74
0
 49
-0.254
 74
0
  0
LTYPE
  5
3E
330
2
100
AcDbSymbolTableRecord
100
AcDbLinetypeTableRecord
  2
DIVIDE
 70
0
  3
Divide __ . . __ . . __ . . __ . . __ . . __
 72
65
 73
6
 40
4.064
 49
2.54
 74
0
 49
-0.508
 74
0
 49
0.0
 74
0
 49
-0.508
 74
0
 49
0.0
 74
0
 49
-0.508
 74
0
  0
LTYPE
  5
3F
330
2
100
AcDbSymbolTableRecord
100
AcDbLinetypeTableRecord
  2
DIVIDEX2
 70
0
  3
Divide (2x) ____  . .  ____  . .  ____  . .  ____
 72
65
 73
6
 40
6.604
 49
5.08
 74
0
 49
-0.508
 74
0
 49
0.0
 74
0
 49
-0.508
 74
0
 49
0.0
 74
0
 49
-0.508
 74
0
  0
LTYPE
  5
40
330
2
100
AcDbSymbolTableRecord
100
AcDbLinetypeTableRecord
  2
DIVIDE2
 70
0
  3
Divide(.5x) _ . _ . _ . _ . _ . _ . _ . _
 72
65
 73
6
 40
2.032
 49
1.27
 74
0
 49
-0.254
 74
0
 49
0.0
 74
0
 49
-0.254
 74
0
 49
0.0
 74
0
 49
-0.254
 74
0
  0
ENDTAB
  0
TABLE
  2
LAYER
  5
1
330
0
100
AcDbSymbolTable
 70
10
  0
LAYER
  5
27
330
1
100
AcDbSymbolTableRecord
100
AcDbLayerTableRecord
  2
0
 70
0
 62
7
  6
Continuous
370
-3
390
13
347
21
  0
LAYER
  5
28
330
1
100
AcDbSymbolTableRecord
100
AcDbLayerTableRecord
  2
Defpoints
 70
0
 62
7
  6
Continuous
290
0
370
-3
390
13
347
21
  0
LAYER
  5
8A
330
1
100
AcDbSymbolTableRecord
100
AcDbLayerTableRecord
  2
PIPE
 70
0
 62
3
  6
Continuous
370
-3
390
13
347
21
  0
LAYER
  5
8B
330
1
100
AcDbSymbolTableRecord
100
AcDbLayerTableRecord
  2
BOX
 70
0
 62
1
  6
Continuous
370
-3
390
13
347
21
  0
LAYER
  5
8C
330
1
100
AcDbSymbolTableRecord
100
AcDbLayerTableRecord
  2
CAR
 70
0
 62
8
  6
Continuous
370
-3
390
13
347
21
  0
LAYER
  5
8D
330
1
100
AcDbSymbolTableRecord
100
AcDbLayerTableRecord
  2
DIM
 70
0
 62
5
  6
Continuous
370
-3
390
13
347
21
  0
LAYER
  5
8E
330
1
100
AcDbSymbolTableRecord
100
AcDbLayerTableRecord
  2
HANGER
 70
0
 62
6
  6
Continuous
370
-3
390
13
347
21
  0
LAYER
  5
8F
330
1
100
AcDbSymbolTableRecord
100
AcDbLayerTableRecord
  2
TEXT
 70
0
 62
7
  6
Continuous
370
-3
390
13
347
21
  0
LAYER
  5
90
330
1
100
AcDbSymbolTableRecord
100
AcDbLayerTableRecord
  2
RES
 70
0
 62
4
  6
Continuous
370
-3
390
13
347
21
  0
LAYER
  5
91
330
1
100
AcDbSymbolTableRecord
100
AcDbLayerTableRecord
  2
BEND
 70
0
 62
2
  6
Continuous
370
-3
390
13
347
21
  0
ENDTAB
  0
TABLE
  2
STYLE
  5
5
330
0
100
AcDbSymbolTable
 70
26
  0
STYLE
  5
29
330
5
100
AcDbSymbolTableRecord
100
AcDbTextStyleTableRecord
  2
Standard
 70
0
 40
0.0
 41
1.0
 50
0.0
 71
0
 42
2.5
  3
txt
  4

  0
STYLE
  5
41
330
5
100
AcDbSymbolTableRecord
100
AcDbTextStyleTableRecord
  2
OpenSans-Light
 70
0
 40
0.0
 41
1.0
 50
0.0
 71
0
 42
2.5
  3
OpenSans-Light.ttf
  4

  0
STYLE
  5
42
330
5
100
AcDbSymbolTableRecord
100
AcDbTextStyleTableRecord
  2
OpenSans-Light-Italic
 70
0
 40
0.0
 41
1.0
 50
0.0
 71
0
 42
2.5
  3
OpenSans-LightItalic.ttf
  4

  0
STYLE
  5
43
330
5
100
AcDbSymbolTableRecord
100
AcDbTextStyleTableRecord
  2
OpenSans
 70
0
 40
0.0
 41
1.0
 50
0.0
 71
0
 42
2.5
  3
OpenSans-Regular.ttf
  4

  0
STYLE
  5
44
330
5
100
AcDbSymbolTableRecord
100
AcDbTextStyleTableRecord
  2
OpenSans-Italic
 70
0
 40
0.0
 41
1.0
 50
0.0
 71
0
 42
2.5
  3
OpenSans-Italic.ttf
  4

  0
STYLE
  5
45
330
5
100
AcDbSymbolTableRecord
100
AcDbTextStyleTableRecord
  2
OpenSans-SemiBold
 70
0
 40
0.0
 41
1.0
 50
0.0
 71
0
 42
2.5
  3
OpenSans-SemiBold.ttf
  4

  0
STYLE
  5
46
330
5
100
AcDbSymbolTableRecord
100
AcDbTextStyleTableRecord
  2
OpenSans-SemiBoldItalic
 70
0
 40
0.0
 41
1.0
 50
0.0
 71
0
 42
2.5
  3
OpenSans-SemiBoldItalic.ttf
  4

  0
STYLE
  5
47
330
5
100
AcDbSymbolTableRecord
100
AcDbTextStyleTableRecord
  2
OpenSans-Bold
 70
0
 40
0.0
 41
1.0
 50
0.0
 71
0
 42
2.5
  3
OpenSans-Bold.ttf
  4

  0
STYLE
  5
48
330
5
100
AcDbSymbolTableRecord
100
AcDbTextStyleTableRecord
  2
OpenSans-BoldItalic
 70
0
 40
0.0
 41
1.0
 50
0.0
 71
0
 42
2.5
  3
OpenSans-BoldItalic.ttf
  4

  0
STYLE
  5
49
330
5
100
AcDbSymbolTableRecord
100
AcDbTextStyleTableRecord
  2
OpenSans-ExtraBold
 70
0
 40
0.0
 41
1.0
 50
0.0
 71
0
 42
2.5
  3
OpenSans-ExtraBold.ttf
  4

  0
STYLE
  5
4A
330
5
100
AcDbSymbolTableRecord
100
AcDbTextStyleTableRecord
  2
OpenSans-ExtraBoldItalic
 70
0
 40
0.0
 41
1.0
 50
0.0
 71
0
 42
2.5
  3
OpenSans-ExtraBoldItalic.ttf
  4

  0
STYLE
  5
4B
330
5
100
AcDbSymbolTableRecord
100
AcDbTextStyleTableRecord
  2
OpenSansCondensed-Bold
 70
0
 40
0.0
 41
1.0
 50
0.0
 71
0
 42
2.5
  3
OpenSansCondensed-Bold.ttf
  4

  0
STYLE
  5
4C
330
5
100
AcDbSymbolTableRecord
100
AcDbTextStyleTableRecord
  2
OpenSansCondensed-Light
 70
0
 40
0.0
 41
1.0
 50
0.0
 71
0
 42
2.5
  3
OpenSansCondensed-Light.ttf
  4

  0
STYLE
  5
4D
330
5
100
AcDbSymbolTableRecord
100
AcDbTextStyleTableRecord
  2
OpenSansCondensed-Italic
 70
0
 40
0.0
 41
1.0
 50
0.0
 71
0
 42
2.5
  3
OpenSansCondensed-LightItalic.ttf
  4

  0
STYLE
  5
4E
330
5
100
AcDbSymbolTableRecord
100
AcDbTextStyleTableRecord
  2
LiberationSans
 70
0
 40
0.0
 41
1.0
 50
0.0
 71
0
 42
2.5
  3
LiberationSans-Regular.ttf
  4

  0
STYLE
  5
4F
330
5
100
AcDbSymbolTableRecord
100
AcDbTextStyleTableRecord
  2
LiberationSans-Bold
 70
0
 40
0.0
 41
1.0
 50
0.0
 71
0
 42
2.5
  3
LiberationSans-Bold.ttf
  4

  0
STYLE
  5
50
330
5
100
AcDbSymbolTableRecord
100
AcDbTextStyleTableRecord
  2
LiberationSans-BoldItalic
 70
0
 40
0.0
 41
1.0
 50
0.0
 71
0
 42
2.5
  3
LiberationSans-BoldItalic.ttf
  4

  0
STYLE
  5
51
330
5
100
AcDbSymbolTableRecord
100
AcDbTextStyleTableRecord
  2
LiberationSans-Italic
 70
0
 40
0.0
 41
1.0
 50
0.0
 71
0
 42
2.5
  3
LiberationSans-Italic.ttf
  4

  0
STYLE
  5
52
330
5
100
AcDbSymbolTableRecord
100
AcDbTextStyleTableRecord
  2
LiberationSerif
 70
0
 40
0.0
 41
1.0
 50
0.0
 71
0
 42
2.5
  3
LiberationSerif-Regular.ttf
  4

  0
STYLE
  5
53
330
5
100
AcDbSymbolTableRecord
100
AcDbTextStyleTableRecord
  2
LiberationSerif-Bold
 70
0
 40
0.0
 41
1.0
 50
0.0
 71
0
 42
2.5
  3
LiberationSerif-Bold.ttf
  4

  0
STYLE
  5
54
330
5
100
AcDbSymbolTableRecord
100
AcDbTextStyleTableRecord
  2
LiberationSerif-BoldItalic
 70
0
 40
0.0
 41
1.0
 50
0.0
 71
0
 42
2.5
  3
LiberationSerif-BoldItalic.ttf
  4

  0
STYLE
  5
55
330
5
100
AcDbSymbolTableRecord
100
AcDbTextStyleTableRecord
  2
LiberationSerif-Italic
 70
0
 40
0.0
 41
1.0
 50
0.0
 71
0
 42
2.5
  3
LiberationSerif-Italic.ttf
  4

  0
STYLE
  5
56
330
5
100
AcDbSymbolTableRecord
100
AcDbTextStyleTableRecord
  2
LiberationMono
 70
0
 40
0.0
 41
1.0
 50
0.0
 71
0
 42
2.5
  3
LiberationMono-Regular.ttf
  4

  0
STYLE
  5
57
330
5
100
AcDbSymbolTableRecord
100
AcDbTextStyleTableRecord
  2
LiberationMono-Bold
 70
0
 40
0.0
 41
1.0
 50
0.0
 71
0
 42
2.5
  3
LiberationMono-Bold.ttf
  4

  0
STYLE
  5
58
330
5
100
AcDbSymbolTableRecord
100
AcDbTextStyleTableRecord
  2
LiberationMono-BoldItalic
 70
0
 40
0.0
 41
1.0
 50
0.0
 71
0
 42
2.5
  3
LiberationMono-BoldItalic.ttf
  4

  0
STYLE
  5
59
330
5
100
AcDbSymbolTableRecord
100
AcDbTextStyleTableRecord
  2
LiberationMono-Italic
 70
0
 40
0.0
 41
1.0
 50
0.0
 71
0
 42
2.5
  3
LiberationMono-Italic.ttf
  4

  0
ENDTAB
  0
TABLE
  2
VIEW
  5
7
330
0
100
AcDbSymbolTable
 70
0
  0
ENDTAB
  0
TABLE
  2
UCS
  5
6
330
0
100
AcDbSymbolTable
 70
0
  0
ENDTAB
  0
TABLE
  2
APPID
  5
3
330
0
100
AcDbSymbolTable
 70
3
  0
APPID
  5
2A
330
3
100
AcDbSymbolTableRecord
100
AcDbRegAppTableRecord
  2
ACAD
 70
0
  0
APPID
  5
18B
330
3
100
AcDbSymbolTableRecord
100
AcDbRegAppTableRecord
  2
HATCHBACKGROUNDCOLOR
 70
0
  0
APPID
  5
18C
330
3
100
AcDbSymbolTableRecord
100
AcDbRegAppTableRecord
  2
EZDXF
 70
0
  0
ENDTAB
  0
TABLE
  2
DIMSTYLE
  5
4
330
0
100
AcDbSymbolTable
 70
12
100
AcDbDimStyleTable
  0
DIMSTYLE
105
2B
330
4
100
AcDbSymbolTableRecord
100
AcDbDimStyleTableRecord
  2
Standard
 70
0
 40
1.0
 41
2.5
 42
0.625
 43
3.75
 44
1.25
 45
0.0
 46
0.0
 47
0.0
 48
0.0
 49
2.5
140
2.5
141
2.5
142
0.0
143
0.03937007874
144
1.0
145
0.0
146
1.0
147
0.625
148
0.0
 69
0
 70
0
 71
0
 72
0
 73
0
 74
0
 75
0
 76
0
 77
1
 78
8
 79
3
170
0
171
3
172
1
173
0
174
0
175
0
176
0
177
0
178
0
179
2
271
2
272
2
273
2
274
3
275
0
276
0
277
2
278
44
279
0
280
0
281
0
282
0
283
0
284
8
285
0
286
0
288
0
289
3
290
0
371
-2
372
-2
  0
DIMSTYLE
105
73
330
4
100
AcDbSymbolTableRecord
100
AcDbDimStyleTableRecord
  2
EZDXF
 70
0
 40
1.0
 41
0.175
 42
0.125
 43
3.75
 44
0.375
 45
0.0
 46
0.0
 47
0.0
 48
0.0
 49
2.5
140
0.25
141
2.5
142
0.0
143
0.03937007874
144
100.0
145
0.0
146
0.5
147
0.1
148
0.0
 69
0
 70
0
 71
0
 72
0
 73
0
 74
0
 75
0
 76
0
 77
1
 78
12
 79
3
170
0
171
3
172
1
173
0
174
0
175
0
176
0
177
0
178
0
179
2
271
2
272
2
273
2
274
3
275
0
276
0
277
2
278
46
279
2
280
0
281
0
282
0
283
0
284
8
285
0
286
0
288
1
289
3
290
0
340
4C
342
74
371
-2
372
-2
  0
DIMSTYLE
105
7C
330
4
100
AcDbSymbolTableRecord
100
AcDbDimStyleTableRecord
  2
EZ_M_100_H25_CM
 70
0
 40
1.0
 41
0.25
 42
0.125
 43
3.75
 44
0.375
 45
0.0
 46
0.0
 47
0.0
 48
0.0
 49
2.5
140
0.25
141
2.5
142
0.125
143
0.03937007874
144
100.0
145
0.0
146
0.5
147
0.1
148
0.0
 69
0
 70
0
 71
0
 72
0
 73
0
 74
0
 75
0
 76
0
 77
1
 78
12
 79
3
170
0
171
3
172
1
173
0
174
0
175
0
176
0
177
0
178
0
179
2
271
2
272
2
273
2
274
3
275
0
276
0
277
2
278
46
279
2
280
0
281
0
282
0
283
0
284
8
285
0
286
0
288
1
289
3
290
0
340
4C
371
-2
372
-2
  0
DIMSTYLE
105
7D
330
4
100
AcDbSymbolTableRecord
100
AcDbDimStyleTableRecord
  2
EZ_M_50_H25_CM
 70
0
 40
1.0
 41
0.125
 42
0.0625
 43
3.75
 44
0.1875
 45
0.0
 46
0.0
 47
0.0
 48
0.0
 49
2.5
140
0.125
141
2.5
142
0.0625
143
0.03937007874
144
100.0
145
0.0
146
0.5
147
0.05
148
0.0
 69
0
 70
0
 71
0
 72
0
 73
0
 74
0
 75
0
 76
0
 77
1
 78
12
 79
3
170
0
171
3
172
1
173
0
174
0
175
0
176
0
177
0
178
0
179
2
271
2
272
2
273
2
274
3
275
0
276
0
277
2
278
46
279
2
280
0
281
0
282
0
283
0
284
8
285
0
286
0
288
1
289
3
290
0
340
4C
371
-2
372
-2
  0
DIMSTYLE
105
7E
330
4
100
AcDbSymbolTableRecord
100
AcDbDimStyleTableRecord
  2
EZ_M_25_H25_CM
 70
0
 40
1.0
 41
0.0625
 42
0.03125
 43
3.75
 44
0.09375
 45
0.0
 46
0.0
 47
0.0
 48
0.0
 49
2.5
140
0.0625
141
2.5
142
0.03125
143
0.03937007874
144
100.0
145
0.0
146
0.5
147
0.025
148
0.0
 69
0
 70
0
 71
0
 72
0
 73
0
 74
0
 75
0
 76
0
 77
1
 78
12
 79
3
170
0
171
3
172
1
173
0
174
0
175
0
176
0
177
0
178
0
179
2
271
2
272
2
273
2
274
3
275
0
276
0
277
2
278
46
279
2
280
0
281
0
282
0
283
0
284
8
285
0
286
0
288
1
289
3
290
0
340
4C
371
-2
372
-2
  0
DIMSTYLE
105
7F
330
4
100
AcDbSymbolTableRecord
100
AcDbDimStyleTableRecord
  2
EZ_M_20_H25_CM
 70
0
 40
1.0
 41
0.05
 42
0.025
 43
3.75
 44
0.07500000000000001
 45
0.0
 46
0.0
 47
0.0
 48
0.0
 49
2.5
140
0.05
141
2.5
142
0.025
143
0.03937007874
144
100.0
145
0.0
146
0.5
147
0.020000000000000004
148
0.0
 69
0
 70
0
 71
0
 72
0
 73
0
 74
0
 75
0
 76
0
 77
1
 78
12
 79
3
170
0
171
3
172
1
173
0
174
0
175
0
176
0
177
0
178
0
179
2
271
2
272
2
273
2
274
3
275
0
276
0
277
2
278
46
279
2
280
0
281
0
282
0
283
0
284
8
285
0
286
0
288
1
289
3
290
0
340
4C
371
-2
372
-2
  0
DIMSTYLE
105
80
330
4
100
AcDbSymbolTableRecord
100
AcDbDimStyleTableRecord
  2
EZ_M_10_H25_CM
 70
0
 40
1.0
 41
0.025
 42
0.0125
 43
3.75
 44
0.037500000000000006
 45
0.0
 46
0.0
 47
0.0
 48
0.0
 49
2.5
140
0.025
141
2.5
142
0.0125
143
0.03937007874
144
100.0
145
0.0
146
0.5
147
0.010000000000000002
148
0.0
 69
0
 70
0
 71
0
 72
0
 73
0
 74
0
 75
0
 76
0
 77
1
 78
12
 79
3
170
0
171
3
172
1
173
0
174
0
175
0
176
0
177
0
178
0
179
2
271
2
272
2
273
2
274
3
275
0
276
0
277
2
278
46
279
2
280
0
281
0
282
0
283
0
284
8
285
0
286
0
288
1
289
3
290
0
340
4C
371
-2
372
-2
  0
DIMSTYLE
105
81
330
4
100
AcDbSymbolTableRecord
100
AcDbDimStyleTableRecord
  2
EZ_M_5_H25_CM
 70
0
 40
1.0
 41
0.0125
 42
0.00625
 43
3.75
 44
0.018750000000000003
 45
0.0
 46
0.0
 47
0.0
 48
0.0
 49
2.5
140
0.0125
141
2.5
142
0.00625
143
0.03937007874
144
100.0
145
0.0
146
0.5
147
0.005000000000000001
148
0.0
 69
0
 70
0
 71
0
 72
0
 73
0
 74
0
 75
0
 76
0
 77
1
 78
12
 79
3
170
0
171
3
172
1
173
0
174
0
175
0
176
0
177
0
178
0
179
2
271
2
272
2
273
2
274
3
275
0
276
0
277
2
278
46
279
2
280
0
281
0
282
0
283
0
284
8
285
0
286
0
288
1
289
3
290
0
340
4C
371
-2
372
-2
  0
DIMSTYLE
105
82
330
4
100
AcDbSymbolTableRecord
100
AcDbDimStyleTableRecord
  2
EZ_M_1_H25_CM
 70
0
 40
1.0
 41
0.0025
 42
0.00125
 43
3.75
 44
0.00375
 45
0.0
 46
0.0
 47
0.0
 48
0.0
 49
2.5
140
0.0025
141
2.5
142
0.00125
143
0.03937007874
144
100.0
145
0.0
146
0.5
147
0.001
148
0.0
 69
0
 70
0
 71
0
 72
0
 73
0
 74
0
 75
0
 76
0
 77
1
 78
12
 79
3
170
0
171
3
172
1
173
0
174
0
175
0
176
0
177
0
178
0
179
2
271
2
272
2
273
2
274
3
275
0
276
0
277
2
278
46
279
2
280
0
281
0
282
0
283
0
284
8
285
0
286
0
288
1
289
3
290
0
340
4C
371
-2
372
-2
  0
DIMSTYLE
105
83
330
4
100
AcDbSymbolTableRecord
100
AcDbDimStyleTableRecord
  2
EZ_RADIUS
 70
0
 40
1.0
 41
0.25
 42
0.125
 43
3.75
 44
0.375
 45
0.0
 46
0.0
 47
0.0
 48
0.0
 49
2.5
140
0.25
141
0.0
142
0.0
143
0.03937007874
144
100.0
145
0.0
146
0.5
147
0.1
148
0.0
 69
0
 70
0
 71
0
 72
0
 73
0
 74
0
 75
0
 76
0
 77
1
 78
12
 79
3
170
0
171
3
172
0
173
0
174
0
175
0
176
0
177
0
178
0
179
2
271
2
272
2
273
2
274
3
275
0
276
0
277
2
278
46
279
1
280
0
281
0
282
0
283
0
284
8
285
0
286
0
288
1
289
3
290
0
340
4C
342
84
371
-2
372
-2
  0
DIMSTYLE
105
88
330
4
100
AcDbSymbolTableRecord
100
AcDbDimStyleTableRecord
  2
EZ_RADIUS_INSIDE
 70
0
 40
1.0
 41
0.25
 42
0.125
 43
3.75
 44
0.375
 45
0.0
 46
0.0
 47
0.0
 48
0.0
 49
2.5
140
0.25
141
0.0
142
0.0
143
0.03937007874
144
100.0
145
0.0
146
0.5
147
0.1
148
0.0
 69
0
 70
0
 71
0
 72
0
 73
0
 74
0
 75
0
 76
0
 77
0
 78
12
 79
3
170
0
171
3
172
0
173
0
174
1
175
0
176
0
177
0
178
0
179
2
271
2
272
2
273
2
274
3
275
0
276
0
277
2
278
46
279
0
280
0
281
0
282
0
283
0
284
8
285
0
286
0
288
1
289
0
290
0
340
4C
342
84
371
-2
372
-2
  0
DIMSTYLE
105
89
330
4
100
AcDbSymbolTableRecord
100
AcDbDimStyleTableRecord
  2
EZ_CURVED
 70
0
 40
1.0
 41
0.25
 42
0.125
 43
3.75
 44
0.375
 45
0.0
 46
0.0
 47
0.0
 48
0.0
 49
2.5
140
0.25
141
2.5
142
0.0
143
0.03937007874
144
100.0
145
0.0
146
0.5
147
0.1
148
0.0
 69
0
 70
0
 71
0
 72
0
 73
0
 74
0
 75
0
 76
0
 77
1
 78
12
 79
2
 90
2
170
0
171
3
172
1
173
0
174
0
175
0
176
0
177
0
178
0
179
2
271
2
272
2
273
2
274
3
275
0
276
0
277
2
278
46
279
2
280
0
281
0
282
0
283
0
284
8
285
0
286
0
288
1
289
3
290
0
340
4C
371
-2
372
-2
  0
ENDTAB
  0
TABLE
  2
BLOCK_RECORD
  5
9
330
0
100
AcDbSymbolTable
 70
5
  0
BLOCK_RECORD
  5
17
330
9
100
AcDbSymbolTableRecord
100
AcDbBlockTableRecord
  2
*Model_Space
340
1A
 70
0
280
1
281
0
  0
BLOCK_RECORD
  5
1B
330
9
100
AcDbSymbolTableRecord
100
AcDbBlockTableRecord
  2
*Paper_Space
340
1E
 70
0
280
1
281
0
  0
BLOCK_RECORD
  5
74
330
9
100
AcDbSymbolTableRecord
100
AcDbBlockTableRecord
  2
_ARCHTICK
340
0
 70
0
280
1
281
0
  0
BLOCK_RECORD
  5
78
330
9
100
AcDbSymbolTableRecord
100
AcDbBlockTableRecord
  2
_CLOSEDFILLED
340
0
 70
0
280
1
281
0
  0
BLOCK_RECORD
  5
84
330
9
100
AcDbSymbolTableRecord
100
AcDbBlockTableRecord
  2
_CLOSEDBLANK
340
0
 70
0
280
1
281
0
  0
ENDTAB
  0
ENDSEC
  0
SECTION
  2
BLOCKS
  0
BLOCK
  5
18
330
17
100
AcDbEntity
  8
0
100
AcDbBlockBegin
  2
*Model_Space
 70
0
 10
0.0
 20
0.0
 30
0.0
  3
*Model_Space
  1

  0
ENDBLK
  5
19
330
17
100
AcDbEntity
  8
0
100
AcDbBlockEnd
  0
BLOCK
  5
1C
330
1B
100
AcDbEntity
  8
0
100
AcDbBlockBegin
  2
*Paper_Space
 70
0
 10
0.0
 20
0.0
 30
0.0
  3
*Paper_Space
  1

  0
ENDBLK
  5
1D
330
1B
100
AcDbEntity
  8
0
100
AcDbBlockEnd
  0
BLOCK
  5
75
330
74
100
AcDbEntity
  8
0
100
AcDbBlockBegin
  2
_ARCHTICK
 70
0
 10
0.0
 20
0.0
 30
0.0
  3
_ARCHTICK
  1

  0
LWPOLYLINE
  5
77
330
74
100
AcDbEntity
  8
0
  6
BYBLOCK
 62
0
100
AcDbPolyline
 90
2
 70
0
 43
0.15
 10
-0.5
 20
-0.5
 10
0.5
 20
0.5
  0
ENDBLK
  5
76
330
74
100
AcDbEntity
  8
0
100
AcDbBlockEnd
  0
BLOCK
  5
79
330
78
100
AcDbEntity
  8
0
100
AcDbBlockBegin
  2
_CLOSEDFILLED
 70
0
 10
0.0
 20
0.0
 30
0.0
  3
_CLOSEDFILLED
  1

  0
SOLID
  5
7B
330
78
100
AcDbEntity
  8
0
  6
BYBLOCK
 62
0
100
AcDbTrace
 10
-1.0
 20
0.16439898372402537
 30
0.0
 11
0.0
 21
0.0
 31
0.0
 12
-1.0
 22
-0.16439898372402537
 32
0.0
 13
-1.0
 23
-0.16439898372402537
 33
0.0
  0
ENDBLK
  5
7A
330
78
100
AcDbEntity
  8
0
100
AcDbBlockEnd
  0
BLOCK
  5
85
330
84
100
AcDbEntity
  8
0
100
AcDbBlockBegin
  2
_CLOSEDBLANK
 70
0
 10
0.0
 20
0.0
 30
0.0
  3
_CLOSEDBLANK
  1

  0
LWPOLYLINE
  5
87
330
84
100
AcDbEntity
  8
0
  6
BYBLOCK
 62
0
100
AcDbPolyline
 90
3
 70
1
 10
-1.0
 20
0.16439898372402537
 10
0.0
 20
0.0
 10
-1.0
 20
-0.16439898372402537
  0
ENDBLK
  5
86
330
84
100
AcDbEntity
  8
0
100
AcDbBlockEnd
  0
ENDSEC
  0
SECTION
  2
ENTITIES
  0
LWPOLYLINE
  5
92
330
17
100
AcDbEntity
  8
CAR
100
AcDbPolyline
 90
9
 70
1
 10
-885.0
 20
320.0
 10
-855.0
 20
780.0
 10
585.0
 20
880.0
 10
985.0
 20
930.0
 10
1505.0
 20
1470.0
 10
3320.0
 20
1470.0
 10
3550.0
 20
1120.0
 10
3630.0
 20
1000.0
 10
3630.0
 20
300.0
  0
CIRCLE
  5
93
330
17
100
AcDbEntity
  8
CAR
100
AcDbCircle
 10
0.0
 20
312.0
 30
0.0
 40
312.0
  0
CIRCLE
  5
94
330
17
100
AcDbEntity
  8
CAR
100
AcDbCircle
 10
0.0
 20
312.0
 30
0.0
 40
130.0
  0
CIRCLE
  5
95
330
17
100
AcDbEntity
  8
CAR
100
AcDbCircle
 10
2703.0
 20
312.0
 30
0.0
 40
312.0
  0
CIRCLE
  5
96
330
17
100
AcDbEntity
  8
CAR
100
AcDbCircle
 10
2703.0
 20
312.0
 30
0.0
 40
130.0
  0
LINE
  5
97
330
17
100
AcDbEntity
  8
CAR
100
AcDbLine
 10
-885.0
 20
520.0
 30
0.0
 11
3630.0
 21
520.0
 31
0.0
  0
LWPOLYLINE
  5
98
330
17
100
AcDbEntity
  8
CAR
100
AcDbPolyline
 90
4
 70
1
 10
2260.0
 20
405.0
 10
2680.0
 20
405.0
 10
2680.0
 20
530.0
 10
2260.0
 20
530.0
  0
LWPOLYLINE
  5
99
330
17
100
AcDbEntity
  8
CAR
100
AcDbPolyline
 90
4
 70
1
 10
2583.0
 20
300.0
 10
2823.0
 20
300.0
 10
2823.0
 20
430.0
 10
2583.0
 20
430.0
  0
LWPOLYLINE
  5
9A
330
17
100
AcDbEntity
  8
PIPE
100
AcDbPolyline
 90
80
 70
0
 10
-150.0
 20
390.0
 10
-106.01988588316925
 20
390.0
 10
-62.039771766338504
 20
390.0
 10
-18.059657649507756
 20
390.0
 10
25.920456467322992
 20
390.0
 10
69.90057058415374
 20
390.0
 10
70.3977646093359
 20
389.9999526492368
 10
70.8949586277599
 20
389.9998579477107
 10
71.39215263492036
 20
389.9997158954227
 10
71.88934662631185
 20
389.999526492374
 10
72.38654059742893
 20
389.99928973856635
 10
72.88373454376621
 20
389.9990056340019
 10
73.38092846081825
 20
389.9986741786832
 10
73.87812234407963
 20
389.99829537261326
 10
74.37531618904494
 20
389.9978692157955
 10
74.87250999120874
 20
389.9973957082338
 10
75.36970374606564
 20
389.99687484993245
 10
75.8668974491102
 20
389.9963066408962
 10
76.364091095837
 20
389.99569108113013
 10
76.86128468174063
 20
389.9950281706399
 10
77.35847820231567
 20
389.99431790943146
 10
77.8556716530567
 20
389.99356029751124
 10
78.35286502945831
 20
389.9927553348861
 10
78.85005832701509
 20
389.9919030215634
 10
79.34725154122161
 20
389.9910033575508
 10
79.84444466757246
 20
389.9900563428565
 10
80.34163770156223
 20
389.9890619774891
 10
80.83883063868551
 20
389.9880202614575
 10
81.33602347443689
 20
389.9869311947712
 10
81.83321620431094
 20
389.9857947774401
 10
122.88750991529027
 20
384.5784506142876
 10
163.94180362626958
 20
379.17110645113513
 10
204.9960973372489
 20
373.7637622879826
 10
246.05039104822822
 20
368.3564181248301
 10
287.10468475920754
 20
362.9490739616776
 10
328.15897847018687
 20
357.5417297985251
 10
369.2132721811662
 20
352.1343856353726
 10
410.2675658921455
 20
346.7270414722201
 10
451.3218596031249
 20
341.3196973090676
 10
492.37615331410416
 20
335.9123531459151
 10
533.4304470250835
 20
330.5050089827626
 10
533.9233936641776
 20
330.4401297420192
 10
534.4163464742929
 20
330.37529744782887
 10
534.9093054509624
 20
330.31051210077896
 10
535.402270589719
 20
330.24577370145664
 10
535.8952418860956
 20
330.18108225044847
 10
536.3882193356251
 20
330.11643774834073
 10
536.8812029338402
 20
330.0518401957192
 10
537.3741926762738
 20
329.9872895931692
 10
537.8671885584583
 20
329.92278594127566
 10
538.3601905759266
 20
329.85832924062316
 10
538.8531987242111
 20
329.79391949179575
 10
539.3462129988444
 20
329.7295566953771
 10
539.8392333953589
 20
329.6652408519504
 10
540.332259909287
 20
329.6009719620985
 10
540.8252925361611
 20
329.53675002640387
 10
541.3183312715134
 20
329.4725750454483
 10
541.8113761108763
 20
329.4084470198134
 10
542.3044270497817
 20
329.3443659500804
 10
542.7974840837619
 20
329.28033183682976
 10
543.290547208349
 20
329.2163446806419
 10
543.783616419075
 20
329.1524044820966
 10
544.2766917114717
 20
329.08851124177323
 10
544.7697730810712
 20
329.02466496025085
 10
545.2628605234053
 20
328.960865638108
 10
587.5770612267197
 20
328.960865638108
 10
629.8912619300341
 20
328.960865638108
 10
672.2054626333486
 20
328.960865638108
 10
714.519663336663
 20
328.960865638108
 10
756.8338640399775
 20
328.960865638108
 10
799.1480647432918
 20
328.960865638108
 10
841.4622654466062
 20
328.960865638108
 10
883.7764661499207
 20
328.960865638108
 10
926.0906668532351
 20
328.960865638108
 10
968.4048675565496
 20
328.960865638108
 10
1010.719068259864
 20
328.960865638108
 10
1053.0332689631784
 20
328.960865638108
 10
1095.347469666493
 20
328.960865638108
 10
1137.6616703698073
 20
328.960865638108
 10
1179.9758710731217
 20
328.960865638108
  0
LWPOLYLINE
  5
9B
330
17
100
AcDbEntity
  8
PIPE
100
AcDbPolyline
 90
80
 70
0
 10
-150.0
 20
361.5
 10
-106.01988588316925
 20
361.5
 10
-62.039771766338504
 20
361.5
 10
-18.059657649507756
 20
361.5
 10
25.920456467322992
 20
361.5
 10
69.90057058415374
 20
361.5
 10
70.3977646093359
 20
361.4999526492368
 10
70.8949586277599
 20
361.4998579477107
 10
71.39215263492036
 20
361.4997158954227
 10
71.88934662631185
 20
361.499526492374
 10
72.38654059742893
 20
361.49928973856635
 10
72.88373454376621
 20
361.4990056340019
 10
73.38092846081825
 20
361.4986741786832
 10
73.87812234407963
 20
361.49829537261326
 10
74.37531618904494
 20
361.4978692157955
 10
74.87250999120874
 20
361.4973957082338
 10
75.36970374606564
 20
361.49687484993245
 10
75.8668974491102
 20
361.4963066408962
 10
76.364091095837
 20
361.49569108113013
 10
76.86128468174063
 20
361.4950281706399
 10
77.35847820231567
 20
361.49431790943146
 10
77.8556716530567
 20
361.49356029751124
 10
78.35286502945831
 20
361.4927553348861
 10
78.85005832701509
 20
361.4919030215634
 10
79.34725154122161
 20
361.4910033575508
 10
79.84444466757246
 20
361.4900563428565
 10
80.34163770156223
 20
361.4890619774891
 10
80.83883063868551
 20
361.4880202614575
 10
81.33602347443689
 20
361.4869311947712
 10
81.83321620431094
 20
361.4857947774401
 10
122.88750991529027
 20
356.0784506142876
 10
163.94180362626958
 20
350.67110645113513
 10
204.9960973372489
 20
345.2637622879826
 10
246.05039104822822
 20
339.8564181248301
 10
287.10468475920754
 20
334.4490739616776
 10
328.15897847018687
 20
329.0417297985251
 10
369.2132721811662
 20
323.6343856353726
 10
410.2675658921455
 20
318.2270414722201
 10
451.3218596031249
 20
312.8196973090676
 10
492.37615331410416
 20
307.4123531459151
 10
533.4304470250835
 20
302.0050089827626
 10
533.9233936641776
 20
301.9401297420192
 10
534.4163464742929
 20
301.87529744782887
 10
534.9093054509624
 20
301.81051210077896
 10
535.402270589719
 20
301.74577370145664
 10
535.8952418860956
 20
301.68108225044847
 10
536.3882193356251
 20
301.61643774834073
 10
536.8812029338402
 20
301.5518401957192
 10
537.3741926762738
 20
301.4872895931692
 10
537.8671885584583
 20
301.42278594127566
 10
538.3601905759266
 20
301.35832924062316
 10
538.8531987242111
 20
301.29391949179575
 10
539.3462129988444
 20
301.2295566953771
 10
539.8392333953589
 20
301.1652408519504
 10
540.332259909287
 20
301.1009719620985
 10
540.8252925361611
 20
301.03675002640387
 10
541.3183312715134
 20
300.9725750454483
 10
541.8113761108763
 20
300.9084470198134
 10
542.3044270497817
 20
300.8443659500804
 10
542.7974840837619
 20
300.78033183682976
 10
543.290547208349
 20
300.7163446806419
 10
543.783616419075
 20
300.6524044820966
 10
544.2766917114717
 20
300.58851124177323
 10
544.7697730810712
 20
300.52466496025085
 10
545.2628605234053
 20
300.460865638108
 10
587.5770612267197
 20
300.460865638108
 10
629.8912619300341
 20
300.460865638108
 10
672.2054626333486
 20
300.460865638108
 10
714.519663336663
 20
300.460865638108
 10
756.8338640399775
 20
300.460865638108
 10
799.1480647432918
 20
300.460865638108
 10
841.4622654466062
 20
300.460865638108
 10
883.7764661499207
 20
300.460865638108
 10
926.0906668532351
 20
300.460865638108
 10
968.4048675565496
 20
300.460865638108
 10
1010.719068259864
 20
300.460865638108
 10
1053.0332689631784
 20
300.460865638108
 10
1095.347469666493
 20
300.460865638108
 10
1137.6616703698073
 20
300.460865638108
 10
1179.9758710731217
 20
300.460865638108
  0
LWPOLYLINE
  5
9C
330
17
100
AcDbEntity
  8
PIPE
100
AcDbPolyline
 90
80
 70
0
 10
-150.0
 20
418.5
 10
-106.01988588316925
 20
418.5
 10
-62.039771766338504
 20
418.5
 10
-18.059657649507756
 20
418.5
 10
25.920456467322992
 20
418.5
 10
69.90057058415374
 20
418.5
 10
70.3977646093359
 20
418.4999526492368
 10
70.8949586277599
 20
418.4998579477107
 10
71.39215263492036
 20
418.4997158954227
 10
71.88934662631185
 20
418.499526492374
 10
72.38654059742893
 20
418.49928973856635
 10
72.88373454376621
 20
418.4990056340019
 10
73.38092846081825
 20
418.4986741786832
 10
73.87812234407963
 20
418.49829537261326
 10
74.37531618904494
 20
418.4978692157955
 10
74.87250999120874
 20
418.4973957082338
 10
75.36970374606564
 20
418.49687484993245
 10
75.8668974491102
 20
418.4963066408962
 10
76.364091095837
 20
418.49569108113013
 10
76.86128468174063
 20
418.4950281706399
 10
77.35847820231567
 20
418.49431790943146
 10
77.8556716530567
 20
418.49356029751124
 10
78.35286502945831
 20
418.4927553348861
 10
78.85005832701509
 20
418.4919030215634
 10
79.34725154122161
 20
418.4910033575508
 10
79.84444466757246
 20
418.4900563428565
 10
80.34163770156223
 20
418.4890619774891
 10
80.83883063868551
 20
418.4880202614575
 10
81.33602347443689
 20
418.4869311947712
 10
81.83321620431094
 20
418.4857947774401
 10
122.88750991529027
 20
413.0784506142876
 10
163.94180362626958
 20
407.67110645113513
 10
204.9960973372489
 20
402.2637622879826
 10
246.05039104822822
 20
396.8564181248301
 10
287.10468475920754
 20
391.4490739616776
 10
328.15897847018687
 20
386.0417297985251
 10
369.2132721811662
 20
380.6343856353726
 10
410.2675658921455
 20
375.2270414722201
 10
451.3218596031249
 20
369.8196973090676
 10
492.37615331410416
 20
364.4123531459151
 10
533.4304470250835
 20
359.0050089827626
 10
533.9233936641776
 20
358.9401297420192
 10
534.4163464742929
 20
358.87529744782887
 10
534.9093054509624
 20
358.81051210077896
 10
535.402270589719
 20
358.74577370145664
 10
535.8952418860956
 20
358.68108225044847
 10
536.3882193356251
 20
358.61643774834073
 10
536.8812029338402
 20
358.5518401957192
 10
537.3741926762738
 20
358.4872895931692
 10
537.8671885584583
 20
358.42278594127566
 10
538.3601905759266
 20
358.35832924062316
 10
538.8531987242111
 20
358.29391949179575
 10
539.3462129988444
 20
358.2295566953771
 10
539.8392333953589
 20
358.1652408519504
 10
540.332259909287
 20
358.1009719620985
 10
540.8252925361611
 20
358.03675002640387
 10
541.3183312715134
 20
357.9725750454483
 10
541.8113761108763
 20
357.9084470198134
 10
542.3044270497817
 20
357.8443659500804
 10
542.7974840837619
 20
357.78033183682976
 10
543.290547208349
 20
357.7163446806419
 10
543.783616419075
 20
357.6524044820966
 10
544.2766917114717
 20
357.58851124177323
 10
544.7697730810712
 20
357.52466496025085
 10
545.2628605234053
 20
357.460865638108
 10
587.5770612267197
 20
357.460865638108
 10
629.8912619300341
 20
357.460865638108
 10
672.2054626333486
 20
357.460865638108
 10
714.519663336663
 20
357.460865638108
 10
756.8338640399775
 20
357.460865638108
 10
799.1480647432918
 20
357.460865638108
 10
841.4622654466062
 20
357.460865638108
 10
883.7764661499207
 20
357.460865638108
 10
926.0906668532351
 20
357.460865638108
 10
968.4048675565496
 20
357.460865638108
 10
1010.719068259864
 20
357.460865638108
 10
1053.0332689631784
 20
357.460865638108
 10
1095.347469666493
 20
357.460865638108
 10
1137.6616703698073
 20
357.460865638108
 10
1179.9758710731217
 20
357.460865638108
  0
LWPOLYLINE
  5
9D
330
17
100
AcDbEntity
  8
RES
100
AcDbPolyline
 90
2
 70
0
 10
1180.0
 20
330.0
 10
1630.0
 20
330.0
  0
LWPOLYLINE
  5
9E
330
17
100
AcDbEntity
  8
RES
100
AcDbPolyline
 90
2
 70
0
 10
1180.0
 20
273.0
 10
1630.0
 20
273.0
  0
LWPOLYLINE
  5
9F
330
17
100
AcDbEntity
  8
RES
100
AcDbPolyline
 90
2
 70
0
 10
1180.0
 20
387.0
 10
1630.0
 20
387.0
  0
LWPOLYLINE
  5
A0
330
17
100
AcDbEntity
  8
PIPE
100
AcDbPolyline
 90
7
 70
0
 10
1630.0
 20
330.0
 10
1675.0
 20
330.0
 10
1720.0
 20
330.0
 10
1765.0
 20
330.0
 10
1810.0
 20
330.0
 10
1855.0
 20
330.0
 10
1900.0
 20
330.0
  0
LWPOLYLINE
  5
A1
330
17
100
AcDbEntity
  8
PIPE
100
AcDbPolyline
 90
7
 70
0
 10
1630.0
 20
301.5
 10
1675.0
 20
301.5
 10
1720.0
 20
301.5
 10
1765.0
 20
301.5
 10
1810.0
 20
301.5
 10
1855.0
 20
301.5
 10
1900.0
 20
301.5
  0
LWPOLYLINE
  5
A2
330
17
100
AcDbEntity
  8
PIPE
100
AcDbPolyline
 90
7
 70
0
 10
1630.0
 20
358.5
 10
1675.0
 20
358.5
 10
1720.0
 20
358.5
 10
1765.0
 20
358.5
 10
1810.0
 20
358.5
 10
1855.0
 20
358.5
 10
1900.0
 20
358.5
  0
LWPOLYLINE
  5
A3
330
17
100
AcDbEntity
  8
PIPE
100
AcDbPolyline
 90
49
 70
0
 10
1900.0
 20
330.0
 10
1940.0
 20
330.0
 10
1980.0
 20
330.0
 10
2020.0
 20
330.0
 10
2060.0
 20
330.0
 10
2100.0
 20
330.0
 10
2101.33517682333
 20
330.0
 10
2102.6703534833246
 20
330.0
 10
2104.005529871092
 20
330.0
 10
2105.3407058777425
 20
330.0
 10
2106.6758813943843
 20
330.0
 10
2108.0110563121275
 20
330.0
 10
2109.346230522082
 20
330.0
 10
2110.6814039153564
 20
330.0
 10
2112.016576383061
 20
330.0
 10
2113.351747816305
 20
330.0
 10
2114.686918106198
 20
330.0
 10
2116.02208714385
 20
330.0
 10
2117.3572548203715
 20
330.0
 10
2118.6924210268717
 20
330.0
 10
2120.0275856544613
 20
330.0
 10
2121.3627485942507
 20
330.0
 10
2122.6979097373496
 20
330.0
 10
2124.0330689748694
 20
330.0
 10
2125.36822619792
 20
330.0
 10
2126.7033812976133
 20
330.0
 10
2128.0385341650594
 20
330.0
 10
2129.3736846913703
 20
330.0
 10
2130.708832767657
 20
330.0
 10
2132.0439782850312
 20
330.0
 10
2170.3558037411176
 20
330.0
 10
2208.667629197204
 20
330.0
 10
2246.9794546532908
 20
330.0
 10
2285.291280109377
 20
330.0
 10
2323.6031055654635
 20
330.0
 10
2361.91493102155
 20
330.0
 10
2400.2267564776366
 20
330.0
 10
2438.538581933723
 20
330.0
 10
2476.8504073898093
 20
330.0
 10
2515.1622328458957
 20
330.0
 10
2553.4740583019825
 20
330.0
 10
2591.785883758069
 20
330.0
 10
2630.097709214155
 20
330.0
 10
2668.4095346702416
 20
330.0
 10
2706.7213601263284
 20
330.0
 10
2745.0331855824147
 20
330.0
 10
2783.345011038501
 20
330.0
 10
2821.6568364945874
 20
330.0
 10
2859.968661950674
 20
330.0
  0
LWPOLYLINE
  5
A4
330
17
100
AcDbEntity
  8
PIPE
100
AcDbPolyline
 90
49
 70
0
 10
1900.0
 20
304.5
 10
1940.0
 20
304.5
 10
1980.0
 20
304.5
 10
2020.0
 20
304.5
 10
2060.0
 20
304.5
 10
2100.0
 20
304.5
 10
2101.33517682333
 20
304.5
 10
2102.6703534833246
 20
304.5
 10
2104.005529871092
 20
304.5
 10
2105.3407058777425
 20
304.5
 10
2106.6758813943843
 20
304.5
 10
2108.0110563121275
 20
304.5
 10
2109.346230522082
 20
304.5
 10
2110.6814039153564
 20
304.5
 10
2112.016576383061
 20
304.5
 10
2113.351747816305
 20
304.5
 10
2114.686918106198
 20
304.5
 10
2116.02208714385
 20
304.5
 10
2117.3572548203715
 20
304.5
 10
2118.6924210268717
 20
304.5
 10
2120.0275856544613
 20
304.5
 10
2121.3627485942507
 20
304.5
 10
2122.6979097373496
 20
304.5
 10
2124.0330689748694
 20
304.5
 10
2125.36822619792
 20
304.5
 10
2126.7033812976133
 20
304.5
 10
2128.0385341650594
 20
304.5
 10
2129.3736846913703
 20
304.5
 10
2130.708832767657
 20
304.5
 10
2132.0439782850312
 20
304.5
 10
2170.3558037411176
 20
304.5
 10
2208.667629197204
 20
304.5
 10
2246.9794546532908
 20
304.5
 10
2285.291280109377
 20
304.5
 10
2323.6031055654635
 20
304.5
 10
2361.91493102155
 20
304.5
 10
2400.2267564776366
 20
304.5
 10
2438.538581933723
 20
304.5
 10
2476.8504073898093
 20
304.5
 10
2515.1622328458957
 20
304.5
 10
2553.4740583019825
 20
304.5
 10
2591.785883758069
 20
304.5
 10
2630.097709214155
 20
304.5
 10
2668.4095346702416
 20
304.5
 10
2706.7213601263284
 20
304.5
 10
2745.0331855824147
 20
304.5
 10
2783.345011038501
 20
304.5
 10
2821.6568364945874
 20
304.5
 10
2859.968661950674
 20
304.5
  0
LWPOLYLINE
  5
A5
330
17
100
AcDbEntity
  8
PIPE
100
AcDbPolyline
 90
49
 70
0
 10
1900.0
 20
355.5
 10
1940.0
 20
355.5
 10
1980.0
 20
355.5
 10
2020.0
 20
355.5
 10
2060.0
 20
355.5
 10
2100.0
 20
355.5
 10
2101.33517682333
 20
355.5
 10
2102.6703534833246
 20
355.5
 10
2104.005529871092
 20
355.5
 10
2105.3407058777425
 20
355.5
 10
2106.6758813943843
 20
355.5
 10
2108.0110563121275
 20
355.5
 10
2109.346230522082
 20
355.5
 10
2110.6814039153564
 20
355.5
 10
2112.016576383061
 20
355.5
 10
2113.351747816305
 20
355.5
 10
2114.686918106198
 20
355.5
 10
2116.02208714385
 20
355.5
 10
2117.3572548203715
 20
355.5
 10
2118.6924210268717
 20
355.5
 10
2120.0275856544613
 20
355.5
 10
2121.3627485942507
 20
355.5
 10
2122.6979097373496
 20
355.5
 10
2124.0330689748694
 20
355.5
 10
2125.36822619792
 20
355.5
 10
2126.7033812976133
 20
355.5
 10
2128.0385341650594
 20
355.5
 10
2129.3736846913703
 20
355.5
 10
2130.708832767657
 20
355.5
 10
2132.0439782850312
 20
355.5
 10
2170.3558037411176
 20
355.5
 10
2208.667629197204
 20
355.5
 10
2246.9794546532908
 20
355.5
 10
2285.291280109377
 20
355.5
 10
2323.6031055654635
 20
355.5
 10
2361.91493102155
 20
355.5
 10
2400.2267564776366
 20
355.5
 10
2438.538581933723
 20
355.5
 10
2476.8504073898093
 20
355.5
 10
2515.1622328458957
 20
355.5
 10
2553.4740583019825
 20
355.5
 10
2591.785883758069
 20
355.5
 10
2630.097709214155
 20
355.5
 10
2668.4095346702416
 20
355.5
 10
2706.7213601263284
 20
355.5
 10
2745.0331855824147
 20
355.5
 10
2783.345011038501
 20
355.5
 10
2821.6568364945874
 20
355.5
 10
2859.968661950674
 20
355.5
  0
LWPOLYLINE
  5
A6
330
17
100
AcDbEntity
  8
PIPE
100
AcDbPolyline
 90
49
 70
0
 10
1900.0
 20
330.0
 10
1940.0
 20
330.0
 10
1980.0
 20
330.0
 10
2020.0
 20
330.0
 10
2060.0
 20
330.0
 10
2100.0
 20
330.0
 10
2101.33517682333
 20
330.0
 10
2102.6703534833246
 20
330.0
 10
2104.005529871092
 20
330.0
 10
2105.3407058777425
 20
330.0
 10
2106.6758813943843
 20
330.0
 10
2108.0110563121275
 20
330.0
 10
2109.346230522082
 20
330.0
 10
2110.6814039153564
 20
330.0
 10
2112.016576383061
 20
330.0
 10
2113.351747816305
 20
330.0
 10
2114.686918106198
 20
330.0
 10
2116.02208714385
 20
330.0
 10
2117.3572548203715
 20
330.0
 10
2118.6924210268717
 20
330.0
 10
2120.0275856544613
 20
330.0
 10
2121.3627485942507
 20
330.0
 10
2122.6979097373496
 20
330.0
 10
2124.0330689748694
 20
330.0
 10
2125.36822619792
 20
330.0
 10
2126.7033812976133
 20
330.0
 10
2128.0385341650594
 20
330.0
 10
2129.3736846913703
 20
330.0
 10
2130.708832767657
 20
330.0
 10
2132.0439782850312
 20
330.0
 10
2170.3558037411176
 20
330.0
 10
2208.667629197204
 20
330.0
 10
2246.9794546532908
 20
330.0
 10
2285.291280109377
 20
330.0
 10
2323.6031055654635
 20
330.0
 10
2361.91493102155
 20
330.0
 10
2400.2267564776366
 20
330.0
 10
2438.538581933723
 20
330.0
 10
2476.8504073898093
 20
330.0
 10
2515.1622328458957
 20
330.0
 10
2553.4740583019825
 20
330.0
 10
2591.785883758069
 20
330.0
 10
2630.097709214155
 20
330.0
 10
2668.4095346702416
 20
330.0
 10
2706.7213601263284
 20
330.0
 10
2745.0331855824147
 20
330.0
 10
2783.345011038501
 20
330.0
 10
2821.6568364945874
 20
330.0
 10
2859.968661950674
 20
330.0
  0
LWPOLYLINE
  5
A7
330
17
100
AcDbEntity
  8
PIPE
100
AcDbPolyline
 90
49
 70
0
 10
1900.0
 20
304.5
 10
1940.0
 20
304.5
 10
1980.0
 20
304.5
 10
2020.0
 20
304.5
 10
2060.0
 20
304.5
 10
2100.0
 20
304.5
 10
2101.33517682333
 20
304.5
 10
2102.6703534833246
 20
304.5
 10
2104.005529871092
 20
304.5
 10
2105.3407058777425
 20
304.5
 10
2106.6758813943843
 20
304.5
 10
2108.0110563121275
 20
304.5
 10
2109.346230522082
 20
304.5
 10
2110.6814039153564
 20
304.5
 10
2112.016576383061
 20
304.5
 10
2113.351747816305
 20
304.5
 10
2114.686918106198
 20
304.5
 10
2116.02208714385
 20
304.5
 10
2117.3572548203715
 20
304.5
 10
2118.6924210268717
 20
304.5
 10
2120.0275856544613
 20
304.5
 10
2121.3627485942507
 20
304.5
 10
2122.6979097373496
 20
304.5
 10
2124.0330689748694
 20
304.5
 10
2125.36822619792
 20
304.5
 10
2126.7033812976133
 20
304.5
 10
2128.0385341650594
 20
304.5
 10
2129.3736846913703
 20
304.5
 10
2130.708832767657
 20
304.5
 10
2132.0439782850312
 20
304.5
 10
2170.3558037411176
 20
304.5
 10
2208.667629197204
 20
304.5
 10
2246.9794546532908
 20
304.5
 10
2285.291280109377
 20
304.5
 10
2323.6031055654635
 20
304.5
 10
2361.91493102155
 20
304.5
 10
2400.2267564776366
 20
304.5
 10
2438.538581933723
 20
304.5
 10
2476.8504073898093
 20
304.5
 10
2515.1622328458957
 20
304.5
 10
2553.4740583019825
 20
304.5
 10
2591.785883758069
 20
304.5
 10
2630.097709214155
 20
304.5
 10
2668.4095346702416
 20
304.5
 10
2706.7213601263284
 20
304.5
 10
2745.0331855824147
 20
304.5
 10
2783.345011038501
 20
304.5
 10
2821.6568364945874
 20
304.5
 10
2859.968661950674
 20
304.5
  0
LWPOLYLINE
  5
A8
330
17
100
AcDbEntity
  8
PIPE
100
AcDbPolyline
 90
49
 70
0
 10
1900.0
 20
355.5
 10
1940.0
 20
355.5
 10
1980.0
 20
355.5
 10
2020.0
 20
355.5
 10
2060.0
 20
355.5
 10
2100.0
 20
355.5
 10
2101.33517682333
 20
355.5
 10
2102.6703534833246
 20
355.5
 10
2104.005529871092
 20
355.5
 10
2105.3407058777425
 20
355.5
 10
2106.6758813943843
 20
355.5
 10
2108.0110563121275
 20
355.5
 10
2109.346230522082
 20
355.5
 10
2110.6814039153564
 20
355.5
 10
2112.016576383061
 20
355.5
 10
2113.351747816305
 20
355.5
 10
2114.686918106198
 20
355.5
 10
2116.02208714385
 20
355.5
 10
2117.3572548203715
 20
355.5
 10
2118.6924210268717
 20
355.5
 10
2120.0275856544613
 20
355.5
 10
2121.3627485942507
 20
355.5
 10
2122.6979097373496
 20
355.5
 10
2124.0330689748694
 20
355.5
 10
2125.36822619792
 20
355.5
 10
2126.7033812976133
 20
355.5
 10
2128.0385341650594
 20
355.5
 10
2129.3736846913703
 20
355.5
 10
2130.708832767657
 20
355.5
 10
2132.0439782850312
 20
355.5
 10
2170.3558037411176
 20
355.5
 10
2208.667629197204
 20
355.5
 10
2246.9794546532908
 20
355.5
 10
2285.291280109377
 20
355.5
 10
2323.6031055654635
 20
355.5
 10
2361.91493102155
 20
355.5
 10
2400.2267564776366
 20
355.5
 10
2438.538581933723
 20
355.5
 10
2476.8504073898093
 20
355.5
 10
2515.1622328458957
 20
355.5
 10
2553.4740583019825
 20
355.5
 10
2591.785883758069
 20
355.5
 10
2630.097709214155
 20
355.5
 10
2668.4095346702416
 20
355.5
 10
2706.7213601263284
 20
355.5
 10
2745.0331855824147
 20
355.5
 10
2783.345011038501
 20
355.5
 10
2821.6568364945874
 20
355.5
 10
2859.968661950674
 20
355.5
  0
LWPOLYLINE
  5
A9
330
17
100
AcDbEntity
  8
BOX
100
AcDbPolyline
 90
4
 70
1
 10
2860.0
 20
255.0
 10
3310.0
 20
255.0
 10
3310.0
 20
405.0
 10
2860.0
 20
405.0
  0
LWPOLYLINE
  5
AA
330
17
100
AcDbEntity
  8
BOX
100
AcDbPolyline
 90
4
 70
1
 10
2860.0
 20
255.0
 10
3310.0
 20
255.0
 10
3310.0
 20
405.0
 10
2860.0
 20
405.0
  0
LWPOLYLINE
  5
AB
330
17
100
AcDbEntity
  8
PIPE
100
AcDbPolyline
 90
29
 70
0
 10
3310.0
 20
330.0
 10
3340.0
 20
330.0
 10
3370.0
 20
330.0
 10
3371.178097197056
 20
330.0
 10
3372.3561942499923
 20
330.0
 10
3373.5342910627282
 20
330.0
 10
3374.7123875391844
 20
330.0
 10
3375.8904835832805
 20
330.0
 10
3377.0685790989364
 20
330.0
 10
3378.2466739900724
 20
330.0
 10
3379.424768160609
 20
330.0
 10
3380.6028615144655
 20
330.0
 10
3381.7809539555633
 20
330.0
 10
3382.959045387822
 20
330.0
 10
3384.137135715162
 20
330.0
 10
3385.3152248415045
 20
330.0
 10
3386.4933126707697
 20
330.0
 10
3387.671399106878
 20
330.0
 10
3388.849484053751
 20
330.0
 10
3390.027567415309
 20
330.0
 10
3391.2056490954733
 20
330.0
 10
3392.383728998165
 20
330.0
 10
3393.5618070273063
 20
330.0
 10
3394.739883086818
 20
330.0
 10
3395.9179570806214
 20
330.0
 10
3397.096028912639
 20
330.0
 10
3398.274098486793
 20
330.0
 10
3446.6391920137585
 20
330.0
 10
3495.0042855407246
 20
330.0
  0
LWPOLYLINE
  5
AC
330
17
100
AcDbEntity
  8
PIPE
100
AcDbPolyline
 90
29
 70
0
 10
3310.0
 20
307.5
 10
3340.0
 20
307.5
 10
3370.0
 20
307.5
 10
3371.178097197056
 20
307.5
 10
3372.3561942499923
 20
307.5
 10
3373.5342910627282
 20
307.5
 10
3374.7123875391844
 20
307.5
 10
3375.8904835832805
 20
307.5
 10
3377.0685790989364
 20
307.5
 10
3378.2466739900724
 20
307.5
 10
3379.424768160609
 20
307.5
 10
3380.6028615144655
 20
307.5
 10
3381.7809539555633
 20
307.5
 10
3382.959045387822
 20
307.5
 10
3384.137135715162
 20
307.5
 10
3385.3152248415045
 20
307.5
 10
3386.4933126707697
 20
307.5
 10
3387.671399106878
 20
307.5
 10
3388.849484053751
 20
307.5
 10
3390.027567415309
 20
307.5
 10
3391.2056490954733
 20
307.5
 10
3392.383728998165
 20
307.5
 10
3393.5618070273063
 20
307.5
 10
3394.739883086818
 20
307.5
 10
3395.9179570806214
 20
307.5
 10
3397.096028912639
 20
307.5
 10
3398.274098486793
 20
307.5
 10
3446.6391920137585
 20
307.5
 10
3495.0042855407246
 20
307.5
  0
LWPOLYLINE
  5
AD
330
17
100
AcDbEntity
  8
PIPE
100
AcDbPolyline
 90
29
 70
0
 10
3310.0
 20
352.5
 10
3340.0
 20
352.5
 10
3370.0
 20
352.5
 10
3371.178097197056
 20
352.5
 10
3372.3561942499923
 20
352.5
 10
3373.5342910627282
 20
352.5
 10
3374.7123875391844
 20
352.5
 10
3375.8904835832805
 20
352.5
 10
3377.0685790989364
 20
352.5
 10
3378.2466739900724
 20
352.5
 10
3379.424768160609
 20
352.5
 10
3380.6028615144655
 20
352.5
 10
3381.7809539555633
 20
352.5
 10
3382.959045387822
 20
352.5
 10
3384.137135715162
 20
352.5
 10
3385.3152248415045
 20
352.5
 10
3386.4933126707697
 20
352.5
 10
3387.671399106878
 20
352.5
 10
3388.849484053751
 20
352.5
 10
3390.027567415309
 20
352.5
 10
3391.2056490954733
 20
352.5
 10
3392.383728998165
 20
352.5
 10
3393.5618070273063
 20
352.5
 10
3394.739883086818
 20
352.5
 10
3395.9179570806214
 20
352.5
 10
3397.096028912639
 20
352.5
 10
3398.274098486793
 20
352.5
 10
3446.6391920137585
 20
352.5
 10
3495.0042855407246
 20
352.5
  0
LWPOLYLINE
  5
AE
330
17
100
AcDbEntity
  8
PIPE
100
AcDbPolyline
 90
29
 70
0
 10
3310.0
 20
330.0
 10
3340.0
 20
330.0
 10
3370.0
 20
330.0
 10
3371.178097197056
 20
330.0
 10
3372.3561942499923
 20
330.0
 10
3373.5342910627282
 20
330.0
 10
3374.7123875391844
 20
330.0
 10
3375.8904835832805
 20
330.0
 10
3377.0685790989364
 20
330.0
 10
3378.2466739900724
 20
330.0
 10
3379.424768160609
 20
330.0
 10
3380.6028615144655
 20
330.0
 10
3381.7809539555633
 20
330.0
 10
3382.959045387822
 20
330.0
 10
3384.137135715162
 20
330.0
 10
3385.3152248415045
 20
330.0
 10
3386.4933126707697
 20
330.0
 10
3387.671399106878
 20
330.0
 10
3388.849484053751
 20
330.0
 10
3390.027567415309
 20
330.0
 10
3391.2056490954733
 20
330.0
 10
3392.383728998165
 20
330.0
 10
3393.5618070273063
 20
330.0
 10
3394.739883086818
 20
330.0
 10
3395.9179570806214
 20
330.0
 10
3397.096028912639
 20
330.0
 10
3398.274098486793
 20
330.0
 10
3446.6391920137585
 20
330.0
 10
3495.0042855407246
 20
330.0
  0
LWPOLYLINE
  5
AF
330
17
100
AcDbEntity
  8
PIPE
100
AcDbPolyline
 90
29
 70
0
 10
3310.0
 20
307.5
 10
3340.0
 20
307.5
 10
3370.0
 20
307.5
 10
3371.178097197056
 20
307.5
 10
3372.3561942499923
 20
307.5
 10
3373.5342910627282
 20
307.5
 10
3374.7123875391844
 20
307.5
 10
3375.8904835832805
 20
307.5
 10
3377.0685790989364
 20
307.5
 10
3378.2466739900724
 20
307.5
 10
3379.424768160609
 20
307.5
 10
3380.6028615144655
 20
307.5
 10
3381.7809539555633
 20
307.5
 10
3382.959045387822
 20
307.5
 10
3384.137135715162
 20
307.5
 10
3385.3152248415045
 20
307.5
 10
3386.4933126707697
 20
307.5
 10
3387.671399106878
 20
307.5
 10
3388.849484053751
 20
307.5
 10
3390.027567415309
 20
307.5
 10
3391.2056490954733
 20
307.5
 10
3392.383728998165
 20
307.5
 10
3393.5618070273063
 20
307.5
 10
3394.739883086818
 20
307.5
 10
3395.9179570806214
 20
307.5
 10
3397.096028912639
 20
307.5
 10
3398.274098486793
 20
307.5
 10
3446.6391920137585
 20
307.5
 10
3495.0042855407246
 20
307.5
  0
LWPOLYLINE
  5
B0
330
17
100
AcDbEntity
  8
PIPE
100
AcDbPolyline
 90
29
 70
0
 10
3310.0
 20
352.5
 10
3340.0
 20
352.5
 10
3370.0
 20
352.5
 10
3371.178097197056
 20
352.5
 10
3372.3561942499923
 20
352.5
 10
3373.5342910627282
 20
352.5
 10
3374.7123875391844
 20
352.5
 10
3375.8904835832805
 20
352.5
 10
3377.0685790989364
 20
352.5
 10
3378.2466739900724
 20
352.5
 10
3379.424768160609
 20
352.5
 10
3380.6028615144655
 20
352.5
 10
3381.7809539555633
 20
352.5
 10
3382.959045387822
 20
352.5
 10
3384.137135715162
 20
352.5
 10
3385.3152248415045
 20
352.5
 10
3386.4933126707697
 20
352.5
 10
3387.671399106878
 20
352.5
 10
3388.849484053751
 20
352.5
 10
3390.027567415309
 20
352.5
 10
3391.2056490954733
 20
352.5
 10
3392.383728998165
 20
352.5
 10
3393.5618070273063
 20
352.5
 10
3394.739883086818
 20
352.5
 10
3395.9179570806214
 20
352.5
 10
3397.096028912639
 20
352.5
 10
3398.274098486793
 20
352.5
 10
3446.6391920137585
 20
352.5
 10
3495.0042855407246
 20
352.5
  0
LWPOLYLINE
  5
B1
330
17
100
AcDbEntity
  8
PIPE
100
AcDbPolyline
 90
5
 70
0
 10
3495.0042855407246
 20
330.0
 10
3538.885902563031
 20
330.4145010866919
 10
3582.7675195853367
 20
330.8290021733839
 10
3626.649136607643
 20
331.24350326007584
 10
3670.5307536299492
 20
331.65800434676777
  0
LWPOLYLINE
  5
B2
330
17
100
AcDbEntity
  8
PIPE
100
AcDbPolyline
 90
5
 70
0
 10
3495.0042855407246
 20
298.25
 10
3538.885902563031
 20
298.6645010866919
 10
3582.7675195853367
 20
299.0790021733839
 10
3626.649136607643
 20
299.49350326007584
 10
3670.5307536299492
 20
299.90800434676777
  0
LWPOLYLINE
  5
B3
330
17
100
AcDbEntity
  8
PIPE
100
AcDbPolyline
 90
5
 70
0
 10
3495.0042855407246
 20
361.75
 10
3538.885902563031
 20
362.1645010866919
 10
3582.7675195853367
 20
362.5790021733839
 10
3626.649136607643
 20
362.99350326007584
 10
3670.5307536299492
 20
363.40800434676777
  0
LWPOLYLINE
  5
B4
330
17
100
AcDbEntity
  8
PIPE
100
AcDbPolyline
 90
5
 70
0
 10
3495.0042855407246
 20
330.0
 10
3538.885902563031
 20
330.4145010866919
 10
3582.7675195853367
 20
330.8290021733839
 10
3626.649136607643
 20
331.24350326007584
 10
3670.5307536299492
 20
331.65800434676777
  0
LWPOLYLINE
  5
B5
330
17
100
AcDbEntity
  8
PIPE
100
AcDbPolyline
 90
5
 70
0
 10
3495.0042855407246
 20
298.25
 10
3538.885902563031
 20
298.6645010866919
 10
3582.7675195853367
 20
299.0790021733839
 10
3626.649136607643
 20
299.49350326007584
 10
3670.5307536299492
 20
299.90800434676777
  0
LWPOLYLINE
  5
B6
330
17
100
AcDbEntity
  8
PIPE
100
AcDbPolyline
 90
5
 70
0
 10
3495.0042855407246
 20
361.75
 10
3538.885902563031
 20
362.1645010866919
 10
3582.7675195853367
 20
362.5790021733839
 10
3626.649136607643
 20
362.99350326007584
 10
3670.5307536299492
 20
363.40800434676777
  0
CIRCLE
  5
B7
330
17
100
AcDbEntity
  8
HANGER
100
AcDbCircle
 10
300.0
 20
385.0
 30
0.0
 40
12.0
  0
CIRCLE
  5
B8
330
17
100
AcDbEntity
  8
HANGER
100
AcDbCircle
 10
1090.0
 20
385.0
 30
0.0
 40
12.0
  0
CIRCLE
  5
B9
330
17
100
AcDbEntity
  8
HANGER
100
AcDbCircle
 10
1820.0
 20
385.0
 30
0.0
 40
12.0
  0
CIRCLE
  5
BA
330
17
100
AcDbEntity
  8
HANGER
100
AcDbCircle
 10
2920.0
 20
430.0
 30
0.0
 40
12.0
  0
CIRCLE
  5
BB
330
17
100
AcDbEntity
  8
HANGER
100
AcDbCircle
 10
2920.0
 20
430.0
 30
0.0
 40
12.0
  0
CIRCLE
  5
BC
330
17
100
AcDbEntity
  8
HANGER
100
AcDbCircle
 10
3270.0
 20
430.0
 30
0.0
 40
12.0
  0
CIRCLE
  5
BD
330
17
100
AcDbEntity
  8
HANGER
100
AcDbCircle
 10
3270.0
 20
430.0
 30
0.0
 40
12.0
  0
CIRCLE
  5
BE
330
17
100
AcDbEntity
  8
HANGER
100
AcDbCircle
 10
1405.0
 20
417.0
 30
0.0
 40
12.0
  0
LINE
  5
BF
330
17
100
AcDbEntity
  8
DIM
100
AcDbLine
 10
0.0
 20
-480.0
 30
0.0
 11
2703.0
 21
-480.0
 31
0.0
  0
LINE
  5
C0
330
17
100
AcDbEntity
  8
DIM
100
AcDbLine
 10
0.0
 20
-510.0
 30
0.0
 11
0.0
 21
-450.0
 31
0.0
  0
LINE
  5
C1
330
17
100
AcDbEntity
  8
DIM
100
AcDbLine
 10
2703.0
 20
-510.0
 30
0.0
 11
2703.0
 21
-450.0
 31
0.0
  0
TEXT
  5
C2
330
17
100
AcDbEntity
  8
DIM
100
AcDbText
 10
1351.5
 20
-425.0
 30
0.0
 40
48.0
  1
колесная база 2703
 72
1
 11
1351.5
 21
-425.0
 31
0.0
100
AcDbText
 73
2
  0
LINE
  5
C3
330
17
100
AcDbEntity
  8
DIM
100
AcDbLine
 10
0.0
 20
-620.0
 30
0.0
 11
3630.0
 21
-620.0
 31
0.0
  0
LINE
  5
C4
330
17
100
AcDbEntity
  8
DIM
100
AcDbLine
 10
0.0
 20
-650.0
 30
0.0
 11
0.0
 21
-590.0
 31
0.0
  0
LINE
  5
C5
330
17
100
AcDbEntity
  8
DIM
100
AcDbLine
 10
3630.0
 20
-650.0
 30
0.0
 11
3630.0
 21
-590.0
 31
0.0
  0
TEXT
  5
C6
330
17
100
AcDbEntity
  8
DIM
100
AcDbText
 10
1815.0
 20
-565.0
 30
0.0
 40
48.0
  1
X до заднего бампера 3630
 72
1
 11
1815.0
 21
-565.0
 31
0.0
100
AcDbText
 73
2
  0
LINE
  5
C7
330
17
100
AcDbEntity
  8
DIM
100
AcDbLine
 10
1900.0
 20
-760.0
 30
0.0
 11
2860.0
 21
-760.0
 31
0.0
  0
LINE
  5
C8
330
17
100
AcDbEntity
  8
DIM
100
AcDbLine
 10
1900.0
 20
-790.0
 30
0.0
 11
1900.0
 21
-730.0
 31
0.0
  0
LINE
  5
C9
330
17
100
AcDbEntity
  8
DIM
100
AcDbLine
 10
2860.0
 20
-790.0
 30
0.0
 11
2860.0
 21
-730.0
 31
0.0
  0
TEXT
  5
CA
330
17
100
AcDbEntity
  8
DIM
100
AcDbText
 10
2380.0
 20
-705.0
 30
0.0
 40
48.0
  1
Y → вход банок 960
 72
1
 11
2380.0
 21
-705.0
 31
0.0
100
AcDbText
 73
2
  0
LINE
  5
CB
330
17
100
AcDbEntity
  8
DIM
100
AcDbLine
 10
2860.0
 20
-900.0
 30
0.0
 11
3310.0
 21
-900.0
 31
0.0
  0
LINE
  5
CC
330
17
100
AcDbEntity
  8
DIM
100
AcDbLine
 10
2860.0
 20
-930.0
 30
0.0
 11
2860.0
 21
-870.0
 31
0.0
  0
LINE
  5
CD
330
17
100
AcDbEntity
  8
DIM
100
AcDbLine
 10
3310.0
 20
-930.0
 30
0.0
 11
3310.0
 21
-870.0
 31
0.0
  0
TEXT
  5
CE
330
17
100
AcDbEntity
  8
DIM
100
AcDbText
 10
3085.0
 20
-845.0
 30
0.0
 40
48.0
  1
банка 450
 72
1
 11
3085.0
 21
-845.0
 31
0.0
100
AcDbText
 73
2
  0
LINE
  5
CF
330
17
100
AcDbEntity
  8
DIM
100
AcDbLine
 10
3310.0
 20
-1040.0
 30
0.0
 11
3685.0
 21
-1040.0
 31
0.0
  0
LINE
  5
D0
330
17
100
AcDbEntity
  8
DIM
100
AcDbLine
 10
3310.0
 20
-1070.0
 30
0.0
 11
3310.0
 21
-1010.0
 31
0.0
  0
LINE
  5
D1
330
17
100
AcDbEntity
  8
DIM
100
AcDbLine
 10
3685.0
 20
-1070.0
 30
0.0
 11
3685.0
 21
-1010.0
 31
0.0
  0
TEXT
  5
D2
330
17
100
AcDbEntity
  8
DIM
100
AcDbText
 10
3497.5
 20
-985.0
 30
0.0
 40
48.0
  1
банка → срез насадки 375
 72
1
 11
3497.5
 21
-985.0
 31
0.0
100
AcDbText
 73
2
  0
LINE
  5
D3
330
17
100
AcDbEntity
  8
DIM
100
AcDbLine
 10
-1145.0
 20
255.0
 30
0.0
 11
600.0
 21
255.0
 31
0.0
  0
TEXT
  5
D4
330
17
100
AcDbEntity
  8
DIM
100
AcDbText
 10
-1135.0
 20
300.0
 30
0.0
 40
42.0
  1
низ банки 255
 11
-1135.0
 21
300.0
 31
0.0
100
AcDbText
  0
LINE
  5
D5
330
17
100
AcDbEntity
  8
DIM
100
AcDbLine
 10
-1145.0
 20
330.0
 30
0.0
 11
600.0
 21
330.0
 31
0.0
  0
TEXT
  5
D6
330
17
100
AcDbEntity
  8
DIM
100
AcDbText
 10
-1135.0
 20
375.0
 30
0.0
 40
42.0
  1
ось трубы 330
 11
-1135.0
 21
375.0
 31
0.0
100
AcDbText
  0
LINE
  5
D7
330
17
100
AcDbEntity
  8
DIM
100
AcDbLine
 10
-1145.0
 20
520.0
 30
0.0
 11
600.0
 21
520.0
 31
0.0
  0
TEXT
  5
D8
330
17
100
AcDbEntity
  8
DIM
100
AcDbText
 10
-1135.0
 20
565.0
 30
0.0
 40
42.0
  1
низ пола 520
 11
-1135.0
 21
565.0
 31
0.0
100
AcDbText
  0
LINE
  5
D9
330
17
100
AcDbEntity
  8
DIM
100
AcDbLine
 10
-1145.0
 20
405.0
 30
0.0
 11
600.0
 21
405.0
 31
0.0
  0
TEXT
  5
DA
330
17
100
AcDbEntity
  8
DIM
100
AcDbText
 10
-1135.0
 20
450.0
 30
0.0
 40
42.0
  1
низ бака 405
 11
-1135.0
 21
450.0
 31
0.0
100
AcDbText
  0
TEXT
  5
DB
330
17
100
AcDbEntity
  8
TEXT
100
AcDbText
 10
-885.0
 20
-1250.0
 30
0.0
 40
70.0
  1
ВИД СБОКУ — 1:1, мм (X от оси передних колёс)
 11
-885.0
 21
-1250.0
 31
0.0
100
AcDbText
  0
LWPOLYLINE
  5
DC
330
17
100
AcDbEntity
  8
CAR
100
AcDbPolyline
 90
4
 70
1
 10
-885.0
 20
-876.5
 10
3630.0
 20
-876.5
 10
3630.0
 20
876.5
 10
-885.0
 20
876.5
  0
LWPOLYLINE
  5
DD
330
17
100
AcDbEntity
  8
CAR
100
AcDbPolyline
 90
4
 70
1
 10
2260.0
 20
-330.0
 10
2680.0
 20
-330.0
 10
2680.0
 20
330.0
 10
2260.0
 20
330.0
  0
LINE
  5
DE
330
17
100
AcDbEntity
  8
CAR
100
AcDbLine
 10
2350.0
 20
585.0
 30
0.0
 11
3000.0
 21
585.0
 31
0.0
  0
LINE
  5
DF
330
17
100
AcDbEntity
  8
CAR
100
AcDbLine
 10
2350.0
 20
-585.0
 30
0.0
 11
3000.0
 21
-585.0
 31
0.0
  0
LWPOLYLINE
  5
E0
330
17
100
AcDbEntity
  8
CAR
100
AcDbPolyline
 90
4
 70
1
 10
-115.0
 20
-876.5
 10
115.0
 20
-876.5
 10
115.0
 20
-631.5
 10
-115.0
 20
-631.5
  0
LWPOLYLINE
  5
E1
330
17
100
AcDbEntity
  8
CAR
100
AcDbPolyline
 90
4
 70
1
 10
-115.0
 20
876.5
 10
115.0
 20
876.5
 10
115.0
 20
631.5
 10
-115.0
 20
631.5
  0
LWPOLYLINE
  5
E2
330
17
100
AcDbEntity
  8
CAR
100
AcDbPolyline
 90
4
 70
1
 10
2588.0
 20
-876.5
 10
2818.0
 20
-876.5
 10
2818.0
 20
-631.5
 10
2588.0
 20
-631.5
  0
LWPOLYLINE
  5
E3
330
17
100
AcDbEntity
  8
CAR
100
AcDbPolyline
 90
4
 70
1
 10
2588.0
 20
876.5
 10
2818.0
 20
876.5
 10
2818.0
 20
631.5
 10
2588.0
 20
631.5
  0
LWPOLYLINE
  5
E4
330
17
100
AcDbEntity
  8
PIPE
100
AcDbPolyline
 90
80
 70
0
 10
-150.0
 20
-40.0
 10
-106.01988588316925
 20
-38.67728980099757
 10
-62.039771766338504
 20
-37.35457960199514
 10
-18.059657649507756
 20
-36.03186940299271
 10
25.920456467322992
 20
-34.70915920399029
 10
69.90057058415374
 20
-33.38644900498786
 10
70.3977646093359
 20
-33.371495801222984
 10
70.8949586277599
 20
-33.35654259766136
 10
71.39215263492036
 20
-33.341589394438486
 10
71.88934662631185
 20
-33.32663619168987
 10
72.38654059742893
 20
-33.31168298955101
 10
72.88373454376621
 20
-33.29672978815741
 10
73.38092846081825
 20
-33.281776587644565
 10
73.87812234407963
 20
-33.266823388147984
 10
74.37531618904494
 20
-33.251870189803164
 10
74.87250999120874
 20
-33.236916992745606
 10
75.36970374606564
 20
-33.22196379711081
 10
75.8668974491102
 20
-33.207010603034284
 10
76.364091095837
 20
-33.19205741065152
 10
76.86128468174063
 20
-33.17710422009803
 10
77.35847820231567
 20
-33.16215103150931
 10
77.8556716530567
 20
-33.147197845020855
 10
78.35286502945831
 20
-33.13224466076817
 10
78.85005832701509
 20
-33.11729147888676
 10
79.34725154122161
 20
-33.102338299512134
 10
79.84444466757246
 20
-33.08738512277978
 10
80.34163770156223
 20
-33.0724319488252
 10
80.83883063868551
 20
-33.0574787777839
 10
81.33602347443689
 20
-33.042525609791376
 10
81.83321620431094
 20
-33.027572444983136
 10
122.88750991529027
 20
-31.79285684465293
 10
163.94180362626958
 20
-30.558141244322726
 10
204.9960973372489
 20
-29.323425643992522
 10
246.05039104822822
 20
-28.088710043662317
 10
287.10468475920754
 20
-26.853994443332112
 10
328.15897847018687
 20
-25.619278843001908
 10
369.2132721811662
 20
-24.3845632426717
 10
410.2675658921455
 20
-23.149847642341495
 10
451.3218596031249
 20
-21.91513204201129
 10
492.37615331410416
 20
-20.680416441681086
 10
533.4304470250835
 20
-19.44570084135088
 10
533.9233936641776
 20
-19.430875378520984
 10
534.4163464742929
 20
-19.416049730096464
 10
534.9093054509624
 20
-19.40122389621167
 10
535.402270589719
 20
-19.386397877000945
 10
535.8952418860956
 20
-19.37157167259864
 10
536.3882193356251
 20
-19.35674528313911
 10
536.8812029338402
 20
-19.341918708756697
 10
537.3741926762738
 20
-19.327091949585764
 10
537.8671885584583
 20
-19.312265005760665
 10
538.3601905759266
 20
-19.297437877415753
 10
538.8531987242111
 20
-19.282610564685392
 10
539.3462129988444
 20
-19.267783067703938
 10
539.8392333953589
 20
-19.25295538660576
 10
540.332259909287
 20
-19.238127521525215
 10
540.8252925361611
 20
-19.223299472596672
 10
541.3183312715134
 20
-19.2084712399545
 10
541.8113761108763
 20
-19.19364282373306
 10
542.3044270497817
 20
-19.17881422406673
 10
542.7974840837619
 20
-19.16398544108988
 10
543.290547208349
 20
-19.149156474936888
 10
543.783616419075
 20
-19.134327325742124
 10
544.2766917114717
 20
-19.119497993639968
 10
544.7697730810712
 20
-19.104668478764797
 10
545.2628605234053
 20
-19.089838781250993
 10
587.5770612267197
 20
-17.817231241301688
 10
629.8912619300341
 20
-16.544623701352382
 10
672.2054626333486
 20
-15.272016161403075
 10
714.519663336663
 20
-13.99940862145377
 10
756.8338640399775
 20
-12.726801081504464
 10
799.1480647432918
 20
-11.454193541555156
 10
841.4622654466062
 20
-10.18158600160585
 10
883.7764661499207
 20
-8.908978461656545
 10
926.0906668532351
 20
-7.63637092170724
 10
968.4048675565496
 20
-6.363763381757934
 10
1010.719068259864
 20
-5.091155841808627
 10
1053.0332689631784
 20
-3.8185483018593214
 10
1095.347469666493
 20
-2.545940761910014
 10
1137.6616703698073
 20
-1.2733332219607085
 10
1179.9758710731217
 20
-0.0007256820114029949
  0
LWPOLYLINE
  5
E5
330
17
100
AcDbEntity
  8
PIPE
100
AcDbPolyline
 90
80
 70
0
 10
-150.0
 20
-68.5
 10
-106.01988588316925
 20
-67.17728980099757
 10
-62.039771766338504
 20
-65.85457960199514
 10
-18.059657649507756
 20
-64.53186940299271
 10
25.920456467322992
 20
-63.20915920399029
 10
69.90057058415374
 20
-61.88644900498786
 10
70.3977646093359
 20
-61.871495801222984
 10
70.8949586277599
 20
-61.85654259766136
 10
71.39215263492036
 20
-61.841589394438486
 10
71.88934662631185
 20
-61.82663619168987
 10
72.38654059742893
 20
-61.81168298955101
 10
72.88373454376621
 20
-61.79672978815741
 10
73.38092846081825
 20
-61.781776587644565
 10
73.87812234407963
 20
-61.766823388147984
 10
74.37531618904494
 20
-61.751870189803164
 10
74.87250999120874
 20
-61.736916992745606
 10
75.36970374606564
 20
-61.72196379711081
 10
75.8668974491102
 20
-61.707010603034284
 10
76.364091095837
 20
-61.69205741065152
 10
76.86128468174063
 20
-61.67710422009803
 10
77.35847820231567
 20
-61.66215103150931
 10
77.8556716530567
 20
-61.647197845020855
 10
78.35286502945831
 20
-61.63224466076817
 10
78.85005832701509
 20
-61.61729147888676
 10
79.34725154122161
 20
-61.602338299512134
 10
79.84444466757246
 20
-61.58738512277978
 10
80.34163770156223
 20
-61.5724319488252
 10
80.83883063868551
 20
-61.5574787777839
 10
81.33602347443689
 20
-61.542525609791376
 10
81.83321620431094
 20
-61.527572444983136
 10
122.88750991529027
 20
-60.29285684465293
 10
163.94180362626958
 20
-59.05814124432273
 10
204.9960973372489
 20
-57.82342564399252
 10
246.05039104822822
 20
-56.58871004366232
 10
287.10468475920754
 20
-55.35399444333211
 10
328.15897847018687
 20
-54.11927884300191
 10
369.2132721811662
 20
-52.8845632426717
 10
410.2675658921455
 20
-51.6498476423415
 10
451.3218596031249
 20
-50.415132042011294
 10
492.37615331410416
 20
-49.18041644168109
 10
533.4304470250835
 20
-47.945700841350885
 10
533.9233936641776
 20
-47.93087537852098
 10
534.4163464742929
 20
-47.91604973009646
 10
534.9093054509624
 20
-47.90122389621167
 10
535.402270589719
 20
-47.886397877000945
 10
535.8952418860956
 20
-47.87157167259864
 10
536.3882193356251
 20
-47.856745283139105
 10
536.8812029338402
 20
-47.841918708756694
 10
537.3741926762738
 20
-47.827091949585764
 10
537.8671885584583
 20
-47.812265005760665
 10
538.3601905759266
 20
-47.79743787741575
 10
538.8531987242111
 20
-47.78261056468539
 10
539.3462129988444
 20
-47.76778306770394
 10
539.8392333953589
 20
-47.75295538660576
 10
540.332259909287
 20
-47.738127521525215
 10
540.8252925361611
 20
-47.72329947259667
 10
541.3183312715134
 20
-47.7084712399545
 10
541.8113761108763
 20
-47.69364282373306
 10
542.3044270497817
 20
-47.67881422406673
 10
542.7974840837619
 20
-47.66398544108988
 10
543.290547208349
 20
-47.64915647493689
 10
543.783616419075
 20
-47.63432732574212
 10
544.2766917114717
 20
-47.61949799363997
 10
544.7697730810712
 20
-47.60466847876479
 10
545.2628605234053
 20
-47.58983878125099
 10
587.5770612267197
 20
-46.317231241301684
 10
629.8912619300341
 20
-45.04462370135238
 10
672.2054626333486
 20
-43.77201616140307
 10
714.519663336663
 20
-42.49940862145377
 10
756.8338640399775
 20
-41.22680108150446
 10
799.1480647432918
 20
-39.954193541555156
 10
841.4622654466062
 20
-38.68158600160585
 10
883.7764661499207
 20
-37.408978461656545
 10
926.0906668532351
 20
-36.13637092170724
 10
968.4048675565496
 20
-34.863763381757934
 10
1010.719068259864
 20
-33.59115584180863
 10
1053.0332689631784
 20
-32.31854830185932
 10
1095.347469666493
 20
-31.045940761910014
 10
1137.6616703698073
 20
-29.77333322196071
 10
1179.9758710731217
 20
-28.500725682011403
  0
LWPOLYLINE
  5
E6
330
17
100
AcDbEntity
  8
PIPE
100
AcDbPolyline
 90
80
 70
0
 10
-150.0
 20
-11.5
 10
-106.01988588316925
 20
-10.17728980099757
 10
-62.039771766338504
 20
-8.854579601995141
 10
-18.059657649507756
 20
-7.531869402992712
 10
25.920456467322992
 20
-6.209159203990289
 10
69.90057058415374
 20
-4.88644900498786
 10
70.3977646093359
 20
-4.871495801222984
 10
70.8949586277599
 20
-4.85654259766136
 10
71.39215263492036
 20
-4.841589394438486
 10
71.88934662631185
 20
-4.826636191689872
 10
72.38654059742893
 20
-4.811682989551009
 10
72.88373454376621
 20
-4.796729788157407
 10
73.38092846081825
 20
-4.781776587644565
 10
73.87812234407963
 20
-4.766823388147984
 10
74.37531618904494
 20
-4.751870189803164
 10
74.87250999120874
 20
-4.736916992745606
 10
75.36970374606564
 20
-4.72196379711081
 10
75.8668974491102
 20
-4.707010603034284
 10
76.364091095837
 20
-4.692057410651522
 10
76.86128468174063
 20
-4.67710422009803
 10
77.35847820231567
 20
-4.66215103150931
 10
77.8556716530567
 20
-4.647197845020855
 10
78.35286502945831
 20
-4.632244660768173
 10
78.85005832701509
 20
-4.617291478886763
 10
79.34725154122161
 20
-4.602338299512134
 10
79.84444466757246
 20
-4.587385122779779
 10
80.34163770156223
 20
-4.572431948825198
 10
80.83883063868551
 20
-4.557478777783899
 10
81.33602347443689
 20
-4.542525609791376
 10
81.83321620431094
 20
-4.527572444983136
 10
122.88750991529027
 20
-3.292856844652931
 10
163.94180362626958
 20
-2.0581412443227265
 10
204.9960973372489
 20
-0.8234256439925218
 10
246.05039104822822
 20
0.41128995633768284
 10
287.10468475920754
 20
1.6460055566678875
 10
328.15897847018687
 20
2.880721156998092
 10
369.2132721811662
 20
4.1154367573283
 10
410.2675658921455
 20
5.350152357658505
 10
451.3218596031249
 20
6.58486795798871
 10
492.37615331410416
 20
7.819583558318914
 10
533.4304470250835
 20
9.054299158649119
 10
533.9233936641776
 20
9.069124621479016
 10
534.4163464742929
 20
9.083950269903536
 10
534.9093054509624
 20
9.098776103788332
 10
535.402270589719
 20
9.113602122999055
 10
535.8952418860956
 20
9.128428327401359
 10
536.3882193356251
 20
9.143254716860891
 10
536.8812029338402
 20
9.158081291243303
 10
537.3741926762738
 20
9.172908050414236
 10
537.8671885584583
 20
9.187734994239335
 10
538.3601905759266
 20
9.202562122584247
 10
538.8531987242111
 20
9.217389435314608
 10
539.3462129988444
 20
9.232216932296062
 10
539.8392333953589
 20
9.247044613394241
 10
540.332259909287
 20
9.261872478474785
 10
540.8252925361611
 20
9.276700527403328
 10
541.3183312715134
 20
9.291528760045502
 10
541.8113761108763
 20
9.306357176266939
 10
542.3044270497817
 20
9.32118577593327
 10
542.7974840837619
 20
9.336014558910119
 10
543.290547208349
 20
9.350843525063112
 10
543.783616419075
 20
9.365672674257876
 10
544.2766917114717
 20
9.380502006360032
 10
544.7697730810712
 20
9.395331521235203
 10
545.2628605234053
 20
9.410161218749007
 10
587.5770612267197
 20
10.682768758698312
 10
629.8912619300341
 20
11.955376298647618
 10
672.2054626333486
 20
13.227983838596925
 10
714.519663336663
 20
14.50059137854623
 10
756.8338640399775
 20
15.773198918495536
 10
799.1480647432918
 20
17.045806458444844
 10
841.4622654466062
 20
18.31841399839415
 10
883.7764661499207
 20
19.591021538343455
 10
926.0906668532351
 20
20.86362907829276
 10
968.4048675565496
 20
22.136236618242066
 10
1010.719068259864
 20
23.40884415819137
 10
1053.0332689631784
 20
24.681451698140677
 10
1095.347469666493
 20
25.954059238089986
 10
1137.6616703698073
 20
27.22666677803929
 10
1179.9758710731217
 20
28.499274317988597
  0
CIRCLE
  5
E7
330
17
100
AcDbEntity
  8
BEND
100
AcDbCircle
 10
82.0
 20
-33.0
 30
0.0
 40
18.0
  0
TEXT
  5
E8
330
17
100
AcDbEntity
  8
BEND
100
AcDbText
 10
112.0
 20
7.0
 30
0.0
 40
38.0
  1
B1 7.5 R91
 11
112.0
 21
7.0
 31
0.0
100
AcDbText
  0
CIRCLE
  5
E9
330
17
100
AcDbEntity
  8
BEND
100
AcDbCircle
 10
545.0
 20
-19.0
 30
0.0
 40
18.0
  0
TEXT
  5
EA
330
17
100
AcDbEntity
  8
BEND
100
AcDbText
 10
575.0
 20
21.0
 30
0.0
 40
38.0
  1
B2 7.5 R91
 11
575.0
 21
21.0
 31
0.0
100
AcDbText
  0
LWPOLYLINE
  5
EB
330
17
100
AcDbEntity
  8
RES
100
AcDbPolyline
 90
2
 70
0
 10
1180.0
 20
-0.0007256820114029949
 10
1630.0
 20
-0.0007256820114029949
  0
LWPOLYLINE
  5
EC
330
17
100
AcDbEntity
  8
RES
100
AcDbPolyline
 90
2
 70
0
 10
1180.0
 20
-57.00072568201141
 10
1630.0
 20
-57.00072568201141
  0
LWPOLYLINE
  5
ED
330
17
100
AcDbEntity
  8
RES
100
AcDbPolyline
 90
2
 70
0
 10
1180.0
 20
56.99927431798859
 10
1630.0
 20
56.99927431798859
  0
LWPOLYLINE
  5
EE
330
17
100
AcDbEntity
  8
PIPE
100
AcDbPolyline
 90
7
 70
0
 10
1630.0
 20
-0.0007256820114029949
 10
1675.0
 20
-0.0007256820114029949
 10
1720.0
 20
-0.0007256820114029949
 10
1765.0
 20
-0.0007256820114029949
 10
1810.0
 20
-0.0007256820114029949
 10
1855.0
 20
-0.0007256820114029949
 10
1900.0
 20
-0.0007256820114029949
  0
LWPOLYLINE
  5
EF
330
17
100
AcDbEntity
  8
PIPE
100
AcDbPolyline
 90
7
 70
0
 10
1630.0
 20
-28.500725682011403
 10
1675.0
 20
-28.500725682011403
 10
1720.0
 20
-28.500725682011403
 10
1765.0
 20
-28.500725682011403
 10
1810.0
 20
-28.500725682011403
 10
1855.0
 20
-28.500725682011403
 10
1900.0
 20
-28.500725682011403
  0
LWPOLYLINE
  5
F0
330
17
100
AcDbEntity
  8
PIPE
100
AcDbPolyline
 90
7
 70
0
 10
1630.0
 20
28.499274317988597
 10
1675.0
 20
28.499274317988597
 10
1720.0
 20
28.499274317988597
 10
1765.0
 20
28.499274317988597
 10
1810.0
 20
28.499274317988597
 10
1855.0
 20
28.499274317988597
 10
1900.0
 20
28.499274317988597
  0
LWPOLYLINE
  5
F1
330
17
100
AcDbEntity
  8
PIPE
100
AcDbPolyline
 90
49
 70
0
 10
1900.0
 20
-0.0007256820114029949
 10
1940.0
 20
-0.0007256820114029949
 10
1980.0
 20
-0.0007256820114029949
 10
2020.0
 20
-0.0007256820114029949
 10
2060.0
 20
-0.0007256820114029949
 10
2100.0
 20
-0.0007256820114029949
 10
2101.33517682333
 20
-0.00034438376458559365
 10
2102.6703534833246
 20
0.000418212697952328
 10
2104.005529871092
 20
0.0015621073140170113
 10
2105.3407058777425
 20
0.0030872999903178234
 10
2106.6758813943843
 20
0.004993790602467268
 10
2108.0110563121275
 20
0.00728157899498099
 10
2109.346230522082
 20
0.009950664981277795
 10
2110.6814039153564
 20
0.013001048343679659
 10
2112.016576383061
 20
0.01643272883341175
 10
2113.351747816305
 20
0.020245706170602444
 10
2114.686918106198
 20
0.02443998004428335
 10
2116.02208714385
 20
0.029015550112389342
 10
2117.3572548203715
 20
0.03397241600175857
 10
2118.6924210268717
 20
0.03931057730813251
 10
2120.0275856544613
 20
0.04503003359615599
 10
2121.3627485942507
 20
0.05113078439937721
 10
2122.6979097373496
 20
0.0576128292202478
 10
2124.0330689748694
 20
0.06447616753012288
 10
2125.36822619792
 20
0.07172079876926102
 10
2126.7033812976133
 20
0.0793467223468244
 10
2128.0385341650594
 20
0.08735393764087876
 10
2129.3736846913703
 20
0.09574244399839352
 10
2130.708832767657
 20
0.10451224073524179
 10
2132.0439782850312
 20
0.11366332713620045
 10
2170.3558037411176
 20
15.982941030318
 10
2208.667629197204
 20
31.852218733499804
 10
2246.9794546532908
 20
47.721496436681605
 10
2285.291280109377
 20
63.590774139863406
 10
2323.6031055654635
 20
79.4600518430452
 10
2361.91493102155
 20
95.329329546227
 10
2400.2267564776366
 20
111.19860724940882
 10
2438.538581933723
 20
127.0678849525906
 10
2476.8504073898093
 20
142.93716265577243
 10
2515.1622328458957
 20
158.80644035895423
 10
2553.4740583019825
 20
174.67571806213604
 10
2591.785883758069
 20
190.54499576531782
 10
2630.097709214155
 20
206.41427346849963
 10
2668.4095346702416
 20
222.28355117168147
 10
2706.7213601263284
 20
238.15282887486322
 10
2745.0331855824147
 20
254.02210657804503
 10
2783.345011038501
 20
269.8913842812268
 10
2821.6568364945874
 20
285.7606619844086
 10
2859.968661950674
 20
301.6299396875904
  0
LWPOLYLINE
  5
F2
330
17
100
AcDbEntity
  8
PIPE
100
AcDbPolyline
 90
49
 70
0
 10
1900.0
 20
-25.500725682011403
 10
1940.0
 20
-25.500725682011403
 10
1980.0
 20
-25.500725682011403
 10
2020.0
 20
-25.500725682011403
 10
2060.0
 20
-25.500725682011403
 10
2100.0
 20
-25.500725682011403
 10
2101.33517682333
 20
-25.500344383764585
 10
2102.6703534833246
 20
-25.49958178730205
 10
2104.005529871092
 20
-25.498437892685985
 10
2105.3407058777425
 20
-25.49691270000968
 10
2106.6758813943843
 20
-25.495006209397534
 10
2108.0110563121275
 20
-25.49271842100502
 10
2109.346230522082
 20
-25.49004933501872
 10
2110.6814039153564
 20
-25.48699895165632
 10
2112.016576383061
 20
-25.48356727116659
 10
2113.351747816305
 20
-25.479754293829398
 10
2114.686918106198
 20
-25.475560019955715
 10
2116.02208714385
 20
-25.47098444988761
 10
2117.3572548203715
 20
-25.46602758399824
 10
2118.6924210268717
 20
-25.460689422691868
 10
2120.0275856544613
 20
-25.454969966403844
 10
2121.3627485942507
 20
-25.448869215600624
 10
2122.6979097373496
 20
-25.442387170779753
 10
2124.0330689748694
 20
-25.435523832469876
 10
2125.36822619792
 20
-25.42827920123074
 10
2126.7033812976133
 20
-25.420653277653177
 10
2128.0385341650594
 20
-25.412646062359123
 10
2129.3736846913703
 20
-25.404257556001607
 10
2130.708832767657
 20
-25.395487759264757
 10
2132.0439782850312
 20
-25.3863366728638
 10
2170.3558037411176
 20
-9.517058969682
 10
2208.667629197204
 20
6.352218733499804
 10
2246.9794546532908
 20
22.221496436681605
 10
2285.291280109377
 20
38.090774139863406
 10
2323.6031055654635
 20
53.96005184304521
 10
2361.91493102155
 20
69.829329546227
 10
2400.2267564776366
 20
85.69860724940882
 10
2438.538581933723
 20
101.5678849525906
 10
2476.8504073898093
 20
117.43716265577243
 10
2515.1622328458957
 20
133.30644035895423
 10
2553.4740583019825
 20
149.17571806213604
 10
2591.785883758069
 20
165.04499576531782
 10
2630.097709214155
 20
180.91427346849963
 10
2668.4095346702416
 20
196.78355117168147
 10
2706.7213601263284
 20
212.65282887486322
 10
2745.0331855824147
 20
228.52210657804503
 10
2783.345011038501
 20
244.3913842812268
 10
2821.6568364945874
 20
260.2606619844086
 10
2859.968661950674
 20
276.1299396875904
  0
LWPOLYLINE
  5
F3
330
17
100
AcDbEntity
  8
PIPE
100
AcDbPolyline
 90
49
 70
0
 10
1900.0
 20
25.499274317988597
 10
1940.0
 20
25.499274317988597
 10
1980.0
 20
25.499274317988597
 10
2020.0
 20
25.499274317988597
 10
2060.0
 20
25.499274317988597
 10
2100.0
 20
25.499274317988597
 10
2101.33517682333
 20
25.499655616235415
 10
2102.6703534833246
 20
25.50041821269795
 10
2104.005529871092
 20
25.501562107314015
 10
2105.3407058777425
 20
25.50308729999032
 10
2106.6758813943843
 20
25.504993790602466
 10
2108.0110563121275
 20
25.50728157899498
 10
2109.346230522082
 20
25.50995066498128
 10
2110.6814039153564
 20
25.51300104834368
 10
2112.016576383061
 20
25.51643272883341
 10
2113.351747816305
 20
25.520245706170602
 10
2114.686918106198
 20
25.524439980044285
 10
2116.02208714385
 20
25.52901555011239
 10
2117.3572548203715
 20
25.53397241600176
 10
2118.6924210268717
 20
25.539310577308132
 10
2120.0275856544613
 20
25.545030033596156
 10
2121.3627485942507
 20
25.551130784399376
 10
2122.6979097373496
 20
25.557612829220247
 10
2124.0330689748694
 20
25.564476167530124
 10
2125.36822619792
 20
25.57172079876926
 10
2126.7033812976133
 20
25.579346722346823
 10
2128.0385341650594
 20
25.587353937640877
 10
2129.3736846913703
 20
25.595742443998393
 10
2130.708832767657
 20
25.604512240735243
 10
2132.0439782850312
 20
25.6136633271362
 10
2170.3558037411176
 20
41.482941030318
 10
2208.667629197204
 20
57.352218733499804
 10
2246.9794546532908
 20
73.2214964366816
 10
2285.291280109377
 20
89.09077413986341
 10
2323.6031055654635
 20
104.9600518430452
 10
2361.91493102155
 20
120.829329546227
 10
2400.2267564776366
 20
136.69860724940884
 10
2438.538581933723
 20
152.5678849525906
 10
2476.8504073898093
 20
168.43716265577243
 10
2515.1622328458957
 20
184.30644035895423
 10
2553.4740583019825
 20
200.17571806213604
 10
2591.785883758069
 20
216.04499576531782
 10
2630.097709214155
 20
231.91427346849963
 10
2668.4095346702416
 20
247.78355117168147
 10
2706.7213601263284
 20
263.6528288748632
 10
2745.0331855824147
 20
279.52210657804505
 10
2783.345011038501
 20
295.3913842812268
 10
2821.6568364945874
 20
311.2606619844086
 10
2859.968661950674
 20
327.1299396875904
  0
CIRCLE
  5
F4
330
17
100
AcDbEntity
  8
BEND
100
AcDbCircle
 10
2132.0
 20
0.0
 30
0.0
 40
18.0
  0
TEXT
  5
F5
330
17
100
AcDbEntity
  8
BEND
100
AcDbText
 10
2162.0
 20
40.0
 30
0.0
 40
38.0
  1
B1 22.5 R82
 11
2162.0
 21
40.0
 31
0.0
100
AcDbText
  0
LWPOLYLINE
  5
F6
330
17
100
AcDbEntity
  8
PIPE
100
AcDbPolyline
 90
49
 70
0
 10
1900.0
 20
-0.0007256820114029949
 10
1940.0
 20
-0.0007256820114029949
 10
1980.0
 20
-0.0007256820114029949
 10
2020.0
 20
-0.0007256820114029949
 10
2060.0
 20
-0.0007256820114029949
 10
2100.0
 20
-0.0007256820114029949
 10
2101.33517682333
 20
-0.0011069802582203963
 10
2102.6703534833246
 20
-0.001869576720758318
 10
2104.005529871092
 20
-0.003013471336823001
 10
2105.3407058777425
 20
-0.004538664013123813
 10
2106.6758813943843
 20
-0.0064451546252732575
 10
2108.0110563121275
 20
-0.00873294301778698
 10
2109.346230522082
 20
-0.011402029004083785
 10
2110.6814039153564
 20
-0.014452412366485649
 10
2112.016576383061
 20
-0.01788409285621774
 10
2113.351747816305
 20
-0.021697070193408434
 10
2114.686918106198
 20
-0.02589134406708934
 10
2116.02208714385
 20
-0.030466914135195332
 10
2117.3572548203715
 20
-0.03542378002456456
 10
2118.6924210268717
 20
-0.0407619413309385
 10
2120.0275856544613
 20
-0.04648139761896198
 10
2121.3627485942507
 20
-0.0525821484221832
 10
2122.6979097373496
 20
-0.05906419324305379
 10
2124.0330689748694
 20
-0.06592753155292887
 10
2125.36822619792
 20
-0.07317216279206701
 10
2126.7033812976133
 20
-0.08079808636963039
 10
2128.0385341650594
 20
-0.08880530166368475
 10
2129.3736846913703
 20
-0.09719380802119951
 10
2130.708832767657
 20
-0.10596360475804778
 10
2132.0439782850312
 20
-0.11511469115900644
 10
2170.3558037411176
 20
-15.984392394340807
 10
2208.667629197204
 20
-31.85367009752261
 10
2246.9794546532908
 20
-47.72294780070441
 10
2285.291280109377
 20
-63.59222550388621
 10
2323.6031055654635
 20
-79.46150320706802
 10
2361.91493102155
 20
-95.33078091024981
 10
2400.2267564776366
 20
-111.20005861343164
 10
2438.538581933723
 20
-127.06933631661342
 10
2476.8504073898093
 20
-142.9386140197952
 10
2515.1622328458957
 20
-158.80789172297702
 10
2553.4740583019825
 20
-174.67716942615883
 10
2591.785883758069
 20
-190.5464471293406
 10
2630.097709214155
 20
-206.41572483252241
 10
2668.4095346702416
 20
-222.28500253570425
 10
2706.7213601263284
 20
-238.154280238886
 10
2745.0331855824147
 20
-254.0235579420678
 10
2783.345011038501
 20
-269.89283564524965
 10
2821.6568364945874
 20
-285.76211334843146
 10
2859.968661950674
 20
-301.63139105161326
  0
LWPOLYLINE
  5
F7
330
17
100
AcDbEntity
  8
PIPE
100
AcDbPolyline
 90
49
 70
0
 10
1900.0
 20
-25.500725682011403
 10
1940.0
 20
-25.500725682011403
 10
1980.0
 20
-25.500725682011403
 10
2020.0
 20
-25.500725682011403
 10
2060.0
 20
-25.500725682011403
 10
2100.0
 20
-25.500725682011403
 10
2101.33517682333
 20
-25.50110698025822
 10
2102.6703534833246
 20
-25.501869576720757
 10
2104.005529871092
 20
-25.50301347133682
 10
2105.3407058777425
 20
-25.504538664013126
 10
2106.6758813943843
 20
-25.506445154625272
 10
2108.0110563121275
 20
-25.508732943017787
 10
2109.346230522082
 20
-25.511402029004085
 10
2110.6814039153564
 20
-25.514452412366484
 10
2112.016576383061
 20
-25.517884092856217
 10
2113.351747816305
 20
-25.521697070193408
 10
2114.686918106198
 20
-25.52589134406709
 10
2116.02208714385
 20
-25.530466914135197
 10
2117.3572548203715
 20
-25.535423780024566
 10
2118.6924210268717
 20
-25.54076194133094
 10
2120.0275856544613
 20
-25.54648139761896
 10
2121.3627485942507
 20
-25.552582148422182
 10
2122.6979097373496
 20
-25.559064193243053
 10
2124.0330689748694
 20
-25.56592753155293
 10
2125.36822619792
 20
-25.573172162792066
 10
2126.7033812976133
 20
-25.58079808636963
 10
2128.0385341650594
 20
-25.588805301663683
 10
2129.3736846913703
 20
-25.5971938080212
 10
2130.708832767657
 20
-25.60596360475805
 10
2132.0439782850312
 20
-25.615114691159008
 10
2170.3558037411176
 20
-41.48439239434081
 10
2208.667629197204
 20
-57.35367009752261
 10
2246.9794546532908
 20
-73.22294780070442
 10
2285.291280109377
 20
-89.09222550388621
 10
2323.6031055654635
 20
-104.96150320706802
 10
2361.91493102155
 20
-120.83078091024981
 10
2400.2267564776366
 20
-136.70005861343162
 10
2438.538581933723
 20
-152.56933631661343
 10
2476.8504073898093
 20
-168.4386140197952
 10
2515.1622328458957
 20
-184.30789172297702
 10
2553.4740583019825
 20
-200.17716942615883
 10
2591.785883758069
 20
-216.0464471293406
 10
2630.097709214155
 20
-231.91572483252241
 10
2668.4095346702416
 20
-247.78500253570425
 10
2706.7213601263284
 20
-263.65428023888603
 10
2745.0331855824147
 20
-279.5235579420678
 10
2783.345011038501
 20
-295.39283564524965
 10
2821.6568364945874
 20
-311.26211334843146
 10
2859.968661950674
 20
-327.13139105161326
  0
LWPOLYLINE
  5
F8
330
17
100
AcDbEntity
  8
PIPE
100
AcDbPolyline
 90
49
 70
0
 10
1900.0
 20
25.499274317988597
 10
1940.0
 20
25.499274317988597
 10
1980.0
 20
25.499274317988597
 10
2020.0
 20
25.499274317988597
 10
2060.0
 20
25.499274317988597
 10
2100.0
 20
25.499274317988597
 10
2101.33517682333
 20
25.49889301974178
 10
2102.6703534833246
 20
25.498130423279243
 10
2104.005529871092
 20
25.49698652866318
 10
2105.3407058777425
 20
25.495461335986874
 10
2106.6758813943843
 20
25.493554845374728
 10
2108.0110563121275
 20
25.491267056982213
 10
2109.346230522082
 20
25.488597970995915
 10
2110.6814039153564
 20
25.485547587633516
 10
2112.016576383061
 20
25.482115907143783
 10
2113.351747816305
 20
25.478302929806592
 10
2114.686918106198
 20
25.47410865593291
 10
2116.02208714385
 20
25.469533085864803
 10
2117.3572548203715
 20
25.464576219975434
 10
2118.6924210268717
 20
25.45923805866906
 10
2120.0275856544613
 20
25.45351860238104
 10
2121.3627485942507
 20
25.447417851577818
 10
2122.6979097373496
 20
25.440935806756947
 10
2124.0330689748694
 20
25.43407246844707
 10
2125.36822619792
 20
25.426827837207934
 10
2126.7033812976133
 20
25.41920191363037
 10
2128.0385341650594
 20
25.411194698336317
 10
2129.3736846913703
 20
25.4028061919788
 10
2130.708832767657
 20
25.39403639524195
 10
2132.0439782850312
 20
25.384885308840992
 10
2170.3558037411176
 20
9.515607605659193
 10
2208.667629197204
 20
-6.35367009752261
 10
2246.9794546532908
 20
-22.22294780070441
 10
2285.291280109377
 20
-38.09222550388621
 10
2323.6031055654635
 20
-53.96150320706802
 10
2361.91493102155
 20
-69.83078091024981
 10
2400.2267564776366
 20
-85.70005861343164
 10
2438.538581933723
 20
-101.56933631661342
 10
2476.8504073898093
 20
-117.43861401979521
 10
2515.1622328458957
 20
-133.30789172297702
 10
2553.4740583019825
 20
-149.17716942615883
 10
2591.785883758069
 20
-165.0464471293406
 10
2630.097709214155
 20
-180.91572483252241
 10
2668.4095346702416
 20
-196.78500253570425
 10
2706.7213601263284
 20
-212.654280238886
 10
2745.0331855824147
 20
-228.5235579420678
 10
2783.345011038501
 20
-244.39283564524965
 10
2821.6568364945874
 20
-260.26211334843146
 10
2859.968661950674
 20
-276.13139105161326
  0
CIRCLE
  5
F9
330
17
100
AcDbEntity
  8
BEND
100
AcDbCircle
 10
2132.0
 20
-0.0
 30
0.0
 40
18.0
  0
TEXT
  5
FA
330
17
100
AcDbEntity
  8
BEND
100
AcDbText
 10
2162.0
 20
40.0
 30
0.0
 40
38.0
  1
B1 22.5 R82
 11
2162.0
 21
40.0
 31
0.0
100
AcDbText
  0
LWPOLYLINE
  5
FB
330
17
100
AcDbEntity
  8
BOX
100
AcDbPolyline
 90
4
 70
1
 10
2860.0
 20
237.0
 10
3310.0
 20
237.0
 10
3310.0
 20
487.0
 10
2860.0
 20
487.0
  0
LWPOLYLINE
  5
FC
330
17
100
AcDbEntity
  8
BOX
100
AcDbPolyline
 90
4
 70
1
 10
2860.0
 20
-487.0
 10
3310.0
 20
-487.0
 10
3310.0
 20
-237.0
 10
2860.0
 20
-237.0
  0
LWPOLYLINE
  5
FD
330
17
100
AcDbEntity
  8
PIPE
100
AcDbPolyline
 90
29
 70
0
 10
3310.0
 20
456.5
 10
3340.0
 20
456.5
 10
3370.0
 20
456.5
 10
3371.178097197056
 20
456.50033643962956
 10
3372.3561942499923
 20
456.50100931886124
 10
3373.5342910627282
 20
456.5020186376401
 10
3374.7123875391844
 20
456.5033643958839
 10
3375.8904835832805
 20
456.50504659348286
 10
3377.0685790989364
 20
456.50706523029976
 10
3378.2466739900724
 20
456.50942030617
 10
3379.424768160609
 20
456.5121118209015
 10
3380.6028615144655
 20
456.5151397742748
 10
3381.7809539555633
 20
456.51850416604293
 10
3382.959045387822
 20
456.5222049959315
 10
3384.137135715162
 20
456.5262422636386
 10
3385.3152248415045
 20
456.5306159688351
 10
3386.4933126707697
 20
456.53532611116424
 10
3387.671399106878
 20
456.5403726902419
 10
3388.849484053751
 20
456.5457557056565
 10
3390.027567415309
 20
456.55147515696905
 10
3391.2056490954733
 20
456.557531043713
 10
3392.383728998165
 20
456.5639233653946
 10
3393.5618070273063
 20
456.57065212149246
 10
3394.739883086818
 20
456.5777173114578
 10
3395.9179570806214
 20
456.5851189347144
 10
3397.096028912639
 20
456.5928569906587
 10
3398.274098486793
 20
456.6009314786595
 10
3446.6391920137585
 20
476.63440916297196
 10
3495.0042855407246
 20
496.6678868472844
  0
LWPOLYLINE
  5
FE
330
17
100
AcDbEntity
  8
PIPE
100
AcDbPolyline
 90
29
 70
0
 10
3310.0
 20
434.0
 10
3340.0
 20
434.0
 10
3370.0
 20
434.0
 10
3371.178097197056
 20
434.00033643962956
 10
3372.3561942499923
 20
434.00100931886124
 10
3373.5342910627282
 20
434.0020186376401
 10
3374.7123875391844
 20
434.0033643958839
 10
3375.8904835832805
 20
434.00504659348286
 10
3377.0685790989364
 20
434.00706523029976
 10
3378.2466739900724
 20
434.00942030617
 10
3379.424768160609
 20
434.0121118209015
 10
3380.6028615144655
 20
434.0151397742748
 10
3381.7809539555633
 20
434.01850416604293
 10
3382.959045387822
 20
434.0222049959315
 10
3384.137135715162
 20
434.0262422636386
 10
3385.3152248415045
 20
434.0306159688351
 10
3386.4933126707697
 20
434.03532611116424
 10
3387.671399106878
 20
434.0403726902419
 10
3388.849484053751
 20
434.0457557056565
 10
3390.027567415309
 20
434.05147515696905
 10
3391.2056490954733
 20
434.057531043713
 10
3392.383728998165
 20
434.0639233653946
 10
3393.5618070273063
 20
434.07065212149246
 10
3394.739883086818
 20
434.0777173114578
 10
3395.9179570806214
 20
434.0851189347144
 10
3397.096028912639
 20
434.0928569906587
 10
3398.274098486793
 20
434.1009314786595
 10
3446.6391920137585
 20
454.13440916297196
 10
3495.0042855407246
 20
474.1678868472844
  0
LWPOLYLINE
  5
FF
330
17
100
AcDbEntity
  8
PIPE
100
AcDbPolyline
 90
29
 70
0
 10
3310.0
 20
479.0
 10
3340.0
 20
479.0
 10
3370.0
 20
479.0
 10
3371.178097197056
 20
479.00033643962956
 10
3372.3561942499923
 20
479.00100931886124
 10
3373.5342910627282
 20
479.0020186376401
 10
3374.7123875391844
 20
479.0033643958839
 10
3375.8904835832805
 20
479.00504659348286
 10
3377.0685790989364
 20
479.00706523029976
 10
3378.2466739900724
 20
479.00942030617
 10
3379.424768160609
 20
479.0121118209015
 10
3380.6028615144655
 20
479.0151397742748
 10
3381.7809539555633
 20
479.01850416604293
 10
3382.959045387822
 20
479.0222049959315
 10
3384.137135715162
 20
479.0262422636386
 10
3385.3152248415045
 20
479.0306159688351
 10
3386.4933126707697
 20
479.03532611116424
 10
3387.671399106878
 20
479.0403726902419
 10
3388.849484053751
 20
479.0457557056565
 10
3390.027567415309
 20
479.05147515696905
 10
3391.2056490954733
 20
479.057531043713
 10
3392.383728998165
 20
479.0639233653946
 10
3393.5618070273063
 20
479.07065212149246
 10
3394.739883086818
 20
479.0777173114578
 10
3395.9179570806214
 20
479.0851189347144
 10
3397.096028912639
 20
479.0928569906587
 10
3398.274098486793
 20
479.1009314786595
 10
3446.6391920137585
 20
499.13440916297196
 10
3495.0042855407246
 20
519.1678868472844
  0
CIRCLE
  5
100
330
17
100
AcDbEntity
  8
BEND
100
AcDbCircle
 10
3398.0
 20
457.0
 30
0.0
 40
18.0
  0
TEXT
  5
101
330
17
100
AcDbEntity
  8
BEND
100
AcDbText
 10
3428.0
 20
497.0
 30
0.0
 40
38.0
  1
B1 22.5 R72
 11
3428.0
 21
497.0
 31
0.0
100
AcDbText
  0
LWPOLYLINE
  5
102
330
17
100
AcDbEntity
  8
PIPE
100
AcDbPolyline
 90
29
 70
0
 10
3310.0
 20
-456.5
 10
3340.0
 20
-456.5
 10
3370.0
 20
-456.5
 10
3371.178097197056
 20
-456.50033643962956
 10
3372.3561942499923
 20
-456.50100931886124
 10
3373.5342910627282
 20
-456.5020186376401
 10
3374.7123875391844
 20
-456.5033643958839
 10
3375.8904835832805
 20
-456.50504659348286
 10
3377.0685790989364
 20
-456.50706523029976
 10
3378.2466739900724
 20
-456.50942030617
 10
3379.424768160609
 20
-456.5121118209015
 10
3380.6028615144655
 20
-456.5151397742748
 10
3381.7809539555633
 20
-456.51850416604293
 10
3382.959045387822
 20
-456.5222049959315
 10
3384.137135715162
 20
-456.5262422636386
 10
3385.3152248415045
 20
-456.5306159688351
 10
3386.4933126707697
 20
-456.53532611116424
 10
3387.671399106878
 20
-456.5403726902419
 10
3388.849484053751
 20
-456.5457557056565
 10
3390.027567415309
 20
-456.55147515696905
 10
3391.2056490954733
 20
-456.557531043713
 10
3392.383728998165
 20
-456.5639233653946
 10
3393.5618070273063
 20
-456.57065212149246
 10
3394.739883086818
 20
-456.5777173114578
 10
3395.9179570806214
 20
-456.5851189347144
 10
3397.096028912639
 20
-456.5928569906587
 10
3398.274098486793
 20
-456.6009314786595
 10
3446.6391920137585
 20
-476.63440916297196
 10
3495.0042855407246
 20
-496.6678868472844
  0
LWPOLYLINE
  5
103
330
17
100
AcDbEntity
  8
PIPE
100
AcDbPolyline
 90
29
 70
0
 10
3310.0
 20
-479.0
 10
3340.0
 20
-479.0
 10
3370.0
 20
-479.0
 10
3371.178097197056
 20
-479.00033643962956
 10
3372.3561942499923
 20
-479.00100931886124
 10
3373.5342910627282
 20
-479.0020186376401
 10
3374.7123875391844
 20
-479.0033643958839
 10
3375.8904835832805
 20
-479.00504659348286
 10
3377.0685790989364
 20
-479.00706523029976
 10
3378.2466739900724
 20
-479.00942030617
 10
3379.424768160609
 20
-479.0121118209015
 10
3380.6028615144655
 20
-479.0151397742748
 10
3381.7809539555633
 20
-479.01850416604293
 10
3382.959045387822
 20
-479.0222049959315
 10
3384.137135715162
 20
-479.0262422636386
 10
3385.3152248415045
 20
-479.0306159688351
 10
3386.4933126707697
 20
-479.03532611116424
 10
3387.671399106878
 20
-479.0403726902419
 10
3388.849484053751
 20
-479.0457557056565
 10
3390.027567415309
 20
-479.05147515696905
 10
3391.2056490954733
 20
-479.057531043713
 10
3392.383728998165
 20
-479.0639233653946
 10
3393.5618070273063
 20
-479.07065212149246
 10
3394.739883086818
 20
-479.0777173114578
 10
3395.9179570806214
 20
-479.0851189347144
 10
3397.096028912639
 20
-479.0928569906587
 10
3398.274098486793
 20
-479.1009314786595
 10
3446.6391920137585
 20
-499.13440916297196
 10
3495.0042855407246
 20
-519.1678868472844
  0
LWPOLYLINE
  5
104
330
17
100
AcDbEntity
  8
PIPE
100
AcDbPolyline
 90
29
 70
0
 10
3310.0
 20
-434.0
 10
3340.0
 20
-434.0
 10
3370.0
 20
-434.0
 10
3371.178097197056
 20
-434.00033643962956
 10
3372.3561942499923
 20
-434.00100931886124
 10
3373.5342910627282
 20
-434.0020186376401
 10
3374.7123875391844
 20
-434.0033643958839
 10
3375.8904835832805
 20
-434.00504659348286
 10
3377.0685790989364
 20
-434.00706523029976
 10
3378.2466739900724
 20
-434.00942030617
 10
3379.424768160609
 20
-434.0121118209015
 10
3380.6028615144655
 20
-434.0151397742748
 10
3381.7809539555633
 20
-434.01850416604293
 10
3382.959045387822
 20
-434.0222049959315
 10
3384.137135715162
 20
-434.0262422636386
 10
3385.3152248415045
 20
-434.0306159688351
 10
3386.4933126707697
 20
-434.03532611116424
 10
3387.671399106878
 20
-434.0403726902419
 10
3388.849484053751
 20
-434.0457557056565
 10
3390.027567415309
 20
-434.05147515696905
 10
3391.2056490954733
 20
-434.057531043713
 10
3392.383728998165
 20
-434.0639233653946
 10
3393.5618070273063
 20
-434.07065212149246
 10
3394.739883086818
 20
-434.0777173114578
 10
3395.9179570806214
 20
-434.0851189347144
 10
3397.096028912639
 20
-434.0928569906587
 10
3398.274098486793
 20
-434.1009314786595
 10
3446.6391920137585
 20
-454.13440916297196
 10
3495.0042855407246
 20
-474.1678868472844
  0
CIRCLE
  5
105
330
17
100
AcDbEntity
  8
BEND
100
AcDbCircle
 10
3398.0
 20
-457.0
 30
0.0
 40
18.0
  0
TEXT
  5
106
330
17
100
AcDbEntity
  8
BEND
100
AcDbText
 10
3428.0
 20
-417.0
 30
0.0
 40
38.0
  1
B1 22.5 R72
 11
3428.0
 21
-417.0
 31
0.0
100
AcDbText
  0
LWPOLYLINE
  5
107
330
17
100
AcDbEntity
  8
PIPE
100
AcDbPolyline
 90
5
 70
0
 10
3495.0042855407246
 20
496.6678868472844
 10
3538.885902563031
 20
514.8442477567856
 10
3582.7675195853367
 20
533.0206086662868
 10
3626.649136607643
 20
551.196969575788
 10
3670.5307536299492
 20
569.3733304852891
  0
LWPOLYLINE
  5
108
330
17
100
AcDbEntity
  8
PIPE
100
AcDbPolyline
 90
5
 70
0
 10
3495.0042855407246
 20
464.9178868472844
 10
3538.885902563031
 20
483.09424775678565
 10
3582.7675195853367
 20
501.27060866628676
 10
3626.649136607643
 20
519.446969575788
 10
3670.5307536299492
 20
537.6233304852891
  0
LWPOLYLINE
  5
109
330
17
100
AcDbEntity
  8
PIPE
100
AcDbPolyline
 90
5
 70
0
 10
3495.0042855407246
 20
528.4178868472844
 10
3538.885902563031
 20
546.5942477567856
 10
3582.7675195853367
 20
564.7706086662868
 10
3626.649136607643
 20
582.946969575788
 10
3670.5307536299492
 20
601.1233304852891
  0
LWPOLYLINE
  5
10A
330
17
100
AcDbEntity
  8
PIPE
100
AcDbPolyline
 90
5
 70
0
 10
3495.0042855407246
 20
-496.6678868472844
 10
3538.885902563031
 20
-514.8442477567856
 10
3582.7675195853367
 20
-533.0206086662868
 10
3626.649136607643
 20
-551.196969575788
 10
3670.5307536299492
 20
-569.3733304852891
  0
LWPOLYLINE
  5
10B
330
17
100
AcDbEntity
  8
PIPE
100
AcDbPolyline
 90
5
 70
0
 10
3495.0042855407246
 20
-528.4178868472844
 10
3538.885902563031
 20
-546.5942477567856
 10
3582.7675195853367
 20
-564.7706086662868
 10
3626.649136607643
 20
-582.946969575788
 10
3670.5307536299492
 20
-601.1233304852891
  0
LWPOLYLINE
  5
10C
330
17
100
AcDbEntity
  8
PIPE
100
AcDbPolyline
 90
5
 70
0
 10
3495.0042855407246
 20
-464.9178868472844
 10
3538.885902563031
 20
-483.09424775678565
 10
3582.7675195853367
 20
-501.27060866628676
 10
3626.649136607643
 20
-519.446969575788
 10
3670.5307536299492
 20
-537.6233304852891
  0
CIRCLE
  5
10D
330
17
100
AcDbEntity
  8
HANGER
100
AcDbCircle
 10
300.0
 20
-37.0
 30
0.0
 40
12.0
  0
CIRCLE
  5
10E
330
17
100
AcDbEntity
  8
HANGER
100
AcDbCircle
 10
1090.0
 20
0.0
 30
0.0
 40
12.0
  0
CIRCLE
  5
10F
330
17
100
AcDbEntity
  8
HANGER
100
AcDbCircle
 10
1820.0
 20
0.0
 30
0.0
 40
12.0
  0
CIRCLE
  5
110
330
17
100
AcDbEntity
  8
HANGER
100
AcDbCircle
 10
2920.0
 20
362.0
 30
0.0
 40
12.0
  0
CIRCLE
  5
111
330
17
100
AcDbEntity
  8
HANGER
100
AcDbCircle
 10
2920.0
 20
-362.0
 30
0.0
 40
12.0
  0
CIRCLE
  5
112
330
17
100
AcDbEntity
  8
HANGER
100
AcDbCircle
 10
3270.0
 20
362.0
 30
0.0
 40
12.0
  0
CIRCLE
  5
113
330
17
100
AcDbEntity
  8
HANGER
100
AcDbCircle
 10
3270.0
 20
-362.0
 30
0.0
 40
12.0
  0
CIRCLE
  5
114
330
17
100
AcDbEntity
  8
HANGER
100
AcDbCircle
 10
1405.0
 20
0.0
 30
0.0
 40
12.0
  0
LINE
  5
115
330
17
100
AcDbEntity
  8
DIM
100
AcDbLine
 10
0.0
 20
1180.0
 30
0.0
 11
2703.0
 21
1180.0
 31
0.0
  0
LINE
  5
116
330
17
100
AcDbEntity
  8
DIM
100
AcDbLine
 10
0.0
 20
1150.0
 30
0.0
 11
0.0
 21
1210.0
 31
0.0
  0
LINE
  5
117
330
17
100
AcDbEntity
  8
DIM
100
AcDbLine
 10
2703.0
 20
1150.0
 30
0.0
 11
2703.0
 21
1210.0
 31
0.0
  0
TEXT
  5
118
330
17
100
AcDbEntity
  8
DIM
100
AcDbText
 10
1351.5
 20
1235.0
 30
0.0
 40
48.0
  1
колесная база 2703
 72
1
 11
1351.5
 21
1235.0
 31
0.0
100
AcDbText
 73
2
  0
LINE
  5
119
330
17
100
AcDbEntity
  8
DIM
100
AcDbLine
 10
0.0
 20
1320.0
 30
0.0
 11
3630.0
 21
1320.0
 31
0.0
  0
LINE
  5
11A
330
17
100
AcDbEntity
  8
DIM
100
AcDbLine
 10
0.0
 20
1290.0
 30
0.0
 11
0.0
 21
1350.0
 31
0.0
  0
LINE
  5
11B
330
17
100
AcDbEntity
  8
DIM
100
AcDbLine
 10
3630.0
 20
1290.0
 30
0.0
 11
3630.0
 21
1350.0
 31
0.0
  0
TEXT
  5
11C
330
17
100
AcDbEntity
  8
DIM
100
AcDbText
 10
1815.0
 20
1375.0
 30
0.0
 40
48.0
  1
X до заднего бампера 3630
 72
1
 11
1815.0
 21
1375.0
 31
0.0
100
AcDbText
 73
2
  0
LINE
  5
11D
330
17
100
AcDbEntity
  8
DIM
100
AcDbLine
 10
1900.0
 20
1460.0
 30
0.0
 11
2860.0
 21
1460.0
 31
0.0
  0
LINE
  5
11E
330
17
100
AcDbEntity
  8
DIM
100
AcDbLine
 10
1900.0
 20
1430.0
 30
0.0
 11
1900.0
 21
1490.0
 31
0.0
  0
LINE
  5
11F
330
17
100
AcDbEntity
  8
DIM
100
AcDbLine
 10
2860.0
 20
1430.0
 30
0.0
 11
2860.0
 21
1490.0
 31
0.0
  0
TEXT
  5
120
330
17
100
AcDbEntity
  8
DIM
100
AcDbText
 10
2380.0
 20
1515.0
 30
0.0
 40
48.0
  1
Y → вход банок 960
 72
1
 11
2380.0
 21
1515.0
 31
0.0
100
AcDbText
 73
2
  0
LINE
  5
121
330
17
100
AcDbEntity
  8
DIM
100
AcDbLine
 10
2860.0
 20
1600.0
 30
0.0
 11
3310.0
 21
1600.0
 31
0.0
  0
LINE
  5
122
330
17
100
AcDbEntity
  8
DIM
100
AcDbLine
 10
2860.0
 20
1570.0
 30
0.0
 11
2860.0
 21
1630.0
 31
0.0
  0
LINE
  5
123
330
17
100
AcDbEntity
  8
DIM
100
AcDbLine
 10
3310.0
 20
1570.0
 30
0.0
 11
3310.0
 21
1630.0
 31
0.0
  0
TEXT
  5
124
330
17
100
AcDbEntity
  8
DIM
100
AcDbText
 10
3085.0
 20
1655.0
 30
0.0
 40
48.0
  1
банка 450
 72
1
 11
3085.0
 21
1655.0
 31
0.0
100
AcDbText
 73
2
  0
LINE
  5
125
330
17
100
AcDbEntity
  8
DIM
100
AcDbLine
 10
3310.0
 20
1740.0
 30
0.0
 11
3685.0
 21
1740.0
 31
0.0
  0
LINE
  5
126
330
17
100
AcDbEntity
  8
DIM
100
AcDbLine
 10
3310.0
 20
1710.0
 30
0.0
 11
3310.0
 21
1770.0
 31
0.0
  0
LINE
  5
127
330
17
100
AcDbEntity
  8
DIM
100
AcDbLine
 10
3685.0
 20
1710.0
 30
0.0
 11
3685.0
 21
1770.0
 31
0.0
  0
TEXT
  5
128
330
17
100
AcDbEntity
  8
DIM
100
AcDbText
 10
3497.5
 20
1795.0
 30
0.0
 40
48.0
  1
банка → срез насадки 375
 72
1
 11
3497.5
 21
1795.0
 31
0.0
100
AcDbText
 73
2
  0
TEXT
  5
129
330
17
100
AcDbEntity
  8
TEXT
100
AcDbText
 10
-885.0
 20
-1250.0
 30
0.0
 40
70.0
  1
ВИД СВЕРХУ — 1:1, мм (X от оси передних колёс)
 11
-885.0
 21
-1250.0
 31
0.0
100
AcDbText
  0
TEXT
  5
12A
330
17
100
AcDbEntity
  8
TEXT
100
AcDbText
 10
0.0
 20
-1700.0
 30
0.0
 40
60.0
  1
РАСКРОЙ (развертка = длина по оси трубы; гибы отдельными позициями)
 11
0.0
 21
-1700.0
 31
0.0
100
AcDbText
  0
TEXT
  5
12B
330
17
100
AcDbEntity
  8
TEXT
100
AcDbText
 10
0.0
 20
-1850.0
 30
0.0
 40
40.0
  1
деталь
 11
0.0
 21
-1850.0
 31
0.0
100
AcDbText
  0
TEXT
  5
12C
330
17
100
AcDbEntity
  8
TEXT
100
AcDbText
 10
620.0
 20
-1850.0
 30
0.0
 40
40.0
  1
OD
 11
620.0
 21
-1850.0
 31
0.0
100
AcDbText
  0
TEXT
  5
12D
330
17
100
AcDbEntity
  8
TEXT
100
AcDbText
 10
1240.0
 20
-1850.0
 30
0.0
 40
40.0
  1
стенка
 11
1240.0
 21
-1850.0
 31
0.0
100
AcDbText
  0
TEXT
  5
12E
330
17
100
AcDbEntity
  8
TEXT
100
AcDbText
 10
1860.0
 20
-1850.0
 30
0.0
 40
40.0
  1
развертка
 11
1860.0
 21
-1850.0
 31
0.0
100
AcDbText
  0
TEXT
  5
12F
330
17
100
AcDbEntity
  8
TEXT
100
AcDbText
 10
2480.0
 20
-1850.0
 30
0.0
 40
40.0
  1
прямые, мм
 11
2480.0
 21
-1850.0
 31
0.0
100
AcDbText
  0
TEXT
  5
130
330
17
100
AcDbEntity
  8
TEXT
100
AcDbText
 10
3100.0
 20
-1850.0
 30
0.0
 40
40.0
  1
гибы
 11
3100.0
 21
-1850.0
 31
0.0
100
AcDbText
  0
TEXT
  5
131
330
17
100
AcDbEntity
  8
TEXT
100
AcDbText
 10
3720.0
 20
-1850.0
 30
0.0
 40
40.0
  1
R гиба
 11
3720.0
 21
-1850.0
 31
0.0
100
AcDbText
  0
TEXT
  5
132
330
17
100
AcDbEntity
  8
TEXT
100
AcDbText
 10
4340.0
 20
-1850.0
 30
0.0
 40
40.0
  1
масса
 11
4340.0
 21
-1850.0
 31
0.0
100
AcDbText
  0
TEXT
  5
133
330
17
100
AcDbEntity
  8
TEXT
100
AcDbText
 10
0.0
 20
-1970.0
 30
0.0
 40
34.0
  1
01_front
 11
0.0
 21
-1970.0
 31
0.0
100
AcDbText
  0
TEXT
  5
134
330
17
100
AcDbEntity
  8
TEXT
100
AcDbText
 10
620.0
 20
-1970.0
 30
0.0
 40
34.0
  1
57.0
 11
620.0
 21
-1970.0
 31
0.0
100
AcDbText
  0
TEXT
  5
135
330
17
100
AcDbEntity
  8
TEXT
100
AcDbText
 10
1240.0
 20
-1970.0
 30
0.0
 40
34.0
  1
1.2
 11
1240.0
 21
-1970.0
 31
0.0
100
AcDbText
  0
TEXT
  5
136
330
17
100
AcDbEntity
  8
TEXT
100
AcDbText
 10
1860.0
 20
-1970.0
 30
0.0
 40
34.0
  1
1334.6
 11
1860.0
 21
-1970.0
 31
0.0
100
AcDbText
  0
TEXT
  5
137
330
17
100
AcDbEntity
  8
TEXT
100
AcDbText
 10
2480.0
 20
-1970.0
 30
0.0
 40
34.0
  1
220; 456; 635
 11
2480.0
 21
-1970.0
 31
0.0
100
AcDbText
  0
TEXT
  5
138
330
17
100
AcDbEntity
  8
TEXT
100
AcDbText
 10
3100.0
 20
-1970.0
 30
0.0
 40
34.0
  1
2x 7.5P; 7.5P
 11
3100.0
 21
-1970.0
 31
0.0
100
AcDbText
  0
TEXT
  5
139
330
17
100
AcDbEntity
  8
TEXT
100
AcDbText
 10
3720.0
 20
-1970.0
 30
0.0
 40
34.0
  1
91.2
 11
3720.0
 21
-1970.0
 31
0.0
100
AcDbText
  0
TEXT
  5
13A
330
17
100
AcDbEntity
  8
TEXT
100
AcDbText
 10
4340.0
 20
-1970.0
 30
0.0
 40
34.0
  1
2.22
 11
4340.0
 21
-1970.0
 31
0.0
100
AcDbText
  0
TEXT
  5
13B
330
17
100
AcDbEntity
  8
TEXT
100
AcDbText
 10
0.0
 20
-2070.0
 30
0.0
 40
34.0
  1
02_resonator
 11
0.0
 21
-2070.0
 31
0.0
100
AcDbText
  0
TEXT
  5
13C
330
17
100
AcDbEntity
  8
TEXT
100
AcDbText
 10
620.0
 20
-2070.0
 30
0.0
 40
34.0
  1
114.0
 11
620.0
 21
-2070.0
 31
0.0
100
AcDbText
  0
TEXT
  5
13D
330
17
100
AcDbEntity
  8
TEXT
100
AcDbText
 10
1240.0
 20
-2070.0
 30
0.0
 40
34.0
  1
1.2
 11
1240.0
 21
-2070.0
 31
0.0
100
AcDbText
  0
TEXT
  5
13E
330
17
100
AcDbEntity
  8
TEXT
100
AcDbText
 10
1860.0
 20
-2070.0
 30
0.0
 40
34.0
  1
450.0
 11
1860.0
 21
-2070.0
 31
0.0
100
AcDbText
  0
TEXT
  5
13F
330
17
100
AcDbEntity
  8
TEXT
100
AcDbText
 10
2480.0
 20
-2070.0
 30
0.0
 40
34.0
  1
450
 11
2480.0
 21
-2070.0
 31
0.0
100
AcDbText
  0
TEXT
  5
140
330
17
100
AcDbEntity
  8
TEXT
100
AcDbText
 10
3100.0
 20
-2070.0
 30
0.0
 40
34.0
  1
0x 
 11
3100.0
 21
-2070.0
 31
0.0
100
AcDbText
  0
TEXT
  5
141
330
17
100
AcDbEntity
  8
TEXT
100
AcDbText
 10
3720.0
 20
-2070.0
 30
0.0
 40
34.0
  1

 11
3720.0
 21
-2070.0
 31
0.0
100
AcDbText
  0
TEXT
  5
142
330
17
100
AcDbEntity
  8
TEXT
100
AcDbText
 10
4340.0
 20
-2070.0
 30
0.0
 40
34.0
  1
2.48
 11
4340.0
 21
-2070.0
 31
0.0
100
AcDbText
  0
TEXT
  5
143
330
17
100
AcDbEntity
  8
TEXT
100
AcDbText
 10
0.0
 20
-2170.0
 30
0.0
 40
34.0
  1
03_mid
 11
0.0
 21
-2170.0
 31
0.0
100
AcDbText
  0
TEXT
  5
144
330
17
100
AcDbEntity
  8
TEXT
100
AcDbText
 10
620.0
 20
-2170.0
 30
0.0
 40
34.0
  1
57.0
 11
620.0
 21
-2170.0
 31
0.0
100
AcDbText
  0
TEXT
  5
145
330
17
100
AcDbEntity
  8
TEXT
100
AcDbText
 10
1240.0
 20
-2170.0
 30
0.0
 40
34.0
  1
1.2
 11
1240.0
 21
-2170.0
 31
0.0
100
AcDbText
  0
TEXT
  5
146
330
17
100
AcDbEntity
  8
TEXT
100
AcDbText
 10
1860.0
 20
-2170.0
 30
0.0
 40
34.0
  1
270.0
 11
1860.0
 21
-2170.0
 31
0.0
100
AcDbText
  0
TEXT
  5
147
330
17
100
AcDbEntity
  8
TEXT
100
AcDbText
 10
2480.0
 20
-2170.0
 30
0.0
 40
34.0
  1
270
 11
2480.0
 21
-2170.0
 31
0.0
100
AcDbText
  0
TEXT
  5
148
330
17
100
AcDbEntity
  8
TEXT
100
AcDbText
 10
3100.0
 20
-2170.0
 30
0.0
 40
34.0
  1
0x 
 11
3100.0
 21
-2170.0
 31
0.0
100
AcDbText
  0
TEXT
  5
149
330
17
100
AcDbEntity
  8
TEXT
100
AcDbText
 10
3720.0
 20
-2170.0
 30
0.0
 40
34.0
  1

 11
3720.0
 21
-2170.0
 31
0.0
100
AcDbText
  0
TEXT
  5
14A
330
17
100
AcDbEntity
  8
TEXT
100
AcDbText
 10
4340.0
 20
-2170.0
 30
0.0
 40
34.0
  1
0.45
 11
4340.0
 21
-2170.0
 31
0.0
100
AcDbText
  0
TEXT
  5
14B
330
17
100
AcDbEntity
  8
TEXT
100
AcDbText
 10
0.0
 20
-2270.0
 30
0.0
 40
34.0
  1
04_leg_L
 11
0.0
 21
-2270.0
 31
0.0
100
AcDbText
  0
TEXT
  5
14C
330
17
100
AcDbEntity
  8
TEXT
100
AcDbText
 10
620.0
 20
-2270.0
 30
0.0
 40
34.0
  1
51.0
 11
620.0
 21
-2270.0
 31
0.0
100
AcDbText
  0
TEXT
  5
14D
330
17
100
AcDbEntity
  8
TEXT
100
AcDbText
 10
1240.0
 20
-2270.0
 30
0.0
 40
34.0
  1
1.2
 11
1240.0
 21
-2270.0
 31
0.0
100
AcDbText
  0
TEXT
  5
14E
330
17
100
AcDbEntity
  8
TEXT
100
AcDbText
 10
1860.0
 20
-2270.0
 30
0.0
 40
34.0
  1
1019.9
 11
1860.0
 21
-2270.0
 31
0.0
100
AcDbText
  0
TEXT
  5
14F
330
17
100
AcDbEntity
  8
TEXT
100
AcDbText
 10
2480.0
 20
-2270.0
 30
0.0
 40
34.0
  1
200; 788
 11
2480.0
 21
-2270.0
 31
0.0
100
AcDbText
  0
TEXT
  5
150
330
17
100
AcDbEntity
  8
TEXT
100
AcDbText
 10
3100.0
 20
-2270.0
 30
0.0
 40
34.0
  1
1x 22.5Y
 11
3100.0
 21
-2270.0
 31
0.0
100
AcDbText
  0
TEXT
  5
151
330
17
100
AcDbEntity
  8
TEXT
100
AcDbText
 10
3720.0
 20
-2270.0
 30
0.0
 40
34.0
  1
81.6
 11
3720.0
 21
-2270.0
 31
0.0
100
AcDbText
  0
TEXT
  5
152
330
17
100
AcDbEntity
  8
TEXT
100
AcDbText
 10
4340.0
 20
-2270.0
 30
0.0
 40
34.0
  1
1.51
 11
4340.0
 21
-2270.0
 31
0.0
100
AcDbText
  0
TEXT
  5
153
330
17
100
AcDbEntity
  8
TEXT
100
AcDbText
 10
0.0
 20
-2370.0
 30
0.0
 40
34.0
  1
04_leg_R
 11
0.0
 21
-2370.0
 31
0.0
100
AcDbText
  0
TEXT
  5
154
330
17
100
AcDbEntity
  8
TEXT
100
AcDbText
 10
620.0
 20
-2370.0
 30
0.0
 40
34.0
  1
51.0
 11
620.0
 21
-2370.0
 31
0.0
100
AcDbText
  0
TEXT
  5
155
330
17
100
AcDbEntity
  8
TEXT
100
AcDbText
 10
1240.0
 20
-2370.0
 30
0.0
 40
34.0
  1
1.2
 11
1240.0
 21
-2370.0
 31
0.0
100
AcDbText
  0
TEXT
  5
156
330
17
100
AcDbEntity
  8
TEXT
100
AcDbText
 10
1860.0
 20
-2370.0
 30
0.0
 40
34.0
  1
1019.9
 11
1860.0
 21
-2370.0
 31
0.0
100
AcDbText
  0
TEXT
  5
157
330
17
100
AcDbEntity
  8
TEXT
100
AcDbText
 10
2480.0
 20
-2370.0
 30
0.0
 40
34.0
  1
200; 788
 11
2480.0
 21
-2370.0
 31
0.0
100
AcDbText
  0
TEXT
  5
158
330
17
100
AcDbEntity
  8
TEXT
100
AcDbText
 10
3100.0
 20
-2370.0
 30
0.0
 40
34.0
  1
1x 22.5Y
 11
3100.0
 21
-2370.0
 31
0.0
100
AcDbText
  0
TEXT
  5
159
330
17
100
AcDbEntity
  8
TEXT
100
AcDbText
 10
3720.0
 20
-2370.0
 30
0.0
 40
34.0
  1
81.6
 11
3720.0
 21
-2370.0
 31
0.0
100
AcDbText
  0
TEXT
  5
15A
330
17
100
AcDbEntity
  8
TEXT
100
AcDbText
 10
4340.0
 20
-2370.0
 30
0.0
 40
34.0
  1
1.51
 11
4340.0
 21
-2370.0
 31
0.0
100
AcDbText
  0
TEXT
  5
15B
330
17
100
AcDbEntity
  8
TEXT
100
AcDbText
 10
0.0
 20
-2470.0
 30
0.0
 40
34.0
  1
05_box_L
 11
0.0
 21
-2470.0
 31
0.0
100
AcDbText
  0
TEXT
  5
15C
330
17
100
AcDbEntity
  8
TEXT
100
AcDbText
 10
620.0
 20
-2470.0
 30
0.0
 40
34.0
  1
450x250x150
 11
620.0
 21
-2470.0
 31
0.0
100
AcDbText
  0
TEXT
  5
15D
330
17
100
AcDbEntity
  8
TEXT
100
AcDbText
 10
1240.0
 20
-2470.0
 30
0.0
 40
34.0
  1
1.2
 11
1240.0
 21
-2470.0
 31
0.0
100
AcDbText
  0
TEXT
  5
15E
330
17
100
AcDbEntity
  8
TEXT
100
AcDbText
 10
1860.0
 20
-2470.0
 30
0.0
 40
34.0
  1

 11
1860.0
 21
-2470.0
 31
0.0
100
AcDbText
  0
TEXT
  5
15F
330
17
100
AcDbEntity
  8
TEXT
100
AcDbText
 10
2480.0
 20
-2470.0
 30
0.0
 40
34.0
  1

 11
2480.0
 21
-2470.0
 31
0.0
100
AcDbText
  0
TEXT
  5
160
330
17
100
AcDbEntity
  8
TEXT
100
AcDbText
 10
3100.0
 20
-2470.0
 30
0.0
 40
34.0
  1
x завальцовка 2 шва
 11
3100.0
 21
-2470.0
 31
0.0
100
AcDbText
  0
TEXT
  5
161
330
17
100
AcDbEntity
  8
TEXT
100
AcDbText
 10
3720.0
 20
-2470.0
 30
0.0
 40
34.0
  1

 11
3720.0
 21
-2470.0
 31
0.0
100
AcDbText
  0
TEXT
  5
162
330
17
100
AcDbEntity
  8
TEXT
100
AcDbText
 10
4340.0
 20
-2470.0
 30
0.0
 40
34.0
  1
4.8
 11
4340.0
 21
-2470.0
 31
0.0
100
AcDbText
  0
TEXT
  5
163
330
17
100
AcDbEntity
  8
TEXT
100
AcDbText
 10
0.0
 20
-2570.0
 30
0.0
 40
34.0
  1
05_box_R
 11
0.0
 21
-2570.0
 31
0.0
100
AcDbText
  0
TEXT
  5
164
330
17
100
AcDbEntity
  8
TEXT
100
AcDbText
 10
620.0
 20
-2570.0
 30
0.0
 40
34.0
  1
450x250x150
 11
620.0
 21
-2570.0
 31
0.0
100
AcDbText
  0
TEXT
  5
165
330
17
100
AcDbEntity
  8
TEXT
100
AcDbText
 10
1240.0
 20
-2570.0
 30
0.0
 40
34.0
  1
1.2
 11
1240.0
 21
-2570.0
 31
0.0
100
AcDbText
  0
TEXT
  5
166
330
17
100
AcDbEntity
  8
TEXT
100
AcDbText
 10
1860.0
 20
-2570.0
 30
0.0
 40
34.0
  1

 11
1860.0
 21
-2570.0
 31
0.0
100
AcDbText
  0
TEXT
  5
167
330
17
100
AcDbEntity
  8
TEXT
100
AcDbText
 10
2480.0
 20
-2570.0
 30
0.0
 40
34.0
  1

 11
2480.0
 21
-2570.0
 31
0.0
100
AcDbText
  0
TEXT
  5
168
330
17
100
AcDbEntity
  8
TEXT
100
AcDbText
 10
3100.0
 20
-2570.0
 30
0.0
 40
34.0
  1
x завальцовка 2 шва
 11
3100.0
 21
-2570.0
 31
0.0
100
AcDbText
  0
TEXT
  5
169
330
17
100
AcDbEntity
  8
TEXT
100
AcDbText
 10
3720.0
 20
-2570.0
 30
0.0
 40
34.0
  1

 11
3720.0
 21
-2570.0
 31
0.0
100
AcDbText
  0
TEXT
  5
16A
330
17
100
AcDbEntity
  8
TEXT
100
AcDbText
 10
4340.0
 20
-2570.0
 30
0.0
 40
34.0
  1
4.8
 11
4340.0
 21
-2570.0
 31
0.0
100
AcDbText
  0
TEXT
  5
16B
330
17
100
AcDbEntity
  8
TEXT
100
AcDbText
 10
0.0
 20
-2670.0
 30
0.0
 40
34.0
  1
06_tail_L
 11
0.0
 21
-2670.0
 31
0.0
100
AcDbText
  0
TEXT
  5
16C
330
17
100
AcDbEntity
  8
TEXT
100
AcDbText
 10
620.0
 20
-2670.0
 30
0.0
 40
34.0
  1
45.0
 11
620.0
 21
-2670.0
 31
0.0
100
AcDbText
  0
TEXT
  5
16D
330
17
100
AcDbEntity
  8
TEXT
100
AcDbText
 10
1240.0
 20
-2670.0
 30
0.0
 40
34.0
  1
1.2
 11
1240.0
 21
-2670.0
 31
0.0
100
AcDbText
  0
TEXT
  5
16E
330
17
100
AcDbEntity
  8
TEXT
100
AcDbText
 10
1860.0
 20
-2670.0
 30
0.0
 40
34.0
  1
193.0
 11
1860.0
 21
-2670.0
 31
0.0
100
AcDbText
  0
TEXT
  5
16F
330
17
100
AcDbEntity
  8
TEXT
100
AcDbText
 10
2480.0
 20
-2670.0
 30
0.0
 40
34.0
  1
60; 105
 11
2480.0
 21
-2670.0
 31
0.0
100
AcDbText
  0
TEXT
  5
170
330
17
100
AcDbEntity
  8
TEXT
100
AcDbText
 10
3100.0
 20
-2670.0
 30
0.0
 40
34.0
  1
1x 22.5Y
 11
3100.0
 21
-2670.0
 31
0.0
100
AcDbText
  0
TEXT
  5
171
330
17
100
AcDbEntity
  8
TEXT
100
AcDbText
 10
3720.0
 20
-2670.0
 30
0.0
 40
34.0
  1
72.0
 11
3720.0
 21
-2670.0
 31
0.0
100
AcDbText
  0
TEXT
  5
172
330
17
100
AcDbEntity
  8
TEXT
100
AcDbText
 10
4340.0
 20
-2670.0
 30
0.0
 40
34.0
  1
0.25
 11
4340.0
 21
-2670.0
 31
0.0
100
AcDbText
  0
TEXT
  5
173
330
17
100
AcDbEntity
  8
TEXT
100
AcDbText
 10
0.0
 20
-2770.0
 30
0.0
 40
34.0
  1
06_tail_R
 11
0.0
 21
-2770.0
 31
0.0
100
AcDbText
  0
TEXT
  5
174
330
17
100
AcDbEntity
  8
TEXT
100
AcDbText
 10
620.0
 20
-2770.0
 30
0.0
 40
34.0
  1
45.0
 11
620.0
 21
-2770.0
 31
0.0
100
AcDbText
  0
TEXT
  5
175
330
17
100
AcDbEntity
  8
TEXT
100
AcDbText
 10
1240.0
 20
-2770.0
 30
0.0
 40
34.0
  1
1.2
 11
1240.0
 21
-2770.0
 31
0.0
100
AcDbText
  0
TEXT
  5
176
330
17
100
AcDbEntity
  8
TEXT
100
AcDbText
 10
1860.0
 20
-2770.0
 30
0.0
 40
34.0
  1
193.0
 11
1860.0
 21
-2770.0
 31
0.0
100
AcDbText
  0
TEXT
  5
177
330
17
100
AcDbEntity
  8
TEXT
100
AcDbText
 10
2480.0
 20
-2770.0
 30
0.0
 40
34.0
  1
60; 105
 11
2480.0
 21
-2770.0
 31
0.0
100
AcDbText
  0
TEXT
  5
178
330
17
100
AcDbEntity
  8
TEXT
100
AcDbText
 10
3100.0
 20
-2770.0
 30
0.0
 40
34.0
  1
1x 22.5Y
 11
3100.0
 21
-2770.0
 31
0.0
100
AcDbText
  0
TEXT
  5
179
330
17
100
AcDbEntity
  8
TEXT
100
AcDbText
 10
3720.0
 20
-2770.0
 30
0.0
 40
34.0
  1
72.0
 11
3720.0
 21
-2770.0
 31
0.0
100
AcDbText
  0
TEXT
  5
17A
330
17
100
AcDbEntity
  8
TEXT
100
AcDbText
 10
4340.0
 20
-2770.0
 30
0.0
 40
34.0
  1
0.25
 11
4340.0
 21
-2770.0
 31
0.0
100
AcDbText
  0
TEXT
  5
17B
330
17
100
AcDbEntity
  8
TEXT
100
AcDbText
 10
0.0
 20
-2870.0
 30
0.0
 40
34.0
  1
07_tip_L
 11
0.0
 21
-2870.0
 31
0.0
100
AcDbText
  0
TEXT
  5
17C
330
17
100
AcDbEntity
  8
TEXT
100
AcDbText
 10
620.0
 20
-2870.0
 30
0.0
 40
34.0
  1
63.5
 11
620.0
 21
-2870.0
 31
0.0
100
AcDbText
  0
TEXT
  5
17D
330
17
100
AcDbEntity
  8
TEXT
100
AcDbText
 10
1240.0
 20
-2870.0
 30
0.0
 40
34.0
  1
1.0
 11
1240.0
 21
-2870.0
 31
0.0
100
AcDbText
  0
TEXT
  5
17E
330
17
100
AcDbEntity
  8
TEXT
100
AcDbText
 10
1860.0
 20
-2870.0
 30
0.0
 40
34.0
  1
190.0
 11
1860.0
 21
-2870.0
 31
0.0
100
AcDbText
  0
TEXT
  5
17F
330
17
100
AcDbEntity
  8
TEXT
100
AcDbText
 10
2480.0
 20
-2870.0
 30
0.0
 40
34.0
  1
190
 11
2480.0
 21
-2870.0
 31
0.0
100
AcDbText
  0
TEXT
  5
180
330
17
100
AcDbEntity
  8
TEXT
100
AcDbText
 10
3100.0
 20
-2870.0
 30
0.0
 40
34.0
  1
0x 
 11
3100.0
 21
-2870.0
 31
0.0
100
AcDbText
  0
TEXT
  5
181
330
17
100
AcDbEntity
  8
TEXT
100
AcDbText
 10
3720.0
 20
-2870.0
 30
0.0
 40
34.0
  1

 11
3720.0
 21
-2870.0
 31
0.0
100
AcDbText
  0
TEXT
  5
182
330
17
100
AcDbEntity
  8
TEXT
100
AcDbText
 10
4340.0
 20
-2870.0
 30
0.0
 40
34.0
  1
0.29
 11
4340.0
 21
-2870.0
 31
0.0
100
AcDbText
  0
TEXT
  5
183
330
17
100
AcDbEntity
  8
TEXT
100
AcDbText
 10
0.0
 20
-2970.0
 30
0.0
 40
34.0
  1
07_tip_R
 11
0.0
 21
-2970.0
 31
0.0
100
AcDbText
  0
TEXT
  5
184
330
17
100
AcDbEntity
  8
TEXT
100
AcDbText
 10
620.0
 20
-2970.0
 30
0.0
 40
34.0
  1
63.5
 11
620.0
 21
-2970.0
 31
0.0
100
AcDbText
  0
TEXT
  5
185
330
17
100
AcDbEntity
  8
TEXT
100
AcDbText
 10
1240.0
 20
-2970.0
 30
0.0
 40
34.0
  1
1.0
 11
1240.0
 21
-2970.0
 31
0.0
100
AcDbText
  0
TEXT
  5
186
330
17
100
AcDbEntity
  8
TEXT
100
AcDbText
 10
1860.0
 20
-2970.0
 30
0.0
 40
34.0
  1
190.0
 11
1860.0
 21
-2970.0
 31
0.0
100
AcDbText
  0
TEXT
  5
187
330
17
100
AcDbEntity
  8
TEXT
100
AcDbText
 10
2480.0
 20
-2970.0
 30
0.0
 40
34.0
  1
190
 11
2480.0
 21
-2970.0
 31
0.0
100
AcDbText
  0
TEXT
  5
188
330
17
100
AcDbEntity
  8
TEXT
100
AcDbText
 10
3100.0
 20
-2970.0
 30
0.0
 40
34.0
  1
0x 
 11
3100.0
 21
-2970.0
 31
0.0
100
AcDbText
  0
TEXT
  5
189
330
17
100
AcDbEntity
  8
TEXT
100
AcDbText
 10
3720.0
 20
-2970.0
 30
0.0
 40
34.0
  1

 11
3720.0
 21
-2970.0
 31
0.0
100
AcDbText
  0
TEXT
  5
18A
330
17
100
AcDbEntity
  8
TEXT
100
AcDbText
 10
4340.0
 20
-2970.0
 30
0.0
 40
34.0
  1
0.29
 11
4340.0
 21
-2970.0
 31
0.0
100
AcDbText
  0
ENDSEC
  0
SECTION
  2
OBJECTS
  0
DICTIONARY
  5
A
330
0
100
AcDbDictionary
281
1
  3
ACAD_COLOR
350
B
  3
ACAD_GROUP
350
C
  3
ACAD_LAYOUT
350
D
  3
ACAD_MATERIAL
350
E
  3
ACAD_MLEADERSTYLE
350
F
  3
ACAD_MLINESTYLE
350
10
  3
ACAD_PLOTSETTINGS
350
11
  3
ACAD_PLOTSTYLENAME
350
12
  3
ACAD_SCALELIST
350
14
  3
ACAD_TABLESTYLE
350
15
  3
ACAD_VISUALSTYLE
350
16
  3
EZDXF_META
350
2D
  0
DICTIONARY
  5
B
330
A
100
AcDbDictionary
281
1
  0
DICTIONARY
  5
C
330
A
100
AcDbDictionary
281
1
  0
DICTIONARY
  5
D
330
A
100
AcDbDictionary
281
1
  3
Model
350
1A
  3
Layout1
350
1E
  0
DICTIONARY
  5
E
330
A
100
AcDbDictionary
281
1
  3
ByBlock
350
1F
  3
ByLayer
350
20
  3
Global
350
21
  0
DICTIONARY
  5
F
330
A
100
AcDbDictionary
281
1
  3
Standard
350
2C
  0
DICTIONARY
  5
10
330
A
100
AcDbDictionary
281
1
  3
Standard
350
22
  0
DICTIONARY
  5
11
330
A
100
AcDbDictionary
281
1
  0
ACDBDICTIONARYWDFLT
  5
12
330
A
100
AcDbDictionary
281
1
  3
Normal
350
13
100
AcDbDictionaryWithDefault
340
13
  0
ACDBPLACEHOLDER
  5
13
330
12
  0
DICTIONARY
  5
14
330
A
100
AcDbDictionary
281
1
  0
DICTIONARY
  5
15
330
A
100
AcDbDictionary
281
1
  0
DICTIONARY
  5
16
330
A
100
AcDbDictionary
281
1
  3
2dWireframe
350
5A
  3
Basic
350
5B
  3
Brighten
350
5C
  3
ColorChange
350
5D
  3
Conceptual
350
5E
  3
Dim
350
5F
  3
EdgeColorOff
350
60
  3
Facepattern
350
61
  3
Flat
350
62
  3
FlatWithEdges
350
63
  3
Gouraud
350
64
  3
GouraudWithEdges
350
65
  3
Hidden
350
66
  3
JitterOff
350
67
  3
Linepattern
350
68
  3
Modeling
350
69
  3
OverhangOff
350
6A
  3
Realistic
350
6B
  3
Shaded
350
6C
  3
Shaded with edges
350
6D
  3
Shades of Gray
350
6E
  3
Sketchy
350
6F
  3
Thicken
350
70
  3
Wireframe
350
71
  3
X-Ray
350
72
  0
LAYOUT
  5
1A
330
D
100
AcDbPlotSettings
  1

  4
A3
  6

 40
7.5
 41
20.0
 42
7.5
 43
20.0
 44
420.0
 45
297.0
 46
0.0
 47
0.0
 48
0.0
 49
0.0
140
0.0
141
0.0
142
1.0
143
1.0
 70
1024
 72
1
 73
0
 74
5
  7

 75
16
 76
0
 77
2
 78
300
147
1.0
148
0.0
149
0.0
100
AcDbLayout
  1
Model
 70
1
 71
0
 10
0.0
 20
0.0
 11
420.0
 21
297.0
 12
0.0
 22
0.0
 32
0.0
 14
1e+20
 24
1e+20
 34
1e+20
 15
-1e+20
 25
-1e+20
 35
-1e+20
146
0.0
 13
0.0
 23
0.0
 33
0.0
 16
1.0
 26
0.0
 36
0.0
 17
0.0
 27
1.0
 37
0.0
 76
1
330
17
  0
LAYOUT
  5
1E
330
D
100
AcDbPlotSettings
  1

  4
A3
  6

 40
7.5
 41
20.0
 42
7.5
 43
20.0
 44
420.0
 45
297.0
 46
0.0
 47
0.0
 48
0.0
 49
0.0
140
0.0
141
0.0
142
1.0
143
1.0
 70
0
 72
1
 73
0
 74
5
  7

 75
16
 76
0
 77
2
 78
300
147
1.0
148
0.0
149
0.0
100
AcDbLayout
  1
Layout1
 70
1
 71
1
 10
0.0
 20
0.0
 11
420.0
 21
297.0
 12
0.0
 22
0.0
 32
0.0
 14
1e+20
 24
1e+20
 34
1e+20
 15
-1e+20
 25
-1e+20
 35
-1e+20
146
0.0
 13
0.0
 23
0.0
 33
0.0
 16
1.0
 26
0.0
 36
0.0
 17
0.0
 27
1.0
 37
0.0
 76
1
330
1B
  0
MATERIAL
  5
1F
102
{ACAD_REACTORS
330
E
102
}
330
E
100
AcDbMaterial
  1
ByBlock
  2

 70
0
 40
1.0
 71
1
 41
1.0
 91
-1023410177
 42
1.0
 72
1
  3

 73
1
 74
1
 75
1
 44
0.5
 73
0
 45
1.0
 46
1.0
 77
1
  4

 78
1
 79
1
170
1
 48
1.0
171
1
  6

172
1
173
1
174
1
140
1.0
141
1.0
175
1
  7

176
1
177
1
178
1
143
1.0
179
1
  8

270
1
271
1
272
1
145
1.0
146
1.0
273
1
  9

274
1
275
1
276
1
 42
1.0
 72
1
  3

 73
1
 74
1
 75
1
 94
63
  0
MATERIAL
  5
20
102
{ACAD_REACTORS
330
E
102
}
330
E
100
AcDbMaterial
  1
ByLayer
  2

 70
0
 40
1.0
 71
1
 41
1.0
 91
-1023410177
 42
1.0
 72
1
  3

 73
1
 74
1
 75
1
 44
0.5
 73
0
 45
1.0
 46
1.0
 77
1
  4

 78
1
 79
1
170
1
 48
1.0
171
1
  6

172
1
173
1
174
1
140
1.0
141
1.0
175
1
  7

176
1
177
1
178
1
143
1.0
179
1
  8

270
1
271
1
272
1
145
1.0
146
1.0
273
1
  9

274
1
275
1
276
1
 42
1.0
 72
1
  3

 73
1
 74
1
 75
1
 94
63
  0
MATERIAL
  5
21
102
{ACAD_REACTORS
330
E
102
}
330
E
100
AcDbMaterial
  1
Global
  2

 70
0
 40
1.0
 71
1
 41
1.0
 91
-1023410177
 42
1.0
 72
1
  3

 73
1
 74
1
 75
1
 44
0.5
 73
0
 45
1.0
 46
1.0
 77
1
  4

 78
1
 79
1
170
1
 48
1.0
171
1
  6

172
1
173
1
174
1
140
1.0
141
1.0
175
1
  7

176
1
177
1
178
1
143
1.0
179
1
  8

270
1
271
1
272
1
145
1.0
146
1.0
273
1
  9

274
1
275
1
276
1
 42
1.0
 72
1
  3

 73
1
 74
1
 75
1
 94
63
  0
MLINESTYLE
  5
22
102
{ACAD_REACTORS
330
10
102
}
330
10
100
AcDbMlineStyle
  2
Standard
 70
0
  3

 62
256
 51
90.0
 52
90.0
 71
2
 49
0.5
 62
256
  6
BYLAYER
 49
-0.5
 62
256
  6
BYLAYER
  0
MLEADERSTYLE
  5
2C
102
{ACAD_REACTORS
330
F
102
}
330
F
100
AcDbMLeaderStyle
179
2
170
2
171
1
172
0
 90
2
 40
0.0
 41
0.0
173
1
 91
-1056964608
 92
-2
290
1
 42
2.0
291
1
 43
8.0
  3
Standard
 44
4.0
300

342
29
174
1
175
1
176
0
178
1
 93
-1056964608
 45
4.0
292
0
297
0
 46
4.0
 94
-1056964608
 47
1.0
 49
1.0
140
1.0
294
1
141
0.0
177
0
142
1.0
295
0
296
0
143
3.75
271
0
272
9
273
9
  0
DICTIONARY
  5
2D
330
A
100
AcDbDictionary
280
1
281
1
  3
CREATED_BY_EZDXF
350
2E
  3
WRITTEN_BY_EZDXF
350
18D
  0
DICTIONARYVAR
  5
2E
330
2D
100
DictionaryVariables
280
0
  1
1.4.4 @ 2026-10-07T11:25:39.875057+00:00
  0
VISUALSTYLE
  5
5A
102
{ACAD_REACTORS
330
16
102
}
330
16
100
AcDbVisualStyle
  2
2dWireframe
 70
4
 90
0
 40
0.6
 62
7
290
0
291
0
  0
VISUALSTYLE
  5
5B
102
{ACAD_REACTORS
330
16
102
}
330
16
100
AcDbVisualStyle
  2
Basic
 70
7
 90
1
 40
0.6
 62
7
290
0
291
1
  0
VISUALSTYLE
  5
5C
102
{ACAD_REACTORS
330
16
102
}
330
16
100
AcDbVisualStyle
  2
Brighten
 70
12
 90
2
 40
0.6
 62
7
290
0
291
1
  0
VISUALSTYLE
  5
5D
102
{ACAD_REACTORS
330
16
102
}
330
16
100
AcDbVisualStyle
  2
ColorChange
 70
16
 90
2
 40
0.6
 62
8
290
0
291
1
  0
VISUALSTYLE
  5
5E
102
{ACAD_REACTORS
330
16
102
}
330
16
100
AcDbVisualStyle
  2
Conceptual
 70
9
 90
3
 40
0.6
 62
7
290
0
291
0
  0
VISUALSTYLE
  5
5F
102
{ACAD_REACTORS
330
16
102
}
330
16
100
AcDbVisualStyle
  2
Dim
 70
11
 90
2
 40
0.6
 62
7
290
0
291
1
  0
VISUALSTYLE
  5
60
102
{ACAD_REACTORS
330
16
102
}
330
16
100
AcDbVisualStyle
  2
EdgeColorOff
 70
22
 90
2
 40
0.6
 62
7
290
0
291
1
  0
VISUALSTYLE
  5
61
102
{ACAD_REACTORS
330
16
102
}
330
16
100
AcDbVisualStyle
  2
Facepattern
 70
15
 90
2
 40
0.6
 62
7
290
0
291
1
  0
VISUALSTYLE
  5
62
102
{ACAD_REACTORS
330
16
102
}
330
16
100
AcDbVisualStyle
  2
Flat
 70
0
 90
2
 40
0.6
 62
7
290
0
291
1
  0
VISUALSTYLE
  5
63
102
{ACAD_REACTORS
330
16
102
}
330
16
100
AcDbVisualStyle
  2
FlatWithEdges
 70
1
 90
2
 40
0.6
 62
7
290
0
291
1
  0
VISUALSTYLE
  5
64
102
{ACAD_REACTORS
330
16
102
}
330
16
100
AcDbVisualStyle
  2
Gouraud
 70
2
 90
2
 40
0.6
 62
7
290
0
291
1
  0
VISUALSTYLE
  5
65
102
{ACAD_REACTORS
330
16
102
}
330
16
100
AcDbVisualStyle
  2
GouraudWithEdges
 70
3
 90
2
 40
0.6
 62
7
290
0
291
1
  0
VISUALSTYLE
  5
66
102
{ACAD_REACTORS
330
16
102
}
330
16
100
AcDbVisualStyle
  2
Hidden
 70
6
 90
1
 40
0.6
 62
7
290
0
291
0
  0
VISUALSTYLE
  5
67
102
{ACAD_REACTORS
330
16
102
}
330
16
100
AcDbVisualStyle
  2
JitterOff
 70
20
 90
2
 40
0.6
 62
7
290
0
291
1
  0
VISUALSTYLE
  5
68
102
{ACAD_REACTORS
330
16
102
}
330
16
100
AcDbVisualStyle
  2
Linepattern
 70
14
 90
2
 40
0.6
 62
7
290
0
291
1
  0
VISUALSTYLE
  5
69
102
{ACAD_REACTORS
330
16
102
}
330
16
100
AcDbVisualStyle
  2
Modeling
 70
10
 90
2
 40
0.6
 62
7
290
0
291
0
  0
VISUALSTYLE
  5
6A
102
{ACAD_REACTORS
330
16
102
}
330
16
100
AcDbVisualStyle
  2
OverhangOff
 70
21
 90
2
 40
0.6
 62
7
290
0
291
1
  0
VISUALSTYLE
  5
6B
102
{ACAD_REACTORS
330
16
102
}
330
16
100
AcDbVisualStyle
  2
Realistic
 70
8
 90
2
 40
0.6
 62
7
290
0
291
0
  0
VISUALSTYLE
  5
6C
102
{ACAD_REACTORS
330
16
102
}
330
16
100
AcDbVisualStyle
  2
Shaded
 70
27
 90
2
 40
0.6
 62
7
290
0
291
0
  0
VISUALSTYLE
  5
6D
102
{ACAD_REACTORS
330
16
102
}
330
16
100
AcDbVisualStyle
  2
Shaded with edges
 70
26
 90
2
 40
0.6
 62
7
290
0
291
0
  0
VISUALSTYLE
  5
6E
102
{ACAD_REACTORS
330
16
102
}
330
16
100
AcDbVisualStyle
  2
Shades of Gray
 70
23
 90
2
 40
0.6
 62
7
290
0
291
0
  0
VISUALSTYLE
  5
6F
102
{ACAD_REACTORS
330
16
102
}
330
16
100
AcDbVisualStyle
  2
Sketchy
 70
24
 90
1
 40
0.6
 62
7
290
0
291
0
  0
VISUALSTYLE
  5
70
102
{ACAD_REACTORS
330
16
102
}
330
16
100
AcDbVisualStyle
  2
Thicken
 70
13
 90
2
 40
0.6
 62
7
290
0
291
1
  0
VISUALSTYLE
  5
71
102
{ACAD_REACTORS
330
16
102
}
330
16
100
AcDbVisualStyle
  2
Wireframe
 70
5
 90
0
 40
0.6
 62
7
290
0
291
0
  0
VISUALSTYLE
  5
72
102
{ACAD_REACTORS
330
16
102
}
330
16
100
AcDbVisualStyle
  2
X-Ray
 70
25
 90
2
 40
0.5
 62
7
290
0
291
0
  0
DICTIONARYVAR
  5
18D
330
2D
100
DictionaryVariables
280
0
  1
1.4.4 @ 2026-10-07T11:25:39.890743+00:00
  0
ENDSEC
  0
EOF
